%TF.GenerationSoftware,KiCad,Pcbnew,8.0.4*%
%TF.CreationDate,2024-08-16T17:58:37+08:00*%
%TF.ProjectId,board,626f6172-642e-46b6-9963-61645f706362,v1.0.0*%
%TF.SameCoordinates,Original*%
%TF.FileFunction,Profile,NP*%
%FSLAX46Y46*%
G04 Gerber Fmt 4.6, Leading zero omitted, Abs format (unit mm)*
G04 Created by KiCad (PCBNEW 8.0.4) date 2024-08-16 17:58:37*
%MOMM*%
%LPD*%
G01*
G04 APERTURE LIST*
%TA.AperFunction,Profile*%
%ADD10C,0.150000*%
%TD*%
G04 APERTURE END LIST*
D10*
X181200000Y-110000000D02*
X164800000Y-110000000D01*
X182000000Y-109200000D02*
G75*
G02*
X181200000Y-110000000I-800000J0D01*
G01*
X222800000Y-110000000D02*
G75*
G02*
X222000000Y-109200000I0J800000D01*
G01*
X164000000Y-110800000D02*
G75*
G02*
X164800000Y-110000000I800000J0D01*
G01*
X222000000Y-109200000D02*
X222000000Y-102800000D01*
X164800000Y-188000000D02*
G75*
G02*
X164000000Y-187200000I0J800000D01*
G01*
X164000000Y-187200000D02*
X164000000Y-110800000D01*
X182000000Y-105800000D02*
G75*
G02*
X182800000Y-105000000I800000J0D01*
G01*
X200000000Y-102800000D02*
X200000000Y-104200000D01*
X221200000Y-102000000D02*
X200800000Y-102000000D01*
X240800000Y-112000000D02*
G75*
G02*
X240000000Y-111200000I0J800000D01*
G01*
X199200000Y-105000000D02*
X182800000Y-105000000D01*
X239200000Y-110000000D02*
X222800000Y-110000000D01*
X240000000Y-111200000D02*
X240000000Y-110800000D01*
X221200000Y-102000000D02*
G75*
G02*
X222000000Y-102800000I0J-800000D01*
G01*
X258000000Y-187200000D02*
G75*
G02*
X257200000Y-188000000I-800000J0D01*
G01*
X200000000Y-102800000D02*
G75*
G02*
X200800000Y-102000000I800000J0D01*
G01*
X257200000Y-112000000D02*
G75*
G02*
X258000000Y-112800000I0J-800000D01*
G01*
X239200000Y-110000000D02*
G75*
G02*
X240000000Y-110800000I0J-800000D01*
G01*
X164800000Y-188000000D02*
X257200000Y-188000000D01*
X258000000Y-187200000D02*
X258000000Y-112800000D01*
X200000000Y-104200000D02*
G75*
G02*
X199200000Y-105000000I-800000J0D01*
G01*
X182000000Y-105800000D02*
X182000000Y-109200000D01*
X257200000Y-112000000D02*
X240800000Y-112000000D01*
M02*
