%TF.GenerationSoftware,KiCad,Pcbnew,8.0.4*%
%TF.CreationDate,2024-08-16T23:39:26+08:00*%
%TF.ProjectId,board,626f6172-642e-46b6-9963-61645f706362,v1.0.0*%
%TF.SameCoordinates,Original*%
%TF.FileFunction,Soldermask,Top*%
%TF.FilePolarity,Negative*%
%FSLAX46Y46*%
G04 Gerber Fmt 4.6, Leading zero omitted, Abs format (unit mm)*
G04 Created by KiCad (PCBNEW 8.0.4) date 2024-08-16 23:39:26*
%MOMM*%
%LPD*%
G01*
G04 APERTURE LIST*
G04 Aperture macros list*
%AMRoundRect*
0 Rectangle with rounded corners*
0 $1 Rounding radius*
0 $2 $3 $4 $5 $6 $7 $8 $9 X,Y pos of 4 corners*
0 Add a 4 corners polygon primitive as box body*
4,1,4,$2,$3,$4,$5,$6,$7,$8,$9,$2,$3,0*
0 Add four circle primitives for the rounded corners*
1,1,$1+$1,$2,$3*
1,1,$1+$1,$4,$5*
1,1,$1+$1,$6,$7*
1,1,$1+$1,$8,$9*
0 Add four rect primitives between the rounded corners*
20,1,$1+$1,$2,$3,$4,$5,0*
20,1,$1+$1,$4,$5,$6,$7,0*
20,1,$1+$1,$6,$7,$8,$9,0*
20,1,$1+$1,$8,$9,$2,$3,0*%
%AMFreePoly0*
4,1,16,-0.214645,0.660355,-0.210957,0.656235,0.289043,0.031235,0.299694,-0.005522,0.289043,-0.031235,-0.210957,-0.656235,-0.244478,-0.674694,-0.250000,-0.675000,-0.500000,-0.675000,-0.535355,-0.660355,-0.550000,-0.625000,-0.550000,0.625000,-0.535355,0.660355,-0.500000,0.675000,-0.250000,0.675000,-0.214645,0.660355,-0.214645,0.660355,$1*%
%AMFreePoly1*
4,1,16,0.535355,0.660355,0.550000,0.625000,0.550000,-0.625000,0.535355,-0.660355,0.500000,-0.675000,-0.650000,-0.675000,-0.685355,-0.660355,-0.700000,-0.625000,-0.689043,-0.593765,-0.214031,0.000000,-0.689043,0.593765,-0.699694,0.630522,-0.681235,0.664043,-0.650000,0.675000,0.500000,0.675000,0.535355,0.660355,0.535355,0.660355,$1*%
%AMFreePoly2*
4,1,16,0.635355,0.285355,0.650000,0.250000,0.650000,-1.000000,0.635355,-1.035355,0.600000,-1.050000,0.564645,-1.035355,0.000000,-0.470710,-0.564645,-1.035355,-0.600000,-1.050000,-0.635355,-1.035355,-0.650000,-1.000000,-0.650000,0.250000,-0.635355,0.285355,-0.600000,0.300000,0.600000,0.300000,0.635355,0.285355,0.635355,0.285355,$1*%
%AMFreePoly3*
4,1,14,0.035355,0.435355,0.635355,-0.164645,0.650000,-0.200000,0.650000,-0.400000,0.635355,-0.435355,0.600000,-0.450000,-0.600000,-0.450000,-0.635355,-0.435355,-0.650000,-0.400000,-0.650000,-0.200000,-0.635355,-0.164645,-0.035355,0.435355,0.000000,0.450000,0.035355,0.435355,0.035355,0.435355,$1*%
G04 Aperture macros list end*
%ADD10RoundRect,0.050000X-0.400000X0.500000X-0.400000X-0.500000X0.400000X-0.500000X0.400000X0.500000X0*%
%ADD11C,1.000000*%
%ADD12RoundRect,0.050000X-0.750000X0.350000X-0.750000X-0.350000X0.750000X-0.350000X0.750000X0.350000X0*%
%ADD13C,2.100000*%
%ADD14FreePoly0,270.000000*%
%ADD15C,1.800000*%
%ADD16FreePoly0,90.000000*%
%ADD17C,0.900000*%
%ADD18FreePoly1,270.000000*%
%ADD19FreePoly1,90.000000*%
%ADD20FreePoly2,180.000000*%
%ADD21O,1.300000X1.850000*%
%ADD22FreePoly3,180.000000*%
%ADD23RoundRect,0.050000X0.889000X-0.889000X0.889000X0.889000X-0.889000X0.889000X-0.889000X-0.889000X0*%
%ADD24RoundRect,0.050000X0.600000X-0.450000X0.600000X0.450000X-0.600000X0.450000X-0.600000X-0.450000X0*%
%ADD25C,2.005000*%
%ADD26C,3.600000*%
%ADD27C,5.700000*%
%ADD28RoundRect,0.250000X-1.050000X-1.000000X1.050000X-1.000000X1.050000X1.000000X-1.050000X1.000000X0*%
%ADD29RoundRect,0.260000X-1.090000X-1.040000X1.090000X-1.040000X1.090000X1.040000X-1.090000X1.040000X0*%
%ADD30C,2.200000*%
G04 APERTURE END LIST*
D10*
%TO.C,PWR1*%
X207585000Y-168650000D03*
X207585000Y-161350000D03*
D11*
X206475000Y-166500000D03*
X206475000Y-163500000D03*
D10*
X205375000Y-168650000D03*
X205375000Y-161350000D03*
D12*
X208235000Y-162750000D03*
X208235000Y-165750000D03*
X208235000Y-167250000D03*
%TD*%
D13*
%TO.C,RST1*%
X196250000Y-164350000D03*
X189750000Y-164350000D03*
%TD*%
D14*
%TO.C,MCU1*%
X169800000Y-171450000D03*
D15*
X169800000Y-169330000D03*
D14*
X172340000Y-171450000D03*
D15*
X172340000Y-169330000D03*
D14*
X174880000Y-171450000D03*
D15*
X174880000Y-169330000D03*
D14*
X177420000Y-171450000D03*
D15*
X177420000Y-169330000D03*
D14*
X179960000Y-171450000D03*
D15*
X179960000Y-169330000D03*
D14*
X182500000Y-171450000D03*
D15*
X182500000Y-169330000D03*
D14*
X185040000Y-171450000D03*
D15*
X185040000Y-169330000D03*
D14*
X187580000Y-171450000D03*
D15*
X187580000Y-169330000D03*
D14*
X190120000Y-171450000D03*
D15*
X190120000Y-169330000D03*
D14*
X192660000Y-171450000D03*
D15*
X192660000Y-169330000D03*
D14*
X195200000Y-171450000D03*
D15*
X195200000Y-169330000D03*
D14*
X197740000Y-171450000D03*
D15*
X197740000Y-169330000D03*
X197740000Y-184570000D03*
D16*
X197740000Y-182450000D03*
D15*
X195200000Y-184570000D03*
D16*
X195200000Y-182450000D03*
D15*
X192660000Y-184570000D03*
D16*
X192660000Y-182450000D03*
D15*
X190120000Y-184570000D03*
D16*
X190120000Y-182450000D03*
D15*
X187580000Y-184570000D03*
D16*
X187580000Y-182450000D03*
D15*
X185040000Y-184570000D03*
D16*
X185040000Y-182450000D03*
D15*
X182500000Y-184570000D03*
D16*
X182500000Y-182450000D03*
D15*
X179960000Y-184570000D03*
D16*
X179960000Y-182450000D03*
D15*
X177420000Y-184570000D03*
D16*
X177420000Y-182450000D03*
D15*
X174880000Y-184570000D03*
D16*
X174880000Y-182450000D03*
D15*
X172340000Y-184570000D03*
D16*
X172340000Y-182450000D03*
D15*
X169800000Y-184570000D03*
D16*
X169800000Y-182450000D03*
D17*
X169800000Y-173550000D03*
D18*
X169800000Y-172175000D03*
D17*
X172340000Y-173550000D03*
D18*
X172340000Y-172175000D03*
D17*
X174880000Y-173550000D03*
D18*
X174880000Y-172175000D03*
D17*
X177420000Y-173550000D03*
D18*
X177420000Y-172175000D03*
D17*
X179960000Y-173550000D03*
D18*
X179960000Y-172175000D03*
D17*
X182500000Y-173550000D03*
D18*
X182500000Y-172175000D03*
D17*
X185040000Y-173550000D03*
D18*
X185040000Y-172175000D03*
D17*
X187580000Y-173550000D03*
D18*
X187580000Y-172175000D03*
D17*
X190120000Y-173550000D03*
D18*
X190120000Y-172175000D03*
D17*
X192660000Y-173550000D03*
D18*
X192660000Y-172175000D03*
D17*
X195200000Y-173550000D03*
D18*
X195200000Y-172175000D03*
D17*
X197740000Y-173550000D03*
D18*
X197740000Y-172175000D03*
D19*
X197740000Y-181725000D03*
D17*
X197740000Y-180350000D03*
D19*
X195200000Y-181725000D03*
D17*
X195200000Y-180350000D03*
D19*
X192660000Y-181725000D03*
D17*
X192660000Y-180350000D03*
D19*
X190120000Y-181725000D03*
D17*
X190120000Y-180350000D03*
D19*
X187580000Y-181725000D03*
D17*
X187580000Y-180350000D03*
D19*
X185040000Y-181725000D03*
D17*
X185040000Y-180350000D03*
D19*
X182500000Y-181725000D03*
D17*
X182500000Y-180350000D03*
D19*
X179960000Y-181725000D03*
D17*
X179960000Y-180350000D03*
D19*
X177420000Y-181725000D03*
D17*
X177420000Y-180350000D03*
D19*
X174880000Y-181725000D03*
D17*
X174880000Y-180350000D03*
D19*
X172340000Y-181725000D03*
D17*
X172340000Y-180350000D03*
D19*
X169800000Y-181725000D03*
D17*
X169800000Y-180350000D03*
%TD*%
D20*
%TO.C,JST1*%
X214000000Y-163666000D03*
X216000000Y-163666000D03*
D21*
X214000000Y-160850000D03*
X216000000Y-160850000D03*
D22*
X214000000Y-162650000D03*
X216000000Y-162650000D03*
%TD*%
D23*
%TO.C,D8*%
X218000000Y-131560000D03*
D24*
X218000000Y-129400000D03*
X218000000Y-126100000D03*
D25*
X218000000Y-123940000D03*
%TD*%
D23*
%TO.C,D13*%
X236000000Y-121560000D03*
D24*
X236000000Y-119400000D03*
X236000000Y-116100000D03*
D25*
X236000000Y-113940000D03*
%TD*%
D26*
%TO.C,S12*%
X226400000Y-144750000D03*
D27*
X229000000Y-139000000D03*
D26*
X231600000Y-144750000D03*
D28*
X237050000Y-143700000D03*
D29*
X222750000Y-144750000D03*
D30*
X224600000Y-134300000D03*
D26*
X224600000Y-143700000D03*
D30*
X226400000Y-133250000D03*
X231600000Y-133250000D03*
X233400000Y-134300000D03*
D26*
X233400000Y-143700000D03*
%TD*%
%TO.C,S14*%
X244400000Y-182750000D03*
D27*
X247000000Y-177000000D03*
D26*
X249600000Y-182750000D03*
D28*
X255050000Y-181700000D03*
D29*
X240750000Y-182750000D03*
D30*
X242600000Y-172300000D03*
D26*
X242600000Y-181700000D03*
D30*
X244400000Y-171250000D03*
X249600000Y-171250000D03*
X251400000Y-172300000D03*
D26*
X251400000Y-181700000D03*
%TD*%
%TO.C,S15*%
X244400000Y-164750000D03*
D27*
X247000000Y-159000000D03*
D26*
X249600000Y-164750000D03*
D28*
X255050000Y-163700000D03*
D29*
X240750000Y-164750000D03*
D30*
X242600000Y-154300000D03*
D26*
X242600000Y-163700000D03*
D30*
X244400000Y-153250000D03*
X249600000Y-153250000D03*
X251400000Y-154300000D03*
D26*
X251400000Y-163700000D03*
%TD*%
D23*
%TO.C,D16*%
X254000000Y-141560000D03*
D24*
X254000000Y-139400000D03*
X254000000Y-136100000D03*
D25*
X254000000Y-133940000D03*
%TD*%
D26*
%TO.C,S8*%
X208400000Y-136750000D03*
D27*
X211000000Y-131000000D03*
D26*
X213600000Y-136750000D03*
D28*
X219050000Y-135700000D03*
D29*
X204750000Y-136750000D03*
D30*
X206600000Y-126300000D03*
D26*
X206600000Y-135700000D03*
D30*
X208400000Y-125250000D03*
X213600000Y-125250000D03*
X215400000Y-126300000D03*
D26*
X215400000Y-135700000D03*
%TD*%
%TO.C,S17*%
X244400000Y-128750000D03*
D27*
X247000000Y-123000000D03*
D26*
X249600000Y-128750000D03*
D28*
X255050000Y-127700000D03*
D29*
X240750000Y-128750000D03*
D30*
X242600000Y-118300000D03*
D26*
X242600000Y-127700000D03*
D30*
X244400000Y-117250000D03*
X249600000Y-117250000D03*
X251400000Y-118300000D03*
D26*
X251400000Y-127700000D03*
%TD*%
D23*
%TO.C,D11*%
X236000000Y-157560000D03*
D24*
X236000000Y-155400000D03*
X236000000Y-152100000D03*
D25*
X236000000Y-149940000D03*
%TD*%
D26*
%TO.C,S5*%
X190400000Y-139750000D03*
D27*
X193000000Y-134000000D03*
D26*
X195600000Y-139750000D03*
D28*
X201050000Y-138700000D03*
D29*
X186750000Y-139750000D03*
D30*
X188600000Y-129300000D03*
D26*
X188600000Y-138700000D03*
D30*
X190400000Y-128250000D03*
X195600000Y-128250000D03*
X197400000Y-129300000D03*
D26*
X197400000Y-138700000D03*
%TD*%
%TO.C,S9*%
X208400000Y-118750000D03*
D27*
X211000000Y-113000000D03*
D26*
X213600000Y-118750000D03*
D28*
X219050000Y-117700000D03*
D29*
X204750000Y-118750000D03*
D30*
X206600000Y-108300000D03*
D26*
X206600000Y-117700000D03*
D30*
X208400000Y-107250000D03*
X213600000Y-107250000D03*
X215400000Y-108300000D03*
D26*
X215400000Y-117700000D03*
%TD*%
D23*
%TO.C,D12*%
X236000000Y-139560000D03*
D24*
X236000000Y-137400000D03*
X236000000Y-134100000D03*
D25*
X236000000Y-131940000D03*
%TD*%
D23*
%TO.C,D2*%
X182000000Y-139560000D03*
D24*
X182000000Y-137400000D03*
X182000000Y-134100000D03*
D25*
X182000000Y-131940000D03*
%TD*%
D23*
%TO.C,D7*%
X218000000Y-149560000D03*
D24*
X218000000Y-147400000D03*
X218000000Y-144100000D03*
D25*
X218000000Y-141940000D03*
%TD*%
D26*
%TO.C,S3*%
X172400000Y-126750000D03*
D27*
X175000000Y-121000000D03*
D26*
X177600000Y-126750000D03*
D28*
X183050000Y-125700000D03*
D29*
X168750000Y-126750000D03*
D30*
X170600000Y-116300000D03*
D26*
X170600000Y-125700000D03*
D30*
X172400000Y-115250000D03*
X177600000Y-115250000D03*
X179400000Y-116300000D03*
D26*
X179400000Y-125700000D03*
%TD*%
D23*
%TO.C,D17*%
X254000000Y-123560000D03*
D24*
X254000000Y-121400000D03*
X254000000Y-118100000D03*
D25*
X254000000Y-115940000D03*
%TD*%
D23*
%TO.C,D4*%
X200000000Y-152560000D03*
D24*
X200000000Y-150400000D03*
X200000000Y-147100000D03*
D25*
X200000000Y-144940000D03*
%TD*%
D23*
%TO.C,D1*%
X182000000Y-157560000D03*
D24*
X182000000Y-155400000D03*
X182000000Y-152100000D03*
D25*
X182000000Y-149940000D03*
%TD*%
D23*
%TO.C,D9*%
X218000000Y-113560000D03*
D24*
X218000000Y-111400000D03*
X218000000Y-108100000D03*
D25*
X218000000Y-105940000D03*
%TD*%
D26*
%TO.C,S2*%
X172400000Y-144750000D03*
D27*
X175000000Y-139000000D03*
D26*
X177600000Y-144750000D03*
D28*
X183050000Y-143700000D03*
D29*
X168750000Y-144750000D03*
D30*
X170600000Y-134300000D03*
D26*
X170600000Y-143700000D03*
D30*
X172400000Y-133250000D03*
X177600000Y-133250000D03*
X179400000Y-134300000D03*
D26*
X179400000Y-143700000D03*
%TD*%
D23*
%TO.C,D3*%
X182000000Y-121560000D03*
D24*
X182000000Y-119400000D03*
X182000000Y-116100000D03*
D25*
X182000000Y-113940000D03*
%TD*%
D23*
%TO.C,D6*%
X200000000Y-116560000D03*
D24*
X200000000Y-114400000D03*
X200000000Y-111100000D03*
D25*
X200000000Y-108940000D03*
%TD*%
D26*
%TO.C,S13*%
X226400000Y-126750000D03*
D27*
X229000000Y-121000000D03*
D26*
X231600000Y-126750000D03*
D28*
X237050000Y-125700000D03*
D29*
X222750000Y-126750000D03*
D30*
X224600000Y-116300000D03*
D26*
X224600000Y-125700000D03*
D30*
X226400000Y-115250000D03*
X231600000Y-115250000D03*
X233400000Y-116300000D03*
D26*
X233400000Y-125700000D03*
%TD*%
D23*
%TO.C,D10*%
X236000000Y-175560000D03*
D24*
X236000000Y-173400000D03*
X236000000Y-170100000D03*
D25*
X236000000Y-167940000D03*
%TD*%
D26*
%TO.C,S10*%
X226400000Y-180750000D03*
D27*
X229000000Y-175000000D03*
D26*
X231600000Y-180750000D03*
D28*
X237050000Y-179700000D03*
D29*
X222750000Y-180750000D03*
D30*
X224600000Y-170300000D03*
D26*
X224600000Y-179700000D03*
D30*
X226400000Y-169250000D03*
X231600000Y-169250000D03*
X233400000Y-170300000D03*
D26*
X233400000Y-179700000D03*
%TD*%
%TO.C,S11*%
X226400000Y-162750000D03*
D27*
X229000000Y-157000000D03*
D26*
X231600000Y-162750000D03*
D28*
X237050000Y-161700000D03*
D29*
X222750000Y-162750000D03*
D30*
X224600000Y-152300000D03*
D26*
X224600000Y-161700000D03*
D30*
X226400000Y-151250000D03*
X231600000Y-151250000D03*
X233400000Y-152300000D03*
D26*
X233400000Y-161700000D03*
%TD*%
%TO.C,S16*%
X244400000Y-146750000D03*
D27*
X247000000Y-141000000D03*
D26*
X249600000Y-146750000D03*
D28*
X255050000Y-145700000D03*
D29*
X240750000Y-146750000D03*
D30*
X242600000Y-136300000D03*
D26*
X242600000Y-145700000D03*
D30*
X244400000Y-135250000D03*
X249600000Y-135250000D03*
X251400000Y-136300000D03*
D26*
X251400000Y-145700000D03*
%TD*%
%TO.C,S4*%
X190400000Y-157750000D03*
D27*
X193000000Y-152000000D03*
D26*
X195600000Y-157750000D03*
D28*
X201050000Y-156700000D03*
D29*
X186750000Y-157750000D03*
D30*
X188600000Y-147300000D03*
D26*
X188600000Y-156700000D03*
D30*
X190400000Y-146250000D03*
X195600000Y-146250000D03*
X197400000Y-147300000D03*
D26*
X197400000Y-156700000D03*
%TD*%
D23*
%TO.C,D14*%
X254000000Y-177560000D03*
D24*
X254000000Y-175400000D03*
X254000000Y-172100000D03*
D25*
X254000000Y-169940000D03*
%TD*%
D26*
%TO.C,S7*%
X208400000Y-154750000D03*
D27*
X211000000Y-149000000D03*
D26*
X213600000Y-154750000D03*
D28*
X219050000Y-153700000D03*
D29*
X204750000Y-154750000D03*
D30*
X206600000Y-144300000D03*
D26*
X206600000Y-153700000D03*
D30*
X208400000Y-143250000D03*
X213600000Y-143250000D03*
X215400000Y-144300000D03*
D26*
X215400000Y-153700000D03*
%TD*%
D23*
%TO.C,D15*%
X254000000Y-159560000D03*
D24*
X254000000Y-157400000D03*
X254000000Y-154100000D03*
D25*
X254000000Y-151940000D03*
%TD*%
D26*
%TO.C,S6*%
X190400000Y-121750000D03*
D27*
X193000000Y-116000000D03*
D26*
X195600000Y-121750000D03*
D28*
X201050000Y-120700000D03*
D29*
X186750000Y-121750000D03*
D30*
X188600000Y-111300000D03*
D26*
X188600000Y-120700000D03*
D30*
X190400000Y-110250000D03*
X195600000Y-110250000D03*
X197400000Y-111300000D03*
D26*
X197400000Y-120700000D03*
%TD*%
D23*
%TO.C,D5*%
X200000000Y-134560000D03*
D24*
X200000000Y-132400000D03*
X200000000Y-129100000D03*
D25*
X200000000Y-126940000D03*
%TD*%
D26*
%TO.C,S1*%
X172400000Y-162750000D03*
D27*
X175000000Y-157000000D03*
D26*
X177600000Y-162750000D03*
D28*
X183050000Y-161700000D03*
D29*
X168750000Y-162750000D03*
D30*
X170600000Y-152300000D03*
D26*
X170600000Y-161700000D03*
D30*
X172400000Y-151250000D03*
X177600000Y-151250000D03*
X179400000Y-152300000D03*
D26*
X179400000Y-161700000D03*
%TD*%
M02*
