%TF.GenerationSoftware,KiCad,Pcbnew,8.0.4*%
%TF.CreationDate,2024-08-16T23:39:16+08:00*%
%TF.ProjectId,board,626f6172-642e-46b6-9963-61645f706362,v1.0.0*%
%TF.SameCoordinates,Original*%
%TF.FileFunction,Copper,L1,Top*%
%TF.FilePolarity,Positive*%
%FSLAX46Y46*%
G04 Gerber Fmt 4.6, Leading zero omitted, Abs format (unit mm)*
G04 Created by KiCad (PCBNEW 8.0.4) date 2024-08-16 23:39:16*
%MOMM*%
%LPD*%
G01*
G04 APERTURE LIST*
G04 Aperture macros list*
%AMRoundRect*
0 Rectangle with rounded corners*
0 $1 Rounding radius*
0 $2 $3 $4 $5 $6 $7 $8 $9 X,Y pos of 4 corners*
0 Add a 4 corners polygon primitive as box body*
4,1,4,$2,$3,$4,$5,$6,$7,$8,$9,$2,$3,0*
0 Add four circle primitives for the rounded corners*
1,1,$1+$1,$2,$3*
1,1,$1+$1,$4,$5*
1,1,$1+$1,$6,$7*
1,1,$1+$1,$8,$9*
0 Add four rect primitives between the rounded corners*
20,1,$1+$1,$2,$3,$4,$5,0*
20,1,$1+$1,$4,$5,$6,$7,0*
20,1,$1+$1,$6,$7,$8,$9,0*
20,1,$1+$1,$8,$9,$2,$3,0*%
%AMFreePoly0*
4,1,6,0.250000,0.000000,-0.250000,-0.625000,-0.500000,-0.625000,-0.500000,0.625000,-0.250000,0.625000,0.250000,0.000000,0.250000,0.000000,$1*%
%AMFreePoly1*
4,1,6,0.500000,-0.625000,-0.650000,-0.625000,-0.150000,0.000000,-0.650000,0.625000,0.500000,0.625000,0.500000,-0.625000,0.500000,-0.625000,$1*%
%AMFreePoly2*
4,1,6,0.600000,-1.000000,0.000000,-0.400000,-0.600000,-1.000000,-0.600000,0.250000,0.600000,0.250000,0.600000,-1.000000,0.600000,-1.000000,$1*%
%AMFreePoly3*
4,1,6,0.600000,-0.200000,0.600000,-0.400000,-0.600000,-0.400000,-0.600000,-0.200000,0.000000,0.400000,0.600000,-0.200000,0.600000,-0.200000,$1*%
G04 Aperture macros list end*
%TA.AperFunction,SMDPad,CuDef*%
%ADD10R,0.800000X1.000000*%
%TD*%
%TA.AperFunction,SMDPad,CuDef*%
%ADD11R,1.500000X0.700000*%
%TD*%
%TA.AperFunction,ComponentPad*%
%ADD12C,2.000000*%
%TD*%
%TA.AperFunction,SMDPad,CuDef*%
%ADD13FreePoly0,270.000000*%
%TD*%
%TA.AperFunction,ComponentPad*%
%ADD14C,1.700000*%
%TD*%
%TA.AperFunction,SMDPad,CuDef*%
%ADD15FreePoly0,90.000000*%
%TD*%
%TA.AperFunction,ComponentPad*%
%ADD16C,0.800000*%
%TD*%
%TA.AperFunction,SMDPad,CuDef*%
%ADD17FreePoly1,270.000000*%
%TD*%
%TA.AperFunction,SMDPad,CuDef*%
%ADD18FreePoly1,90.000000*%
%TD*%
%TA.AperFunction,SMDPad,CuDef*%
%ADD19FreePoly2,180.000000*%
%TD*%
%TA.AperFunction,ComponentPad*%
%ADD20O,1.200000X1.750000*%
%TD*%
%TA.AperFunction,SMDPad,CuDef*%
%ADD21FreePoly3,180.000000*%
%TD*%
%TA.AperFunction,ComponentPad*%
%ADD22R,1.778000X1.778000*%
%TD*%
%TA.AperFunction,SMDPad,CuDef*%
%ADD23R,1.200000X0.900000*%
%TD*%
%TA.AperFunction,ComponentPad*%
%ADD24C,1.905000*%
%TD*%
%TA.AperFunction,ComponentPad*%
%ADD25C,3.500000*%
%TD*%
%TA.AperFunction,ComponentPad*%
%ADD26C,5.600000*%
%TD*%
%TA.AperFunction,SMDPad,CuDef*%
%ADD27RoundRect,0.250000X-1.050000X-1.000000X1.050000X-1.000000X1.050000X1.000000X-1.050000X1.000000X0*%
%TD*%
%TA.AperFunction,ComponentPad*%
%ADD28C,2.100000*%
%TD*%
%TA.AperFunction,SMDPad,CuDef*%
%ADD29RoundRect,0.250000X-1.750000X-1.000000X1.750000X-1.000000X1.750000X1.000000X-1.750000X1.000000X0*%
%TD*%
%TA.AperFunction,Conductor*%
%ADD30C,0.250000*%
%TD*%
G04 APERTURE END LIST*
D10*
%TO.P,PWR1,*%
%TO.N,*%
X207585000Y-168650000D03*
X207585000Y-161350000D03*
X205375000Y-168650000D03*
X205375000Y-161350000D03*
D11*
%TO.P,PWR1,1*%
%TO.N,N/C*%
X208235000Y-162750000D03*
%TO.P,PWR1,2*%
%TO.N,RAW*%
X208235000Y-165750000D03*
%TO.P,PWR1,3*%
%TO.N,BAT_P*%
X208235000Y-167250000D03*
%TD*%
D12*
%TO.P,RST1,1*%
%TO.N,RST*%
X196250000Y-164350000D03*
%TO.P,RST1,2*%
%TO.N,GND*%
X189750000Y-164350000D03*
%TD*%
D13*
%TO.P,MCU1,1*%
%TO.N,MCU1_1*%
X169800000Y-171450000D03*
D14*
X169800000Y-169330000D03*
D13*
%TO.P,MCU1,2*%
%TO.N,MCU1_2*%
X172340000Y-171450000D03*
D14*
X172340000Y-169330000D03*
D13*
%TO.P,MCU1,3*%
%TO.N,MCU1_3*%
X174880000Y-171450000D03*
D14*
X174880000Y-169330000D03*
D13*
%TO.P,MCU1,4*%
%TO.N,MCU1_4*%
X177420000Y-171450000D03*
D14*
X177420000Y-169330000D03*
D13*
%TO.P,MCU1,5*%
%TO.N,MCU1_5*%
X179960000Y-171450000D03*
D14*
X179960000Y-169330000D03*
D13*
%TO.P,MCU1,6*%
%TO.N,MCU1_6*%
X182500000Y-171450000D03*
D14*
X182500000Y-169330000D03*
D13*
%TO.P,MCU1,7*%
%TO.N,MCU1_7*%
X185040000Y-171450000D03*
D14*
X185040000Y-169330000D03*
D13*
%TO.P,MCU1,8*%
%TO.N,MCU1_8*%
X187580000Y-171450000D03*
D14*
X187580000Y-169330000D03*
D13*
%TO.P,MCU1,9*%
%TO.N,MCU1_9*%
X190120000Y-171450000D03*
D14*
X190120000Y-169330000D03*
D13*
%TO.P,MCU1,10*%
%TO.N,MCU1_10*%
X192660000Y-171450000D03*
D14*
X192660000Y-169330000D03*
D13*
%TO.P,MCU1,11*%
%TO.N,MCU1_11*%
X195200000Y-171450000D03*
D14*
X195200000Y-169330000D03*
D13*
%TO.P,MCU1,12*%
%TO.N,MCU1_12*%
X197740000Y-171450000D03*
D14*
X197740000Y-169330000D03*
%TO.P,MCU1,13*%
%TO.N,MCU1_13*%
X197740000Y-184570000D03*
D15*
X197740000Y-182450000D03*
D14*
%TO.P,MCU1,14*%
%TO.N,MCU1_14*%
X195200000Y-184570000D03*
D15*
X195200000Y-182450000D03*
D14*
%TO.P,MCU1,15*%
%TO.N,MCU1_15*%
X192660000Y-184570000D03*
D15*
X192660000Y-182450000D03*
D14*
%TO.P,MCU1,16*%
%TO.N,MCU1_16*%
X190120000Y-184570000D03*
D15*
X190120000Y-182450000D03*
D14*
%TO.P,MCU1,17*%
%TO.N,MCU1_17*%
X187580000Y-184570000D03*
D15*
X187580000Y-182450000D03*
D14*
%TO.P,MCU1,18*%
%TO.N,MCU1_18*%
X185040000Y-184570000D03*
D15*
X185040000Y-182450000D03*
D14*
%TO.P,MCU1,19*%
%TO.N,MCU1_19*%
X182500000Y-184570000D03*
D15*
X182500000Y-182450000D03*
D14*
%TO.P,MCU1,20*%
%TO.N,MCU1_20*%
X179960000Y-184570000D03*
D15*
X179960000Y-182450000D03*
D14*
%TO.P,MCU1,21*%
%TO.N,MCU1_21*%
X177420000Y-184570000D03*
D15*
X177420000Y-182450000D03*
D14*
%TO.P,MCU1,22*%
%TO.N,MCU1_22*%
X174880000Y-184570000D03*
D15*
X174880000Y-182450000D03*
D14*
%TO.P,MCU1,23*%
%TO.N,MCU1_23*%
X172340000Y-184570000D03*
D15*
X172340000Y-182450000D03*
D14*
%TO.P,MCU1,24*%
%TO.N,MCU1_24*%
X169800000Y-184570000D03*
D15*
X169800000Y-182450000D03*
D16*
%TO.P,MCU1,101*%
%TO.N,P1*%
X169800000Y-173550000D03*
D17*
X169800000Y-172175000D03*
D16*
%TO.P,MCU1,102*%
%TO.N,P0*%
X172340000Y-173550000D03*
D17*
X172340000Y-172175000D03*
D16*
%TO.P,MCU1,103*%
%TO.N,GND*%
X174880000Y-173550000D03*
D17*
X174880000Y-172175000D03*
D16*
%TO.P,MCU1,104*%
X177420000Y-173550000D03*
D17*
X177420000Y-172175000D03*
D16*
%TO.P,MCU1,105*%
%TO.N,P2*%
X179960000Y-173550000D03*
D17*
X179960000Y-172175000D03*
D16*
%TO.P,MCU1,106*%
%TO.N,P3*%
X182500000Y-173550000D03*
D17*
X182500000Y-172175000D03*
D16*
%TO.P,MCU1,107*%
%TO.N,P4*%
X185040000Y-173550000D03*
D17*
X185040000Y-172175000D03*
D16*
%TO.P,MCU1,108*%
%TO.N,P5*%
X187580000Y-173550000D03*
D17*
X187580000Y-172175000D03*
D16*
%TO.P,MCU1,109*%
%TO.N,P6*%
X190120000Y-173550000D03*
D17*
X190120000Y-172175000D03*
D16*
%TO.P,MCU1,110*%
%TO.N,P7*%
X192660000Y-173550000D03*
D17*
X192660000Y-172175000D03*
D16*
%TO.P,MCU1,111*%
%TO.N,P8*%
X195200000Y-173550000D03*
D17*
X195200000Y-172175000D03*
D16*
%TO.P,MCU1,112*%
%TO.N,P9*%
X197740000Y-173550000D03*
D17*
X197740000Y-172175000D03*
D18*
%TO.P,MCU1,113*%
%TO.N,P10*%
X197740000Y-181725000D03*
D16*
X197740000Y-180350000D03*
D18*
%TO.P,MCU1,114*%
%TO.N,P16*%
X195200000Y-181725000D03*
D16*
X195200000Y-180350000D03*
D18*
%TO.P,MCU1,115*%
%TO.N,P14*%
X192660000Y-181725000D03*
D16*
X192660000Y-180350000D03*
D18*
%TO.P,MCU1,116*%
%TO.N,P15*%
X190120000Y-181725000D03*
D16*
X190120000Y-180350000D03*
D18*
%TO.P,MCU1,117*%
%TO.N,P18*%
X187580000Y-181725000D03*
D16*
X187580000Y-180350000D03*
D18*
%TO.P,MCU1,118*%
%TO.N,P19*%
X185040000Y-181725000D03*
D16*
X185040000Y-180350000D03*
D18*
%TO.P,MCU1,119*%
%TO.N,P20*%
X182500000Y-181725000D03*
D16*
X182500000Y-180350000D03*
D18*
%TO.P,MCU1,120*%
%TO.N,P21*%
X179960000Y-181725000D03*
D16*
X179960000Y-180350000D03*
D18*
%TO.P,MCU1,121*%
%TO.N,VCC*%
X177420000Y-181725000D03*
D16*
X177420000Y-180350000D03*
D18*
%TO.P,MCU1,122*%
%TO.N,RST*%
X174880000Y-181725000D03*
D16*
X174880000Y-180350000D03*
D18*
%TO.P,MCU1,123*%
%TO.N,GND*%
X172340000Y-181725000D03*
D16*
X172340000Y-180350000D03*
D18*
%TO.P,MCU1,124*%
%TO.N,RAW*%
X169800000Y-181725000D03*
D16*
X169800000Y-180350000D03*
%TD*%
D19*
%TO.P,JST1,1*%
%TO.N,BAT_P*%
X214000000Y-163666000D03*
%TO.P,JST1,2*%
%TO.N,GND*%
X216000000Y-163666000D03*
D20*
%TO.P,JST1,11*%
%TO.N,JST1_1*%
X214000000Y-160850000D03*
%TO.P,JST1,12*%
%TO.N,JST1_2*%
X216000000Y-160850000D03*
D21*
%TO.P,JST1,21*%
%TO.N,JST1_1*%
X214000000Y-162650000D03*
%TO.P,JST1,22*%
%TO.N,JST1_2*%
X216000000Y-162650000D03*
%TD*%
D22*
%TO.P,D8,1*%
%TO.N,P16*%
X218000000Y-131560000D03*
D23*
X218000000Y-129400000D03*
%TO.P,D8,2*%
%TO.N,middle_home*%
X218000000Y-126100000D03*
D24*
X218000000Y-123940000D03*
%TD*%
D22*
%TO.P,D13,1*%
%TO.N,P10*%
X236000000Y-121560000D03*
D23*
X236000000Y-119400000D03*
%TO.P,D13,2*%
%TO.N,index_top*%
X236000000Y-116100000D03*
D24*
X236000000Y-113940000D03*
%TD*%
D25*
%TO.P,S12,*%
%TO.N,P5*%
X226400000Y-144750000D03*
D26*
%TO.N,*%
X229000000Y-139000000D03*
D25*
%TO.N,index_home*%
X231600000Y-144750000D03*
D27*
%TO.P,S12,1*%
%TO.N,P5*%
X222750000Y-144750000D03*
D28*
X224600000Y-134300000D03*
D25*
X224600000Y-143700000D03*
D28*
X226400000Y-133250000D03*
%TO.P,S12,2*%
%TO.N,index_home*%
X231600000Y-133250000D03*
X233400000Y-134300000D03*
D25*
X233400000Y-143700000D03*
D29*
X236350000Y-143700000D03*
%TD*%
D25*
%TO.P,S14,*%
%TO.N,P6*%
X244400000Y-182750000D03*
D26*
%TO.N,*%
X247000000Y-177000000D03*
D25*
%TO.N,inner_thumb*%
X249600000Y-182750000D03*
D27*
%TO.P,S14,1*%
%TO.N,P6*%
X240750000Y-182750000D03*
D28*
X242600000Y-172300000D03*
D25*
X242600000Y-181700000D03*
D28*
X244400000Y-171250000D03*
%TO.P,S14,2*%
%TO.N,inner_thumb*%
X249600000Y-171250000D03*
X251400000Y-172300000D03*
D25*
X251400000Y-181700000D03*
D29*
X254350000Y-181700000D03*
%TD*%
D25*
%TO.P,S15,*%
%TO.N,P6*%
X244400000Y-164750000D03*
D26*
%TO.N,*%
X247000000Y-159000000D03*
D25*
%TO.N,inner_bottom*%
X249600000Y-164750000D03*
D27*
%TO.P,S15,1*%
%TO.N,P6*%
X240750000Y-164750000D03*
D28*
X242600000Y-154300000D03*
D25*
X242600000Y-163700000D03*
D28*
X244400000Y-153250000D03*
%TO.P,S15,2*%
%TO.N,inner_bottom*%
X249600000Y-153250000D03*
X251400000Y-154300000D03*
D25*
X251400000Y-163700000D03*
D29*
X254350000Y-163700000D03*
%TD*%
D22*
%TO.P,D16,1*%
%TO.N,P16*%
X254000000Y-141560000D03*
D23*
X254000000Y-139400000D03*
%TO.P,D16,2*%
%TO.N,inner_home*%
X254000000Y-136100000D03*
D24*
X254000000Y-133940000D03*
%TD*%
D25*
%TO.P,S8,*%
%TO.N,P4*%
X208400000Y-136750000D03*
D26*
%TO.N,*%
X211000000Y-131000000D03*
D25*
%TO.N,middle_home*%
X213600000Y-136750000D03*
D27*
%TO.P,S8,1*%
%TO.N,P4*%
X204750000Y-136750000D03*
D28*
X206600000Y-126300000D03*
D25*
X206600000Y-135700000D03*
D28*
X208400000Y-125250000D03*
%TO.P,S8,2*%
%TO.N,middle_home*%
X213600000Y-125250000D03*
X215400000Y-126300000D03*
D25*
X215400000Y-135700000D03*
D29*
X218350000Y-135700000D03*
%TD*%
D25*
%TO.P,S17,*%
%TO.N,P6*%
X244400000Y-128750000D03*
D26*
%TO.N,*%
X247000000Y-123000000D03*
D25*
%TO.N,inner_top*%
X249600000Y-128750000D03*
D27*
%TO.P,S17,1*%
%TO.N,P6*%
X240750000Y-128750000D03*
D28*
X242600000Y-118300000D03*
D25*
X242600000Y-127700000D03*
D28*
X244400000Y-117250000D03*
%TO.P,S17,2*%
%TO.N,inner_top*%
X249600000Y-117250000D03*
X251400000Y-118300000D03*
D25*
X251400000Y-127700000D03*
D29*
X254350000Y-127700000D03*
%TD*%
D22*
%TO.P,D11,1*%
%TO.N,P14*%
X236000000Y-157560000D03*
D23*
X236000000Y-155400000D03*
%TO.P,D11,2*%
%TO.N,index_bottom*%
X236000000Y-152100000D03*
D24*
X236000000Y-149940000D03*
%TD*%
D25*
%TO.P,S5,*%
%TO.N,P3*%
X190400000Y-139750000D03*
D26*
%TO.N,*%
X193000000Y-134000000D03*
D25*
%TO.N,ring_home*%
X195600000Y-139750000D03*
D27*
%TO.P,S5,1*%
%TO.N,P3*%
X186750000Y-139750000D03*
D28*
X188600000Y-129300000D03*
D25*
X188600000Y-138700000D03*
D28*
X190400000Y-128250000D03*
%TO.P,S5,2*%
%TO.N,ring_home*%
X195600000Y-128250000D03*
X197400000Y-129300000D03*
D25*
X197400000Y-138700000D03*
D29*
X200350000Y-138700000D03*
%TD*%
D25*
%TO.P,S9,*%
%TO.N,P4*%
X208400000Y-118750000D03*
D26*
%TO.N,*%
X211000000Y-113000000D03*
D25*
%TO.N,middle_top*%
X213600000Y-118750000D03*
D27*
%TO.P,S9,1*%
%TO.N,P4*%
X204750000Y-118750000D03*
D28*
X206600000Y-108300000D03*
D25*
X206600000Y-117700000D03*
D28*
X208400000Y-107250000D03*
%TO.P,S9,2*%
%TO.N,middle_top*%
X213600000Y-107250000D03*
X215400000Y-108300000D03*
D25*
X215400000Y-117700000D03*
D29*
X218350000Y-117700000D03*
%TD*%
D22*
%TO.P,D12,1*%
%TO.N,P16*%
X236000000Y-139560000D03*
D23*
X236000000Y-137400000D03*
%TO.P,D12,2*%
%TO.N,index_home*%
X236000000Y-134100000D03*
D24*
X236000000Y-131940000D03*
%TD*%
D22*
%TO.P,D2,1*%
%TO.N,P16*%
X182000000Y-139560000D03*
D23*
X182000000Y-137400000D03*
%TO.P,D2,2*%
%TO.N,pinky_home*%
X182000000Y-134100000D03*
D24*
X182000000Y-131940000D03*
%TD*%
D22*
%TO.P,D7,1*%
%TO.N,P14*%
X218000000Y-149560000D03*
D23*
X218000000Y-147400000D03*
%TO.P,D7,2*%
%TO.N,middle_bottom*%
X218000000Y-144100000D03*
D24*
X218000000Y-141940000D03*
%TD*%
D25*
%TO.P,S3,*%
%TO.N,P2*%
X172400000Y-126750000D03*
D26*
%TO.N,*%
X175000000Y-121000000D03*
D25*
%TO.N,pinky_top*%
X177600000Y-126750000D03*
D27*
%TO.P,S3,1*%
%TO.N,P2*%
X168750000Y-126750000D03*
D28*
X170600000Y-116300000D03*
D25*
X170600000Y-125700000D03*
D28*
X172400000Y-115250000D03*
%TO.P,S3,2*%
%TO.N,pinky_top*%
X177600000Y-115250000D03*
X179400000Y-116300000D03*
D25*
X179400000Y-125700000D03*
D29*
X182350000Y-125700000D03*
%TD*%
D22*
%TO.P,D17,1*%
%TO.N,P10*%
X254000000Y-123560000D03*
D23*
X254000000Y-121400000D03*
%TO.P,D17,2*%
%TO.N,inner_top*%
X254000000Y-118100000D03*
D24*
X254000000Y-115940000D03*
%TD*%
D22*
%TO.P,D4,1*%
%TO.N,P14*%
X200000000Y-152560000D03*
D23*
X200000000Y-150400000D03*
%TO.P,D4,2*%
%TO.N,ring_bottom*%
X200000000Y-147100000D03*
D24*
X200000000Y-144940000D03*
%TD*%
D22*
%TO.P,D1,1*%
%TO.N,P14*%
X182000000Y-157560000D03*
D23*
X182000000Y-155400000D03*
%TO.P,D1,2*%
%TO.N,pinky_bottom*%
X182000000Y-152100000D03*
D24*
X182000000Y-149940000D03*
%TD*%
D22*
%TO.P,D9,1*%
%TO.N,P10*%
X218000000Y-113560000D03*
D23*
X218000000Y-111400000D03*
%TO.P,D9,2*%
%TO.N,middle_top*%
X218000000Y-108100000D03*
D24*
X218000000Y-105940000D03*
%TD*%
D25*
%TO.P,S2,*%
%TO.N,P2*%
X172400000Y-144750000D03*
D26*
%TO.N,*%
X175000000Y-139000000D03*
D25*
%TO.N,pinky_home*%
X177600000Y-144750000D03*
D27*
%TO.P,S2,1*%
%TO.N,P2*%
X168750000Y-144750000D03*
D28*
X170600000Y-134300000D03*
D25*
X170600000Y-143700000D03*
D28*
X172400000Y-133250000D03*
%TO.P,S2,2*%
%TO.N,pinky_home*%
X177600000Y-133250000D03*
X179400000Y-134300000D03*
D25*
X179400000Y-143700000D03*
D29*
X182350000Y-143700000D03*
%TD*%
D22*
%TO.P,D3,1*%
%TO.N,P10*%
X182000000Y-121560000D03*
D23*
X182000000Y-119400000D03*
%TO.P,D3,2*%
%TO.N,pinky_top*%
X182000000Y-116100000D03*
D24*
X182000000Y-113940000D03*
%TD*%
D22*
%TO.P,D6,1*%
%TO.N,P10*%
X200000000Y-116560000D03*
D23*
X200000000Y-114400000D03*
%TO.P,D6,2*%
%TO.N,ring_top*%
X200000000Y-111100000D03*
D24*
X200000000Y-108940000D03*
%TD*%
D25*
%TO.P,S13,*%
%TO.N,P5*%
X226400000Y-126750000D03*
D26*
%TO.N,*%
X229000000Y-121000000D03*
D25*
%TO.N,index_top*%
X231600000Y-126750000D03*
D27*
%TO.P,S13,1*%
%TO.N,P5*%
X222750000Y-126750000D03*
D28*
X224600000Y-116300000D03*
D25*
X224600000Y-125700000D03*
D28*
X226400000Y-115250000D03*
%TO.P,S13,2*%
%TO.N,index_top*%
X231600000Y-115250000D03*
X233400000Y-116300000D03*
D25*
X233400000Y-125700000D03*
D29*
X236350000Y-125700000D03*
%TD*%
D22*
%TO.P,D10,1*%
%TO.N,P15*%
X236000000Y-175560000D03*
D23*
X236000000Y-173400000D03*
%TO.P,D10,2*%
%TO.N,index_thumb*%
X236000000Y-170100000D03*
D24*
X236000000Y-167940000D03*
%TD*%
D25*
%TO.P,S10,*%
%TO.N,P5*%
X226400000Y-180750000D03*
D26*
%TO.N,*%
X229000000Y-175000000D03*
D25*
%TO.N,index_thumb*%
X231600000Y-180750000D03*
D27*
%TO.P,S10,1*%
%TO.N,P5*%
X222750000Y-180750000D03*
D28*
X224600000Y-170300000D03*
D25*
X224600000Y-179700000D03*
D28*
X226400000Y-169250000D03*
%TO.P,S10,2*%
%TO.N,index_thumb*%
X231600000Y-169250000D03*
X233400000Y-170300000D03*
D25*
X233400000Y-179700000D03*
D29*
X236350000Y-179700000D03*
%TD*%
D25*
%TO.P,S11,*%
%TO.N,P5*%
X226400000Y-162750000D03*
D26*
%TO.N,*%
X229000000Y-157000000D03*
D25*
%TO.N,index_bottom*%
X231600000Y-162750000D03*
D27*
%TO.P,S11,1*%
%TO.N,P5*%
X222750000Y-162750000D03*
D28*
X224600000Y-152300000D03*
D25*
X224600000Y-161700000D03*
D28*
X226400000Y-151250000D03*
%TO.P,S11,2*%
%TO.N,index_bottom*%
X231600000Y-151250000D03*
X233400000Y-152300000D03*
D25*
X233400000Y-161700000D03*
D29*
X236350000Y-161700000D03*
%TD*%
D25*
%TO.P,S16,*%
%TO.N,P6*%
X244400000Y-146750000D03*
D26*
%TO.N,*%
X247000000Y-141000000D03*
D25*
%TO.N,inner_home*%
X249600000Y-146750000D03*
D27*
%TO.P,S16,1*%
%TO.N,P6*%
X240750000Y-146750000D03*
D28*
X242600000Y-136300000D03*
D25*
X242600000Y-145700000D03*
D28*
X244400000Y-135250000D03*
%TO.P,S16,2*%
%TO.N,inner_home*%
X249600000Y-135250000D03*
X251400000Y-136300000D03*
D25*
X251400000Y-145700000D03*
D29*
X254350000Y-145700000D03*
%TD*%
D25*
%TO.P,S4,*%
%TO.N,P3*%
X190400000Y-157750000D03*
D26*
%TO.N,*%
X193000000Y-152000000D03*
D25*
%TO.N,ring_bottom*%
X195600000Y-157750000D03*
D27*
%TO.P,S4,1*%
%TO.N,P3*%
X186750000Y-157750000D03*
D28*
X188600000Y-147300000D03*
D25*
X188600000Y-156700000D03*
D28*
X190400000Y-146250000D03*
%TO.P,S4,2*%
%TO.N,ring_bottom*%
X195600000Y-146250000D03*
X197400000Y-147300000D03*
D25*
X197400000Y-156700000D03*
D29*
X200350000Y-156700000D03*
%TD*%
D22*
%TO.P,D14,1*%
%TO.N,P15*%
X254000000Y-177560000D03*
D23*
X254000000Y-175400000D03*
%TO.P,D14,2*%
%TO.N,inner_thumb*%
X254000000Y-172100000D03*
D24*
X254000000Y-169940000D03*
%TD*%
D25*
%TO.P,S7,*%
%TO.N,P4*%
X208400000Y-154750000D03*
D26*
%TO.N,*%
X211000000Y-149000000D03*
D25*
%TO.N,middle_bottom*%
X213600000Y-154750000D03*
D27*
%TO.P,S7,1*%
%TO.N,P4*%
X204750000Y-154750000D03*
D28*
X206600000Y-144300000D03*
D25*
X206600000Y-153700000D03*
D28*
X208400000Y-143250000D03*
%TO.P,S7,2*%
%TO.N,middle_bottom*%
X213600000Y-143250000D03*
X215400000Y-144300000D03*
D25*
X215400000Y-153700000D03*
D29*
X218350000Y-153700000D03*
%TD*%
D22*
%TO.P,D15,1*%
%TO.N,P14*%
X254000000Y-159560000D03*
D23*
X254000000Y-157400000D03*
%TO.P,D15,2*%
%TO.N,inner_bottom*%
X254000000Y-154100000D03*
D24*
X254000000Y-151940000D03*
%TD*%
D25*
%TO.P,S6,*%
%TO.N,P3*%
X190400000Y-121750000D03*
D26*
%TO.N,*%
X193000000Y-116000000D03*
D25*
%TO.N,ring_top*%
X195600000Y-121750000D03*
D27*
%TO.P,S6,1*%
%TO.N,P3*%
X186750000Y-121750000D03*
D28*
X188600000Y-111300000D03*
D25*
X188600000Y-120700000D03*
D28*
X190400000Y-110250000D03*
%TO.P,S6,2*%
%TO.N,ring_top*%
X195600000Y-110250000D03*
X197400000Y-111300000D03*
D25*
X197400000Y-120700000D03*
D29*
X200350000Y-120700000D03*
%TD*%
D22*
%TO.P,D5,1*%
%TO.N,P16*%
X200000000Y-134560000D03*
D23*
X200000000Y-132400000D03*
%TO.P,D5,2*%
%TO.N,ring_home*%
X200000000Y-129100000D03*
D24*
X200000000Y-126940000D03*
%TD*%
D25*
%TO.P,S1,*%
%TO.N,P2*%
X172400000Y-162750000D03*
D26*
%TO.N,*%
X175000000Y-157000000D03*
D25*
%TO.N,pinky_bottom*%
X177600000Y-162750000D03*
D27*
%TO.P,S1,1*%
%TO.N,P2*%
X168750000Y-162750000D03*
D28*
X170600000Y-152300000D03*
D25*
X170600000Y-161700000D03*
D28*
X172400000Y-151250000D03*
%TO.P,S1,2*%
%TO.N,pinky_bottom*%
X177600000Y-151250000D03*
X179400000Y-152300000D03*
D25*
X179400000Y-161700000D03*
D29*
X182350000Y-161700000D03*
%TD*%
D30*
%TO.N,P2*%
X179960000Y-172175000D02*
X179960000Y-173550000D01*
%TO.N,pinky_bottom*%
X179400000Y-152300000D02*
X181800000Y-152300000D01*
X182000000Y-152100000D02*
X182000000Y-149940000D01*
X181800000Y-152300000D02*
X182000000Y-152100000D01*
%TO.N,GND*%
X168625000Y-176635000D02*
X172340000Y-180350000D01*
X177420000Y-172175000D02*
X177420000Y-173550000D01*
X174880000Y-172175000D02*
X174880000Y-173550000D01*
X179283299Y-168155000D02*
X178595000Y-168843299D01*
X178595000Y-172375000D02*
X177420000Y-173550000D01*
X169468299Y-168000000D02*
X168625000Y-168843299D01*
X189750000Y-164350000D02*
X185945000Y-168155000D01*
X177420000Y-173550000D02*
X174880000Y-173550000D01*
X185945000Y-168155000D02*
X179283299Y-168155000D01*
X173705000Y-172375000D02*
X173705000Y-169033299D01*
X168625000Y-168843299D02*
X168625000Y-176635000D01*
X204750000Y-158250000D02*
X201500000Y-161500000D01*
X172671701Y-168000000D02*
X169468299Y-168000000D01*
X178595000Y-168843299D02*
X178595000Y-172375000D01*
X218500000Y-161166000D02*
X218500000Y-159000000D01*
X172340000Y-181725000D02*
X172340000Y-180350000D01*
X192600000Y-161500000D02*
X189750000Y-164350000D01*
X217750000Y-158250000D02*
X204750000Y-158250000D01*
X201500000Y-161500000D02*
X192600000Y-161500000D01*
X174880000Y-173550000D02*
X173705000Y-172375000D01*
X216000000Y-163666000D02*
X218500000Y-161166000D01*
X173705000Y-169033299D02*
X172671701Y-168000000D01*
X218500000Y-159000000D02*
X217750000Y-158250000D01*
%TO.N,pinky_home*%
X181800000Y-134300000D02*
X182000000Y-134100000D01*
X182000000Y-131940000D02*
X182000000Y-134100000D01*
X179400000Y-134300000D02*
X181800000Y-134300000D01*
%TO.N,pinky_top*%
X181800000Y-116300000D02*
X182000000Y-116100000D01*
X182000000Y-113940000D02*
X182000000Y-116100000D01*
X179400000Y-116300000D02*
X181800000Y-116300000D01*
%TO.N,P3*%
X182500000Y-172175000D02*
X182500000Y-173550000D01*
%TO.N,ring_bottom*%
X200000000Y-147100000D02*
X197600000Y-147100000D01*
X197600000Y-147100000D02*
X197400000Y-147300000D01*
X200000000Y-144940000D02*
X200000000Y-147100000D01*
%TO.N,ring_home*%
X197600000Y-129100000D02*
X197400000Y-129300000D01*
X200000000Y-126940000D02*
X200000000Y-129100000D01*
X200000000Y-129100000D02*
X197600000Y-129100000D01*
%TO.N,ring_top*%
X200000000Y-108940000D02*
X200000000Y-111100000D01*
X197400000Y-111300000D02*
X199800000Y-111300000D01*
X199800000Y-111300000D02*
X200000000Y-111100000D01*
%TO.N,P4*%
X185040000Y-172175000D02*
X185040000Y-173550000D01*
%TO.N,middle_bottom*%
X218000000Y-144100000D02*
X218000000Y-141940000D01*
X217800000Y-144300000D02*
X218000000Y-144100000D01*
X215400000Y-144300000D02*
X217800000Y-144300000D01*
%TO.N,middle_home*%
X217800000Y-126300000D02*
X218000000Y-126100000D01*
X218000000Y-123940000D02*
X218000000Y-126100000D01*
X215400000Y-126300000D02*
X217800000Y-126300000D01*
%TO.N,middle_top*%
X218000000Y-108100000D02*
X218000000Y-105940000D01*
X215400000Y-108300000D02*
X217800000Y-108300000D01*
X217800000Y-108300000D02*
X218000000Y-108100000D01*
%TO.N,P5*%
X187580000Y-172175000D02*
X187580000Y-173550000D01*
%TO.N,index_thumb*%
X233600000Y-170100000D02*
X233400000Y-170300000D01*
X236000000Y-170100000D02*
X233600000Y-170100000D01*
X236000000Y-167940000D02*
X236000000Y-170100000D01*
%TO.N,index_bottom*%
X233600000Y-152100000D02*
X233400000Y-152300000D01*
X236000000Y-152100000D02*
X236000000Y-149940000D01*
X236000000Y-152100000D02*
X233600000Y-152100000D01*
%TO.N,index_home*%
X233400000Y-134300000D02*
X235800000Y-134300000D01*
X236000000Y-131940000D02*
X236000000Y-134100000D01*
X235800000Y-134300000D02*
X236000000Y-134100000D01*
%TO.N,index_top*%
X233400000Y-116300000D02*
X235800000Y-116300000D01*
X235800000Y-116300000D02*
X236000000Y-116100000D01*
X236000000Y-113940000D02*
X236000000Y-116100000D01*
%TO.N,P6*%
X190120000Y-172175000D02*
X190120000Y-173550000D01*
%TO.N,inner_thumb*%
X254000000Y-172100000D02*
X254000000Y-169940000D01*
X254000000Y-172100000D02*
X251600000Y-172100000D01*
X251600000Y-172100000D02*
X251400000Y-172300000D01*
%TO.N,inner_bottom*%
X251600000Y-154100000D02*
X251400000Y-154300000D01*
X254000000Y-154100000D02*
X254000000Y-151940000D01*
X254000000Y-154100000D02*
X251600000Y-154100000D01*
%TO.N,inner_home*%
X251600000Y-136100000D02*
X251400000Y-136300000D01*
X254000000Y-136100000D02*
X251600000Y-136100000D01*
X254000000Y-136100000D02*
X254000000Y-133940000D01*
%TO.N,inner_top*%
X254000000Y-118100000D02*
X251600000Y-118100000D01*
X254000000Y-118100000D02*
X254000000Y-115940000D01*
X251600000Y-118100000D02*
X251400000Y-118300000D01*
%TO.N,P14*%
X253425100Y-186195000D02*
X187194999Y-186195000D01*
X191810000Y-179500000D02*
X192660000Y-180350000D01*
X198605506Y-152560000D02*
X200000000Y-152560000D01*
X187404695Y-179500000D02*
X191810000Y-179500000D01*
X254000000Y-159560000D02*
X256675000Y-162235000D01*
X186405000Y-185405001D02*
X186405000Y-180499695D01*
X236000000Y-157560000D02*
X241140582Y-157560000D01*
X186405000Y-180499695D02*
X187404695Y-179500000D01*
X184935000Y-154625000D02*
X191205582Y-154625000D01*
X218000000Y-149560000D02*
X218000000Y-147400000D01*
X182000000Y-157560000D02*
X182000000Y-155400000D01*
X191788335Y-155207753D02*
X195957753Y-155207753D01*
X200000000Y-152560000D02*
X200935000Y-151625000D01*
X222315000Y-153875000D02*
X232315000Y-153875000D01*
X209705582Y-152125000D02*
X214040506Y-152125000D01*
X192660000Y-181725000D02*
X192660000Y-180350000D01*
X195957753Y-155207753D02*
X198605506Y-152560000D01*
X254000000Y-157400000D02*
X254000000Y-159560000D01*
X256675000Y-162235000D02*
X256675000Y-182945100D01*
X187194999Y-186195000D02*
X186405000Y-185405001D01*
X200935000Y-151625000D02*
X209205582Y-151625000D01*
X191205582Y-154625000D02*
X191788335Y-155207753D01*
X182000000Y-157560000D02*
X184935000Y-154625000D01*
X249625000Y-162125000D02*
X252190000Y-159560000D01*
X209205582Y-151625000D02*
X209705582Y-152125000D01*
X200000000Y-152560000D02*
X200000000Y-150400000D01*
X256675000Y-182945100D02*
X253425100Y-186195000D01*
X236000000Y-155400000D02*
X236000000Y-157560000D01*
X232315000Y-153875000D02*
X236000000Y-157560000D01*
X214040506Y-152125000D02*
X216605506Y-149560000D01*
X245705582Y-162125000D02*
X249625000Y-162125000D01*
X216605506Y-149560000D02*
X218000000Y-149560000D01*
X252190000Y-159560000D02*
X254000000Y-159560000D01*
X241140582Y-157560000D02*
X245705582Y-162125000D01*
X218000000Y-149560000D02*
X222315000Y-153875000D01*
%TO.N,P16*%
X232315000Y-135875000D02*
X236000000Y-139560000D01*
X198605506Y-134560000D02*
X200000000Y-134560000D01*
X200000000Y-132400000D02*
X200000000Y-134560000D01*
X182000000Y-139560000D02*
X185060000Y-136500000D01*
X193900000Y-179050000D02*
X195200000Y-180350000D01*
X200000000Y-134560000D02*
X200935000Y-133625000D01*
X222315000Y-135875000D02*
X232315000Y-135875000D01*
X241140582Y-139560000D02*
X245705582Y-144125000D01*
X191788335Y-137207753D02*
X195957753Y-137207753D01*
X208875000Y-133625000D02*
X209500000Y-134250000D01*
X182000000Y-139560000D02*
X182000000Y-137400000D01*
X245705582Y-144125000D02*
X249875000Y-144125000D01*
X216605506Y-131560000D02*
X218000000Y-131560000D01*
X218000000Y-131560000D02*
X222315000Y-135875000D01*
X185060000Y-136500000D02*
X191080582Y-136500000D01*
X252440000Y-141560000D02*
X254000000Y-141560000D01*
X195957753Y-137207753D02*
X198605506Y-134560000D01*
X209500000Y-134250000D02*
X213915506Y-134250000D01*
X236000000Y-137400000D02*
X236000000Y-139560000D01*
X218000000Y-131560000D02*
X218000000Y-129400000D01*
X191080582Y-136500000D02*
X191788335Y-137207753D01*
X213915506Y-134250000D02*
X216605506Y-131560000D01*
X185314695Y-179050000D02*
X193900000Y-179050000D01*
X183865000Y-185056701D02*
X183865000Y-180499695D01*
X183865000Y-180499695D02*
X185314695Y-179050000D01*
X195200000Y-181725000D02*
X195200000Y-180350000D01*
X254000000Y-141560000D02*
X257125000Y-144685000D01*
X257125000Y-144685000D02*
X257125000Y-183131496D01*
X257125000Y-183131496D02*
X253611496Y-186645000D01*
X200935000Y-133625000D02*
X208875000Y-133625000D01*
X236000000Y-139560000D02*
X241140582Y-139560000D01*
X254000000Y-139400000D02*
X254000000Y-141560000D01*
X253611496Y-186645000D02*
X185453299Y-186645000D01*
X185453299Y-186645000D02*
X183865000Y-185056701D01*
X249875000Y-144125000D02*
X252440000Y-141560000D01*
%TO.N,P10*%
X216605506Y-113560000D02*
X218000000Y-113560000D01*
X214040506Y-116125000D02*
X216605506Y-113560000D01*
X200000000Y-116560000D02*
X200000000Y-114400000D01*
X195990000Y-178600000D02*
X197740000Y-180350000D01*
X190957753Y-119207753D02*
X195957753Y-119207753D01*
X237685000Y-119875000D02*
X250315000Y-119875000D01*
X209205582Y-115625000D02*
X209705582Y-116125000D01*
X236000000Y-119400000D02*
X236000000Y-121560000D01*
X257575000Y-183317892D02*
X253797892Y-187095000D01*
X218000000Y-113560000D02*
X218000000Y-111400000D01*
X197740000Y-181725000D02*
X197740000Y-180350000D01*
X200000000Y-116560000D02*
X200935000Y-115625000D01*
X195957753Y-119207753D02*
X198605506Y-116560000D01*
X253797892Y-187095000D02*
X183363299Y-187095000D01*
X218000000Y-113560000D02*
X222315000Y-117875000D01*
X200935000Y-115625000D02*
X209205582Y-115625000D01*
X181325000Y-185056701D02*
X181325000Y-180425000D01*
X183363299Y-187095000D02*
X181325000Y-185056701D01*
X198605506Y-116560000D02*
X200000000Y-116560000D01*
X222315000Y-117875000D02*
X232315000Y-117875000D01*
X182000000Y-121560000D02*
X184935000Y-118625000D01*
X183150000Y-178600000D02*
X195990000Y-178600000D01*
X254000000Y-123560000D02*
X257575000Y-127135000D01*
X184935000Y-118625000D02*
X190375000Y-118625000D01*
X182000000Y-119400000D02*
X182000000Y-121560000D01*
X257575000Y-127135000D02*
X257575000Y-183317892D01*
X232315000Y-117875000D02*
X236000000Y-121560000D01*
X254000000Y-121400000D02*
X254000000Y-123560000D01*
X250315000Y-119875000D02*
X254000000Y-123560000D01*
X190375000Y-118625000D02*
X190957753Y-119207753D01*
X236000000Y-121560000D02*
X237685000Y-119875000D01*
X209705582Y-116125000D02*
X214040506Y-116125000D01*
X181325000Y-180425000D02*
X183150000Y-178600000D01*
%TO.N,P15*%
X220005000Y-185745000D02*
X189633299Y-185745000D01*
X189633299Y-185745000D02*
X188755000Y-184866701D01*
X236000000Y-175560000D02*
X236000000Y-173400000D01*
X249957753Y-180207753D02*
X252605506Y-177560000D01*
X226417247Y-178582753D02*
X225459494Y-177625000D01*
X229919418Y-178500000D02*
X226500000Y-178500000D01*
X225459494Y-177625000D02*
X223004900Y-177625000D01*
X221000000Y-179629900D02*
X221000000Y-184750000D01*
X188755000Y-184866701D02*
X188755000Y-181715000D01*
X244792247Y-180207753D02*
X249957753Y-180207753D01*
X254000000Y-177560000D02*
X254000000Y-175400000D01*
X240144494Y-175560000D02*
X244792247Y-180207753D01*
X221000000Y-184750000D02*
X220005000Y-185745000D01*
X236000000Y-175560000D02*
X240144494Y-175560000D01*
X188755000Y-181715000D02*
X190120000Y-180350000D01*
X226500000Y-178500000D02*
X226417247Y-178582753D01*
X252605506Y-177560000D02*
X254000000Y-177560000D01*
X190120000Y-181725000D02*
X190120000Y-180350000D01*
X236000000Y-175560000D02*
X232859418Y-175560000D01*
X232859418Y-175560000D02*
X229919418Y-178500000D01*
X223004900Y-177625000D02*
X221000000Y-179629900D01*
%TO.N,RAW*%
X185340305Y-174275000D02*
X175775000Y-174275000D01*
X173515000Y-179765000D02*
X173515000Y-185235000D01*
X186405000Y-173210305D02*
X185340305Y-174275000D01*
X168625000Y-185056701D02*
X168625000Y-181525000D01*
X175750000Y-174250000D02*
X175725000Y-174275000D01*
X189573299Y-165675000D02*
X186405000Y-168843299D01*
X175775000Y-174275000D02*
X175750000Y-174250000D01*
X169075000Y-176448604D02*
X172126396Y-179500000D01*
X169313299Y-185745000D02*
X168625000Y-185056701D01*
X173515000Y-185235000D02*
X173005000Y-185745000D01*
X208160000Y-165675000D02*
X189573299Y-165675000D01*
X175725000Y-174275000D02*
X169475000Y-174275000D01*
X186405000Y-168843299D02*
X186405000Y-173210305D01*
X173005000Y-185745000D02*
X169313299Y-185745000D01*
X169475000Y-174275000D02*
X169075000Y-174675000D01*
X172126396Y-179500000D02*
X173250000Y-179500000D01*
X173250000Y-179500000D02*
X173515000Y-179765000D01*
X169075000Y-174675000D02*
X169075000Y-176448604D01*
X169800000Y-181725000D02*
X169800000Y-180350000D01*
X168625000Y-181525000D02*
X169800000Y-180350000D01*
X208235000Y-165750000D02*
X208160000Y-165675000D01*
%TO.N,RST*%
X209366270Y-169475000D02*
X206860000Y-169475000D01*
X214383148Y-159650000D02*
X214925000Y-160191852D01*
X188755000Y-168370000D02*
X188755000Y-169816701D01*
X190625000Y-166500000D02*
X188755000Y-168370000D01*
X172262792Y-179000000D02*
X173530000Y-179000000D01*
X214925000Y-163916270D02*
X209366270Y-169475000D01*
X188750000Y-173405305D02*
X187430305Y-174725000D01*
X196250000Y-164350000D02*
X208916852Y-164350000D01*
X169661396Y-174725000D02*
X169525000Y-174861396D01*
X188755000Y-169816701D02*
X188750000Y-169821701D01*
X206860000Y-168051726D02*
X205308274Y-166500000D01*
X169525000Y-174861396D02*
X169525000Y-176262208D01*
X213616852Y-159650000D02*
X214383148Y-159650000D01*
X173530000Y-179000000D02*
X174880000Y-180350000D01*
X188750000Y-169821701D02*
X188750000Y-173405305D01*
X169525000Y-176262208D02*
X172262792Y-179000000D01*
X205308274Y-166500000D02*
X190625000Y-166500000D01*
X208916852Y-164350000D02*
X213616852Y-159650000D01*
X214925000Y-160191852D02*
X214925000Y-163916270D01*
X174880000Y-181725000D02*
X174880000Y-180350000D01*
X187430305Y-174725000D02*
X169661396Y-174725000D01*
X206860000Y-169475000D02*
X206860000Y-168051726D01*
%TO.N,VCC*%
X177420000Y-181725000D02*
X177420000Y-180350000D01*
%TO.N,P21*%
X179960000Y-181725000D02*
X179960000Y-180350000D01*
%TO.N,P20*%
X182500000Y-181725000D02*
X182500000Y-180350000D01*
%TO.N,P19*%
X185040000Y-181725000D02*
X185040000Y-180350000D01*
%TO.N,P18*%
X187580000Y-181725000D02*
X187580000Y-180350000D01*
%TO.N,P1*%
X169800000Y-172175000D02*
X169800000Y-173550000D01*
%TO.N,P0*%
X172340000Y-172175000D02*
X172340000Y-173550000D01*
%TO.N,P7*%
X192660000Y-172175000D02*
X192660000Y-173550000D01*
%TO.N,P8*%
X195200000Y-172175000D02*
X195200000Y-173550000D01*
%TO.N,P9*%
X197740000Y-172175000D02*
X197740000Y-173550000D01*
%TO.N,MCU1_24*%
X169800000Y-184570000D02*
X169800000Y-182450000D01*
%TO.N,MCU1_1*%
X169800000Y-171450000D02*
X169800000Y-169330000D01*
%TO.N,MCU1_23*%
X172340000Y-184570000D02*
X172340000Y-182450000D01*
%TO.N,MCU1_2*%
X172340000Y-171450000D02*
X172340000Y-169330000D01*
%TO.N,MCU1_22*%
X174880000Y-184570000D02*
X174880000Y-182450000D01*
%TO.N,MCU1_3*%
X174880000Y-171450000D02*
X174880000Y-169330000D01*
%TO.N,MCU1_21*%
X177420000Y-184570000D02*
X177420000Y-182450000D01*
%TO.N,MCU1_4*%
X177420000Y-171450000D02*
X177420000Y-169330000D01*
%TO.N,MCU1_20*%
X179960000Y-184570000D02*
X179960000Y-182450000D01*
%TO.N,MCU1_5*%
X179960000Y-171450000D02*
X179960000Y-169330000D01*
%TO.N,MCU1_19*%
X182500000Y-184570000D02*
X182500000Y-182450000D01*
%TO.N,MCU1_6*%
X182500000Y-171450000D02*
X182500000Y-169330000D01*
%TO.N,MCU1_18*%
X185040000Y-184570000D02*
X185040000Y-182450000D01*
%TO.N,MCU1_7*%
X185040000Y-171450000D02*
X185040000Y-169330000D01*
%TO.N,MCU1_17*%
X187580000Y-184570000D02*
X187580000Y-182450000D01*
%TO.N,MCU1_8*%
X187580000Y-171450000D02*
X187580000Y-169330000D01*
%TO.N,MCU1_16*%
X190120000Y-184570000D02*
X190120000Y-182450000D01*
%TO.N,MCU1_9*%
X190120000Y-171450000D02*
X190120000Y-169330000D01*
%TO.N,MCU1_15*%
X192660000Y-184570000D02*
X192660000Y-182450000D01*
%TO.N,MCU1_10*%
X192660000Y-171450000D02*
X192660000Y-169330000D01*
%TO.N,MCU1_14*%
X195200000Y-184570000D02*
X195200000Y-182450000D01*
%TO.N,MCU1_11*%
X195200000Y-171450000D02*
X195200000Y-169330000D01*
%TO.N,MCU1_13*%
X197740000Y-184570000D02*
X197740000Y-182450000D01*
%TO.N,MCU1_12*%
X197740000Y-171450000D02*
X197740000Y-169330000D01*
%TO.N,BAT_P*%
X214000000Y-163666000D02*
X210416000Y-167250000D01*
X210416000Y-167250000D02*
X208235000Y-167250000D01*
%TO.N,JST1_1*%
X214000000Y-162650000D02*
X214000000Y-160850000D01*
%TO.N,JST1_2*%
X216000000Y-162650000D02*
X216000000Y-160850000D01*
%TD*%
M02*
