%TF.GenerationSoftware,KiCad,Pcbnew,9.0.1*%
%TF.CreationDate,2025-04-06T20:34:19+08:00*%
%TF.ProjectId,board,626f6172-642e-46b6-9963-61645f706362,v1.0.0*%
%TF.SameCoordinates,Original*%
%TF.FileFunction,Soldermask,Top*%
%TF.FilePolarity,Negative*%
%FSLAX46Y46*%
G04 Gerber Fmt 4.6, Leading zero omitted, Abs format (unit mm)*
G04 Created by KiCad (PCBNEW 9.0.1) date 2025-04-06 20:34:19*
%MOMM*%
%LPD*%
G01*
G04 APERTURE LIST*
G04 Aperture macros list*
%AMRoundRect*
0 Rectangle with rounded corners*
0 $1 Rounding radius*
0 $2 $3 $4 $5 $6 $7 $8 $9 X,Y pos of 4 corners*
0 Add a 4 corners polygon primitive as box body*
4,1,4,$2,$3,$4,$5,$6,$7,$8,$9,$2,$3,0*
0 Add four circle primitives for the rounded corners*
1,1,$1+$1,$2,$3*
1,1,$1+$1,$4,$5*
1,1,$1+$1,$6,$7*
1,1,$1+$1,$8,$9*
0 Add four rect primitives between the rounded corners*
20,1,$1+$1,$2,$3,$4,$5,0*
20,1,$1+$1,$4,$5,$6,$7,0*
20,1,$1+$1,$6,$7,$8,$9,0*
20,1,$1+$1,$8,$9,$2,$3,0*%
%AMFreePoly0*
4,1,14,1.335355,1.335355,1.350000,1.300000,1.350000,-0.117000,1.335355,-0.152355,0.152355,-1.335355,0.117000,-1.350000,-1.300000,-1.350000,-1.335355,-1.335355,-1.350000,-1.300000,-1.350000,1.300000,-1.335355,1.335355,-1.300000,1.350000,1.300000,1.350000,1.335355,1.335355,1.335355,1.335355,$1*%
%AMFreePoly1*
4,1,16,-0.214645,0.660355,-0.210957,0.656235,0.289043,0.031235,0.299694,-0.005522,0.289043,-0.031235,-0.210957,-0.656235,-0.244478,-0.674694,-0.250000,-0.675000,-0.500000,-0.675000,-0.535355,-0.660355,-0.550000,-0.625000,-0.550000,0.625000,-0.535355,0.660355,-0.500000,0.675000,-0.250000,0.675000,-0.214645,0.660355,-0.214645,0.660355,$1*%
%AMFreePoly2*
4,1,16,0.535355,0.660355,0.550000,0.625000,0.550000,-0.625000,0.535355,-0.660355,0.500000,-0.675000,-0.650000,-0.675000,-0.685355,-0.660355,-0.700000,-0.625000,-0.689043,-0.593765,-0.214031,0.000000,-0.689043,0.593765,-0.699694,0.630522,-0.681235,0.664043,-0.650000,0.675000,0.500000,0.675000,0.535355,0.660355,0.535355,0.660355,$1*%
G04 Aperture macros list end*
%ADD10C,5.100000*%
%ADD11C,2.000000*%
%ADD12C,3.100000*%
%ADD13FreePoly0,0.000000*%
%ADD14RoundRect,0.050000X-1.300000X-1.300000X1.300000X-1.300000X1.300000X1.300000X-1.300000X1.300000X0*%
%ADD15RoundRect,0.050000X-0.450000X-0.600000X0.450000X-0.600000X0.450000X0.600000X-0.450000X0.600000X0*%
%ADD16C,1.800000*%
%ADD17C,0.900000*%
%ADD18FreePoly1,90.000000*%
%ADD19FreePoly2,90.000000*%
%ADD20FreePoly2,270.000000*%
%ADD21FreePoly1,270.000000*%
%ADD22RoundRect,0.050000X-0.500000X-0.400000X0.500000X-0.400000X0.500000X0.400000X-0.500000X0.400000X0*%
%ADD23RoundRect,0.050000X-0.350000X-0.750000X0.350000X-0.750000X0.350000X0.750000X-0.350000X0.750000X0*%
%ADD24C,1.000000*%
%ADD25RoundRect,0.200000X-0.250000X0.200000X-0.250000X-0.200000X0.250000X-0.200000X0.250000X0.200000X0*%
%ADD26RoundRect,0.175000X-0.300000X0.175000X-0.300000X-0.175000X0.300000X-0.175000X0.300000X0.175000X0*%
G04 APERTURE END LIST*
D10*
%TO.C,S1*%
X175000000Y-156000000D03*
D11*
X180500000Y-156000000D03*
X169500000Y-156000000D03*
X180000000Y-161150000D03*
X170000000Y-161150000D03*
D12*
X175000000Y-150050000D03*
X170000000Y-152250000D03*
D13*
X178275000Y-150050000D03*
D14*
X166725000Y-152250000D03*
D12*
X180000000Y-152250000D03*
%TD*%
D10*
%TO.C,S2*%
X175000000Y-137000000D03*
D11*
X180500000Y-137000000D03*
X169500000Y-137000000D03*
X180000000Y-142150000D03*
X170000000Y-142150000D03*
D12*
X175000000Y-131050000D03*
X170000000Y-133250000D03*
D13*
X178275000Y-131050000D03*
D14*
X166725000Y-133250000D03*
D12*
X180000000Y-133250000D03*
%TD*%
D10*
%TO.C,S3*%
X175000000Y-118000000D03*
D11*
X180500000Y-118000000D03*
X169500000Y-118000000D03*
X180000000Y-123150000D03*
X170000000Y-123150000D03*
D12*
X175000000Y-112050000D03*
X170000000Y-114250000D03*
D13*
X178275000Y-112050000D03*
D14*
X166725000Y-114250000D03*
D12*
X180000000Y-114250000D03*
%TD*%
D10*
%TO.C,S4*%
X194000000Y-151000000D03*
D11*
X199500000Y-151000000D03*
X188500000Y-151000000D03*
X199000000Y-156150000D03*
X189000000Y-156150000D03*
D12*
X194000000Y-145050000D03*
X189000000Y-147250000D03*
D13*
X197275000Y-145050000D03*
D14*
X185725000Y-147250000D03*
D12*
X199000000Y-147250000D03*
%TD*%
D10*
%TO.C,S5*%
X194000000Y-132000000D03*
D11*
X199500000Y-132000000D03*
X188500000Y-132000000D03*
X199000000Y-137150000D03*
X189000000Y-137150000D03*
D12*
X194000000Y-126050000D03*
X189000000Y-128250000D03*
D13*
X197275000Y-126050000D03*
D14*
X185725000Y-128250000D03*
D12*
X199000000Y-128250000D03*
%TD*%
D10*
%TO.C,S6*%
X194000000Y-113000000D03*
D11*
X199500000Y-113000000D03*
X188500000Y-113000000D03*
X199000000Y-118150000D03*
X189000000Y-118150000D03*
D12*
X194000000Y-107050000D03*
X189000000Y-109250000D03*
D13*
X197275000Y-107050000D03*
D14*
X185725000Y-109250000D03*
D12*
X199000000Y-109250000D03*
%TD*%
D10*
%TO.C,S7*%
X213000000Y-148000000D03*
D11*
X218500000Y-148000000D03*
X207500000Y-148000000D03*
X218000000Y-153150000D03*
X208000000Y-153150000D03*
D12*
X213000000Y-142050000D03*
X208000000Y-144250000D03*
D13*
X216275000Y-142050000D03*
D14*
X204725000Y-144250000D03*
D12*
X218000000Y-144250000D03*
%TD*%
D10*
%TO.C,S8*%
X213000000Y-129000000D03*
D11*
X218500000Y-129000000D03*
X207500000Y-129000000D03*
X218000000Y-134150000D03*
X208000000Y-134150000D03*
D12*
X213000000Y-123050000D03*
X208000000Y-125250000D03*
D13*
X216275000Y-123050000D03*
D14*
X204725000Y-125250000D03*
D12*
X218000000Y-125250000D03*
%TD*%
D10*
%TO.C,S9*%
X213000000Y-110000000D03*
D11*
X218500000Y-110000000D03*
X207500000Y-110000000D03*
X218000000Y-115150000D03*
X208000000Y-115150000D03*
D12*
X213000000Y-104050000D03*
X208000000Y-106250000D03*
D13*
X216275000Y-104050000D03*
D14*
X204725000Y-106250000D03*
D12*
X218000000Y-106250000D03*
%TD*%
D10*
%TO.C,S10*%
X232000000Y-175000000D03*
D11*
X237500000Y-175000000D03*
X226500000Y-175000000D03*
X237000000Y-180150000D03*
X227000000Y-180150000D03*
D12*
X232000000Y-169050000D03*
X227000000Y-171250000D03*
D13*
X235275000Y-169050000D03*
D14*
X223725000Y-171250000D03*
D12*
X237000000Y-171250000D03*
%TD*%
D10*
%TO.C,S11*%
X232000000Y-156000000D03*
D11*
X237500000Y-156000000D03*
X226500000Y-156000000D03*
X237000000Y-161150000D03*
X227000000Y-161150000D03*
D12*
X232000000Y-150050000D03*
X227000000Y-152250000D03*
D13*
X235275000Y-150050000D03*
D14*
X223725000Y-152250000D03*
D12*
X237000000Y-152250000D03*
%TD*%
D10*
%TO.C,S12*%
X232000000Y-137000000D03*
D11*
X237500000Y-137000000D03*
X226500000Y-137000000D03*
X237000000Y-142150000D03*
X227000000Y-142150000D03*
D12*
X232000000Y-131050000D03*
X227000000Y-133250000D03*
D13*
X235275000Y-131050000D03*
D14*
X223725000Y-133250000D03*
D12*
X237000000Y-133250000D03*
%TD*%
D10*
%TO.C,S13*%
X232000000Y-118000000D03*
D11*
X237500000Y-118000000D03*
X226500000Y-118000000D03*
X237000000Y-123150000D03*
X227000000Y-123150000D03*
D12*
X232000000Y-112050000D03*
X227000000Y-114250000D03*
D13*
X235275000Y-112050000D03*
D14*
X223725000Y-114250000D03*
D12*
X237000000Y-114250000D03*
%TD*%
D10*
%TO.C,S14*%
X251000000Y-177000000D03*
D11*
X256500000Y-177000000D03*
X245500000Y-177000000D03*
X256000000Y-182150000D03*
X246000000Y-182150000D03*
D12*
X251000000Y-171050000D03*
X246000000Y-173250000D03*
D13*
X254275000Y-171050000D03*
D14*
X242725000Y-173250000D03*
D12*
X256000000Y-173250000D03*
%TD*%
D10*
%TO.C,S15*%
X251000000Y-158000000D03*
D11*
X256500000Y-158000000D03*
X245500000Y-158000000D03*
X256000000Y-163150000D03*
X246000000Y-163150000D03*
D12*
X251000000Y-152050000D03*
X246000000Y-154250000D03*
D13*
X254275000Y-152050000D03*
D14*
X242725000Y-154250000D03*
D12*
X256000000Y-154250000D03*
%TD*%
D10*
%TO.C,S16*%
X251000000Y-139000000D03*
D11*
X256500000Y-139000000D03*
X245500000Y-139000000D03*
X256000000Y-144150000D03*
X246000000Y-144150000D03*
D12*
X251000000Y-133050000D03*
X246000000Y-135250000D03*
D13*
X254275000Y-133050000D03*
D14*
X242725000Y-135250000D03*
D12*
X256000000Y-135250000D03*
%TD*%
D10*
%TO.C,S17*%
X251000000Y-120000000D03*
D11*
X256500000Y-120000000D03*
X245500000Y-120000000D03*
X256000000Y-125150000D03*
X246000000Y-125150000D03*
D12*
X251000000Y-114050000D03*
X246000000Y-116250000D03*
D13*
X254275000Y-114050000D03*
D14*
X242725000Y-116250000D03*
D12*
X256000000Y-116250000D03*
%TD*%
D15*
%TO.C,D1*%
X173350000Y-162080000D03*
X176650000Y-162080000D03*
%TD*%
%TO.C,D2*%
X173350000Y-143080000D03*
X176650000Y-143080000D03*
%TD*%
%TO.C,D3*%
X173350000Y-124080000D03*
X176650000Y-124080000D03*
%TD*%
%TO.C,D4*%
X192350000Y-157080000D03*
X195650000Y-157080000D03*
%TD*%
%TO.C,D5*%
X192350000Y-138080000D03*
X195650000Y-138080000D03*
%TD*%
%TO.C,D6*%
X192350000Y-119080000D03*
X195650000Y-119080000D03*
%TD*%
%TO.C,D7*%
X211350000Y-154080000D03*
X214650000Y-154080000D03*
%TD*%
%TO.C,D8*%
X211350000Y-135080000D03*
X214650000Y-135080000D03*
%TD*%
%TO.C,D9*%
X211350000Y-116080000D03*
X214650000Y-116080000D03*
%TD*%
%TO.C,D10*%
X230350000Y-181080000D03*
X233650000Y-181080000D03*
%TD*%
%TO.C,D11*%
X230350000Y-162080000D03*
X233650000Y-162080000D03*
%TD*%
%TO.C,D12*%
X230350000Y-143080000D03*
X233650000Y-143080000D03*
%TD*%
%TO.C,D13*%
X230350000Y-124080000D03*
X233650000Y-124080000D03*
%TD*%
%TO.C,D14*%
X249350000Y-183080000D03*
X252650000Y-183080000D03*
%TD*%
%TO.C,D15*%
X249350000Y-164080000D03*
X252650000Y-164080000D03*
%TD*%
%TO.C,D16*%
X249350000Y-145080000D03*
X252650000Y-145080000D03*
%TD*%
%TO.C,D17*%
X249350000Y-126080000D03*
X252650000Y-126080000D03*
%TD*%
D16*
%TO.C,MCU1*%
X170800000Y-184120000D03*
X170800000Y-168880000D03*
D17*
X170800000Y-179900000D03*
X170800000Y-173100000D03*
D18*
X170800000Y-182000000D03*
D19*
X170800000Y-181275000D03*
D20*
X170800000Y-171725000D03*
D21*
X170800000Y-171000000D03*
D16*
X173340000Y-184120000D03*
X173340000Y-168880000D03*
D17*
X173340000Y-179900000D03*
X173340000Y-173100000D03*
D18*
X173340000Y-182000000D03*
D19*
X173340000Y-181275000D03*
D20*
X173340000Y-171725000D03*
D21*
X173340000Y-171000000D03*
D16*
X175880000Y-184120000D03*
X175880000Y-168880000D03*
D17*
X175880000Y-179900000D03*
X175880000Y-173100000D03*
D18*
X175880000Y-182000000D03*
D19*
X175880000Y-181275000D03*
D20*
X175880000Y-171725000D03*
D21*
X175880000Y-171000000D03*
D16*
X178420000Y-184120000D03*
X178420000Y-168880000D03*
D17*
X178420000Y-179900000D03*
X178420000Y-173100000D03*
D18*
X178420000Y-182000000D03*
D19*
X178420000Y-181275000D03*
D20*
X178420000Y-171725000D03*
D21*
X178420000Y-171000000D03*
D16*
X180960000Y-184120000D03*
X180960000Y-168880000D03*
D17*
X180960000Y-179900000D03*
X180960000Y-173100000D03*
D18*
X180960000Y-182000000D03*
D19*
X180960000Y-181275000D03*
D20*
X180960000Y-171725000D03*
D21*
X180960000Y-171000000D03*
D16*
X183500000Y-184120000D03*
X183500000Y-168880000D03*
D17*
X183500000Y-179900000D03*
X183500000Y-173100000D03*
D18*
X183500000Y-182000000D03*
D19*
X183500000Y-181275000D03*
D20*
X183500000Y-171725000D03*
D21*
X183500000Y-171000000D03*
D16*
X186040000Y-184120000D03*
X186040000Y-168880000D03*
D17*
X186040000Y-179900000D03*
X186040000Y-173100000D03*
D18*
X186040000Y-182000000D03*
D19*
X186040000Y-181275000D03*
D20*
X186040000Y-171725000D03*
D21*
X186040000Y-171000000D03*
D16*
X188580000Y-184120000D03*
X188580000Y-168880000D03*
D17*
X188580000Y-179900000D03*
X188580000Y-173100000D03*
D18*
X188580000Y-182000000D03*
D19*
X188580000Y-181275000D03*
D20*
X188580000Y-171725000D03*
D21*
X188580000Y-171000000D03*
D16*
X191120000Y-184120000D03*
X191120000Y-168880000D03*
D17*
X191120000Y-179900000D03*
X191120000Y-173100000D03*
D18*
X191120000Y-182000000D03*
D19*
X191120000Y-181275000D03*
D20*
X191120000Y-171725000D03*
D21*
X191120000Y-171000000D03*
D16*
X193660000Y-184120000D03*
X193660000Y-168880000D03*
D17*
X193660000Y-179900000D03*
X193660000Y-173100000D03*
D18*
X193660000Y-182000000D03*
D19*
X193660000Y-181275000D03*
D20*
X193660000Y-171725000D03*
D21*
X193660000Y-171000000D03*
D16*
X196200000Y-184120000D03*
X196200000Y-168880000D03*
D17*
X196200000Y-179900000D03*
X196200000Y-173100000D03*
D18*
X196200000Y-182000000D03*
D19*
X196200000Y-181275000D03*
D20*
X196200000Y-171725000D03*
D21*
X196200000Y-171000000D03*
D16*
X198740000Y-184120000D03*
X198740000Y-168880000D03*
D17*
X198740000Y-179900000D03*
X198740000Y-173100000D03*
D18*
X198740000Y-182000000D03*
D19*
X198740000Y-181275000D03*
D20*
X198740000Y-171725000D03*
D21*
X198740000Y-171000000D03*
%TD*%
D16*
%TO.C,RST1*%
X214250000Y-184000000D03*
X220750000Y-184000000D03*
%TD*%
D22*
%TO.C,PWR1*%
X210650000Y-185125000D03*
X210650000Y-182915000D03*
X203350000Y-182915000D03*
X203350000Y-185125000D03*
D23*
X204750000Y-182265000D03*
X207750000Y-182265000D03*
X209250000Y-182265000D03*
D24*
X208500000Y-184025000D03*
X205500000Y-184025000D03*
%TD*%
D25*
%TO.C,CONN1*%
X216600000Y-162750000D03*
X216600000Y-159250000D03*
D26*
X220375000Y-161600000D03*
X220375000Y-160400000D03*
%TD*%
D10*
%TO.C,MH1*%
X184500000Y-119900000D03*
%TD*%
%TO.C,MH2*%
X184500000Y-160750000D03*
%TD*%
%TO.C,MH3*%
X241500000Y-121900000D03*
%TD*%
%TO.C,MH4*%
X241500000Y-179850000D03*
%TD*%
M02*
