%TF.GenerationSoftware,KiCad,Pcbnew,9.0.1*%
%TF.CreationDate,2025-04-06T20:34:19+08:00*%
%TF.ProjectId,board,626f6172-642e-46b6-9963-61645f706362,v1.0.0*%
%TF.SameCoordinates,Original*%
%TF.FileFunction,Paste,Top*%
%TF.FilePolarity,Positive*%
%FSLAX46Y46*%
G04 Gerber Fmt 4.6, Leading zero omitted, Abs format (unit mm)*
G04 Created by KiCad (PCBNEW 9.0.1) date 2025-04-06 20:34:19*
%MOMM*%
%LPD*%
G01*
G04 APERTURE LIST*
G04 Aperture macros list*
%AMRoundRect*
0 Rectangle with rounded corners*
0 $1 Rounding radius*
0 $2 $3 $4 $5 $6 $7 $8 $9 X,Y pos of 4 corners*
0 Add a 4 corners polygon primitive as box body*
4,1,4,$2,$3,$4,$5,$6,$7,$8,$9,$2,$3,0*
0 Add four circle primitives for the rounded corners*
1,1,$1+$1,$2,$3*
1,1,$1+$1,$4,$5*
1,1,$1+$1,$6,$7*
1,1,$1+$1,$8,$9*
0 Add four rect primitives between the rounded corners*
20,1,$1+$1,$2,$3,$4,$5,0*
20,1,$1+$1,$4,$5,$6,$7,0*
20,1,$1+$1,$6,$7,$8,$9,0*
20,1,$1+$1,$8,$9,$2,$3,0*%
%AMOutline5P*
0 Free polygon, 5 corners , with rotation*
0 The origin of the aperture is its center*
0 number of corners: always 5*
0 $1 to $10 corner X, Y*
0 $11 Rotation angle, in degrees counterclockwise*
0 create outline with 5 corners*
4,1,5,$1,$2,$3,$4,$5,$6,$7,$8,$9,$10,$1,$2,$11*%
%AMOutline6P*
0 Free polygon, 6 corners , with rotation*
0 The origin of the aperture is its center*
0 number of corners: always 6*
0 $1 to $12 corner X, Y*
0 $13 Rotation angle, in degrees counterclockwise*
0 create outline with 6 corners*
4,1,6,$1,$2,$3,$4,$5,$6,$7,$8,$9,$10,$11,$12,$1,$2,$13*%
%AMOutline7P*
0 Free polygon, 7 corners , with rotation*
0 The origin of the aperture is its center*
0 number of corners: always 7*
0 $1 to $14 corner X, Y*
0 $15 Rotation angle, in degrees counterclockwise*
0 create outline with 7 corners*
4,1,7,$1,$2,$3,$4,$5,$6,$7,$8,$9,$10,$11,$12,$13,$14,$1,$2,$15*%
%AMOutline8P*
0 Free polygon, 8 corners , with rotation*
0 The origin of the aperture is its center*
0 number of corners: always 8*
0 $1 to $16 corner X, Y*
0 $17 Rotation angle, in degrees counterclockwise*
0 create outline with 8 corners*
4,1,8,$1,$2,$3,$4,$5,$6,$7,$8,$9,$10,$11,$12,$13,$14,$15,$16,$1,$2,$17*%
%AMFreePoly0*
4,1,6,0.250000,0.000000,-0.250000,-0.625000,-0.500000,-0.625000,-0.500000,0.625000,-0.250000,0.625000,0.250000,0.000000,0.250000,0.000000,$1*%
%AMFreePoly1*
4,1,6,0.500000,-0.625000,-0.650000,-0.625000,-0.150000,0.000000,-0.650000,0.625000,0.500000,0.625000,0.500000,-0.625000,0.500000,-0.625000,$1*%
G04 Aperture macros list end*
%ADD10Outline5P,-1.300000X1.300000X1.300000X1.300000X1.300000X-0.117000X0.117000X-1.300000X-1.300000X-1.300000X0.000000*%
%ADD11R,2.600000X2.600000*%
%ADD12R,0.900000X1.200000*%
%ADD13FreePoly0,90.000000*%
%ADD14FreePoly1,90.000000*%
%ADD15FreePoly1,270.000000*%
%ADD16FreePoly0,270.000000*%
%ADD17R,1.000000X0.800000*%
%ADD18R,0.700000X1.500000*%
%ADD19RoundRect,0.175000X-0.225000X0.175000X-0.225000X-0.175000X0.225000X-0.175000X0.225000X0.175000X0*%
%ADD20RoundRect,0.150000X-0.275000X0.150000X-0.275000X-0.150000X0.275000X-0.150000X0.275000X0.150000X0*%
G04 APERTURE END LIST*
D10*
%TO.C,S1*%
X178275000Y-150050000D03*
D11*
X166725000Y-152250000D03*
%TD*%
D10*
%TO.C,S2*%
X178275000Y-131050000D03*
D11*
X166725000Y-133250000D03*
%TD*%
D10*
%TO.C,S3*%
X178275000Y-112050000D03*
D11*
X166725000Y-114250000D03*
%TD*%
D10*
%TO.C,S4*%
X197275000Y-145050000D03*
D11*
X185725000Y-147250000D03*
%TD*%
D10*
%TO.C,S5*%
X197275000Y-126050000D03*
D11*
X185725000Y-128250000D03*
%TD*%
D10*
%TO.C,S6*%
X197275000Y-107050000D03*
D11*
X185725000Y-109250000D03*
%TD*%
D10*
%TO.C,S7*%
X216275000Y-142050000D03*
D11*
X204725000Y-144250000D03*
%TD*%
D10*
%TO.C,S8*%
X216275000Y-123050000D03*
D11*
X204725000Y-125250000D03*
%TD*%
D10*
%TO.C,S9*%
X216275000Y-104050000D03*
D11*
X204725000Y-106250000D03*
%TD*%
D10*
%TO.C,S10*%
X235275000Y-169050000D03*
D11*
X223725000Y-171250000D03*
%TD*%
D10*
%TO.C,S11*%
X235275000Y-150050000D03*
D11*
X223725000Y-152250000D03*
%TD*%
D10*
%TO.C,S12*%
X235275000Y-131050000D03*
D11*
X223725000Y-133250000D03*
%TD*%
D10*
%TO.C,S13*%
X235275000Y-112050000D03*
D11*
X223725000Y-114250000D03*
%TD*%
D10*
%TO.C,S14*%
X254275000Y-171050000D03*
D11*
X242725000Y-173250000D03*
%TD*%
D10*
%TO.C,S15*%
X254275000Y-152050000D03*
D11*
X242725000Y-154250000D03*
%TD*%
D10*
%TO.C,S16*%
X254275000Y-133050000D03*
D11*
X242725000Y-135250000D03*
%TD*%
D10*
%TO.C,S17*%
X254275000Y-114050000D03*
D11*
X242725000Y-116250000D03*
%TD*%
D12*
%TO.C,D1*%
X173350000Y-162080000D03*
X176650000Y-162080000D03*
%TD*%
%TO.C,D2*%
X173350000Y-143080000D03*
X176650000Y-143080000D03*
%TD*%
%TO.C,D3*%
X173350000Y-124080000D03*
X176650000Y-124080000D03*
%TD*%
%TO.C,D4*%
X192350000Y-157080000D03*
X195650000Y-157080000D03*
%TD*%
%TO.C,D5*%
X192350000Y-138080000D03*
X195650000Y-138080000D03*
%TD*%
%TO.C,D6*%
X192350000Y-119080000D03*
X195650000Y-119080000D03*
%TD*%
%TO.C,D7*%
X211350000Y-154080000D03*
X214650000Y-154080000D03*
%TD*%
%TO.C,D8*%
X211350000Y-135080000D03*
X214650000Y-135080000D03*
%TD*%
%TO.C,D9*%
X211350000Y-116080000D03*
X214650000Y-116080000D03*
%TD*%
%TO.C,D10*%
X230350000Y-181080000D03*
X233650000Y-181080000D03*
%TD*%
%TO.C,D11*%
X230350000Y-162080000D03*
X233650000Y-162080000D03*
%TD*%
%TO.C,D12*%
X230350000Y-143080000D03*
X233650000Y-143080000D03*
%TD*%
%TO.C,D13*%
X230350000Y-124080000D03*
X233650000Y-124080000D03*
%TD*%
%TO.C,D14*%
X249350000Y-183080000D03*
X252650000Y-183080000D03*
%TD*%
%TO.C,D15*%
X249350000Y-164080000D03*
X252650000Y-164080000D03*
%TD*%
%TO.C,D16*%
X249350000Y-145080000D03*
X252650000Y-145080000D03*
%TD*%
%TO.C,D17*%
X249350000Y-126080000D03*
X252650000Y-126080000D03*
%TD*%
D13*
%TO.C,MCU1*%
X170800000Y-182000000D03*
D14*
X170800000Y-181275000D03*
D15*
X170800000Y-171725000D03*
D16*
X170800000Y-171000000D03*
D13*
X173340000Y-182000000D03*
D14*
X173340000Y-181275000D03*
D15*
X173340000Y-171725000D03*
D16*
X173340000Y-171000000D03*
D13*
X175880000Y-182000000D03*
D14*
X175880000Y-181275000D03*
D15*
X175880000Y-171725000D03*
D16*
X175880000Y-171000000D03*
D13*
X178420000Y-182000000D03*
D14*
X178420000Y-181275000D03*
D15*
X178420000Y-171725000D03*
D16*
X178420000Y-171000000D03*
D13*
X180960000Y-182000000D03*
D14*
X180960000Y-181275000D03*
D15*
X180960000Y-171725000D03*
D16*
X180960000Y-171000000D03*
D13*
X183500000Y-182000000D03*
D14*
X183500000Y-181275000D03*
D15*
X183500000Y-171725000D03*
D16*
X183500000Y-171000000D03*
D13*
X186040000Y-182000000D03*
D14*
X186040000Y-181275000D03*
D15*
X186040000Y-171725000D03*
D16*
X186040000Y-171000000D03*
D13*
X188580000Y-182000000D03*
D14*
X188580000Y-181275000D03*
D15*
X188580000Y-171725000D03*
D16*
X188580000Y-171000000D03*
D13*
X191120000Y-182000000D03*
D14*
X191120000Y-181275000D03*
D15*
X191120000Y-171725000D03*
D16*
X191120000Y-171000000D03*
D13*
X193660000Y-182000000D03*
D14*
X193660000Y-181275000D03*
D15*
X193660000Y-171725000D03*
D16*
X193660000Y-171000000D03*
D13*
X196200000Y-182000000D03*
D14*
X196200000Y-181275000D03*
D15*
X196200000Y-171725000D03*
D16*
X196200000Y-171000000D03*
D13*
X198740000Y-182000000D03*
D14*
X198740000Y-181275000D03*
D15*
X198740000Y-171725000D03*
D16*
X198740000Y-171000000D03*
%TD*%
D17*
%TO.C,PWR1*%
X210650000Y-185125000D03*
X210650000Y-182915000D03*
X203350000Y-182915000D03*
X203350000Y-185125000D03*
D18*
X204750000Y-182265000D03*
X207750000Y-182265000D03*
X209250000Y-182265000D03*
%TD*%
D19*
%TO.C,CONN1*%
X216600000Y-162750000D03*
X216600000Y-159250000D03*
D20*
X220375000Y-161600000D03*
X220375000Y-160400000D03*
%TD*%
M02*
