M48
; DRILL file {KiCad 9.0.1} date 2025-04-06T20:34:22+0800
; FORMAT={-:-/ absolute / metric / decimal}
; #@! TF.CreationDate,2025-04-06T20:34:22+08:00
; #@! TF.GenerationSoftware,Kicad,Pcbnew,9.0.1
; #@! TF.FileFunction,Plated,1,2,PTH
FMAT,2
METRIC
; #@! TA.AperFunction,Plated,PTH,ViaDrill
T1C0.300
; #@! TA.AperFunction,Plated,PTH,ComponentDrill
T2C0.400
; #@! TA.AperFunction,Plated,PTH,ComponentDrill
T3C1.000
; #@! TA.AperFunction,Plated,PTH,ComponentDrill
T4C1.600
%
G90
G05
T1
X172.15Y-124.08
X172.15Y-143.08
X172.15Y-162.08
X175.0Y-114.125
X175.0Y-114.925
X175.0Y-133.125
X175.0Y-133.925
X175.0Y-152.125
X175.0Y-152.925
X177.85Y-124.08
X177.85Y-143.08
X177.85Y-162.08
X191.15Y-119.08
X191.15Y-138.08
X191.15Y-157.08
X194.0Y-109.125
X194.0Y-109.925
X194.0Y-128.125
X194.0Y-128.925
X194.0Y-147.125
X194.0Y-147.925
X196.85Y-119.08
X196.85Y-138.08
X196.85Y-157.08
X207.75Y-182.265
X209.25Y-182.265
X210.15Y-116.08
X210.15Y-135.08
X210.15Y-154.08
X213.0Y-106.125
X213.0Y-106.925
X213.0Y-125.125
X213.0Y-125.925
X213.0Y-144.125
X213.0Y-144.925
X215.85Y-116.08
X215.85Y-135.08
X215.85Y-154.08
X219.137Y-161.637
X219.487Y-162.487
X229.15Y-124.08
X229.15Y-143.08
X229.15Y-162.08
X229.15Y-181.08
X232.0Y-114.125
X232.0Y-114.925
X232.0Y-133.125
X232.0Y-133.925
X232.0Y-152.125
X232.0Y-152.925
X232.0Y-171.125
X232.0Y-171.925
X234.85Y-124.08
X234.85Y-143.08
X234.85Y-162.08
X234.85Y-181.08
X248.15Y-126.08
X248.15Y-145.08
X248.15Y-164.08
X248.15Y-183.08
X251.0Y-116.125
X251.0Y-116.925
X251.0Y-135.125
X251.0Y-135.925
X251.0Y-154.125
X251.0Y-154.925
X251.0Y-173.125
X251.0Y-173.925
X253.85Y-126.08
X253.85Y-145.08
X253.85Y-164.08
X253.85Y-183.08
T2
X170.8Y-173.1
X170.8Y-179.9
X173.34Y-173.1
X173.34Y-179.9
X175.88Y-173.1
X175.88Y-179.9
X178.42Y-173.1
X178.42Y-179.9
X180.96Y-173.1
X180.96Y-179.9
X183.5Y-173.1
X183.5Y-179.9
X186.04Y-173.1
X186.04Y-179.9
X188.58Y-173.1
X188.58Y-179.9
X191.12Y-173.1
X191.12Y-179.9
X193.66Y-173.1
X193.66Y-179.9
X196.2Y-173.1
X196.2Y-179.9
X198.74Y-173.1
X198.74Y-179.9
T3
X170.8Y-168.88
X170.8Y-184.12
X173.34Y-168.88
X173.34Y-184.12
X175.88Y-168.88
X175.88Y-184.12
X178.42Y-168.88
X178.42Y-184.12
X180.96Y-168.88
X180.96Y-184.12
X183.5Y-168.88
X183.5Y-184.12
X186.04Y-168.88
X186.04Y-184.12
X188.58Y-168.88
X188.58Y-184.12
X191.12Y-168.88
X191.12Y-184.12
X193.66Y-168.88
X193.66Y-184.12
X196.2Y-168.88
X196.2Y-184.12
X198.74Y-168.88
X198.74Y-184.12
X214.25Y-184.0
X220.75Y-184.0
T4
X170.0Y-123.15
X170.0Y-142.15
X170.0Y-161.15
X180.0Y-123.15
X180.0Y-142.15
X180.0Y-161.15
X189.0Y-118.15
X189.0Y-137.15
X189.0Y-156.15
X199.0Y-118.15
X199.0Y-137.15
X199.0Y-156.15
X208.0Y-115.15
X208.0Y-134.15
X208.0Y-153.15
X218.0Y-115.15
X218.0Y-134.15
X218.0Y-153.15
X227.0Y-123.15
X227.0Y-142.15
X227.0Y-161.15
X227.0Y-180.15
X237.0Y-123.15
X237.0Y-142.15
X237.0Y-161.15
X237.0Y-180.15
X246.0Y-125.15
X246.0Y-144.15
X246.0Y-163.15
X246.0Y-182.15
X256.0Y-125.15
X256.0Y-144.15
X256.0Y-163.15
X256.0Y-182.15
M30
