%TF.GenerationSoftware,KiCad,Pcbnew,9.0.1*%
%TF.CreationDate,2025-04-06T20:32:32+08:00*%
%TF.ProjectId,board,626f6172-642e-46b6-9963-61645f706362,v1.0.0*%
%TF.SameCoordinates,Original*%
%TF.FileFunction,Copper,L1,Top*%
%TF.FilePolarity,Positive*%
%FSLAX46Y46*%
G04 Gerber Fmt 4.6, Leading zero omitted, Abs format (unit mm)*
G04 Created by KiCad (PCBNEW 9.0.1) date 2025-04-06 20:32:32*
%MOMM*%
%LPD*%
G01*
G04 APERTURE LIST*
G04 Aperture macros list*
%AMRoundRect*
0 Rectangle with rounded corners*
0 $1 Rounding radius*
0 $2 $3 $4 $5 $6 $7 $8 $9 X,Y pos of 4 corners*
0 Add a 4 corners polygon primitive as box body*
4,1,4,$2,$3,$4,$5,$6,$7,$8,$9,$2,$3,0*
0 Add four circle primitives for the rounded corners*
1,1,$1+$1,$2,$3*
1,1,$1+$1,$4,$5*
1,1,$1+$1,$6,$7*
1,1,$1+$1,$8,$9*
0 Add four rect primitives between the rounded corners*
20,1,$1+$1,$2,$3,$4,$5,0*
20,1,$1+$1,$4,$5,$6,$7,0*
20,1,$1+$1,$6,$7,$8,$9,0*
20,1,$1+$1,$8,$9,$2,$3,0*%
%AMOutline5P*
0 Free polygon, 5 corners , with rotation*
0 The origin of the aperture is its center*
0 number of corners: always 5*
0 $1 to $10 corner X, Y*
0 $11 Rotation angle, in degrees counterclockwise*
0 create outline with 5 corners*
4,1,5,$1,$2,$3,$4,$5,$6,$7,$8,$9,$10,$1,$2,$11*%
%AMOutline6P*
0 Free polygon, 6 corners , with rotation*
0 The origin of the aperture is its center*
0 number of corners: always 6*
0 $1 to $12 corner X, Y*
0 $13 Rotation angle, in degrees counterclockwise*
0 create outline with 6 corners*
4,1,6,$1,$2,$3,$4,$5,$6,$7,$8,$9,$10,$11,$12,$1,$2,$13*%
%AMOutline7P*
0 Free polygon, 7 corners , with rotation*
0 The origin of the aperture is its center*
0 number of corners: always 7*
0 $1 to $14 corner X, Y*
0 $15 Rotation angle, in degrees counterclockwise*
0 create outline with 7 corners*
4,1,7,$1,$2,$3,$4,$5,$6,$7,$8,$9,$10,$11,$12,$13,$14,$1,$2,$15*%
%AMOutline8P*
0 Free polygon, 8 corners , with rotation*
0 The origin of the aperture is its center*
0 number of corners: always 8*
0 $1 to $16 corner X, Y*
0 $17 Rotation angle, in degrees counterclockwise*
0 create outline with 8 corners*
4,1,8,$1,$2,$3,$4,$5,$6,$7,$8,$9,$10,$11,$12,$13,$14,$15,$16,$1,$2,$17*%
%AMFreePoly0*
4,1,6,0.250000,0.000000,-0.250000,-0.625000,-0.500000,-0.625000,-0.500000,0.625000,-0.250000,0.625000,0.250000,0.000000,0.250000,0.000000,$1*%
%AMFreePoly1*
4,1,6,0.500000,-0.625000,-0.650000,-0.625000,-0.150000,0.000000,-0.650000,0.625000,0.500000,0.625000,0.500000,-0.625000,0.500000,-0.625000,$1*%
G04 Aperture macros list end*
%TA.AperFunction,ComponentPad*%
%ADD10C,1.900000*%
%TD*%
%TA.AperFunction,SMDPad,CuDef*%
%ADD11Outline5P,-1.300000X1.300000X1.300000X1.300000X1.300000X-0.117000X0.117000X-1.300000X-1.300000X-1.300000X0.000000*%
%TD*%
%TA.AperFunction,SMDPad,CuDef*%
%ADD12R,2.600000X2.600000*%
%TD*%
%TA.AperFunction,SMDPad,CuDef*%
%ADD13R,0.900000X1.200000*%
%TD*%
%TA.AperFunction,ComponentPad*%
%ADD14C,1.700000*%
%TD*%
%TA.AperFunction,ComponentPad*%
%ADD15C,0.800000*%
%TD*%
%TA.AperFunction,SMDPad,CuDef*%
%ADD16FreePoly0,90.000000*%
%TD*%
%TA.AperFunction,SMDPad,CuDef*%
%ADD17FreePoly1,90.000000*%
%TD*%
%TA.AperFunction,SMDPad,CuDef*%
%ADD18FreePoly1,270.000000*%
%TD*%
%TA.AperFunction,SMDPad,CuDef*%
%ADD19FreePoly0,270.000000*%
%TD*%
%TA.AperFunction,SMDPad,CuDef*%
%ADD20R,1.000000X0.800000*%
%TD*%
%TA.AperFunction,SMDPad,CuDef*%
%ADD21R,0.700000X1.500000*%
%TD*%
%TA.AperFunction,SMDPad,CuDef*%
%ADD22RoundRect,0.175000X-0.225000X0.175000X-0.225000X-0.175000X0.225000X-0.175000X0.225000X0.175000X0*%
%TD*%
%TA.AperFunction,SMDPad,CuDef*%
%ADD23RoundRect,0.150000X-0.275000X0.150000X-0.275000X-0.150000X0.275000X-0.150000X0.275000X0.150000X0*%
%TD*%
%TA.AperFunction,ViaPad*%
%ADD24C,0.600000*%
%TD*%
%TA.AperFunction,Conductor*%
%ADD25C,0.200000*%
%TD*%
%TA.AperFunction,Conductor*%
%ADD26C,0.250000*%
%TD*%
G04 APERTURE END LIST*
D10*
%TO.P,S1,*%
%TO.N,*%
X180000000Y-161150000D03*
X170000000Y-161150000D03*
D11*
%TO.P,S1,1*%
%TO.N,P2*%
X178275000Y-150050000D03*
D12*
%TO.P,S1,2*%
%TO.N,pinky_bottom*%
X166725000Y-152250000D03*
%TD*%
D10*
%TO.P,S2,*%
%TO.N,*%
X180000000Y-142150000D03*
X170000000Y-142150000D03*
D11*
%TO.P,S2,1*%
%TO.N,P2*%
X178275000Y-131050000D03*
D12*
%TO.P,S2,2*%
%TO.N,pinky_home*%
X166725000Y-133250000D03*
%TD*%
D10*
%TO.P,S3,*%
%TO.N,*%
X180000000Y-123150000D03*
X170000000Y-123150000D03*
D11*
%TO.P,S3,1*%
%TO.N,P2*%
X178275000Y-112050000D03*
D12*
%TO.P,S3,2*%
%TO.N,pinky_top*%
X166725000Y-114250000D03*
%TD*%
D10*
%TO.P,S4,*%
%TO.N,*%
X199000000Y-156150000D03*
X189000000Y-156150000D03*
D11*
%TO.P,S4,1*%
%TO.N,P3*%
X197275000Y-145050000D03*
D12*
%TO.P,S4,2*%
%TO.N,ring_bottom*%
X185725000Y-147250000D03*
%TD*%
D10*
%TO.P,S5,*%
%TO.N,*%
X199000000Y-137150000D03*
X189000000Y-137150000D03*
D11*
%TO.P,S5,1*%
%TO.N,P3*%
X197275000Y-126050000D03*
D12*
%TO.P,S5,2*%
%TO.N,ring_home*%
X185725000Y-128250000D03*
%TD*%
D10*
%TO.P,S6,*%
%TO.N,*%
X199000000Y-118150000D03*
X189000000Y-118150000D03*
D11*
%TO.P,S6,1*%
%TO.N,P3*%
X197275000Y-107050000D03*
D12*
%TO.P,S6,2*%
%TO.N,ring_top*%
X185725000Y-109250000D03*
%TD*%
D10*
%TO.P,S7,*%
%TO.N,*%
X218000000Y-153150000D03*
X208000000Y-153150000D03*
D11*
%TO.P,S7,1*%
%TO.N,P4*%
X216275000Y-142050000D03*
D12*
%TO.P,S7,2*%
%TO.N,middle_bottom*%
X204725000Y-144250000D03*
%TD*%
D10*
%TO.P,S8,*%
%TO.N,*%
X218000000Y-134150000D03*
X208000000Y-134150000D03*
D11*
%TO.P,S8,1*%
%TO.N,P4*%
X216275000Y-123050000D03*
D12*
%TO.P,S8,2*%
%TO.N,middle_home*%
X204725000Y-125250000D03*
%TD*%
D10*
%TO.P,S9,*%
%TO.N,*%
X218000000Y-115150000D03*
X208000000Y-115150000D03*
D11*
%TO.P,S9,1*%
%TO.N,P4*%
X216275000Y-104050000D03*
D12*
%TO.P,S9,2*%
%TO.N,middle_top*%
X204725000Y-106250000D03*
%TD*%
D10*
%TO.P,S10,*%
%TO.N,*%
X237000000Y-180150000D03*
X227000000Y-180150000D03*
D11*
%TO.P,S10,1*%
%TO.N,P5*%
X235275000Y-169050000D03*
D12*
%TO.P,S10,2*%
%TO.N,index_thumb*%
X223725000Y-171250000D03*
%TD*%
D10*
%TO.P,S11,*%
%TO.N,*%
X237000000Y-161150000D03*
X227000000Y-161150000D03*
D11*
%TO.P,S11,1*%
%TO.N,P5*%
X235275000Y-150050000D03*
D12*
%TO.P,S11,2*%
%TO.N,index_bottom*%
X223725000Y-152250000D03*
%TD*%
D10*
%TO.P,S12,*%
%TO.N,*%
X237000000Y-142150000D03*
X227000000Y-142150000D03*
D11*
%TO.P,S12,1*%
%TO.N,P5*%
X235275000Y-131050000D03*
D12*
%TO.P,S12,2*%
%TO.N,index_home*%
X223725000Y-133250000D03*
%TD*%
D10*
%TO.P,S13,*%
%TO.N,*%
X237000000Y-123150000D03*
X227000000Y-123150000D03*
D11*
%TO.P,S13,1*%
%TO.N,P5*%
X235275000Y-112050000D03*
D12*
%TO.P,S13,2*%
%TO.N,index_top*%
X223725000Y-114250000D03*
%TD*%
D10*
%TO.P,S14,*%
%TO.N,*%
X256000000Y-182150000D03*
X246000000Y-182150000D03*
D11*
%TO.P,S14,1*%
%TO.N,P6*%
X254275000Y-171050000D03*
D12*
%TO.P,S14,2*%
%TO.N,inner_thumb*%
X242725000Y-173250000D03*
%TD*%
D10*
%TO.P,S15,*%
%TO.N,*%
X256000000Y-163150000D03*
X246000000Y-163150000D03*
D11*
%TO.P,S15,1*%
%TO.N,P6*%
X254275000Y-152050000D03*
D12*
%TO.P,S15,2*%
%TO.N,inner_bottom*%
X242725000Y-154250000D03*
%TD*%
D10*
%TO.P,S16,*%
%TO.N,*%
X256000000Y-144150000D03*
X246000000Y-144150000D03*
D11*
%TO.P,S16,1*%
%TO.N,P6*%
X254275000Y-133050000D03*
D12*
%TO.P,S16,2*%
%TO.N,inner_home*%
X242725000Y-135250000D03*
%TD*%
D10*
%TO.P,S17,*%
%TO.N,*%
X256000000Y-125150000D03*
X246000000Y-125150000D03*
D11*
%TO.P,S17,1*%
%TO.N,P6*%
X254275000Y-114050000D03*
D12*
%TO.P,S17,2*%
%TO.N,inner_top*%
X242725000Y-116250000D03*
%TD*%
D13*
%TO.P,D1,1*%
%TO.N,P16*%
X173350000Y-162080000D03*
%TO.P,D1,2*%
%TO.N,pinky_bottom*%
X176650000Y-162080000D03*
%TD*%
%TO.P,D2,1*%
%TO.N,P14*%
X173350000Y-143080000D03*
%TO.P,D2,2*%
%TO.N,pinky_home*%
X176650000Y-143080000D03*
%TD*%
%TO.P,D3,1*%
%TO.N,P15*%
X173350000Y-124080000D03*
%TO.P,D3,2*%
%TO.N,pinky_top*%
X176650000Y-124080000D03*
%TD*%
%TO.P,D4,1*%
%TO.N,P16*%
X192350000Y-157080000D03*
%TO.P,D4,2*%
%TO.N,ring_bottom*%
X195650000Y-157080000D03*
%TD*%
%TO.P,D5,1*%
%TO.N,P14*%
X192350000Y-138080000D03*
%TO.P,D5,2*%
%TO.N,ring_home*%
X195650000Y-138080000D03*
%TD*%
%TO.P,D6,1*%
%TO.N,P15*%
X192350000Y-119080000D03*
%TO.P,D6,2*%
%TO.N,ring_top*%
X195650000Y-119080000D03*
%TD*%
%TO.P,D7,1*%
%TO.N,P16*%
X211350000Y-154080000D03*
%TO.P,D7,2*%
%TO.N,middle_bottom*%
X214650000Y-154080000D03*
%TD*%
%TO.P,D8,1*%
%TO.N,P14*%
X211350000Y-135080000D03*
%TO.P,D8,2*%
%TO.N,middle_home*%
X214650000Y-135080000D03*
%TD*%
%TO.P,D9,1*%
%TO.N,P15*%
X211350000Y-116080000D03*
%TO.P,D9,2*%
%TO.N,middle_top*%
X214650000Y-116080000D03*
%TD*%
%TO.P,D10,1*%
%TO.N,P10*%
X230350000Y-181080000D03*
%TO.P,D10,2*%
%TO.N,index_thumb*%
X233650000Y-181080000D03*
%TD*%
%TO.P,D11,1*%
%TO.N,P16*%
X230350000Y-162080000D03*
%TO.P,D11,2*%
%TO.N,index_bottom*%
X233650000Y-162080000D03*
%TD*%
%TO.P,D12,1*%
%TO.N,P14*%
X230350000Y-143080000D03*
%TO.P,D12,2*%
%TO.N,index_home*%
X233650000Y-143080000D03*
%TD*%
%TO.P,D13,1*%
%TO.N,P15*%
X230350000Y-124080000D03*
%TO.P,D13,2*%
%TO.N,index_top*%
X233650000Y-124080000D03*
%TD*%
%TO.P,D14,1*%
%TO.N,P10*%
X249350000Y-183080000D03*
%TO.P,D14,2*%
%TO.N,inner_thumb*%
X252650000Y-183080000D03*
%TD*%
%TO.P,D15,1*%
%TO.N,P16*%
X249350000Y-164080000D03*
%TO.P,D15,2*%
%TO.N,inner_bottom*%
X252650000Y-164080000D03*
%TD*%
%TO.P,D16,1*%
%TO.N,P14*%
X249350000Y-145080000D03*
%TO.P,D16,2*%
%TO.N,inner_home*%
X252650000Y-145080000D03*
%TD*%
%TO.P,D17,1*%
%TO.N,P15*%
X249350000Y-126080000D03*
%TO.P,D17,2*%
%TO.N,inner_top*%
X252650000Y-126080000D03*
%TD*%
D14*
%TO.P,MCU1,24*%
%TO.N,MCU1_24*%
X170800000Y-184120000D03*
%TO.P,MCU1,1*%
%TO.N,MCU1_1*%
X170800000Y-168880000D03*
D15*
%TO.P,MCU1,124*%
%TO.N,RAW*%
X170800000Y-179900000D03*
%TO.P,MCU1,101*%
%TO.N,P1*%
X170800000Y-173100000D03*
D16*
%TO.P,MCU1,24*%
%TO.N,MCU1_24*%
X170800000Y-182000000D03*
D17*
%TO.P,MCU1,124*%
%TO.N,RAW*%
X170800000Y-181275000D03*
D18*
%TO.P,MCU1,101*%
%TO.N,P1*%
X170800000Y-171725000D03*
D19*
%TO.P,MCU1,1*%
%TO.N,MCU1_1*%
X170800000Y-171000000D03*
D14*
%TO.P,MCU1,23*%
%TO.N,MCU1_23*%
X173340000Y-184120000D03*
%TO.P,MCU1,2*%
%TO.N,MCU1_2*%
X173340000Y-168880000D03*
D15*
%TO.P,MCU1,123*%
%TO.N,GND*%
X173340000Y-179900000D03*
%TO.P,MCU1,102*%
%TO.N,P0*%
X173340000Y-173100000D03*
D16*
%TO.P,MCU1,23*%
%TO.N,MCU1_23*%
X173340000Y-182000000D03*
D17*
%TO.P,MCU1,123*%
%TO.N,GND*%
X173340000Y-181275000D03*
D18*
%TO.P,MCU1,102*%
%TO.N,P0*%
X173340000Y-171725000D03*
D19*
%TO.P,MCU1,2*%
%TO.N,MCU1_2*%
X173340000Y-171000000D03*
D14*
%TO.P,MCU1,22*%
%TO.N,MCU1_22*%
X175880000Y-184120000D03*
%TO.P,MCU1,3*%
%TO.N,MCU1_3*%
X175880000Y-168880000D03*
D15*
%TO.P,MCU1,122*%
%TO.N,RST*%
X175880000Y-179900000D03*
%TO.P,MCU1,103*%
%TO.N,GND*%
X175880000Y-173100000D03*
D16*
%TO.P,MCU1,22*%
%TO.N,MCU1_22*%
X175880000Y-182000000D03*
D17*
%TO.P,MCU1,122*%
%TO.N,RST*%
X175880000Y-181275000D03*
D18*
%TO.P,MCU1,103*%
%TO.N,GND*%
X175880000Y-171725000D03*
D19*
%TO.P,MCU1,3*%
%TO.N,MCU1_3*%
X175880000Y-171000000D03*
D14*
%TO.P,MCU1,21*%
%TO.N,MCU1_21*%
X178420000Y-184120000D03*
%TO.P,MCU1,4*%
%TO.N,MCU1_4*%
X178420000Y-168880000D03*
D15*
%TO.P,MCU1,121*%
%TO.N,VCC*%
X178420000Y-179900000D03*
%TO.P,MCU1,104*%
%TO.N,GND*%
X178420000Y-173100000D03*
D16*
%TO.P,MCU1,21*%
%TO.N,MCU1_21*%
X178420000Y-182000000D03*
D17*
%TO.P,MCU1,121*%
%TO.N,VCC*%
X178420000Y-181275000D03*
D18*
%TO.P,MCU1,104*%
%TO.N,GND*%
X178420000Y-171725000D03*
D19*
%TO.P,MCU1,4*%
%TO.N,MCU1_4*%
X178420000Y-171000000D03*
D14*
%TO.P,MCU1,20*%
%TO.N,MCU1_20*%
X180960000Y-184120000D03*
%TO.P,MCU1,5*%
%TO.N,MCU1_5*%
X180960000Y-168880000D03*
D15*
%TO.P,MCU1,120*%
%TO.N,P21*%
X180960000Y-179900000D03*
%TO.P,MCU1,105*%
%TO.N,P2*%
X180960000Y-173100000D03*
D16*
%TO.P,MCU1,20*%
%TO.N,MCU1_20*%
X180960000Y-182000000D03*
D17*
%TO.P,MCU1,120*%
%TO.N,P21*%
X180960000Y-181275000D03*
D18*
%TO.P,MCU1,105*%
%TO.N,P2*%
X180960000Y-171725000D03*
D19*
%TO.P,MCU1,5*%
%TO.N,MCU1_5*%
X180960000Y-171000000D03*
D14*
%TO.P,MCU1,19*%
%TO.N,MCU1_19*%
X183500000Y-184120000D03*
%TO.P,MCU1,6*%
%TO.N,MCU1_6*%
X183500000Y-168880000D03*
D15*
%TO.P,MCU1,119*%
%TO.N,P20*%
X183500000Y-179900000D03*
%TO.P,MCU1,106*%
%TO.N,P3*%
X183500000Y-173100000D03*
D16*
%TO.P,MCU1,19*%
%TO.N,MCU1_19*%
X183500000Y-182000000D03*
D17*
%TO.P,MCU1,119*%
%TO.N,P20*%
X183500000Y-181275000D03*
D18*
%TO.P,MCU1,106*%
%TO.N,P3*%
X183500000Y-171725000D03*
D19*
%TO.P,MCU1,6*%
%TO.N,MCU1_6*%
X183500000Y-171000000D03*
D14*
%TO.P,MCU1,18*%
%TO.N,MCU1_18*%
X186040000Y-184120000D03*
%TO.P,MCU1,7*%
%TO.N,MCU1_7*%
X186040000Y-168880000D03*
D15*
%TO.P,MCU1,118*%
%TO.N,P19*%
X186040000Y-179900000D03*
%TO.P,MCU1,107*%
%TO.N,P4*%
X186040000Y-173100000D03*
D16*
%TO.P,MCU1,18*%
%TO.N,MCU1_18*%
X186040000Y-182000000D03*
D17*
%TO.P,MCU1,118*%
%TO.N,P19*%
X186040000Y-181275000D03*
D18*
%TO.P,MCU1,107*%
%TO.N,P4*%
X186040000Y-171725000D03*
D19*
%TO.P,MCU1,7*%
%TO.N,MCU1_7*%
X186040000Y-171000000D03*
D14*
%TO.P,MCU1,17*%
%TO.N,MCU1_17*%
X188580000Y-184120000D03*
%TO.P,MCU1,8*%
%TO.N,MCU1_8*%
X188580000Y-168880000D03*
D15*
%TO.P,MCU1,117*%
%TO.N,P18*%
X188580000Y-179900000D03*
%TO.P,MCU1,108*%
%TO.N,P5*%
X188580000Y-173100000D03*
D16*
%TO.P,MCU1,17*%
%TO.N,MCU1_17*%
X188580000Y-182000000D03*
D17*
%TO.P,MCU1,117*%
%TO.N,P18*%
X188580000Y-181275000D03*
D18*
%TO.P,MCU1,108*%
%TO.N,P5*%
X188580000Y-171725000D03*
D19*
%TO.P,MCU1,8*%
%TO.N,MCU1_8*%
X188580000Y-171000000D03*
D14*
%TO.P,MCU1,16*%
%TO.N,MCU1_16*%
X191120000Y-184120000D03*
%TO.P,MCU1,9*%
%TO.N,MCU1_9*%
X191120000Y-168880000D03*
D15*
%TO.P,MCU1,116*%
%TO.N,P15*%
X191120000Y-179900000D03*
%TO.P,MCU1,109*%
%TO.N,P6*%
X191120000Y-173100000D03*
D16*
%TO.P,MCU1,16*%
%TO.N,MCU1_16*%
X191120000Y-182000000D03*
D17*
%TO.P,MCU1,116*%
%TO.N,P15*%
X191120000Y-181275000D03*
D18*
%TO.P,MCU1,109*%
%TO.N,P6*%
X191120000Y-171725000D03*
D19*
%TO.P,MCU1,9*%
%TO.N,MCU1_9*%
X191120000Y-171000000D03*
D14*
%TO.P,MCU1,15*%
%TO.N,MCU1_15*%
X193660000Y-184120000D03*
%TO.P,MCU1,10*%
%TO.N,MCU1_10*%
X193660000Y-168880000D03*
D15*
%TO.P,MCU1,115*%
%TO.N,P14*%
X193660000Y-179900000D03*
%TO.P,MCU1,110*%
%TO.N,P7*%
X193660000Y-173100000D03*
D16*
%TO.P,MCU1,15*%
%TO.N,MCU1_15*%
X193660000Y-182000000D03*
D17*
%TO.P,MCU1,115*%
%TO.N,P14*%
X193660000Y-181275000D03*
D18*
%TO.P,MCU1,110*%
%TO.N,P7*%
X193660000Y-171725000D03*
D19*
%TO.P,MCU1,10*%
%TO.N,MCU1_10*%
X193660000Y-171000000D03*
D14*
%TO.P,MCU1,14*%
%TO.N,MCU1_14*%
X196200000Y-184120000D03*
%TO.P,MCU1,11*%
%TO.N,MCU1_11*%
X196200000Y-168880000D03*
D15*
%TO.P,MCU1,114*%
%TO.N,P16*%
X196200000Y-179900000D03*
%TO.P,MCU1,111*%
%TO.N,P8*%
X196200000Y-173100000D03*
D16*
%TO.P,MCU1,14*%
%TO.N,MCU1_14*%
X196200000Y-182000000D03*
D17*
%TO.P,MCU1,114*%
%TO.N,P16*%
X196200000Y-181275000D03*
D18*
%TO.P,MCU1,111*%
%TO.N,P8*%
X196200000Y-171725000D03*
D19*
%TO.P,MCU1,11*%
%TO.N,MCU1_11*%
X196200000Y-171000000D03*
D14*
%TO.P,MCU1,13*%
%TO.N,MCU1_13*%
X198740000Y-184120000D03*
%TO.P,MCU1,12*%
%TO.N,MCU1_12*%
X198740000Y-168880000D03*
D15*
%TO.P,MCU1,113*%
%TO.N,P10*%
X198740000Y-179900000D03*
%TO.P,MCU1,112*%
%TO.N,P9*%
X198740000Y-173100000D03*
D16*
%TO.P,MCU1,13*%
%TO.N,MCU1_13*%
X198740000Y-182000000D03*
D17*
%TO.P,MCU1,113*%
%TO.N,P10*%
X198740000Y-181275000D03*
D18*
%TO.P,MCU1,112*%
%TO.N,P9*%
X198740000Y-171725000D03*
D19*
%TO.P,MCU1,12*%
%TO.N,MCU1_12*%
X198740000Y-171000000D03*
%TD*%
D14*
%TO.P,RST1,2*%
%TO.N,GND*%
X214250000Y-184000000D03*
%TO.P,RST1,1*%
%TO.N,RST*%
X220750000Y-184000000D03*
%TD*%
D20*
%TO.P,PWR1,*%
%TO.N,*%
X210650000Y-185125000D03*
X210650000Y-182915000D03*
X203350000Y-182915000D03*
X203350000Y-185125000D03*
D21*
%TO.P,PWR1,1*%
%TO.N,N/C*%
X204750000Y-182265000D03*
%TO.P,PWR1,2*%
%TO.N,RAW*%
X207750000Y-182265000D03*
%TO.P,PWR1,3*%
%TO.N,BAT_P*%
X209250000Y-182265000D03*
%TD*%
D22*
%TO.P,CONN1,*%
%TO.N,*%
X216600000Y-162750000D03*
X216600000Y-159250000D03*
D23*
%TO.P,CONN1,2*%
%TO.N,BAT_P*%
X220375000Y-161600000D03*
%TO.P,CONN1,1*%
%TO.N,GND*%
X220375000Y-160400000D03*
%TD*%
D24*
%TO.N,BAT_P*%
X209250000Y-182265000D03*
X219137500Y-161637500D03*
%TO.N,GND*%
X219487500Y-162487500D03*
%TO.N,RAW*%
X207750000Y-182265000D03*
%TO.N,P2*%
X175000000Y-152125000D03*
%TO.N,pinky_bottom*%
X175000000Y-152925000D03*
%TO.N,P2*%
X175000000Y-133125000D03*
%TO.N,pinky_home*%
X175000000Y-133925000D03*
%TO.N,P2*%
X175000000Y-114125000D03*
%TO.N,pinky_top*%
X175000000Y-114925000D03*
%TO.N,P3*%
X194000000Y-147125000D03*
%TO.N,ring_bottom*%
X194000000Y-147925000D03*
%TO.N,P3*%
X194000000Y-128125000D03*
%TO.N,ring_home*%
X194000000Y-128925000D03*
%TO.N,P3*%
X194000000Y-109125000D03*
%TO.N,ring_top*%
X194000000Y-109925000D03*
%TO.N,P4*%
X213000000Y-144125000D03*
%TO.N,middle_bottom*%
X213000000Y-144925000D03*
%TO.N,P4*%
X213000000Y-125125000D03*
%TO.N,middle_home*%
X213000000Y-125925000D03*
%TO.N,P4*%
X213000000Y-106125000D03*
%TO.N,middle_top*%
X213000000Y-106925000D03*
%TO.N,P5*%
X232000000Y-171125000D03*
%TO.N,index_thumb*%
X232000000Y-171925000D03*
%TO.N,P5*%
X232000000Y-152125000D03*
%TO.N,index_bottom*%
X232000000Y-152925000D03*
%TO.N,P5*%
X232000000Y-133125000D03*
%TO.N,index_home*%
X232000000Y-133925000D03*
%TO.N,P5*%
X232000000Y-114125000D03*
%TO.N,index_top*%
X232000000Y-114925000D03*
%TO.N,P6*%
X251000000Y-173125000D03*
%TO.N,inner_thumb*%
X251000000Y-173925000D03*
%TO.N,P6*%
X251000000Y-154125000D03*
%TO.N,inner_bottom*%
X251000000Y-154925000D03*
%TO.N,P6*%
X251000000Y-135125000D03*
%TO.N,inner_home*%
X251000000Y-135925000D03*
%TO.N,P6*%
X251000000Y-116125000D03*
%TO.N,inner_top*%
X251000000Y-116925000D03*
%TO.N,pinky_bottom*%
X177850000Y-162080000D03*
%TO.N,P16*%
X172150000Y-162080000D03*
%TO.N,pinky_home*%
X177850000Y-143080000D03*
%TO.N,P14*%
X172150000Y-143080000D03*
%TO.N,pinky_top*%
X177850000Y-124080000D03*
%TO.N,P15*%
X172150000Y-124080000D03*
%TO.N,ring_bottom*%
X196850000Y-157080000D03*
%TO.N,P16*%
X191150000Y-157080000D03*
%TO.N,ring_home*%
X196850000Y-138080000D03*
%TO.N,P14*%
X191150000Y-138080000D03*
%TO.N,ring_top*%
X196850000Y-119080000D03*
%TO.N,P15*%
X191150000Y-119080000D03*
%TO.N,middle_bottom*%
X215850000Y-154080000D03*
%TO.N,P16*%
X210150000Y-154080000D03*
%TO.N,middle_home*%
X215850000Y-135080000D03*
%TO.N,P14*%
X210150000Y-135080000D03*
%TO.N,middle_top*%
X215850000Y-116080000D03*
%TO.N,P15*%
X210150000Y-116080000D03*
%TO.N,index_thumb*%
X234850000Y-181080000D03*
%TO.N,P10*%
X229150000Y-181080000D03*
%TO.N,index_bottom*%
X234850000Y-162080000D03*
%TO.N,P16*%
X229150000Y-162080000D03*
%TO.N,index_home*%
X234850000Y-143080000D03*
%TO.N,P14*%
X229150000Y-143080000D03*
%TO.N,index_top*%
X234850000Y-124080000D03*
%TO.N,P15*%
X229150000Y-124080000D03*
%TO.N,inner_thumb*%
X253850000Y-183080000D03*
%TO.N,P10*%
X248150000Y-183080000D03*
%TO.N,inner_bottom*%
X253850000Y-164080000D03*
%TO.N,P16*%
X248150000Y-164080000D03*
%TO.N,inner_home*%
X253850000Y-145080000D03*
%TO.N,P14*%
X248150000Y-145080000D03*
%TO.N,inner_top*%
X253850000Y-126080000D03*
%TO.N,P15*%
X248150000Y-126080000D03*
%TD*%
D25*
%TO.N,BAT_P*%
X219175000Y-161600000D02*
X219137500Y-161637500D01*
X220375000Y-161600000D02*
X219175000Y-161600000D01*
%TO.N,GND*%
X220375000Y-160400000D02*
X221101000Y-161126000D01*
X221101000Y-161940968D02*
X220554468Y-162487500D01*
X220554468Y-162487500D02*
X219487500Y-162487500D01*
X221101000Y-161126000D02*
X221101000Y-161940968D01*
%TO.N,RAW*%
X207750000Y-182265000D02*
X204684000Y-179199000D01*
X204684000Y-179199000D02*
X171501000Y-179199000D01*
X171501000Y-179199000D02*
X170800000Y-179900000D01*
%TO.N,RST*%
X220750000Y-184000000D02*
X218924000Y-185826000D01*
X218924000Y-185826000D02*
X178498240Y-185826000D01*
X177269000Y-184596760D02*
X177269000Y-182034000D01*
X176510000Y-181275000D02*
X175880000Y-181275000D01*
X178498240Y-185826000D02*
X177269000Y-184596760D01*
X177269000Y-182034000D02*
X176510000Y-181275000D01*
D26*
%TO.N,P6*%
X191120000Y-171725000D02*
X191238107Y-171725000D01*
X191238107Y-171725000D02*
X192484000Y-170479107D01*
X192484000Y-170479107D02*
X192484000Y-168392884D01*
X203876884Y-157000000D02*
X219000000Y-157000000D01*
X222000000Y-172777000D02*
X227223000Y-178000000D01*
X219000000Y-157000000D02*
X222000000Y-160000000D01*
X227223000Y-178000000D02*
X239282722Y-178000000D01*
X252191278Y-179876000D02*
X253876000Y-178191278D01*
X192484000Y-168392884D02*
X203876884Y-157000000D01*
X222000000Y-160000000D02*
X222000000Y-172777000D01*
X239282722Y-178000000D02*
X240308722Y-176974000D01*
X240308722Y-176974000D02*
X243598753Y-176974000D01*
X243598753Y-176974000D02*
X246500753Y-179876000D01*
X246500753Y-179876000D02*
X252191278Y-179876000D01*
X253876000Y-178191278D02*
X253876000Y-171449000D01*
X253876000Y-171449000D02*
X254275000Y-171050000D01*
%TO.N,P5*%
X203330884Y-155006000D02*
X222494000Y-155006000D01*
X189944000Y-170582894D02*
X189944000Y-168392884D01*
X226376000Y-158876000D02*
X233273000Y-158876000D01*
X188801894Y-171725000D02*
X189944000Y-170582894D01*
X189944000Y-168392884D02*
X203330884Y-155006000D01*
D25*
X235149000Y-150176000D02*
X235149000Y-157000000D01*
D26*
X222494000Y-155006000D02*
X222500000Y-155000000D01*
X188580000Y-171725000D02*
X188801894Y-171725000D01*
X222500000Y-155000000D02*
X226376000Y-158876000D01*
X233273000Y-158876000D02*
X235149000Y-157000000D01*
%TO.N,P4*%
X186040000Y-171725000D02*
X186261894Y-171725000D01*
X186261894Y-171725000D02*
X187404000Y-170582894D01*
X187404000Y-170582894D02*
X187404000Y-167595999D01*
X187404000Y-167595999D02*
X197724000Y-157275999D01*
X216124000Y-142201000D02*
X216275000Y-142050000D01*
X197724000Y-157275999D02*
X197724000Y-155621463D01*
X197724000Y-155621463D02*
X201845463Y-151500000D01*
X216124000Y-148943278D02*
X216124000Y-142201000D01*
X201845463Y-151500000D02*
X213567278Y-151500000D01*
X213567278Y-151500000D02*
X216124000Y-148943278D01*
D25*
%TO.N,P5*%
X235149000Y-157000000D02*
X235149000Y-161529057D01*
D26*
%TO.N,P3*%
X183500000Y-171725000D02*
X184130000Y-171725000D01*
X190524000Y-156160722D02*
X192808722Y-153876000D01*
X196876000Y-152191278D02*
X196876000Y-145449000D01*
X184130000Y-171725000D02*
X184676000Y-171179000D01*
X184676000Y-171179000D02*
X184676000Y-164641278D01*
X195191278Y-153876000D02*
X196876000Y-152191278D01*
X184676000Y-164641278D02*
X190524000Y-158793278D01*
X190524000Y-158793278D02*
X190524000Y-156160722D01*
X192808722Y-153876000D02*
X195191278Y-153876000D01*
X196876000Y-145449000D02*
X197275000Y-145050000D01*
%TO.N,P2*%
X180960000Y-171725000D02*
X181590000Y-171725000D01*
X181276000Y-161678537D02*
X181276000Y-159276000D01*
X181590000Y-171725000D02*
X182324000Y-170991000D01*
X182324000Y-170991000D02*
X182324000Y-162726537D01*
X182324000Y-162726537D02*
X181276000Y-161678537D01*
X181276000Y-159276000D02*
X177876000Y-155876000D01*
X177876000Y-155876000D02*
X177876000Y-150449000D01*
X177876000Y-150449000D02*
X178275000Y-150050000D01*
D25*
%TO.N,P6*%
X254275000Y-152050000D02*
X254149000Y-152176000D01*
X254149000Y-152176000D02*
X254149000Y-163529057D01*
X254500000Y-163880057D02*
X254500000Y-170825000D01*
X254500000Y-170825000D02*
X254275000Y-171050000D01*
X254149000Y-163529057D02*
X254500000Y-163880057D01*
%TO.N,P5*%
X235275000Y-150050000D02*
X235149000Y-150176000D01*
X235149000Y-161529057D02*
X235451000Y-161831057D01*
X235451000Y-161831057D02*
X235451000Y-168874000D01*
X235451000Y-168874000D02*
X235275000Y-169050000D01*
%TO.N,P6*%
X254275000Y-133050000D02*
X254098943Y-133226057D01*
X254098943Y-144479000D02*
X254451000Y-144831057D01*
X254098943Y-133226057D02*
X254098943Y-144479000D01*
X254451000Y-144831057D02*
X254451000Y-151874000D01*
X254451000Y-151874000D02*
X254275000Y-152050000D01*
X254275000Y-114050000D02*
X254098943Y-114226057D01*
X254098943Y-114226057D02*
X254098943Y-125479000D01*
X254451000Y-125831057D02*
X254451000Y-132874000D01*
X254098943Y-125479000D02*
X254451000Y-125831057D01*
X254451000Y-132874000D02*
X254275000Y-133050000D01*
%TO.N,P5*%
X235275000Y-131050000D02*
X235149000Y-131176000D01*
X235149000Y-131176000D02*
X235149000Y-142529057D01*
X235149000Y-142529057D02*
X235451000Y-142831057D01*
X235451000Y-149874000D02*
X235275000Y-150050000D01*
X235451000Y-142831057D02*
X235451000Y-149874000D01*
X235275000Y-112050000D02*
X235149000Y-112176000D01*
X235149000Y-123068182D02*
X236000000Y-123919182D01*
X235149000Y-112176000D02*
X235149000Y-123068182D01*
X236000000Y-123919182D02*
X236000000Y-130325000D01*
X236000000Y-130325000D02*
X235275000Y-131050000D01*
%TO.N,P4*%
X216275000Y-123050000D02*
X216149000Y-123176000D01*
X216149000Y-123176000D02*
X216149000Y-134068182D01*
X216149000Y-134068182D02*
X216451000Y-134370182D01*
X216451000Y-134370182D02*
X216451000Y-141874000D01*
X216451000Y-141874000D02*
X216275000Y-142050000D01*
X216275000Y-104050000D02*
X216149000Y-104176000D01*
X216149000Y-104176000D02*
X216149000Y-115149000D01*
X216149000Y-115149000D02*
X216451000Y-115451000D01*
X216451000Y-122874000D02*
X216275000Y-123050000D01*
X216451000Y-115451000D02*
X216451000Y-122874000D01*
%TO.N,P3*%
X197275000Y-126050000D02*
X197149000Y-126176000D01*
X197451000Y-144874000D02*
X197275000Y-145050000D01*
X197149000Y-126176000D02*
X197149000Y-137529057D01*
X197149000Y-137529057D02*
X197451000Y-137831057D01*
X197451000Y-137831057D02*
X197451000Y-144874000D01*
X197275000Y-107050000D02*
X197149000Y-107176000D01*
X197451000Y-118370182D02*
X197451000Y-125874000D01*
X197149000Y-107176000D02*
X197149000Y-118068182D01*
X197451000Y-125874000D02*
X197275000Y-126050000D01*
X197149000Y-118068182D02*
X197451000Y-118370182D01*
%TO.N,P2*%
X178275000Y-131050000D02*
X178149000Y-131176000D01*
X178149000Y-131176000D02*
X178149000Y-141900000D01*
X178149000Y-141900000D02*
X178749000Y-142500000D01*
X178749000Y-142500000D02*
X178749000Y-149576000D01*
X178749000Y-149576000D02*
X178275000Y-150050000D01*
X178275000Y-112050000D02*
X178149000Y-112176000D01*
X178149000Y-112176000D02*
X178149000Y-123529057D01*
X178149000Y-123529057D02*
X178451000Y-123831057D01*
X178451000Y-123831057D02*
X178451000Y-130874000D01*
X178451000Y-130874000D02*
X178275000Y-131050000D01*
X178275000Y-150050000D02*
X176200000Y-152125000D01*
X176200000Y-152125000D02*
X175000000Y-152125000D01*
%TO.N,pinky_bottom*%
X168579000Y-154104000D02*
X172846000Y-154104000D01*
X174025000Y-152925000D02*
X175000000Y-152925000D01*
X166725000Y-152250000D02*
X168579000Y-154104000D01*
X172846000Y-154104000D02*
X174025000Y-152925000D01*
%TO.N,P2*%
X178275000Y-131050000D02*
X176200000Y-133125000D01*
X176200000Y-133125000D02*
X175000000Y-133125000D01*
%TO.N,pinky_home*%
X168579000Y-135104000D02*
X172846000Y-135104000D01*
X174025000Y-133925000D02*
X175000000Y-133925000D01*
X166725000Y-133250000D02*
X168579000Y-135104000D01*
X172846000Y-135104000D02*
X174025000Y-133925000D01*
%TO.N,P2*%
X178275000Y-112050000D02*
X176200000Y-114125000D01*
X176200000Y-114125000D02*
X175000000Y-114125000D01*
%TO.N,pinky_top*%
X168579000Y-116104000D02*
X172846000Y-116104000D01*
X174025000Y-114925000D02*
X175000000Y-114925000D01*
X166725000Y-114250000D02*
X168579000Y-116104000D01*
X172846000Y-116104000D02*
X174025000Y-114925000D01*
%TO.N,P3*%
X197275000Y-145050000D02*
X195200000Y-147125000D01*
X195200000Y-147125000D02*
X194000000Y-147125000D01*
%TO.N,ring_bottom*%
X187579000Y-149104000D02*
X191846000Y-149104000D01*
X193025000Y-147925000D02*
X194000000Y-147925000D01*
X185725000Y-147250000D02*
X187579000Y-149104000D01*
X191846000Y-149104000D02*
X193025000Y-147925000D01*
%TO.N,P3*%
X197275000Y-126050000D02*
X195200000Y-128125000D01*
X195200000Y-128125000D02*
X194000000Y-128125000D01*
%TO.N,ring_home*%
X187579000Y-130104000D02*
X191846000Y-130104000D01*
X193025000Y-128925000D02*
X194000000Y-128925000D01*
X185725000Y-128250000D02*
X187579000Y-130104000D01*
X191846000Y-130104000D02*
X193025000Y-128925000D01*
%TO.N,P3*%
X197275000Y-107050000D02*
X195200000Y-109125000D01*
X195200000Y-109125000D02*
X194000000Y-109125000D01*
%TO.N,ring_top*%
X187579000Y-111104000D02*
X191846000Y-111104000D01*
X193025000Y-109925000D02*
X194000000Y-109925000D01*
X185725000Y-109250000D02*
X187579000Y-111104000D01*
X191846000Y-111104000D02*
X193025000Y-109925000D01*
%TO.N,P4*%
X216275000Y-142050000D02*
X214200000Y-144125000D01*
X214200000Y-144125000D02*
X213000000Y-144125000D01*
%TO.N,middle_bottom*%
X206579000Y-146104000D02*
X210846000Y-146104000D01*
X212025000Y-144925000D02*
X213000000Y-144925000D01*
X204725000Y-144250000D02*
X206579000Y-146104000D01*
X210846000Y-146104000D02*
X212025000Y-144925000D01*
%TO.N,P4*%
X216275000Y-123050000D02*
X214200000Y-125125000D01*
X214200000Y-125125000D02*
X213000000Y-125125000D01*
%TO.N,middle_home*%
X206579000Y-127104000D02*
X210846000Y-127104000D01*
X212025000Y-125925000D02*
X213000000Y-125925000D01*
X204725000Y-125250000D02*
X206579000Y-127104000D01*
X210846000Y-127104000D02*
X212025000Y-125925000D01*
%TO.N,P4*%
X216275000Y-104050000D02*
X214200000Y-106125000D01*
X214200000Y-106125000D02*
X213000000Y-106125000D01*
%TO.N,middle_top*%
X206579000Y-108104000D02*
X210846000Y-108104000D01*
X212025000Y-106925000D02*
X213000000Y-106925000D01*
X204725000Y-106250000D02*
X206579000Y-108104000D01*
X210846000Y-108104000D02*
X212025000Y-106925000D01*
%TO.N,P5*%
X235275000Y-169050000D02*
X233200000Y-171125000D01*
X233200000Y-171125000D02*
X232000000Y-171125000D01*
%TO.N,index_thumb*%
X225579000Y-173104000D02*
X229846000Y-173104000D01*
X231025000Y-171925000D02*
X232000000Y-171925000D01*
X223725000Y-171250000D02*
X225579000Y-173104000D01*
X229846000Y-173104000D02*
X231025000Y-171925000D01*
%TO.N,P5*%
X235275000Y-150050000D02*
X233200000Y-152125000D01*
X233200000Y-152125000D02*
X232000000Y-152125000D01*
%TO.N,index_bottom*%
X225579000Y-154104000D02*
X229846000Y-154104000D01*
X231025000Y-152925000D02*
X232000000Y-152925000D01*
X223725000Y-152250000D02*
X225579000Y-154104000D01*
X229846000Y-154104000D02*
X231025000Y-152925000D01*
%TO.N,P5*%
X235275000Y-131050000D02*
X233200000Y-133125000D01*
X233200000Y-133125000D02*
X232000000Y-133125000D01*
%TO.N,index_home*%
X225579000Y-135104000D02*
X229846000Y-135104000D01*
X231025000Y-133925000D02*
X232000000Y-133925000D01*
X223725000Y-133250000D02*
X225579000Y-135104000D01*
X229846000Y-135104000D02*
X231025000Y-133925000D01*
%TO.N,P5*%
X235275000Y-112050000D02*
X233200000Y-114125000D01*
X233200000Y-114125000D02*
X232000000Y-114125000D01*
%TO.N,index_top*%
X225579000Y-116104000D02*
X229846000Y-116104000D01*
X231025000Y-114925000D02*
X232000000Y-114925000D01*
X223725000Y-114250000D02*
X225579000Y-116104000D01*
X229846000Y-116104000D02*
X231025000Y-114925000D01*
%TO.N,P6*%
X254275000Y-171050000D02*
X252200000Y-173125000D01*
X252200000Y-173125000D02*
X251000000Y-173125000D01*
%TO.N,inner_thumb*%
X244579000Y-175104000D02*
X248846000Y-175104000D01*
X250025000Y-173925000D02*
X251000000Y-173925000D01*
X242725000Y-173250000D02*
X244579000Y-175104000D01*
X248846000Y-175104000D02*
X250025000Y-173925000D01*
%TO.N,P6*%
X254275000Y-152050000D02*
X252200000Y-154125000D01*
X252200000Y-154125000D02*
X251000000Y-154125000D01*
%TO.N,inner_bottom*%
X244579000Y-156104000D02*
X248846000Y-156104000D01*
X250025000Y-154925000D02*
X251000000Y-154925000D01*
X242725000Y-154250000D02*
X244579000Y-156104000D01*
X248846000Y-156104000D02*
X250025000Y-154925000D01*
%TO.N,P6*%
X254275000Y-133050000D02*
X252200000Y-135125000D01*
X252200000Y-135125000D02*
X251000000Y-135125000D01*
%TO.N,inner_home*%
X244579000Y-137104000D02*
X248846000Y-137104000D01*
X250025000Y-135925000D02*
X251000000Y-135925000D01*
X242725000Y-135250000D02*
X244579000Y-137104000D01*
X248846000Y-137104000D02*
X250025000Y-135925000D01*
%TO.N,P6*%
X254275000Y-114050000D02*
X252200000Y-116125000D01*
X252200000Y-116125000D02*
X251000000Y-116125000D01*
%TO.N,inner_top*%
X244579000Y-118104000D02*
X248846000Y-118104000D01*
X250025000Y-116925000D02*
X251000000Y-116925000D01*
X242725000Y-116250000D02*
X244579000Y-118104000D01*
X248846000Y-118104000D02*
X250025000Y-116925000D01*
D26*
%TO.N,pinky_bottom*%
X176650000Y-162080000D02*
X177850000Y-162080000D01*
%TO.N,P16*%
X173350000Y-162080000D02*
X172150000Y-162080000D01*
%TO.N,pinky_home*%
X176650000Y-143080000D02*
X177850000Y-143080000D01*
%TO.N,P14*%
X173350000Y-143080000D02*
X172150000Y-143080000D01*
%TO.N,pinky_top*%
X176650000Y-124080000D02*
X177850000Y-124080000D01*
%TO.N,P15*%
X173350000Y-124080000D02*
X172150000Y-124080000D01*
%TO.N,ring_bottom*%
X195650000Y-157080000D02*
X196850000Y-157080000D01*
%TO.N,P16*%
X192350000Y-157080000D02*
X191150000Y-157080000D01*
%TO.N,ring_home*%
X195650000Y-138080000D02*
X196850000Y-138080000D01*
%TO.N,P14*%
X192350000Y-138080000D02*
X191150000Y-138080000D01*
%TO.N,ring_top*%
X195650000Y-119080000D02*
X196850000Y-119080000D01*
%TO.N,P15*%
X192350000Y-119080000D02*
X191150000Y-119080000D01*
%TO.N,middle_bottom*%
X214650000Y-154080000D02*
X215850000Y-154080000D01*
%TO.N,P16*%
X211350000Y-154080000D02*
X210150000Y-154080000D01*
%TO.N,middle_home*%
X214650000Y-135080000D02*
X215850000Y-135080000D01*
%TO.N,P14*%
X211350000Y-135080000D02*
X210150000Y-135080000D01*
%TO.N,middle_top*%
X214650000Y-116080000D02*
X215850000Y-116080000D01*
%TO.N,P15*%
X211350000Y-116080000D02*
X210150000Y-116080000D01*
%TO.N,index_thumb*%
X233650000Y-181080000D02*
X234850000Y-181080000D01*
%TO.N,P10*%
X230350000Y-181080000D02*
X229150000Y-181080000D01*
%TO.N,index_bottom*%
X233650000Y-162080000D02*
X234850000Y-162080000D01*
%TO.N,P16*%
X230350000Y-162080000D02*
X229150000Y-162080000D01*
%TO.N,index_home*%
X233650000Y-143080000D02*
X234850000Y-143080000D01*
%TO.N,P14*%
X230350000Y-143080000D02*
X229150000Y-143080000D01*
%TO.N,index_top*%
X233650000Y-124080000D02*
X234850000Y-124080000D01*
%TO.N,P15*%
X230350000Y-124080000D02*
X229150000Y-124080000D01*
%TO.N,inner_thumb*%
X252650000Y-183080000D02*
X253850000Y-183080000D01*
%TO.N,P10*%
X249350000Y-183080000D02*
X248150000Y-183080000D01*
%TO.N,inner_bottom*%
X252650000Y-164080000D02*
X253850000Y-164080000D01*
%TO.N,P16*%
X249350000Y-164080000D02*
X248150000Y-164080000D01*
%TO.N,inner_home*%
X252650000Y-145080000D02*
X253850000Y-145080000D01*
%TO.N,P14*%
X249350000Y-145080000D02*
X248150000Y-145080000D01*
%TO.N,inner_top*%
X252650000Y-126080000D02*
X253850000Y-126080000D01*
%TO.N,P15*%
X249350000Y-126080000D02*
X248150000Y-126080000D01*
%TO.N,P1*%
X170800000Y-171725000D02*
X170800000Y-173100000D01*
%TO.N,RAW*%
X170800000Y-181275000D02*
X170800000Y-179900000D01*
%TO.N,MCU1_24*%
X170800000Y-184120000D02*
X170800000Y-182000000D01*
%TO.N,MCU1_1*%
X170800000Y-171000000D02*
X170800000Y-168880000D01*
%TO.N,P0*%
X173340000Y-171725000D02*
X173340000Y-173100000D01*
%TO.N,GND*%
X173340000Y-181275000D02*
X173340000Y-179900000D01*
%TO.N,MCU1_23*%
X173340000Y-184120000D02*
X173340000Y-182000000D01*
%TO.N,MCU1_2*%
X173340000Y-171000000D02*
X173340000Y-168880000D01*
%TO.N,GND*%
X175880000Y-171725000D02*
X175880000Y-173100000D01*
%TO.N,RST*%
X175880000Y-181275000D02*
X175880000Y-179900000D01*
%TO.N,MCU1_22*%
X175880000Y-184120000D02*
X175880000Y-182000000D01*
%TO.N,MCU1_3*%
X175880000Y-171000000D02*
X175880000Y-168880000D01*
%TO.N,GND*%
X178420000Y-171725000D02*
X178420000Y-173100000D01*
%TO.N,VCC*%
X178420000Y-181275000D02*
X178420000Y-179900000D01*
%TO.N,MCU1_21*%
X178420000Y-184120000D02*
X178420000Y-182000000D01*
%TO.N,MCU1_4*%
X178420000Y-171000000D02*
X178420000Y-168880000D01*
%TO.N,P2*%
X180960000Y-171725000D02*
X180960000Y-173100000D01*
%TO.N,P21*%
X180960000Y-181275000D02*
X180960000Y-179900000D01*
%TO.N,MCU1_20*%
X180960000Y-184120000D02*
X180960000Y-182000000D01*
%TO.N,MCU1_5*%
X180960000Y-171000000D02*
X180960000Y-168880000D01*
%TO.N,P3*%
X183500000Y-171725000D02*
X183500000Y-173100000D01*
%TO.N,P20*%
X183500000Y-181275000D02*
X183500000Y-179900000D01*
%TO.N,MCU1_19*%
X183500000Y-184120000D02*
X183500000Y-182000000D01*
%TO.N,MCU1_6*%
X183500000Y-171000000D02*
X183500000Y-168880000D01*
%TO.N,P4*%
X186040000Y-171725000D02*
X186040000Y-173100000D01*
%TO.N,P19*%
X186040000Y-181275000D02*
X186040000Y-179900000D01*
%TO.N,MCU1_18*%
X186040000Y-184120000D02*
X186040000Y-182000000D01*
%TO.N,MCU1_7*%
X186040000Y-171000000D02*
X186040000Y-168880000D01*
%TO.N,P5*%
X188580000Y-171725000D02*
X188580000Y-173100000D01*
%TO.N,P18*%
X188580000Y-181275000D02*
X188580000Y-179900000D01*
%TO.N,MCU1_17*%
X188580000Y-184120000D02*
X188580000Y-182000000D01*
%TO.N,MCU1_8*%
X188580000Y-171000000D02*
X188580000Y-168880000D01*
%TO.N,P6*%
X191120000Y-171725000D02*
X191120000Y-173100000D01*
%TO.N,P15*%
X191120000Y-181275000D02*
X191120000Y-179900000D01*
%TO.N,MCU1_16*%
X191120000Y-184120000D02*
X191120000Y-182000000D01*
%TO.N,MCU1_9*%
X191120000Y-171000000D02*
X191120000Y-168880000D01*
%TO.N,P7*%
X193660000Y-171725000D02*
X193660000Y-173100000D01*
%TO.N,P14*%
X193660000Y-181275000D02*
X193660000Y-179900000D01*
%TO.N,MCU1_15*%
X193660000Y-184120000D02*
X193660000Y-182000000D01*
%TO.N,MCU1_10*%
X193660000Y-171000000D02*
X193660000Y-168880000D01*
%TO.N,P8*%
X196200000Y-171725000D02*
X196200000Y-173100000D01*
%TO.N,P16*%
X196200000Y-181275000D02*
X196200000Y-179900000D01*
%TO.N,MCU1_14*%
X196200000Y-184120000D02*
X196200000Y-182000000D01*
%TO.N,MCU1_11*%
X196200000Y-171000000D02*
X196200000Y-168880000D01*
%TO.N,P9*%
X198740000Y-171725000D02*
X198740000Y-173100000D01*
%TO.N,P10*%
X198740000Y-181275000D02*
X198740000Y-179900000D01*
%TO.N,MCU1_13*%
X198740000Y-184120000D02*
X198740000Y-182000000D01*
%TO.N,MCU1_12*%
X198740000Y-171000000D02*
X198740000Y-168880000D01*
%TD*%
M02*
