M48
; DRILL file {KiCad 8.0.4} date 2024-08-31T21:53:49+0800
; FORMAT={-:-/ absolute / inch / decimal}
; #@! TF.CreationDate,2024-08-31T21:53:49+08:00
; #@! TF.GenerationSoftware,Kicad,Pcbnew,8.0.4
; #@! TF.FileFunction,Plated,1,2,PTH
FMAT,2
INCH
; #@! TA.AperFunction,Plated,PTH,ComponentDrill
T1C0.0157
; #@! TA.AperFunction,Plated,PTH,ComponentDrill
T2C0.0295
; #@! TA.AperFunction,Plated,PTH,ComponentDrill
T3C0.0390
; #@! TA.AperFunction,Plated,PTH,ComponentDrill
T4C0.0394
; #@! TA.AperFunction,Plated,PTH,ComponentDrill
T5C0.0492
; #@! TA.AperFunction,Plated,PTH,ComponentDrill
T6C0.0512
; #@! TA.AperFunction,Plated,PTH,ComponentDrill
T7C0.1181
; #@! TA.AperFunction,Plated,PTH,ComponentDrill
T8C0.2008
%
G90
G05
T1
X6.6854Y-6.8327
X6.6854Y-7.1004
X6.7854Y-6.8327
X6.7854Y-7.1004
X6.8854Y-6.8327
X6.8854Y-7.1004
X6.9854Y-6.8327
X6.9854Y-7.1004
X7.0854Y-6.8327
X7.0854Y-7.1004
X7.1854Y-6.8327
X7.1854Y-7.1004
X7.2854Y-6.8327
X7.2854Y-7.1004
X7.3854Y-6.8327
X7.3854Y-7.1004
X7.4854Y-6.8327
X7.4854Y-7.1004
X7.5854Y-6.8327
X7.5854Y-7.1004
X7.6854Y-6.8327
X7.6854Y-7.1004
X7.7854Y-6.8327
X7.7854Y-7.1004
T2
X8.4744Y-6.3065
X8.5531Y-6.3065
T3
X7.1654Y-4.3677
X7.1654Y-4.6677
X7.1654Y-5.1157
X7.1654Y-5.4157
X7.1654Y-5.8638
X7.1654Y-6.1638
X7.9134Y-4.1709
X7.9134Y-4.4709
X7.9134Y-4.9189
X7.9134Y-5.2189
X7.9134Y-5.6669
X7.9134Y-5.9669
X8.6614Y-4.0528
X8.6614Y-4.3528
X8.6614Y-4.8008
X8.6614Y-5.1008
X8.6614Y-5.5488
X8.6614Y-5.8488
X9.4094Y-4.3677
X9.4094Y-4.6677
X9.4094Y-5.1157
X9.4094Y-5.4157
X9.4094Y-5.8638
X9.4094Y-6.1638
X9.4094Y-6.6118
X9.4094Y-6.9118
X10.1575Y-4.4465
X10.1575Y-4.7465
X10.1575Y-5.1945
X10.1575Y-5.4945
X10.1575Y-5.9425
X10.1575Y-6.2425
X10.1575Y-6.6906
X10.1575Y-6.9906
T4
X6.6854Y-6.6665
X6.6854Y-7.2665
X6.7854Y-6.6665
X6.7854Y-7.2665
X6.8854Y-6.6665
X6.8854Y-7.2665
X6.9854Y-6.6665
X6.9854Y-7.2665
X7.0854Y-6.6665
X7.0854Y-7.2665
X7.1854Y-6.6665
X7.1854Y-7.2665
X7.2854Y-6.6665
X7.2854Y-7.2665
X7.3854Y-6.6665
X7.3854Y-7.2665
X7.4854Y-6.6665
X7.4854Y-7.2665
X7.5854Y-6.6665
X7.5854Y-7.2665
X7.6854Y-6.6665
X7.6854Y-7.2665
X7.7854Y-6.6665
X7.7854Y-7.2665
T5
X6.7165Y-4.4606
X6.7165Y-5.2087
X6.7165Y-5.9567
X6.7874Y-4.4193
X6.7874Y-5.1673
X6.7874Y-5.9154
X6.9921Y-4.4193
X6.9921Y-5.1673
X6.9921Y-5.9154
X7.063Y-4.4606
X7.063Y-5.2087
X7.063Y-5.9567
X7.4646Y-4.2638
X7.4646Y-5.0118
X7.4646Y-5.7598
X7.5354Y-4.2224
X7.5354Y-4.9705
X7.5354Y-5.7185
X7.7402Y-4.2224
X7.7402Y-4.9705
X7.7402Y-5.7185
X7.811Y-4.2638
X7.811Y-5.0118
X7.811Y-5.7598
X8.2126Y-4.1457
X8.2126Y-4.8937
X8.2126Y-5.6417
X8.2835Y-4.1043
X8.2835Y-4.8524
X8.2835Y-5.6004
X8.4882Y-4.1043
X8.4882Y-4.8524
X8.4882Y-5.6004
X8.5591Y-4.1457
X8.5591Y-4.8937
X8.5591Y-5.6417
X8.9606Y-4.4606
X8.9606Y-5.2087
X8.9606Y-5.9567
X8.9606Y-6.7047
X9.0315Y-4.4193
X9.0315Y-5.1673
X9.0315Y-5.9154
X9.0315Y-6.6634
X9.2362Y-4.4193
X9.2362Y-5.1673
X9.2362Y-5.9154
X9.2362Y-6.6634
X9.3071Y-4.4606
X9.3071Y-5.2087
X9.3071Y-5.9567
X9.3071Y-6.7047
X9.7087Y-4.5394
X9.7087Y-5.2874
X9.7087Y-6.0354
X9.7087Y-6.7835
X9.7795Y-4.498
X9.7795Y-5.2461
X9.7795Y-5.9941
X9.7795Y-6.7421
X9.9843Y-4.498
X9.9843Y-5.2461
X9.9843Y-5.9941
X9.9843Y-6.7421
X10.0551Y-4.5394
X10.0551Y-5.2874
X10.0551Y-6.0354
X10.0551Y-6.7835
T6
X7.4114Y-6.4567
X7.6673Y-6.4567
T7
X6.7165Y-4.8307
X6.7165Y-5.5787
X6.7165Y-6.3268
X6.7874Y-4.872
X6.7874Y-5.6201
X6.7874Y-6.3681
X6.9921Y-4.872
X6.9921Y-5.6201
X6.9921Y-6.3681
X7.063Y-4.8307
X7.063Y-5.5787
X7.063Y-6.3268
X7.4646Y-4.6339
X7.4646Y-5.3819
X7.4646Y-6.1299
X7.5354Y-4.6752
X7.5354Y-5.4232
X7.5354Y-6.1713
X7.7402Y-4.6752
X7.7402Y-5.4232
X7.7402Y-6.1713
X7.811Y-4.6339
X7.811Y-5.3819
X7.811Y-6.1299
X8.2126Y-4.5157
X8.2126Y-5.2638
X8.2126Y-6.0118
X8.2835Y-4.5571
X8.2835Y-5.3051
X8.2835Y-6.0531
X8.4882Y-4.5571
X8.4882Y-5.3051
X8.4882Y-6.0531
X8.5591Y-4.5157
X8.5591Y-5.2638
X8.5591Y-6.0118
X8.9606Y-4.8307
X8.9606Y-5.5787
X8.9606Y-6.3268
X8.9606Y-7.0748
X9.0315Y-4.872
X9.0315Y-5.6201
X9.0315Y-6.3681
X9.0315Y-7.1161
X9.2362Y-4.872
X9.2362Y-5.6201
X9.2362Y-6.3681
X9.2362Y-7.1161
X9.3071Y-4.8307
X9.3071Y-5.5787
X9.3071Y-6.3268
X9.3071Y-7.0748
X9.7087Y-4.9094
X9.7087Y-5.6575
X9.7087Y-6.4055
X9.7087Y-7.1535
X9.7795Y-4.9508
X9.7795Y-5.6988
X9.7795Y-6.4469
X9.7795Y-7.1949
X9.9843Y-4.9508
X9.9843Y-5.6988
X9.9843Y-6.4469
X9.9843Y-7.1949
X10.0551Y-4.9094
X10.0551Y-5.6575
X10.0551Y-6.4055
X10.0551Y-7.1535
T8
X6.8898Y-4.6457
X6.8898Y-5.3937
X6.8898Y-6.1417
X7.6378Y-4.4488
X7.6378Y-5.1969
X7.6378Y-5.9449
X8.3858Y-4.3307
X8.3858Y-5.0787
X8.3858Y-5.8268
X9.1339Y-4.6457
X9.1339Y-5.3937
X9.1339Y-6.1417
X9.1339Y-6.8898
X9.8819Y-4.7244
X9.8819Y-5.4724
X9.8819Y-6.2205
X9.8819Y-6.9685
M30
