%TF.GenerationSoftware,KiCad,Pcbnew,8.0.4*%
%TF.CreationDate,2024-08-31T21:53:54+08:00*%
%TF.ProjectId,board,626f6172-642e-46b6-9963-61645f706362,v1.0.0*%
%TF.SameCoordinates,Original*%
%TF.FileFunction,Profile,NP*%
%FSLAX46Y46*%
G04 Gerber Fmt 4.6, Leading zero omitted, Abs format (unit mm)*
G04 Created by KiCad (PCBNEW 8.0.4) date 2024-08-31 21:53:54*
%MOMM*%
%LPD*%
G01*
G04 APERTURE LIST*
%TA.AperFunction,Profile*%
%ADD10C,0.150000*%
%TD*%
G04 APERTURE END LIST*
D10*
X261700000Y-108500000D02*
G75*
G02*
X262500000Y-109300000I0J-800000D01*
G01*
X164300000Y-188500000D02*
X261700000Y-188500000D01*
X201500000Y-100700000D02*
G75*
G02*
X200700000Y-101500000I-800000J0D01*
G01*
X225300000Y-106500000D02*
G75*
G02*
X224500000Y-105700000I0J800000D01*
G01*
X164300000Y-188500000D02*
G75*
G02*
X163500000Y-187700000I0J800000D01*
G01*
X243500000Y-107700000D02*
X243500000Y-107300000D01*
X163500000Y-107300000D02*
G75*
G02*
X164300000Y-106500000I800000J0D01*
G01*
X262500000Y-187700000D02*
X262500000Y-109300000D01*
X181700000Y-106500000D02*
X164300000Y-106500000D01*
X201500000Y-99300000D02*
G75*
G02*
X202300000Y-98500000I800000J0D01*
G01*
X223700000Y-98500000D02*
G75*
G02*
X224500000Y-99300000I0J-800000D01*
G01*
X262500000Y-187700000D02*
G75*
G02*
X261700000Y-188500000I-800000J0D01*
G01*
X163500000Y-187700000D02*
X163500000Y-107300000D01*
X224500000Y-105700000D02*
X224500000Y-99300000D01*
X200700000Y-101500000D02*
X183300000Y-101500000D01*
X201500000Y-99300000D02*
X201500000Y-100700000D01*
X261700000Y-108500000D02*
X244300000Y-108500000D01*
X244300000Y-108500000D02*
G75*
G02*
X243500000Y-107700000I0J800000D01*
G01*
X242700000Y-106500000D02*
X225300000Y-106500000D01*
X223700000Y-98500000D02*
X202300000Y-98500000D01*
X182500000Y-102300000D02*
X182500000Y-105700000D01*
X242700000Y-106500000D02*
G75*
G02*
X243500000Y-107300000I0J-800000D01*
G01*
X182500000Y-105700000D02*
G75*
G02*
X181700000Y-106500000I-800000J0D01*
G01*
X182500000Y-102300000D02*
G75*
G02*
X183300000Y-101500000I800000J0D01*
G01*
M02*
