%TF.GenerationSoftware,KiCad,Pcbnew,8.0.4*%
%TF.CreationDate,2024-08-31T21:53:54+08:00*%
%TF.ProjectId,board,626f6172-642e-46b6-9963-61645f706362,v1.0.0*%
%TF.SameCoordinates,Original*%
%TF.FileFunction,Soldermask,Top*%
%TF.FilePolarity,Negative*%
%FSLAX46Y46*%
G04 Gerber Fmt 4.6, Leading zero omitted, Abs format (unit mm)*
G04 Created by KiCad (PCBNEW 8.0.4) date 2024-08-31 21:53:54*
%MOMM*%
%LPD*%
G01*
G04 APERTURE LIST*
G04 Aperture macros list*
%AMRoundRect*
0 Rectangle with rounded corners*
0 $1 Rounding radius*
0 $2 $3 $4 $5 $6 $7 $8 $9 X,Y pos of 4 corners*
0 Add a 4 corners polygon primitive as box body*
4,1,4,$2,$3,$4,$5,$6,$7,$8,$9,$2,$3,0*
0 Add four circle primitives for the rounded corners*
1,1,$1+$1,$2,$3*
1,1,$1+$1,$4,$5*
1,1,$1+$1,$6,$7*
1,1,$1+$1,$8,$9*
0 Add four rect primitives between the rounded corners*
20,1,$1+$1,$2,$3,$4,$5,0*
20,1,$1+$1,$4,$5,$6,$7,0*
20,1,$1+$1,$6,$7,$8,$9,0*
20,1,$1+$1,$8,$9,$2,$3,0*%
%AMFreePoly0*
4,1,16,-0.214645,0.660355,-0.210957,0.656235,0.289043,0.031235,0.299694,-0.005522,0.289043,-0.031235,-0.210957,-0.656235,-0.244478,-0.674694,-0.250000,-0.675000,-0.500000,-0.675000,-0.535355,-0.660355,-0.550000,-0.625000,-0.550000,0.625000,-0.535355,0.660355,-0.500000,0.675000,-0.250000,0.675000,-0.214645,0.660355,-0.214645,0.660355,$1*%
%AMFreePoly1*
4,1,16,0.535355,0.660355,0.550000,0.625000,0.550000,-0.625000,0.535355,-0.660355,0.500000,-0.675000,-0.650000,-0.675000,-0.685355,-0.660355,-0.700000,-0.625000,-0.689043,-0.593765,-0.214031,0.000000,-0.689043,0.593765,-0.699694,0.630522,-0.681235,0.664043,-0.650000,0.675000,0.500000,0.675000,0.535355,0.660355,0.535355,0.660355,$1*%
%AMFreePoly2*
4,1,16,0.635355,0.285355,0.650000,0.250000,0.650000,-1.000000,0.635355,-1.035355,0.600000,-1.050000,0.564645,-1.035355,0.000000,-0.470710,-0.564645,-1.035355,-0.600000,-1.050000,-0.635355,-1.035355,-0.650000,-1.000000,-0.650000,0.250000,-0.635355,0.285355,-0.600000,0.300000,0.600000,0.300000,0.635355,0.285355,0.635355,0.285355,$1*%
%AMFreePoly3*
4,1,14,0.035355,0.435355,0.635355,-0.164645,0.650000,-0.200000,0.650000,-0.400000,0.635355,-0.435355,0.600000,-0.450000,-0.600000,-0.450000,-0.635355,-0.435355,-0.650000,-0.400000,-0.650000,-0.200000,-0.635355,-0.164645,-0.035355,0.435355,0.000000,0.450000,0.035355,0.435355,0.035355,0.435355,$1*%
G04 Aperture macros list end*
%ADD10FreePoly0,270.000000*%
%ADD11C,1.800000*%
%ADD12FreePoly0,90.000000*%
%ADD13C,0.900000*%
%ADD14FreePoly1,270.000000*%
%ADD15FreePoly1,90.000000*%
%ADD16RoundRect,0.050000X-0.500000X-0.400000X0.500000X-0.400000X0.500000X0.400000X-0.500000X0.400000X0*%
%ADD17C,1.000000*%
%ADD18RoundRect,0.050000X-0.350000X-0.750000X0.350000X-0.750000X0.350000X0.750000X-0.350000X0.750000X0*%
%ADD19FreePoly2,180.000000*%
%ADD20O,1.300000X1.850000*%
%ADD21FreePoly3,180.000000*%
%ADD22C,2.100000*%
%ADD23RoundRect,0.050000X0.889000X-0.889000X0.889000X0.889000X-0.889000X0.889000X-0.889000X-0.889000X0*%
%ADD24RoundRect,0.050000X0.600000X-0.450000X0.600000X0.450000X-0.600000X0.450000X-0.600000X-0.450000X0*%
%ADD25C,2.005000*%
%ADD26C,3.600000*%
%ADD27C,5.700000*%
%ADD28RoundRect,0.250000X-1.050000X-1.000000X1.050000X-1.000000X1.050000X1.000000X-1.050000X1.000000X0*%
%ADD29RoundRect,0.260000X-1.090000X-1.040000X1.090000X-1.040000X1.090000X1.040000X-1.090000X1.040000X0*%
%ADD30C,2.200000*%
G04 APERTURE END LIST*
D10*
%TO.C,MCU1*%
X169810000Y-171450000D03*
D11*
X169810000Y-169330000D03*
D10*
X172350000Y-171450000D03*
D11*
X172350000Y-169330000D03*
D10*
X174890000Y-171450000D03*
D11*
X174890000Y-169330000D03*
D10*
X177430000Y-171450000D03*
D11*
X177430000Y-169330000D03*
D10*
X179970000Y-171450000D03*
D11*
X179970000Y-169330000D03*
D10*
X182510000Y-171450000D03*
D11*
X182510000Y-169330000D03*
D10*
X185050000Y-171450000D03*
D11*
X185050000Y-169330000D03*
D10*
X187590000Y-171450000D03*
D11*
X187590000Y-169330000D03*
D10*
X190130000Y-171450000D03*
D11*
X190130000Y-169330000D03*
D10*
X192670000Y-171450000D03*
D11*
X192670000Y-169330000D03*
D10*
X195210000Y-171450000D03*
D11*
X195210000Y-169330000D03*
D10*
X197750000Y-171450000D03*
D11*
X197750000Y-169330000D03*
X197750000Y-184570000D03*
D12*
X197750000Y-182450000D03*
D11*
X195210000Y-184570000D03*
D12*
X195210000Y-182450000D03*
D11*
X192670000Y-184570000D03*
D12*
X192670000Y-182450000D03*
D11*
X190130000Y-184570000D03*
D12*
X190130000Y-182450000D03*
D11*
X187590000Y-184570000D03*
D12*
X187590000Y-182450000D03*
D11*
X185050000Y-184570000D03*
D12*
X185050000Y-182450000D03*
D11*
X182510000Y-184570000D03*
D12*
X182510000Y-182450000D03*
D11*
X179970000Y-184570000D03*
D12*
X179970000Y-182450000D03*
D11*
X177430000Y-184570000D03*
D12*
X177430000Y-182450000D03*
D11*
X174890000Y-184570000D03*
D12*
X174890000Y-182450000D03*
D11*
X172350000Y-184570000D03*
D12*
X172350000Y-182450000D03*
D11*
X169810000Y-184570000D03*
D12*
X169810000Y-182450000D03*
D13*
X169810000Y-173550000D03*
D14*
X169810000Y-172175000D03*
D13*
X172350000Y-173550000D03*
D14*
X172350000Y-172175000D03*
D13*
X174890000Y-173550000D03*
D14*
X174890000Y-172175000D03*
D13*
X177430000Y-173550000D03*
D14*
X177430000Y-172175000D03*
D13*
X179970000Y-173550000D03*
D14*
X179970000Y-172175000D03*
D13*
X182510000Y-173550000D03*
D14*
X182510000Y-172175000D03*
D13*
X185050000Y-173550000D03*
D14*
X185050000Y-172175000D03*
D13*
X187590000Y-173550000D03*
D14*
X187590000Y-172175000D03*
D13*
X190130000Y-173550000D03*
D14*
X190130000Y-172175000D03*
D13*
X192670000Y-173550000D03*
D14*
X192670000Y-172175000D03*
D13*
X195210000Y-173550000D03*
D14*
X195210000Y-172175000D03*
D13*
X197750000Y-173550000D03*
D14*
X197750000Y-172175000D03*
D15*
X197750000Y-181725000D03*
D13*
X197750000Y-180350000D03*
D15*
X195210000Y-181725000D03*
D13*
X195210000Y-180350000D03*
D15*
X192670000Y-181725000D03*
D13*
X192670000Y-180350000D03*
D15*
X190130000Y-181725000D03*
D13*
X190130000Y-180350000D03*
D15*
X187590000Y-181725000D03*
D13*
X187590000Y-180350000D03*
D15*
X185050000Y-181725000D03*
D13*
X185050000Y-180350000D03*
D15*
X182510000Y-181725000D03*
D13*
X182510000Y-180350000D03*
D15*
X179970000Y-181725000D03*
D13*
X179970000Y-180350000D03*
D15*
X177430000Y-181725000D03*
D13*
X177430000Y-180350000D03*
D15*
X174890000Y-181725000D03*
D13*
X174890000Y-180350000D03*
D15*
X172350000Y-181725000D03*
D13*
X172350000Y-180350000D03*
D15*
X169810000Y-181725000D03*
D13*
X169810000Y-180350000D03*
%TD*%
D16*
%TO.C,PWR1*%
X208150000Y-163139999D03*
X200850000Y-163140000D03*
D17*
X206000000Y-164250000D03*
X203000000Y-164250000D03*
D16*
X208150000Y-165350000D03*
X200850000Y-165350000D03*
D18*
X202250000Y-162490000D03*
X205250000Y-162490000D03*
X206750000Y-162490000D03*
%TD*%
D19*
%TO.C,JST1*%
X215250000Y-163000000D03*
X217250000Y-163000000D03*
D20*
X215250000Y-160184000D03*
X217250000Y-160184000D03*
D21*
X215250000Y-161984000D03*
X217250000Y-161984000D03*
%TD*%
D22*
%TO.C,RST1*%
X194750000Y-164000000D03*
X188250000Y-164000000D03*
%TD*%
D23*
%TO.C,D14*%
X258000000Y-177560000D03*
D24*
X258000000Y-175400000D03*
X258000000Y-172100000D03*
D25*
X258000000Y-169940000D03*
%TD*%
D23*
%TO.C,D5*%
X201000000Y-132560000D03*
D24*
X201000000Y-130400000D03*
X201000000Y-127100000D03*
D25*
X201000000Y-124940000D03*
%TD*%
D23*
%TO.C,D11*%
X239000000Y-156560000D03*
D24*
X239000000Y-154400000D03*
X239000000Y-151100000D03*
D25*
X239000000Y-148940000D03*
%TD*%
D26*
%TO.C,S16*%
X248400000Y-144750000D03*
D27*
X251000000Y-139000000D03*
D26*
X253600000Y-144750000D03*
D28*
X259050000Y-143700000D03*
D29*
X244750000Y-144750000D03*
D30*
X246600000Y-134300000D03*
D26*
X246600000Y-143700000D03*
D30*
X248400000Y-133250000D03*
X253600000Y-133250000D03*
X255400000Y-134300000D03*
D26*
X255400000Y-143700000D03*
%TD*%
%TO.C,S8*%
X210400000Y-134750000D03*
D27*
X213000000Y-129000000D03*
D26*
X215600000Y-134750000D03*
D28*
X221050000Y-133700000D03*
D29*
X206750000Y-134750000D03*
D30*
X208600000Y-124300000D03*
D26*
X208600000Y-133700000D03*
D30*
X210400000Y-123250000D03*
X215600000Y-123250000D03*
X217400000Y-124300000D03*
D26*
X217400000Y-133700000D03*
%TD*%
%TO.C,S17*%
X248400000Y-125750000D03*
D27*
X251000000Y-120000000D03*
D26*
X253600000Y-125750000D03*
D28*
X259050000Y-124700000D03*
D29*
X244750000Y-125750000D03*
D30*
X246600000Y-115300000D03*
D26*
X246600000Y-124700000D03*
D30*
X248400000Y-114250000D03*
X253600000Y-114250000D03*
X255400000Y-115300000D03*
D26*
X255400000Y-124700000D03*
%TD*%
D23*
%TO.C,D3*%
X182000000Y-118560000D03*
D24*
X182000000Y-116400000D03*
X182000000Y-113100000D03*
D25*
X182000000Y-110940000D03*
%TD*%
D26*
%TO.C,S9*%
X210400000Y-115750000D03*
D27*
X213000000Y-110000000D03*
D26*
X215600000Y-115750000D03*
D28*
X221050000Y-114700000D03*
D29*
X206750000Y-115750000D03*
D30*
X208600000Y-105300000D03*
D26*
X208600000Y-114700000D03*
D30*
X210400000Y-104250000D03*
X215600000Y-104250000D03*
X217400000Y-105300000D03*
D26*
X217400000Y-114700000D03*
%TD*%
%TO.C,S11*%
X229400000Y-161750000D03*
D27*
X232000000Y-156000000D03*
D26*
X234600000Y-161750000D03*
D28*
X240050000Y-160700000D03*
D29*
X225750000Y-161750000D03*
D30*
X227600000Y-151300000D03*
D26*
X227600000Y-160700000D03*
D30*
X229400000Y-150250000D03*
X234600000Y-150250000D03*
X236400000Y-151300000D03*
D26*
X236400000Y-160700000D03*
%TD*%
%TO.C,S15*%
X248400000Y-163750000D03*
D27*
X251000000Y-158000000D03*
D26*
X253600000Y-163750000D03*
D28*
X259050000Y-162700000D03*
D29*
X244750000Y-163750000D03*
D30*
X246600000Y-153300000D03*
D26*
X246600000Y-162700000D03*
D30*
X248400000Y-152250000D03*
X253600000Y-152250000D03*
X255400000Y-153300000D03*
D26*
X255400000Y-162700000D03*
%TD*%
%TO.C,S7*%
X210400000Y-153750000D03*
D27*
X213000000Y-148000000D03*
D26*
X215600000Y-153750000D03*
D28*
X221050000Y-152700000D03*
D29*
X206750000Y-153750000D03*
D30*
X208600000Y-143300000D03*
D26*
X208600000Y-152700000D03*
D30*
X210400000Y-142250000D03*
X215600000Y-142250000D03*
X217400000Y-143300000D03*
D26*
X217400000Y-152700000D03*
%TD*%
D23*
%TO.C,D10*%
X239000000Y-175560000D03*
D24*
X239000000Y-173400000D03*
X239000000Y-170100000D03*
D25*
X239000000Y-167940000D03*
%TD*%
D23*
%TO.C,D12*%
X239000000Y-137560000D03*
D24*
X239000000Y-135400000D03*
X239000000Y-132100000D03*
D25*
X239000000Y-129940000D03*
%TD*%
D23*
%TO.C,D8*%
X220000000Y-129560000D03*
D24*
X220000000Y-127400000D03*
X220000000Y-124100000D03*
D25*
X220000000Y-121940000D03*
%TD*%
D23*
%TO.C,D2*%
X182000000Y-137560000D03*
D24*
X182000000Y-135400000D03*
X182000000Y-132100000D03*
D25*
X182000000Y-129940000D03*
%TD*%
D26*
%TO.C,S5*%
X191400000Y-137750000D03*
D27*
X194000000Y-132000000D03*
D26*
X196600000Y-137750000D03*
D28*
X202050000Y-136700000D03*
D29*
X187750000Y-137750000D03*
D30*
X189600000Y-127300000D03*
D26*
X189600000Y-136700000D03*
D30*
X191400000Y-126250000D03*
X196600000Y-126250000D03*
X198400000Y-127300000D03*
D26*
X198400000Y-136700000D03*
%TD*%
%TO.C,S6*%
X191400000Y-118750000D03*
D27*
X194000000Y-113000000D03*
D26*
X196600000Y-118750000D03*
D28*
X202050000Y-117700000D03*
D29*
X187750000Y-118750000D03*
D30*
X189600000Y-108300000D03*
D26*
X189600000Y-117700000D03*
D30*
X191400000Y-107250000D03*
X196600000Y-107250000D03*
X198400000Y-108300000D03*
D26*
X198400000Y-117700000D03*
%TD*%
%TO.C,S14*%
X248400000Y-182750000D03*
D27*
X251000000Y-177000000D03*
D26*
X253600000Y-182750000D03*
D28*
X259050000Y-181700000D03*
D29*
X244750000Y-182750000D03*
D30*
X246600000Y-172300000D03*
D26*
X246600000Y-181700000D03*
D30*
X248400000Y-171250000D03*
X253600000Y-171250000D03*
X255400000Y-172300000D03*
D26*
X255400000Y-181700000D03*
%TD*%
D23*
%TO.C,D9*%
X220000000Y-110560000D03*
D24*
X220000000Y-108400000D03*
X220000000Y-105100000D03*
D25*
X220000000Y-102940000D03*
%TD*%
D23*
%TO.C,D6*%
X201000000Y-113560000D03*
D24*
X201000000Y-111400000D03*
X201000000Y-108100000D03*
D25*
X201000000Y-105940000D03*
%TD*%
D26*
%TO.C,S3*%
X172400000Y-123750000D03*
D27*
X175000000Y-118000000D03*
D26*
X177600000Y-123750000D03*
D28*
X183050000Y-122700000D03*
D29*
X168750000Y-123750000D03*
D30*
X170600000Y-113300000D03*
D26*
X170600000Y-122700000D03*
D30*
X172400000Y-112250000D03*
X177600000Y-112250000D03*
X179400000Y-113300000D03*
D26*
X179400000Y-122700000D03*
%TD*%
%TO.C,S1*%
X172400000Y-161750000D03*
D27*
X175000000Y-156000000D03*
D26*
X177600000Y-161750000D03*
D28*
X183050000Y-160700000D03*
D29*
X168750000Y-161750000D03*
D30*
X170600000Y-151300000D03*
D26*
X170600000Y-160700000D03*
D30*
X172400000Y-150250000D03*
X177600000Y-150250000D03*
X179400000Y-151300000D03*
D26*
X179400000Y-160700000D03*
%TD*%
D23*
%TO.C,D15*%
X258000000Y-158560000D03*
D24*
X258000000Y-156400000D03*
X258000000Y-153100000D03*
D25*
X258000000Y-150940000D03*
%TD*%
D23*
%TO.C,D16*%
X258000000Y-139560000D03*
D24*
X258000000Y-137400000D03*
X258000000Y-134100000D03*
D25*
X258000000Y-131940000D03*
%TD*%
D26*
%TO.C,S10*%
X229400000Y-180750000D03*
D27*
X232000000Y-175000000D03*
D26*
X234600000Y-180750000D03*
D28*
X240050000Y-179700000D03*
D29*
X225750000Y-180750000D03*
D30*
X227600000Y-170300000D03*
D26*
X227600000Y-179700000D03*
D30*
X229400000Y-169250000D03*
X234600000Y-169250000D03*
X236400000Y-170300000D03*
D26*
X236400000Y-179700000D03*
%TD*%
%TO.C,S4*%
X191400000Y-156750000D03*
D27*
X194000000Y-151000000D03*
D26*
X196600000Y-156750000D03*
D28*
X202050000Y-155700000D03*
D29*
X187750000Y-156750000D03*
D30*
X189600000Y-146300000D03*
D26*
X189600000Y-155700000D03*
D30*
X191400000Y-145250000D03*
X196600000Y-145250000D03*
X198400000Y-146300000D03*
D26*
X198400000Y-155700000D03*
%TD*%
%TO.C,S13*%
X229400000Y-123750000D03*
D27*
X232000000Y-118000000D03*
D26*
X234600000Y-123750000D03*
D28*
X240050000Y-122700000D03*
D29*
X225750000Y-123750000D03*
D30*
X227600000Y-113300000D03*
D26*
X227600000Y-122700000D03*
D30*
X229400000Y-112250000D03*
X234600000Y-112250000D03*
X236400000Y-113300000D03*
D26*
X236400000Y-122700000D03*
%TD*%
D23*
%TO.C,D13*%
X239000000Y-118560000D03*
D24*
X239000000Y-116400000D03*
X239000000Y-113100000D03*
D25*
X239000000Y-110940000D03*
%TD*%
D26*
%TO.C,S12*%
X229400000Y-142750000D03*
D27*
X232000000Y-137000000D03*
D26*
X234600000Y-142750000D03*
D28*
X240050000Y-141700000D03*
D29*
X225750000Y-142750000D03*
D30*
X227600000Y-132300000D03*
D26*
X227600000Y-141700000D03*
D30*
X229400000Y-131250000D03*
X234600000Y-131250000D03*
X236400000Y-132300000D03*
D26*
X236400000Y-141700000D03*
%TD*%
D23*
%TO.C,D7*%
X220000000Y-148560000D03*
D24*
X220000000Y-146400000D03*
X220000000Y-143100000D03*
D25*
X220000000Y-140940000D03*
%TD*%
D26*
%TO.C,S2*%
X172400000Y-142750000D03*
D27*
X175000000Y-137000000D03*
D26*
X177600000Y-142750000D03*
D28*
X183050000Y-141700000D03*
D29*
X168750000Y-142750000D03*
D30*
X170600000Y-132300000D03*
D26*
X170600000Y-141700000D03*
D30*
X172400000Y-131250000D03*
X177600000Y-131250000D03*
X179400000Y-132300000D03*
D26*
X179400000Y-141700000D03*
%TD*%
D23*
%TO.C,D1*%
X182000000Y-156560000D03*
D24*
X182000000Y-154400000D03*
X182000000Y-151100000D03*
D25*
X182000000Y-148940000D03*
%TD*%
D23*
%TO.C,D17*%
X258000000Y-120560000D03*
D24*
X258000000Y-118400000D03*
X258000000Y-115100000D03*
D25*
X258000000Y-112940000D03*
%TD*%
D23*
%TO.C,D4*%
X201000000Y-151560000D03*
D24*
X201000000Y-149400000D03*
X201000000Y-146100000D03*
D25*
X201000000Y-143940000D03*
%TD*%
M02*
