%TF.GenerationSoftware,KiCad,Pcbnew,8.0.4*%
%TF.CreationDate,2024-08-31T21:53:54+08:00*%
%TF.ProjectId,board,626f6172-642e-46b6-9963-61645f706362,v1.0.0*%
%TF.SameCoordinates,Original*%
%TF.FileFunction,Copper,L2,Bot*%
%TF.FilePolarity,Positive*%
%FSLAX46Y46*%
G04 Gerber Fmt 4.6, Leading zero omitted, Abs format (unit mm)*
G04 Created by KiCad (PCBNEW 8.0.4) date 2024-08-31 21:53:54*
%MOMM*%
%LPD*%
G01*
G04 APERTURE LIST*
G04 Aperture macros list*
%AMRoundRect*
0 Rectangle with rounded corners*
0 $1 Rounding radius*
0 $2 $3 $4 $5 $6 $7 $8 $9 X,Y pos of 4 corners*
0 Add a 4 corners polygon primitive as box body*
4,1,4,$2,$3,$4,$5,$6,$7,$8,$9,$2,$3,0*
0 Add four circle primitives for the rounded corners*
1,1,$1+$1,$2,$3*
1,1,$1+$1,$4,$5*
1,1,$1+$1,$6,$7*
1,1,$1+$1,$8,$9*
0 Add four rect primitives between the rounded corners*
20,1,$1+$1,$2,$3,$4,$5,0*
20,1,$1+$1,$4,$5,$6,$7,0*
20,1,$1+$1,$6,$7,$8,$9,0*
20,1,$1+$1,$8,$9,$2,$3,0*%
%AMFreePoly0*
4,1,6,0.250000,0.000000,-0.250000,-0.625000,-0.500000,-0.625000,-0.500000,0.625000,-0.250000,0.625000,0.250000,0.000000,0.250000,0.000000,$1*%
%AMFreePoly1*
4,1,6,0.500000,-0.625000,-0.650000,-0.625000,-0.150000,0.000000,-0.650000,0.625000,0.500000,0.625000,0.500000,-0.625000,0.500000,-0.625000,$1*%
%AMFreePoly2*
4,1,6,0.600000,-1.000000,0.000000,-0.400000,-0.600000,-1.000000,-0.600000,0.250000,0.600000,0.250000,0.600000,-1.000000,0.600000,-1.000000,$1*%
%AMFreePoly3*
4,1,6,0.600000,-0.200000,0.600000,-0.400000,-0.600000,-0.400000,-0.600000,-0.200000,0.000000,0.400000,0.600000,-0.200000,0.600000,-0.200000,$1*%
G04 Aperture macros list end*
%TA.AperFunction,SMDPad,CuDef*%
%ADD10FreePoly0,270.000000*%
%TD*%
%TA.AperFunction,ComponentPad*%
%ADD11C,1.700000*%
%TD*%
%TA.AperFunction,SMDPad,CuDef*%
%ADD12FreePoly0,90.000000*%
%TD*%
%TA.AperFunction,SMDPad,CuDef*%
%ADD13FreePoly1,90.000000*%
%TD*%
%TA.AperFunction,ComponentPad*%
%ADD14C,0.800000*%
%TD*%
%TA.AperFunction,SMDPad,CuDef*%
%ADD15FreePoly1,270.000000*%
%TD*%
%TA.AperFunction,SMDPad,CuDef*%
%ADD16R,1.000000X0.800000*%
%TD*%
%TA.AperFunction,SMDPad,CuDef*%
%ADD17R,0.700000X1.500000*%
%TD*%
%TA.AperFunction,SMDPad,CuDef*%
%ADD18FreePoly2,180.000000*%
%TD*%
%TA.AperFunction,ComponentPad*%
%ADD19O,1.200000X1.750000*%
%TD*%
%TA.AperFunction,SMDPad,CuDef*%
%ADD20FreePoly3,180.000000*%
%TD*%
%TA.AperFunction,ComponentPad*%
%ADD21C,2.000000*%
%TD*%
%TA.AperFunction,ComponentPad*%
%ADD22R,1.778000X1.778000*%
%TD*%
%TA.AperFunction,SMDPad,CuDef*%
%ADD23R,1.200000X0.900000*%
%TD*%
%TA.AperFunction,ComponentPad*%
%ADD24C,1.905000*%
%TD*%
%TA.AperFunction,ComponentPad*%
%ADD25C,3.500000*%
%TD*%
%TA.AperFunction,ComponentPad*%
%ADD26C,5.600000*%
%TD*%
%TA.AperFunction,SMDPad,CuDef*%
%ADD27RoundRect,0.250000X-1.750000X-1.000000X1.750000X-1.000000X1.750000X1.000000X-1.750000X1.000000X0*%
%TD*%
%TA.AperFunction,ComponentPad*%
%ADD28C,2.100000*%
%TD*%
%TA.AperFunction,SMDPad,CuDef*%
%ADD29RoundRect,0.250000X-1.050000X-1.000000X1.050000X-1.000000X1.050000X1.000000X-1.050000X1.000000X0*%
%TD*%
%TA.AperFunction,Conductor*%
%ADD30C,0.250000*%
%TD*%
G04 APERTURE END LIST*
D10*
%TO.P,MCU1,1*%
%TO.N,MCU1_1*%
X169810000Y-171450000D03*
D11*
X169810000Y-169330000D03*
D10*
%TO.P,MCU1,2*%
%TO.N,MCU1_2*%
X172350000Y-171450000D03*
D11*
X172350000Y-169330000D03*
D10*
%TO.P,MCU1,3*%
%TO.N,MCU1_3*%
X174890000Y-171450000D03*
D11*
X174890000Y-169330000D03*
D10*
%TO.P,MCU1,4*%
%TO.N,MCU1_4*%
X177430000Y-171450000D03*
D11*
X177430000Y-169330000D03*
D10*
%TO.P,MCU1,5*%
%TO.N,MCU1_5*%
X179970000Y-171450000D03*
D11*
X179970000Y-169330000D03*
D10*
%TO.P,MCU1,6*%
%TO.N,MCU1_6*%
X182510000Y-171450000D03*
D11*
X182510000Y-169330000D03*
D10*
%TO.P,MCU1,7*%
%TO.N,MCU1_7*%
X185050000Y-171450000D03*
D11*
X185050000Y-169330000D03*
D10*
%TO.P,MCU1,8*%
%TO.N,MCU1_8*%
X187590000Y-171450000D03*
D11*
X187590000Y-169330000D03*
D10*
%TO.P,MCU1,9*%
%TO.N,MCU1_9*%
X190130000Y-171450000D03*
D11*
X190130000Y-169330000D03*
D10*
%TO.P,MCU1,10*%
%TO.N,MCU1_10*%
X192670000Y-171450000D03*
D11*
X192670000Y-169330000D03*
D10*
%TO.P,MCU1,11*%
%TO.N,MCU1_11*%
X195210000Y-171450000D03*
D11*
X195210000Y-169330000D03*
D10*
%TO.P,MCU1,12*%
%TO.N,MCU1_12*%
X197750000Y-171450000D03*
D11*
X197750000Y-169330000D03*
%TO.P,MCU1,13*%
%TO.N,MCU1_13*%
X197750000Y-184570000D03*
D12*
X197750000Y-182450000D03*
D11*
%TO.P,MCU1,14*%
%TO.N,MCU1_14*%
X195210000Y-184570000D03*
D12*
X195210000Y-182450000D03*
D11*
%TO.P,MCU1,15*%
%TO.N,MCU1_15*%
X192670000Y-184570000D03*
D12*
X192670000Y-182450000D03*
D11*
%TO.P,MCU1,16*%
%TO.N,MCU1_16*%
X190130000Y-184570000D03*
D12*
X190130000Y-182450000D03*
D11*
%TO.P,MCU1,17*%
%TO.N,MCU1_17*%
X187590000Y-184570000D03*
D12*
X187590000Y-182450000D03*
D11*
%TO.P,MCU1,18*%
%TO.N,MCU1_18*%
X185050000Y-184570000D03*
D12*
X185050000Y-182450000D03*
D11*
%TO.P,MCU1,19*%
%TO.N,MCU1_19*%
X182510000Y-184570000D03*
D12*
X182510000Y-182450000D03*
D11*
%TO.P,MCU1,20*%
%TO.N,MCU1_20*%
X179970000Y-184570000D03*
D12*
X179970000Y-182450000D03*
D11*
%TO.P,MCU1,21*%
%TO.N,MCU1_21*%
X177430000Y-184570000D03*
D12*
X177430000Y-182450000D03*
D11*
%TO.P,MCU1,22*%
%TO.N,MCU1_22*%
X174890000Y-184570000D03*
D12*
X174890000Y-182450000D03*
D11*
%TO.P,MCU1,23*%
%TO.N,MCU1_23*%
X172350000Y-184570000D03*
D12*
X172350000Y-182450000D03*
D11*
%TO.P,MCU1,24*%
%TO.N,MCU1_24*%
X169810000Y-184570000D03*
D12*
X169810000Y-182450000D03*
D13*
%TO.P,MCU1,101*%
%TO.N,P1*%
X169810000Y-181725000D03*
D14*
X169810000Y-173550000D03*
D13*
%TO.P,MCU1,102*%
%TO.N,P0*%
X172350000Y-181725000D03*
D14*
X172350000Y-173550000D03*
D13*
%TO.P,MCU1,103*%
%TO.N,GND*%
X174890000Y-181725000D03*
D14*
X174890000Y-173550000D03*
D13*
%TO.P,MCU1,104*%
X177430000Y-181725000D03*
D14*
X177430000Y-173550000D03*
D13*
%TO.P,MCU1,105*%
%TO.N,P2*%
X179970000Y-181725000D03*
D14*
X179970000Y-173550000D03*
D13*
%TO.P,MCU1,106*%
%TO.N,P3*%
X182510000Y-181725000D03*
D14*
X182510000Y-173550000D03*
D13*
%TO.P,MCU1,107*%
%TO.N,P4*%
X185050000Y-181725000D03*
D14*
X185050000Y-173550000D03*
D13*
%TO.P,MCU1,108*%
%TO.N,P5*%
X187590000Y-181725000D03*
D14*
X187590000Y-173550000D03*
D13*
%TO.P,MCU1,109*%
%TO.N,P6*%
X190130000Y-181725000D03*
D14*
X190130000Y-173550000D03*
D13*
%TO.P,MCU1,110*%
%TO.N,P7*%
X192670000Y-181725000D03*
D14*
X192670000Y-173550000D03*
D13*
%TO.P,MCU1,111*%
%TO.N,P8*%
X195210000Y-181725000D03*
D14*
X195210000Y-173550000D03*
D13*
%TO.P,MCU1,112*%
%TO.N,P9*%
X197750000Y-181725000D03*
D14*
X197750000Y-173550000D03*
%TO.P,MCU1,113*%
%TO.N,P10*%
X197750000Y-180350000D03*
D15*
X197750000Y-172175000D03*
D14*
%TO.P,MCU1,114*%
%TO.N,P16*%
X195210000Y-180350000D03*
D15*
X195210000Y-172175000D03*
D14*
%TO.P,MCU1,115*%
%TO.N,P14*%
X192670000Y-180350000D03*
D15*
X192670000Y-172175000D03*
D14*
%TO.P,MCU1,116*%
%TO.N,P15*%
X190130000Y-180350000D03*
D15*
X190130000Y-172175000D03*
D14*
%TO.P,MCU1,117*%
%TO.N,P18*%
X187590000Y-180350000D03*
D15*
X187590000Y-172175000D03*
D14*
%TO.P,MCU1,118*%
%TO.N,P19*%
X185050000Y-180350000D03*
D15*
X185050000Y-172175000D03*
D14*
%TO.P,MCU1,119*%
%TO.N,P20*%
X182510000Y-180350000D03*
D15*
X182510000Y-172175000D03*
D14*
%TO.P,MCU1,120*%
%TO.N,P21*%
X179970000Y-180350000D03*
D15*
X179970000Y-172175000D03*
D14*
%TO.P,MCU1,121*%
%TO.N,VCC*%
X177430000Y-180350000D03*
D15*
X177430000Y-172175000D03*
D14*
%TO.P,MCU1,122*%
%TO.N,RST*%
X174890000Y-180350000D03*
D15*
X174890000Y-172175000D03*
D14*
%TO.P,MCU1,123*%
%TO.N,GND*%
X172350000Y-180350000D03*
D15*
X172350000Y-172175000D03*
D14*
%TO.P,MCU1,124*%
%TO.N,RAW*%
X169810000Y-180350000D03*
D15*
X169810000Y-172175000D03*
%TD*%
D16*
%TO.P,PWR1,*%
%TO.N,*%
X208150000Y-163139999D03*
X200850000Y-163140000D03*
X208150000Y-165350000D03*
X200850000Y-165350000D03*
D17*
%TO.P,PWR1,1*%
%TO.N,BAT_P*%
X206750000Y-162490000D03*
%TO.P,PWR1,2*%
%TO.N,RAW*%
X203750000Y-162490000D03*
%TO.P,PWR1,3*%
%TO.N,N/C*%
X202250000Y-162490000D03*
%TD*%
D18*
%TO.P,JST1,1*%
%TO.N,BAT_P*%
X217250000Y-163000000D03*
%TO.P,JST1,2*%
%TO.N,GND*%
X215250000Y-163000000D03*
D19*
%TO.P,JST1,11*%
%TO.N,JST1_1*%
X215250000Y-160184000D03*
%TO.P,JST1,12*%
%TO.N,JST1_2*%
X217250000Y-160184000D03*
D20*
%TO.P,JST1,31*%
%TO.N,JST1_1*%
X215250000Y-161984000D03*
%TO.P,JST1,32*%
%TO.N,JST1_2*%
X217250000Y-161984000D03*
%TD*%
D21*
%TO.P,RST1,1*%
%TO.N,RST*%
X194750000Y-164000000D03*
%TO.P,RST1,2*%
%TO.N,GND*%
X188250000Y-164000000D03*
%TD*%
D22*
%TO.P,D14,1*%
%TO.N,P15*%
X258000000Y-177560000D03*
D23*
X258000000Y-175400000D03*
%TO.P,D14,2*%
%TO.N,inner_thumb*%
X258000000Y-172100000D03*
D24*
X258000000Y-169940000D03*
%TD*%
D22*
%TO.P,D5,1*%
%TO.N,P16*%
X201000000Y-132560000D03*
D23*
X201000000Y-130400000D03*
%TO.P,D5,2*%
%TO.N,ring_home*%
X201000000Y-127100000D03*
D24*
X201000000Y-124940000D03*
%TD*%
D22*
%TO.P,D11,1*%
%TO.N,P14*%
X239000000Y-156560000D03*
D23*
X239000000Y-154400000D03*
%TO.P,D11,2*%
%TO.N,index_bottom*%
X239000000Y-151100000D03*
D24*
X239000000Y-148940000D03*
%TD*%
D25*
%TO.P,S16,*%
%TO.N,P6*%
X248400000Y-144750000D03*
D26*
%TO.N,*%
X251000000Y-139000000D03*
D25*
%TO.N,inner_home*%
X253600000Y-144750000D03*
D27*
%TO.P,S16,1*%
%TO.N,P6*%
X243650000Y-143700000D03*
D28*
X246600000Y-134300000D03*
D25*
X246600000Y-143700000D03*
D28*
X248400000Y-133250000D03*
%TO.P,S16,2*%
%TO.N,inner_home*%
X253600000Y-133250000D03*
X255400000Y-134300000D03*
D25*
X255400000Y-143700000D03*
D29*
X257250000Y-144750000D03*
%TD*%
D25*
%TO.P,S8,*%
%TO.N,P4*%
X210400000Y-134750000D03*
D26*
%TO.N,*%
X213000000Y-129000000D03*
D25*
%TO.N,middle_home*%
X215600000Y-134750000D03*
D27*
%TO.P,S8,1*%
%TO.N,P4*%
X205650000Y-133700000D03*
D28*
X208600000Y-124300000D03*
D25*
X208600000Y-133700000D03*
D28*
X210400000Y-123250000D03*
%TO.P,S8,2*%
%TO.N,middle_home*%
X215600000Y-123250000D03*
X217400000Y-124300000D03*
D25*
X217400000Y-133700000D03*
D29*
X219250000Y-134750000D03*
%TD*%
D25*
%TO.P,S17,*%
%TO.N,P6*%
X248400000Y-125750000D03*
D26*
%TO.N,*%
X251000000Y-120000000D03*
D25*
%TO.N,inner_top*%
X253600000Y-125750000D03*
D27*
%TO.P,S17,1*%
%TO.N,P6*%
X243650000Y-124700000D03*
D28*
X246600000Y-115300000D03*
D25*
X246600000Y-124700000D03*
D28*
X248400000Y-114250000D03*
%TO.P,S17,2*%
%TO.N,inner_top*%
X253600000Y-114250000D03*
X255400000Y-115300000D03*
D25*
X255400000Y-124700000D03*
D29*
X257250000Y-125750000D03*
%TD*%
D22*
%TO.P,D3,1*%
%TO.N,P10*%
X182000000Y-118560000D03*
D23*
X182000000Y-116400000D03*
%TO.P,D3,2*%
%TO.N,pinky_top*%
X182000000Y-113100000D03*
D24*
X182000000Y-110940000D03*
%TD*%
D25*
%TO.P,S9,*%
%TO.N,P4*%
X210400000Y-115750000D03*
D26*
%TO.N,*%
X213000000Y-110000000D03*
D25*
%TO.N,middle_top*%
X215600000Y-115750000D03*
D27*
%TO.P,S9,1*%
%TO.N,P4*%
X205650000Y-114700000D03*
D28*
X208600000Y-105300000D03*
D25*
X208600000Y-114700000D03*
D28*
X210400000Y-104250000D03*
%TO.P,S9,2*%
%TO.N,middle_top*%
X215600000Y-104250000D03*
X217400000Y-105300000D03*
D25*
X217400000Y-114700000D03*
D29*
X219250000Y-115750000D03*
%TD*%
D25*
%TO.P,S11,*%
%TO.N,P5*%
X229400000Y-161750000D03*
D26*
%TO.N,*%
X232000000Y-156000000D03*
D25*
%TO.N,index_bottom*%
X234600000Y-161750000D03*
D27*
%TO.P,S11,1*%
%TO.N,P5*%
X224650000Y-160700000D03*
D28*
X227600000Y-151300000D03*
D25*
X227600000Y-160700000D03*
D28*
X229400000Y-150250000D03*
%TO.P,S11,2*%
%TO.N,index_bottom*%
X234600000Y-150250000D03*
X236400000Y-151300000D03*
D25*
X236400000Y-160700000D03*
D29*
X238250000Y-161750000D03*
%TD*%
D25*
%TO.P,S15,*%
%TO.N,P6*%
X248400000Y-163750000D03*
D26*
%TO.N,*%
X251000000Y-158000000D03*
D25*
%TO.N,inner_bottom*%
X253600000Y-163750000D03*
D27*
%TO.P,S15,1*%
%TO.N,P6*%
X243650000Y-162700000D03*
D28*
X246600000Y-153300000D03*
D25*
X246600000Y-162700000D03*
D28*
X248400000Y-152250000D03*
%TO.P,S15,2*%
%TO.N,inner_bottom*%
X253600000Y-152250000D03*
X255400000Y-153300000D03*
D25*
X255400000Y-162700000D03*
D29*
X257250000Y-163750000D03*
%TD*%
D25*
%TO.P,S7,*%
%TO.N,P4*%
X210400000Y-153750000D03*
D26*
%TO.N,*%
X213000000Y-148000000D03*
D25*
%TO.N,middle_bottom*%
X215600000Y-153750000D03*
D27*
%TO.P,S7,1*%
%TO.N,P4*%
X205650000Y-152700000D03*
D28*
X208600000Y-143300000D03*
D25*
X208600000Y-152700000D03*
D28*
X210400000Y-142250000D03*
%TO.P,S7,2*%
%TO.N,middle_bottom*%
X215600000Y-142250000D03*
X217400000Y-143300000D03*
D25*
X217400000Y-152700000D03*
D29*
X219250000Y-153750000D03*
%TD*%
D22*
%TO.P,D10,1*%
%TO.N,P15*%
X239000000Y-175560000D03*
D23*
X239000000Y-173400000D03*
%TO.P,D10,2*%
%TO.N,index_thumb*%
X239000000Y-170100000D03*
D24*
X239000000Y-167940000D03*
%TD*%
D22*
%TO.P,D12,1*%
%TO.N,P16*%
X239000000Y-137560000D03*
D23*
X239000000Y-135400000D03*
%TO.P,D12,2*%
%TO.N,index_home*%
X239000000Y-132100000D03*
D24*
X239000000Y-129940000D03*
%TD*%
D22*
%TO.P,D8,1*%
%TO.N,P16*%
X220000000Y-129560000D03*
D23*
X220000000Y-127400000D03*
%TO.P,D8,2*%
%TO.N,middle_home*%
X220000000Y-124100000D03*
D24*
X220000000Y-121940000D03*
%TD*%
D22*
%TO.P,D2,1*%
%TO.N,P16*%
X182000000Y-137560000D03*
D23*
X182000000Y-135400000D03*
%TO.P,D2,2*%
%TO.N,pinky_home*%
X182000000Y-132100000D03*
D24*
X182000000Y-129940000D03*
%TD*%
D25*
%TO.P,S5,*%
%TO.N,P3*%
X191400000Y-137750000D03*
D26*
%TO.N,*%
X194000000Y-132000000D03*
D25*
%TO.N,ring_home*%
X196600000Y-137750000D03*
D27*
%TO.P,S5,1*%
%TO.N,P3*%
X186650000Y-136700000D03*
D28*
X189600000Y-127300000D03*
D25*
X189600000Y-136700000D03*
D28*
X191400000Y-126250000D03*
%TO.P,S5,2*%
%TO.N,ring_home*%
X196600000Y-126250000D03*
X198400000Y-127300000D03*
D25*
X198400000Y-136700000D03*
D29*
X200250000Y-137750000D03*
%TD*%
D25*
%TO.P,S6,*%
%TO.N,P3*%
X191400000Y-118750000D03*
D26*
%TO.N,*%
X194000000Y-113000000D03*
D25*
%TO.N,ring_top*%
X196600000Y-118750000D03*
D27*
%TO.P,S6,1*%
%TO.N,P3*%
X186650000Y-117700000D03*
D28*
X189600000Y-108300000D03*
D25*
X189600000Y-117700000D03*
D28*
X191400000Y-107250000D03*
%TO.P,S6,2*%
%TO.N,ring_top*%
X196600000Y-107250000D03*
X198400000Y-108300000D03*
D25*
X198400000Y-117700000D03*
D29*
X200250000Y-118750000D03*
%TD*%
D25*
%TO.P,S14,*%
%TO.N,P6*%
X248400000Y-182750000D03*
D26*
%TO.N,*%
X251000000Y-177000000D03*
D25*
%TO.N,inner_thumb*%
X253600000Y-182750000D03*
D27*
%TO.P,S14,1*%
%TO.N,P6*%
X243650000Y-181700000D03*
D28*
X246600000Y-172300000D03*
D25*
X246600000Y-181700000D03*
D28*
X248400000Y-171250000D03*
%TO.P,S14,2*%
%TO.N,inner_thumb*%
X253600000Y-171250000D03*
X255400000Y-172300000D03*
D25*
X255400000Y-181700000D03*
D29*
X257250000Y-182750000D03*
%TD*%
D22*
%TO.P,D9,1*%
%TO.N,P10*%
X220000000Y-110560000D03*
D23*
X220000000Y-108400000D03*
%TO.P,D9,2*%
%TO.N,middle_top*%
X220000000Y-105100000D03*
D24*
X220000000Y-102940000D03*
%TD*%
D22*
%TO.P,D6,1*%
%TO.N,P10*%
X201000000Y-113560000D03*
D23*
X201000000Y-111400000D03*
%TO.P,D6,2*%
%TO.N,ring_top*%
X201000000Y-108100000D03*
D24*
X201000000Y-105940000D03*
%TD*%
D25*
%TO.P,S3,*%
%TO.N,P2*%
X172400000Y-123750000D03*
D26*
%TO.N,*%
X175000000Y-118000000D03*
D25*
%TO.N,pinky_top*%
X177600000Y-123750000D03*
D27*
%TO.P,S3,1*%
%TO.N,P2*%
X167650000Y-122700000D03*
D28*
X170600000Y-113300000D03*
D25*
X170600000Y-122700000D03*
D28*
X172400000Y-112250000D03*
%TO.P,S3,2*%
%TO.N,pinky_top*%
X177600000Y-112250000D03*
X179400000Y-113300000D03*
D25*
X179400000Y-122700000D03*
D29*
X181250000Y-123750000D03*
%TD*%
D25*
%TO.P,S1,*%
%TO.N,P2*%
X172400000Y-161750000D03*
D26*
%TO.N,*%
X175000000Y-156000000D03*
D25*
%TO.N,pinky_bottom*%
X177600000Y-161750000D03*
D27*
%TO.P,S1,1*%
%TO.N,P2*%
X167650000Y-160700000D03*
D28*
X170600000Y-151300000D03*
D25*
X170600000Y-160700000D03*
D28*
X172400000Y-150250000D03*
%TO.P,S1,2*%
%TO.N,pinky_bottom*%
X177600000Y-150250000D03*
X179400000Y-151300000D03*
D25*
X179400000Y-160700000D03*
D29*
X181250000Y-161750000D03*
%TD*%
D22*
%TO.P,D15,1*%
%TO.N,P14*%
X258000000Y-158560000D03*
D23*
X258000000Y-156400000D03*
%TO.P,D15,2*%
%TO.N,inner_bottom*%
X258000000Y-153100000D03*
D24*
X258000000Y-150940000D03*
%TD*%
D22*
%TO.P,D16,1*%
%TO.N,P16*%
X258000000Y-139560000D03*
D23*
X258000000Y-137400000D03*
%TO.P,D16,2*%
%TO.N,inner_home*%
X258000000Y-134100000D03*
D24*
X258000000Y-131940000D03*
%TD*%
D25*
%TO.P,S10,*%
%TO.N,P5*%
X229400000Y-180750000D03*
D26*
%TO.N,*%
X232000000Y-175000000D03*
D25*
%TO.N,index_thumb*%
X234600000Y-180750000D03*
D27*
%TO.P,S10,1*%
%TO.N,P5*%
X224650000Y-179700000D03*
D28*
X227600000Y-170300000D03*
D25*
X227600000Y-179700000D03*
D28*
X229400000Y-169250000D03*
%TO.P,S10,2*%
%TO.N,index_thumb*%
X234600000Y-169250000D03*
X236400000Y-170300000D03*
D25*
X236400000Y-179700000D03*
D29*
X238250000Y-180750000D03*
%TD*%
D25*
%TO.P,S4,*%
%TO.N,P3*%
X191400000Y-156750000D03*
D26*
%TO.N,*%
X194000000Y-151000000D03*
D25*
%TO.N,ring_bottom*%
X196600000Y-156750000D03*
D27*
%TO.P,S4,1*%
%TO.N,P3*%
X186650000Y-155700000D03*
D28*
X189600000Y-146300000D03*
D25*
X189600000Y-155700000D03*
D28*
X191400000Y-145250000D03*
%TO.P,S4,2*%
%TO.N,ring_bottom*%
X196600000Y-145250000D03*
X198400000Y-146300000D03*
D25*
X198400000Y-155700000D03*
D29*
X200250000Y-156750000D03*
%TD*%
D25*
%TO.P,S13,*%
%TO.N,P5*%
X229400000Y-123750000D03*
D26*
%TO.N,*%
X232000000Y-118000000D03*
D25*
%TO.N,index_top*%
X234600000Y-123750000D03*
D27*
%TO.P,S13,1*%
%TO.N,P5*%
X224650000Y-122700000D03*
D28*
X227600000Y-113300000D03*
D25*
X227600000Y-122700000D03*
D28*
X229400000Y-112250000D03*
%TO.P,S13,2*%
%TO.N,index_top*%
X234600000Y-112250000D03*
X236400000Y-113300000D03*
D25*
X236400000Y-122700000D03*
D29*
X238250000Y-123750000D03*
%TD*%
D22*
%TO.P,D13,1*%
%TO.N,P10*%
X239000000Y-118560000D03*
D23*
X239000000Y-116400000D03*
%TO.P,D13,2*%
%TO.N,index_top*%
X239000000Y-113100000D03*
D24*
X239000000Y-110940000D03*
%TD*%
D25*
%TO.P,S12,*%
%TO.N,P5*%
X229400000Y-142750000D03*
D26*
%TO.N,*%
X232000000Y-137000000D03*
D25*
%TO.N,index_home*%
X234600000Y-142750000D03*
D27*
%TO.P,S12,1*%
%TO.N,P5*%
X224650000Y-141700000D03*
D28*
X227600000Y-132300000D03*
D25*
X227600000Y-141700000D03*
D28*
X229400000Y-131250000D03*
%TO.P,S12,2*%
%TO.N,index_home*%
X234600000Y-131250000D03*
X236400000Y-132300000D03*
D25*
X236400000Y-141700000D03*
D29*
X238250000Y-142750000D03*
%TD*%
D22*
%TO.P,D7,1*%
%TO.N,P14*%
X220000000Y-148560000D03*
D23*
X220000000Y-146400000D03*
%TO.P,D7,2*%
%TO.N,middle_bottom*%
X220000000Y-143100000D03*
D24*
X220000000Y-140940000D03*
%TD*%
D25*
%TO.P,S2,*%
%TO.N,P2*%
X172400000Y-142750000D03*
D26*
%TO.N,*%
X175000000Y-137000000D03*
D25*
%TO.N,pinky_home*%
X177600000Y-142750000D03*
D27*
%TO.P,S2,1*%
%TO.N,P2*%
X167650000Y-141700000D03*
D28*
X170600000Y-132300000D03*
D25*
X170600000Y-141700000D03*
D28*
X172400000Y-131250000D03*
%TO.P,S2,2*%
%TO.N,pinky_home*%
X177600000Y-131250000D03*
X179400000Y-132300000D03*
D25*
X179400000Y-141700000D03*
D29*
X181250000Y-142750000D03*
%TD*%
D22*
%TO.P,D1,1*%
%TO.N,P14*%
X182000000Y-156560000D03*
D23*
X182000000Y-154400000D03*
%TO.P,D1,2*%
%TO.N,pinky_bottom*%
X182000000Y-151100000D03*
D24*
X182000000Y-148940000D03*
%TD*%
D22*
%TO.P,D17,1*%
%TO.N,P10*%
X258000000Y-120560000D03*
D23*
X258000000Y-118400000D03*
%TO.P,D17,2*%
%TO.N,inner_top*%
X258000000Y-115100000D03*
D24*
X258000000Y-112940000D03*
%TD*%
D22*
%TO.P,D4,1*%
%TO.N,P14*%
X201000000Y-151560000D03*
D23*
X201000000Y-149400000D03*
%TO.P,D4,2*%
%TO.N,ring_bottom*%
X201000000Y-146100000D03*
D24*
X201000000Y-143940000D03*
%TD*%
D30*
%TO.N,P2*%
X181145000Y-172591692D02*
X180186692Y-173550000D01*
X174051701Y-161750000D02*
X181145000Y-168843299D01*
X179970000Y-181725000D02*
X179970000Y-181375305D01*
X181145000Y-168843299D02*
X181145000Y-172591692D01*
X172400000Y-161650000D02*
X172400000Y-161750000D01*
X179970000Y-181375305D02*
X180695000Y-180650305D01*
X180200000Y-179554695D02*
X180200000Y-173780000D01*
X170600000Y-113300000D02*
X170600000Y-122700000D01*
X172400000Y-142750000D02*
X172400000Y-150250000D01*
X170600000Y-151300000D02*
X170600000Y-160700000D01*
X180186692Y-173550000D02*
X179970000Y-173550000D01*
X172400000Y-161650000D02*
X172250000Y-161500000D01*
X180695000Y-180650305D02*
X180695000Y-180049695D01*
X172400000Y-161750000D02*
X174051701Y-161750000D01*
X170600000Y-132300000D02*
X170600000Y-141700000D01*
X180695000Y-180049695D02*
X180200000Y-179554695D01*
X172400000Y-123750000D02*
X172400000Y-131250000D01*
%TO.N,pinky_bottom*%
X181800000Y-151300000D02*
X182000000Y-151100000D01*
X182000000Y-151100000D02*
X182000000Y-148940000D01*
X179400000Y-151300000D02*
X179400000Y-160700000D01*
X179400000Y-151300000D02*
X181800000Y-151300000D01*
%TO.N,GND*%
X188250000Y-160795584D02*
X188250000Y-164000000D01*
X174890000Y-181375305D02*
X175615000Y-180650305D01*
X171625000Y-173249695D02*
X171625000Y-173850305D01*
X206859315Y-156725000D02*
X203234315Y-160350000D01*
X172350000Y-172524695D02*
X171625000Y-173249695D01*
X175615000Y-180650305D02*
X175615000Y-180049695D01*
X177430000Y-181375305D02*
X178155000Y-180650305D01*
X214325000Y-158075000D02*
X212975000Y-156725000D01*
X175615000Y-180049695D02*
X175120000Y-179554695D01*
X172350000Y-172175000D02*
X172350000Y-172524695D01*
X188695584Y-160350000D02*
X188250000Y-160795584D01*
X214325000Y-162075000D02*
X214325000Y-158075000D01*
X171625000Y-173850305D02*
X172130000Y-174355305D01*
X215250000Y-163000000D02*
X214325000Y-162075000D01*
X177660000Y-179554695D02*
X177660000Y-173780000D01*
X174890000Y-181725000D02*
X174890000Y-181375305D01*
X178155000Y-180650305D02*
X178155000Y-180049695D01*
X178155000Y-180049695D02*
X177660000Y-179554695D01*
X172130000Y-174355305D02*
X172130000Y-180130000D01*
X175120000Y-179554695D02*
X175120000Y-173780000D01*
X177430000Y-181725000D02*
X177430000Y-181375305D01*
X212975000Y-156725000D02*
X206859315Y-156725000D01*
X203234315Y-160350000D02*
X188695584Y-160350000D01*
%TO.N,pinky_home*%
X179400000Y-132300000D02*
X181800000Y-132300000D01*
X181800000Y-132300000D02*
X182000000Y-132100000D01*
X182000000Y-129940000D02*
X182000000Y-132100000D01*
X179400000Y-132300000D02*
X179400000Y-141700000D01*
%TO.N,pinky_top*%
X181800000Y-113300000D02*
X182000000Y-113100000D01*
X179400000Y-113300000D02*
X179400000Y-122700000D01*
X182000000Y-113100000D02*
X182000000Y-110940000D01*
X179400000Y-113300000D02*
X181800000Y-113300000D01*
X179400000Y-113300000D02*
X179300000Y-113300000D01*
%TO.N,P3*%
X189600000Y-127300000D02*
X189600000Y-136700000D01*
X182510000Y-181375305D02*
X183235000Y-180650305D01*
X183875000Y-172625000D02*
X182950000Y-173550000D01*
X191400000Y-137750000D02*
X191400000Y-145250000D01*
X182510000Y-181725000D02*
X182510000Y-181375305D01*
X182740000Y-179554695D02*
X182740000Y-173780000D01*
X189600000Y-146300000D02*
X189600000Y-155700000D01*
X183235000Y-180049695D02*
X182740000Y-179554695D01*
X183875000Y-162625000D02*
X183875000Y-172625000D01*
X189750000Y-156750000D02*
X183875000Y-162625000D01*
X191400000Y-156750000D02*
X189750000Y-156750000D01*
X182950000Y-173550000D02*
X182510000Y-173550000D01*
X189600000Y-108300000D02*
X189600000Y-117700000D01*
X191400000Y-118750000D02*
X191400000Y-126250000D01*
X183235000Y-180650305D02*
X183235000Y-180049695D01*
%TO.N,ring_bottom*%
X198400000Y-146300000D02*
X198400000Y-155700000D01*
X198400000Y-146300000D02*
X200800000Y-146300000D01*
X200800000Y-146300000D02*
X201000000Y-146100000D01*
X201000000Y-146100000D02*
X201000000Y-143940000D01*
%TO.N,ring_home*%
X200800000Y-127300000D02*
X201000000Y-127100000D01*
X198400000Y-127300000D02*
X200800000Y-127300000D01*
X198400000Y-127300000D02*
X198400000Y-136700000D01*
X201000000Y-124940000D02*
X201000000Y-127100000D01*
%TO.N,ring_top*%
X200800000Y-108300000D02*
X201000000Y-108100000D01*
X198400000Y-108300000D02*
X198400000Y-117700000D01*
X201000000Y-105940000D02*
X201000000Y-108100000D01*
X198400000Y-108300000D02*
X200800000Y-108300000D01*
%TO.N,P4*%
X188136396Y-159000000D02*
X184325000Y-162811396D01*
X184655000Y-168155000D02*
X185536701Y-168155000D01*
X207925127Y-153750000D02*
X202675127Y-159000000D01*
X210400000Y-153750000D02*
X207925127Y-153750000D01*
X208600000Y-124300000D02*
X208600000Y-133700000D01*
X184325000Y-167825000D02*
X184655000Y-168155000D01*
X210400000Y-115750000D02*
X210400000Y-123250000D01*
X210400000Y-134750000D02*
X210400000Y-142250000D01*
X185775000Y-180049695D02*
X185280000Y-179554695D01*
X185536701Y-168155000D02*
X186225000Y-168843299D01*
X186225000Y-168843299D02*
X186225000Y-172940685D01*
X185775000Y-180650305D02*
X185775000Y-180049695D01*
X208600000Y-105300000D02*
X208600000Y-114700000D01*
X186225000Y-172940685D02*
X185615685Y-173550000D01*
X185280000Y-179554695D02*
X185280000Y-173780000D01*
X185615685Y-173550000D02*
X185050000Y-173550000D01*
X185050000Y-181375305D02*
X185775000Y-180650305D01*
X202675127Y-159000000D02*
X188136396Y-159000000D01*
X185050000Y-181725000D02*
X185050000Y-181375305D01*
X184325000Y-162811396D02*
X184325000Y-167825000D01*
X208600000Y-143300000D02*
X208600000Y-152700000D01*
%TO.N,middle_bottom*%
X217600000Y-143100000D02*
X217400000Y-143300000D01*
X220000000Y-143100000D02*
X217600000Y-143100000D01*
X220000000Y-143100000D02*
X220000000Y-140940000D01*
X217400000Y-143300000D02*
X217400000Y-152700000D01*
%TO.N,middle_home*%
X217400000Y-124300000D02*
X219800000Y-124300000D01*
X220000000Y-124100000D02*
X220000000Y-121940000D01*
X219800000Y-124300000D02*
X220000000Y-124100000D01*
X217400000Y-124300000D02*
X217400000Y-133700000D01*
%TO.N,middle_top*%
X217400000Y-105300000D02*
X217400000Y-114700000D01*
X217400000Y-105300000D02*
X219800000Y-105300000D01*
X219800000Y-105300000D02*
X220000000Y-105100000D01*
X220000000Y-105100000D02*
X220000000Y-102940000D01*
%TO.N,P5*%
X227600000Y-151300000D02*
X227600000Y-160700000D01*
X187626701Y-167705000D02*
X188765000Y-168843299D01*
X188765000Y-172940685D02*
X188155685Y-173550000D01*
X227600000Y-113300000D02*
X227600000Y-122700000D01*
X188155685Y-173550000D02*
X187590000Y-173550000D01*
X187590000Y-181725000D02*
X187590000Y-181375305D01*
X184775000Y-167638604D02*
X184841396Y-167705000D01*
X229400000Y-123750000D02*
X229400000Y-131250000D01*
X229400000Y-142750000D02*
X229400000Y-150250000D01*
X188765000Y-168843299D02*
X188765000Y-172940685D01*
X187820000Y-179554695D02*
X187820000Y-173780000D01*
X188322792Y-159450000D02*
X184775000Y-162997792D01*
X227600000Y-132300000D02*
X227600000Y-141700000D01*
X188315000Y-180650305D02*
X188315000Y-180049695D01*
X188315000Y-180049695D02*
X187820000Y-179554695D01*
X229400000Y-161750000D02*
X229400000Y-169250000D01*
X202861523Y-159450000D02*
X188322792Y-159450000D01*
X187590000Y-181375305D02*
X188315000Y-180650305D01*
X184841396Y-167705000D02*
X187626701Y-167705000D01*
X206486523Y-155825000D02*
X202861523Y-159450000D01*
X227600000Y-151300000D02*
X223075000Y-155825000D01*
X184775000Y-162997792D02*
X184775000Y-167638604D01*
X223075000Y-155825000D02*
X206486523Y-155825000D01*
X227600000Y-170300000D02*
X227600000Y-179700000D01*
%TO.N,index_thumb*%
X239000000Y-170100000D02*
X239000000Y-167940000D01*
X236400000Y-170300000D02*
X238800000Y-170300000D01*
X236400000Y-170300000D02*
X236400000Y-179700000D01*
X238800000Y-170300000D02*
X239000000Y-170100000D01*
%TO.N,index_bottom*%
X239000000Y-151100000D02*
X239000000Y-148940000D01*
X238800000Y-151300000D02*
X239000000Y-151100000D01*
X236400000Y-151300000D02*
X236400000Y-160700000D01*
X236400000Y-151300000D02*
X238800000Y-151300000D01*
%TO.N,index_home*%
X236600000Y-132100000D02*
X236400000Y-132300000D01*
X239000000Y-132100000D02*
X236600000Y-132100000D01*
X236400000Y-132300000D02*
X236400000Y-141700000D01*
X239000000Y-132100000D02*
X239000000Y-129940000D01*
%TO.N,index_top*%
X236600000Y-113100000D02*
X236400000Y-113300000D01*
X239000000Y-113100000D02*
X236600000Y-113100000D01*
X236400000Y-113300000D02*
X236400000Y-122700000D01*
X239000000Y-113100000D02*
X239000000Y-110940000D01*
%TO.N,P6*%
X224379900Y-183000000D02*
X242350000Y-183000000D01*
X248400000Y-144750000D02*
X248400000Y-152250000D01*
X243650000Y-181700000D02*
X243650000Y-181600000D01*
X188509188Y-159900000D02*
X203047919Y-159900000D01*
X242350000Y-183000000D02*
X243650000Y-181700000D01*
X191305000Y-168843299D02*
X189716701Y-167255000D01*
X191305000Y-173055000D02*
X191305000Y-168843299D01*
X246600000Y-115300000D02*
X246600000Y-124700000D01*
X190130000Y-181375305D02*
X190855000Y-180650305D01*
X246600000Y-172300000D02*
X246600000Y-181700000D01*
X190810000Y-173550000D02*
X191305000Y-173055000D01*
X243650000Y-181600000D02*
X242425000Y-182825000D01*
X189716701Y-167255000D02*
X185225000Y-167255000D01*
X246600000Y-153300000D02*
X246600000Y-162700000D01*
X190360000Y-179554695D02*
X190360000Y-173780000D01*
X190855000Y-180650305D02*
X190855000Y-180049695D01*
X185225000Y-167255000D02*
X185225000Y-163184188D01*
X206672919Y-156275000D02*
X221275000Y-156275000D01*
X203047919Y-159900000D02*
X206672919Y-156275000D01*
X190130000Y-173550000D02*
X190810000Y-173550000D01*
X222325000Y-157325000D02*
X222325000Y-180945100D01*
X222325000Y-180945100D02*
X224379900Y-183000000D01*
X190855000Y-180049695D02*
X190360000Y-179554695D01*
X246600000Y-134300000D02*
X246600000Y-143700000D01*
X185225000Y-163184188D02*
X188509188Y-159900000D01*
X248400000Y-125750000D02*
X248400000Y-133250000D01*
X190130000Y-181725000D02*
X190130000Y-181375305D01*
X248400000Y-163750000D02*
X248400000Y-171250000D01*
X221275000Y-156275000D02*
X222325000Y-157325000D01*
%TO.N,inner_thumb*%
X258000000Y-172100000D02*
X255600000Y-172100000D01*
X255400000Y-172300000D02*
X255400000Y-181700000D01*
X258000000Y-172100000D02*
X258000000Y-169940000D01*
X255600000Y-172100000D02*
X255400000Y-172300000D01*
%TO.N,inner_bottom*%
X255600000Y-153100000D02*
X255400000Y-153300000D01*
X258000000Y-153100000D02*
X258000000Y-150940000D01*
X255400000Y-153300000D02*
X255400000Y-162700000D01*
X258000000Y-153100000D02*
X255600000Y-153100000D01*
%TO.N,inner_home*%
X255400000Y-134300000D02*
X255400000Y-143700000D01*
X258000000Y-134100000D02*
X255600000Y-134100000D01*
X255600000Y-134100000D02*
X255400000Y-134300000D01*
X258000000Y-134100000D02*
X258000000Y-131940000D01*
%TO.N,inner_top*%
X257650000Y-115300000D02*
X255400000Y-115300000D01*
X257850000Y-115100000D02*
X257650000Y-115300000D01*
X258000000Y-115100000D02*
X258000000Y-112940000D01*
X255400000Y-115300000D02*
X255400000Y-124700000D01*
X258000000Y-115100000D02*
X257850000Y-115100000D01*
%TO.N,P14*%
X192670000Y-172175000D02*
X192670000Y-172524695D01*
X191945000Y-173249695D02*
X191945000Y-173850305D01*
X182000000Y-154400000D02*
X182000000Y-156560000D01*
X192670000Y-172524695D02*
X191945000Y-173249695D01*
X191945000Y-173850305D02*
X192450000Y-174355305D01*
X258000000Y-158560000D02*
X258000000Y-156400000D01*
X239000000Y-156560000D02*
X239000000Y-154400000D01*
X220000000Y-148560000D02*
X220000000Y-146400000D01*
X192450000Y-174355305D02*
X192450000Y-180130000D01*
X201000000Y-151560000D02*
X201000000Y-149400000D01*
%TO.N,P16*%
X182000000Y-137560000D02*
X182000000Y-135400000D01*
X195210000Y-172175000D02*
X195210000Y-172524695D01*
X194990000Y-174355305D02*
X194990000Y-180130000D01*
X258000000Y-139560000D02*
X258000000Y-137400000D01*
X194485000Y-173850305D02*
X194990000Y-174355305D01*
X201000000Y-132560000D02*
X201000000Y-130400000D01*
X239000000Y-137560000D02*
X239000000Y-135400000D01*
X220000000Y-129560000D02*
X220000000Y-127400000D01*
X195210000Y-172524695D02*
X194485000Y-173249695D01*
X194485000Y-173249695D02*
X194485000Y-173850305D01*
%TO.N,P10*%
X197025000Y-173850305D02*
X197530000Y-174355305D01*
X197750000Y-172175000D02*
X197750000Y-172524695D01*
X197025000Y-173249695D02*
X197025000Y-173850305D01*
X197530000Y-174355305D02*
X197530000Y-180130000D01*
X201000000Y-111400000D02*
X201000000Y-113560000D01*
X220000000Y-110560000D02*
X220000000Y-108400000D01*
X197750000Y-172524695D02*
X197025000Y-173249695D01*
X239000000Y-118560000D02*
X239000000Y-116400000D01*
X258000000Y-120560000D02*
X258000000Y-118400000D01*
X182000000Y-118560000D02*
X182000000Y-116400000D01*
%TO.N,P15*%
X190130000Y-172175000D02*
X190130000Y-172524695D01*
X189910000Y-174355305D02*
X189910000Y-180130000D01*
X189405000Y-173249695D02*
X189405000Y-173850305D01*
X189405000Y-173850305D02*
X189910000Y-174355305D01*
X258000000Y-177560000D02*
X258000000Y-175400000D01*
X190130000Y-172524695D02*
X189405000Y-173249695D01*
X239000000Y-175560000D02*
X239000000Y-173400000D01*
%TO.N,RAW*%
X169810000Y-172175000D02*
X169810000Y-172524695D01*
X169085000Y-173249695D02*
X169085000Y-173850305D01*
X169810000Y-172524695D02*
X169085000Y-173249695D01*
X169590000Y-174355305D02*
X169590000Y-180130000D01*
X169085000Y-173850305D02*
X169590000Y-174355305D01*
%TO.N,RST*%
X174165000Y-173850305D02*
X174670000Y-174355305D01*
X174890000Y-172175000D02*
X174890000Y-172524695D01*
X174165000Y-173249695D02*
X174165000Y-173850305D01*
X174890000Y-172524695D02*
X174165000Y-173249695D01*
X174670000Y-174355305D02*
X174670000Y-180130000D01*
%TO.N,VCC*%
X177430000Y-172175000D02*
X177430000Y-172524695D01*
X176705000Y-173850305D02*
X177210000Y-174355305D01*
X177430000Y-172524695D02*
X176705000Y-173249695D01*
X176705000Y-173249695D02*
X176705000Y-173850305D01*
X177210000Y-174355305D02*
X177210000Y-180130000D01*
%TO.N,P21*%
X179970000Y-172524695D02*
X179245000Y-173249695D01*
X179245000Y-173249695D02*
X179245000Y-173850305D01*
X179750000Y-174355305D02*
X179750000Y-180130000D01*
X179245000Y-173850305D02*
X179750000Y-174355305D01*
X179970000Y-172175000D02*
X179970000Y-172524695D01*
%TO.N,P20*%
X182510000Y-172175000D02*
X182510000Y-172524695D01*
X181785000Y-173850305D02*
X182290000Y-174355305D01*
X181785000Y-173249695D02*
X181785000Y-173850305D01*
X182510000Y-172524695D02*
X181785000Y-173249695D01*
X182290000Y-174355305D02*
X182290000Y-180130000D01*
%TO.N,P19*%
X185050000Y-172524695D02*
X184325000Y-173249695D01*
X185050000Y-172175000D02*
X185050000Y-172524695D01*
X184325000Y-173850305D02*
X184830000Y-174355305D01*
X184830000Y-174355305D02*
X184830000Y-180130000D01*
X184325000Y-173249695D02*
X184325000Y-173850305D01*
%TO.N,P18*%
X186865000Y-173249695D02*
X186865000Y-173850305D01*
X187370000Y-174355305D02*
X187370000Y-180130000D01*
X187590000Y-172524695D02*
X186865000Y-173249695D01*
X186865000Y-173850305D02*
X187370000Y-174355305D01*
X187590000Y-172175000D02*
X187590000Y-172524695D01*
%TO.N,P1*%
X169810000Y-181375305D02*
X170535000Y-180650305D01*
X169810000Y-181725000D02*
X169810000Y-181375305D01*
X170535000Y-180650305D02*
X170535000Y-180049695D01*
X170535000Y-180049695D02*
X170040000Y-179554695D01*
X170040000Y-179554695D02*
X170040000Y-173780000D01*
%TO.N,P0*%
X172350000Y-181725000D02*
X172350000Y-181375305D01*
X173075000Y-180049695D02*
X172580000Y-179554695D01*
X172350000Y-181375305D02*
X173075000Y-180650305D01*
X173075000Y-180650305D02*
X173075000Y-180049695D01*
X172580000Y-179554695D02*
X172580000Y-173780000D01*
%TO.N,P7*%
X192670000Y-181725000D02*
X192670000Y-181375305D01*
X192670000Y-181375305D02*
X193395000Y-180650305D01*
X192900000Y-179554695D02*
X192900000Y-173780000D01*
X193395000Y-180049695D02*
X192900000Y-179554695D01*
X193395000Y-180650305D02*
X193395000Y-180049695D01*
%TO.N,P8*%
X195440000Y-179554695D02*
X195440000Y-173780000D01*
X195935000Y-180650305D02*
X195935000Y-180049695D01*
X195210000Y-181375305D02*
X195935000Y-180650305D01*
X195210000Y-181725000D02*
X195210000Y-181375305D01*
X195935000Y-180049695D02*
X195440000Y-179554695D01*
%TO.N,P9*%
X197980000Y-179554695D02*
X197980000Y-173780000D01*
X197750000Y-181725000D02*
X197750000Y-181375305D01*
X198475000Y-180650305D02*
X198475000Y-180049695D01*
X197750000Y-181375305D02*
X198475000Y-180650305D01*
X198475000Y-180049695D02*
X197980000Y-179554695D01*
%TO.N,MCU1_24*%
X169810000Y-184570000D02*
X169810000Y-182450000D01*
%TO.N,MCU1_1*%
X169810000Y-169330000D02*
X169810000Y-171450000D01*
%TO.N,MCU1_23*%
X172350000Y-184570000D02*
X172350000Y-182450000D01*
%TO.N,MCU1_2*%
X172350000Y-169330000D02*
X172350000Y-171450000D01*
%TO.N,MCU1_22*%
X174890000Y-184570000D02*
X174890000Y-182450000D01*
%TO.N,MCU1_3*%
X174890000Y-169330000D02*
X174890000Y-171450000D01*
%TO.N,MCU1_21*%
X177430000Y-184570000D02*
X177430000Y-182450000D01*
%TO.N,MCU1_4*%
X177430000Y-169330000D02*
X177430000Y-171450000D01*
%TO.N,MCU1_20*%
X179970000Y-184570000D02*
X179970000Y-182450000D01*
%TO.N,MCU1_5*%
X179970000Y-169330000D02*
X179970000Y-171450000D01*
%TO.N,MCU1_19*%
X182510000Y-184570000D02*
X182510000Y-182450000D01*
%TO.N,MCU1_6*%
X182510000Y-169330000D02*
X182510000Y-171450000D01*
%TO.N,MCU1_18*%
X185050000Y-184570000D02*
X185050000Y-182450000D01*
%TO.N,MCU1_7*%
X185050000Y-169330000D02*
X185050000Y-171450000D01*
%TO.N,MCU1_17*%
X187590000Y-184570000D02*
X187590000Y-182450000D01*
%TO.N,MCU1_8*%
X187590000Y-169330000D02*
X187590000Y-171450000D01*
%TO.N,MCU1_16*%
X190130000Y-184570000D02*
X190130000Y-182450000D01*
%TO.N,MCU1_9*%
X190130000Y-169330000D02*
X190130000Y-171450000D01*
%TO.N,MCU1_15*%
X192670000Y-184570000D02*
X192670000Y-182450000D01*
%TO.N,MCU1_10*%
X192670000Y-169330000D02*
X192670000Y-171450000D01*
%TO.N,MCU1_14*%
X195210000Y-184570000D02*
X195210000Y-182450000D01*
%TO.N,MCU1_11*%
X195210000Y-169330000D02*
X195210000Y-171450000D01*
%TO.N,MCU1_13*%
X197750000Y-184570000D02*
X197750000Y-182450000D01*
%TO.N,MCU1_12*%
X197750000Y-169330000D02*
X197750000Y-171450000D01*
%TO.N,BAT_P*%
X210040001Y-163480000D02*
X208560001Y-162000000D01*
X208560001Y-162000000D02*
X207240000Y-162000000D01*
X207240000Y-162000000D02*
X206750000Y-162490000D01*
X217250000Y-163000000D02*
X216770000Y-163480000D01*
X216770000Y-163480000D02*
X210040001Y-163480000D01*
%TO.N,JST1_1*%
X215250000Y-161984000D02*
X215250000Y-160184000D01*
%TO.N,JST1_2*%
X217250000Y-161984000D02*
X217250000Y-160184000D01*
%TO.N,RAW*%
X203750000Y-161250000D02*
X203300000Y-160800000D01*
X197000000Y-161500000D02*
X197000000Y-166000000D01*
X197700000Y-160800000D02*
X197000000Y-161500000D01*
X203300000Y-160800000D02*
X197700000Y-160800000D01*
X203750000Y-162490000D02*
X203750000Y-161250000D01*
X197000000Y-166000000D02*
X199000000Y-168000000D01*
X199000000Y-168000000D02*
X199000000Y-184981701D01*
X168635000Y-185056701D02*
X168635000Y-181308308D01*
X199000000Y-184981701D02*
X198236701Y-185745000D01*
X168635000Y-181308308D02*
X169593308Y-180350000D01*
X198236701Y-185745000D02*
X169323299Y-185745000D01*
X169323299Y-185745000D02*
X168635000Y-185056701D01*
X169593308Y-180350000D02*
X169810000Y-180350000D01*
%TD*%
M02*
