%TF.GenerationSoftware,KiCad,Pcbnew,8.0.4*%
%TF.CreationDate,2024-08-31T21:53:54+08:00*%
%TF.ProjectId,board,626f6172-642e-46b6-9963-61645f706362,v1.0.0*%
%TF.SameCoordinates,Original*%
%TF.FileFunction,Legend,Bot*%
%TF.FilePolarity,Positive*%
%FSLAX46Y46*%
G04 Gerber Fmt 4.6, Leading zero omitted, Abs format (unit mm)*
G04 Created by KiCad (PCBNEW 8.0.4) date 2024-08-31 21:53:54*
%MOMM*%
%LPD*%
G01*
G04 APERTURE LIST*
%ADD10C,0.300000*%
%ADD11C,0.250000*%
%ADD12C,0.150000*%
%ADD13C,0.120000*%
%ADD14C,0.100000*%
G04 APERTURE END LIST*
D10*
X218100251Y-177305100D02*
X218100251Y-173305100D01*
X218100251Y-173305100D02*
X216766917Y-176162243D01*
X216766917Y-176162243D02*
X215433584Y-173305100D01*
X215433584Y-173305100D02*
X215433584Y-177305100D01*
X213528822Y-177305100D02*
X213528822Y-173305100D01*
X212195488Y-173305100D02*
X209909774Y-173305100D01*
X211052631Y-177305100D02*
X211052631Y-173305100D01*
X207814536Y-173305100D02*
X207052631Y-173305100D01*
X207052631Y-173305100D02*
X206671679Y-173495576D01*
X206671679Y-173495576D02*
X206290726Y-173876528D01*
X206290726Y-173876528D02*
X206100250Y-174638433D01*
X206100250Y-174638433D02*
X206100250Y-175971766D01*
X206100250Y-175971766D02*
X206290726Y-176733671D01*
X206290726Y-176733671D02*
X206671679Y-177114624D01*
X206671679Y-177114624D02*
X207052631Y-177305100D01*
X207052631Y-177305100D02*
X207814536Y-177305100D01*
X207814536Y-177305100D02*
X208195488Y-177114624D01*
X208195488Y-177114624D02*
X208576441Y-176733671D01*
X208576441Y-176733671D02*
X208766917Y-175971766D01*
X208766917Y-175971766D02*
X208766917Y-174638433D01*
X208766917Y-174638433D02*
X208576441Y-173876528D01*
X208576441Y-173876528D02*
X208195488Y-173495576D01*
X208195488Y-173495576D02*
X207814536Y-173305100D01*
X204576441Y-177114624D02*
X204005012Y-177305100D01*
X204005012Y-177305100D02*
X203052631Y-177305100D01*
X203052631Y-177305100D02*
X202671679Y-177114624D01*
X202671679Y-177114624D02*
X202481203Y-176924147D01*
X202481203Y-176924147D02*
X202290726Y-176543195D01*
X202290726Y-176543195D02*
X202290726Y-176162243D01*
X202290726Y-176162243D02*
X202481203Y-175781290D01*
X202481203Y-175781290D02*
X202671679Y-175590814D01*
X202671679Y-175590814D02*
X203052631Y-175400338D01*
X203052631Y-175400338D02*
X203814536Y-175209862D01*
X203814536Y-175209862D02*
X204195488Y-175019385D01*
X204195488Y-175019385D02*
X204385965Y-174828909D01*
X204385965Y-174828909D02*
X204576441Y-174447957D01*
X204576441Y-174447957D02*
X204576441Y-174067004D01*
X204576441Y-174067004D02*
X204385965Y-173686052D01*
X204385965Y-173686052D02*
X204195488Y-173495576D01*
X204195488Y-173495576D02*
X203814536Y-173305100D01*
X203814536Y-173305100D02*
X202862155Y-173305100D01*
X202862155Y-173305100D02*
X202290726Y-173495576D01*
X218100251Y-183744876D02*
X218100251Y-179744876D01*
X218100251Y-179744876D02*
X216766917Y-182602019D01*
X216766917Y-182602019D02*
X215433584Y-179744876D01*
X215433584Y-179744876D02*
X215433584Y-183744876D01*
X213528822Y-183744876D02*
X213528822Y-179744876D01*
X211243107Y-183744876D02*
X212957393Y-181459161D01*
X211243107Y-179744876D02*
X213528822Y-182030590D01*
X209528822Y-183363923D02*
X209338345Y-183554400D01*
X209338345Y-183554400D02*
X209528822Y-183744876D01*
X209528822Y-183744876D02*
X209719298Y-183554400D01*
X209719298Y-183554400D02*
X209528822Y-183363923D01*
X209528822Y-183363923D02*
X209528822Y-183744876D01*
X207814536Y-180125828D02*
X207624060Y-179935352D01*
X207624060Y-179935352D02*
X207243107Y-179744876D01*
X207243107Y-179744876D02*
X206290726Y-179744876D01*
X206290726Y-179744876D02*
X205909774Y-179935352D01*
X205909774Y-179935352D02*
X205719298Y-180125828D01*
X205719298Y-180125828D02*
X205528821Y-180506780D01*
X205528821Y-180506780D02*
X205528821Y-180887733D01*
X205528821Y-180887733D02*
X205719298Y-181459161D01*
X205719298Y-181459161D02*
X208005012Y-183744876D01*
X208005012Y-183744876D02*
X205528821Y-183744876D01*
D11*
X239728384Y-185553428D02*
X239728384Y-184053428D01*
X239728384Y-184053428D02*
X239371241Y-184053428D01*
X239371241Y-184053428D02*
X239156955Y-184124857D01*
X239156955Y-184124857D02*
X239014098Y-184267714D01*
X239014098Y-184267714D02*
X238942669Y-184410571D01*
X238942669Y-184410571D02*
X238871241Y-184696285D01*
X238871241Y-184696285D02*
X238871241Y-184910571D01*
X238871241Y-184910571D02*
X238942669Y-185196285D01*
X238942669Y-185196285D02*
X239014098Y-185339142D01*
X239014098Y-185339142D02*
X239156955Y-185482000D01*
X239156955Y-185482000D02*
X239371241Y-185553428D01*
X239371241Y-185553428D02*
X239728384Y-185553428D01*
X237656955Y-185482000D02*
X237799812Y-185553428D01*
X237799812Y-185553428D02*
X238085527Y-185553428D01*
X238085527Y-185553428D02*
X238228384Y-185482000D01*
X238228384Y-185482000D02*
X238299812Y-185339142D01*
X238299812Y-185339142D02*
X238299812Y-184767714D01*
X238299812Y-184767714D02*
X238228384Y-184624857D01*
X238228384Y-184624857D02*
X238085527Y-184553428D01*
X238085527Y-184553428D02*
X237799812Y-184553428D01*
X237799812Y-184553428D02*
X237656955Y-184624857D01*
X237656955Y-184624857D02*
X237585527Y-184767714D01*
X237585527Y-184767714D02*
X237585527Y-184910571D01*
X237585527Y-184910571D02*
X238299812Y-185053428D01*
X237014098Y-185482000D02*
X236871241Y-185553428D01*
X236871241Y-185553428D02*
X236585527Y-185553428D01*
X236585527Y-185553428D02*
X236442670Y-185482000D01*
X236442670Y-185482000D02*
X236371241Y-185339142D01*
X236371241Y-185339142D02*
X236371241Y-185267714D01*
X236371241Y-185267714D02*
X236442670Y-185124857D01*
X236442670Y-185124857D02*
X236585527Y-185053428D01*
X236585527Y-185053428D02*
X236799813Y-185053428D01*
X236799813Y-185053428D02*
X236942670Y-184982000D01*
X236942670Y-184982000D02*
X237014098Y-184839142D01*
X237014098Y-184839142D02*
X237014098Y-184767714D01*
X237014098Y-184767714D02*
X236942670Y-184624857D01*
X236942670Y-184624857D02*
X236799813Y-184553428D01*
X236799813Y-184553428D02*
X236585527Y-184553428D01*
X236585527Y-184553428D02*
X236442670Y-184624857D01*
X235728384Y-185553428D02*
X235728384Y-184553428D01*
X235728384Y-184053428D02*
X235799812Y-184124857D01*
X235799812Y-184124857D02*
X235728384Y-184196285D01*
X235728384Y-184196285D02*
X235656955Y-184124857D01*
X235656955Y-184124857D02*
X235728384Y-184053428D01*
X235728384Y-184053428D02*
X235728384Y-184196285D01*
X234371241Y-184553428D02*
X234371241Y-185767714D01*
X234371241Y-185767714D02*
X234442669Y-185910571D01*
X234442669Y-185910571D02*
X234514098Y-185982000D01*
X234514098Y-185982000D02*
X234656955Y-186053428D01*
X234656955Y-186053428D02*
X234871241Y-186053428D01*
X234871241Y-186053428D02*
X235014098Y-185982000D01*
X234371241Y-185482000D02*
X234514098Y-185553428D01*
X234514098Y-185553428D02*
X234799812Y-185553428D01*
X234799812Y-185553428D02*
X234942669Y-185482000D01*
X234942669Y-185482000D02*
X235014098Y-185410571D01*
X235014098Y-185410571D02*
X235085526Y-185267714D01*
X235085526Y-185267714D02*
X235085526Y-184839142D01*
X235085526Y-184839142D02*
X235014098Y-184696285D01*
X235014098Y-184696285D02*
X234942669Y-184624857D01*
X234942669Y-184624857D02*
X234799812Y-184553428D01*
X234799812Y-184553428D02*
X234514098Y-184553428D01*
X234514098Y-184553428D02*
X234371241Y-184624857D01*
X233656955Y-184553428D02*
X233656955Y-185553428D01*
X233656955Y-184696285D02*
X233585526Y-184624857D01*
X233585526Y-184624857D02*
X233442669Y-184553428D01*
X233442669Y-184553428D02*
X233228383Y-184553428D01*
X233228383Y-184553428D02*
X233085526Y-184624857D01*
X233085526Y-184624857D02*
X233014098Y-184767714D01*
X233014098Y-184767714D02*
X233014098Y-185553428D01*
X231156955Y-185553428D02*
X231156955Y-184053428D01*
X231156955Y-184624857D02*
X231014098Y-184553428D01*
X231014098Y-184553428D02*
X230728383Y-184553428D01*
X230728383Y-184553428D02*
X230585526Y-184624857D01*
X230585526Y-184624857D02*
X230514098Y-184696285D01*
X230514098Y-184696285D02*
X230442669Y-184839142D01*
X230442669Y-184839142D02*
X230442669Y-185267714D01*
X230442669Y-185267714D02*
X230514098Y-185410571D01*
X230514098Y-185410571D02*
X230585526Y-185482000D01*
X230585526Y-185482000D02*
X230728383Y-185553428D01*
X230728383Y-185553428D02*
X231014098Y-185553428D01*
X231014098Y-185553428D02*
X231156955Y-185482000D01*
X229942669Y-184553428D02*
X229585526Y-185553428D01*
X229228383Y-184553428D02*
X229585526Y-185553428D01*
X229585526Y-185553428D02*
X229728383Y-185910571D01*
X229728383Y-185910571D02*
X229799812Y-185982000D01*
X229799812Y-185982000D02*
X229942669Y-186053428D01*
X227656955Y-185553428D02*
X226871241Y-184553428D01*
X227656955Y-184553428D02*
X226871241Y-185553428D01*
X226442669Y-184553428D02*
X226085526Y-185553428D01*
X225728383Y-184553428D02*
X226085526Y-185553428D01*
X226085526Y-185553428D02*
X226228383Y-185910571D01*
X226228383Y-185910571D02*
X226299812Y-185982000D01*
X226299812Y-185982000D02*
X226442669Y-186053428D01*
X225299812Y-184553428D02*
X224514098Y-184553428D01*
X224514098Y-184553428D02*
X225299812Y-185553428D01*
X225299812Y-185553428D02*
X224514098Y-185553428D01*
D12*
X175344819Y-174952380D02*
X174868628Y-174619047D01*
X175344819Y-174380952D02*
X174344819Y-174380952D01*
X174344819Y-174380952D02*
X174344819Y-174761904D01*
X174344819Y-174761904D02*
X174392438Y-174857142D01*
X174392438Y-174857142D02*
X174440057Y-174904761D01*
X174440057Y-174904761D02*
X174535295Y-174952380D01*
X174535295Y-174952380D02*
X174678152Y-174952380D01*
X174678152Y-174952380D02*
X174773390Y-174904761D01*
X174773390Y-174904761D02*
X174821009Y-174857142D01*
X174821009Y-174857142D02*
X174868628Y-174761904D01*
X174868628Y-174761904D02*
X174868628Y-174380952D01*
X175297200Y-175333333D02*
X175344819Y-175476190D01*
X175344819Y-175476190D02*
X175344819Y-175714285D01*
X175344819Y-175714285D02*
X175297200Y-175809523D01*
X175297200Y-175809523D02*
X175249580Y-175857142D01*
X175249580Y-175857142D02*
X175154342Y-175904761D01*
X175154342Y-175904761D02*
X175059104Y-175904761D01*
X175059104Y-175904761D02*
X174963866Y-175857142D01*
X174963866Y-175857142D02*
X174916247Y-175809523D01*
X174916247Y-175809523D02*
X174868628Y-175714285D01*
X174868628Y-175714285D02*
X174821009Y-175523809D01*
X174821009Y-175523809D02*
X174773390Y-175428571D01*
X174773390Y-175428571D02*
X174725771Y-175380952D01*
X174725771Y-175380952D02*
X174630533Y-175333333D01*
X174630533Y-175333333D02*
X174535295Y-175333333D01*
X174535295Y-175333333D02*
X174440057Y-175380952D01*
X174440057Y-175380952D02*
X174392438Y-175428571D01*
X174392438Y-175428571D02*
X174344819Y-175523809D01*
X174344819Y-175523809D02*
X174344819Y-175761904D01*
X174344819Y-175761904D02*
X174392438Y-175904761D01*
X174344819Y-176190476D02*
X174344819Y-176761904D01*
X175344819Y-176476190D02*
X174344819Y-176476190D01*
X188044819Y-174285714D02*
X187044819Y-174285714D01*
X187044819Y-174285714D02*
X187044819Y-174666666D01*
X187044819Y-174666666D02*
X187092438Y-174761904D01*
X187092438Y-174761904D02*
X187140057Y-174809523D01*
X187140057Y-174809523D02*
X187235295Y-174857142D01*
X187235295Y-174857142D02*
X187378152Y-174857142D01*
X187378152Y-174857142D02*
X187473390Y-174809523D01*
X187473390Y-174809523D02*
X187521009Y-174761904D01*
X187521009Y-174761904D02*
X187568628Y-174666666D01*
X187568628Y-174666666D02*
X187568628Y-174285714D01*
X188044819Y-175809523D02*
X188044819Y-175238095D01*
X188044819Y-175523809D02*
X187044819Y-175523809D01*
X187044819Y-175523809D02*
X187187676Y-175428571D01*
X187187676Y-175428571D02*
X187282914Y-175333333D01*
X187282914Y-175333333D02*
X187330533Y-175238095D01*
X187473390Y-176380952D02*
X187425771Y-176285714D01*
X187425771Y-176285714D02*
X187378152Y-176238095D01*
X187378152Y-176238095D02*
X187282914Y-176190476D01*
X187282914Y-176190476D02*
X187235295Y-176190476D01*
X187235295Y-176190476D02*
X187140057Y-176238095D01*
X187140057Y-176238095D02*
X187092438Y-176285714D01*
X187092438Y-176285714D02*
X187044819Y-176380952D01*
X187044819Y-176380952D02*
X187044819Y-176571428D01*
X187044819Y-176571428D02*
X187092438Y-176666666D01*
X187092438Y-176666666D02*
X187140057Y-176714285D01*
X187140057Y-176714285D02*
X187235295Y-176761904D01*
X187235295Y-176761904D02*
X187282914Y-176761904D01*
X187282914Y-176761904D02*
X187378152Y-176714285D01*
X187378152Y-176714285D02*
X187425771Y-176666666D01*
X187425771Y-176666666D02*
X187473390Y-176571428D01*
X187473390Y-176571428D02*
X187473390Y-176380952D01*
X187473390Y-176380952D02*
X187521009Y-176285714D01*
X187521009Y-176285714D02*
X187568628Y-176238095D01*
X187568628Y-176238095D02*
X187663866Y-176190476D01*
X187663866Y-176190476D02*
X187854342Y-176190476D01*
X187854342Y-176190476D02*
X187949580Y-176238095D01*
X187949580Y-176238095D02*
X187997200Y-176285714D01*
X187997200Y-176285714D02*
X188044819Y-176380952D01*
X188044819Y-176380952D02*
X188044819Y-176571428D01*
X188044819Y-176571428D02*
X187997200Y-176666666D01*
X187997200Y-176666666D02*
X187949580Y-176714285D01*
X187949580Y-176714285D02*
X187854342Y-176761904D01*
X187854342Y-176761904D02*
X187663866Y-176761904D01*
X187663866Y-176761904D02*
X187568628Y-176714285D01*
X187568628Y-176714285D02*
X187521009Y-176666666D01*
X187521009Y-176666666D02*
X187473390Y-176571428D01*
X180424819Y-178251905D02*
X179424819Y-178251905D01*
X179424819Y-178251905D02*
X179424819Y-178632857D01*
X179424819Y-178632857D02*
X179472438Y-178728095D01*
X179472438Y-178728095D02*
X179520057Y-178775714D01*
X179520057Y-178775714D02*
X179615295Y-178823333D01*
X179615295Y-178823333D02*
X179758152Y-178823333D01*
X179758152Y-178823333D02*
X179853390Y-178775714D01*
X179853390Y-178775714D02*
X179901009Y-178728095D01*
X179901009Y-178728095D02*
X179948628Y-178632857D01*
X179948628Y-178632857D02*
X179948628Y-178251905D01*
X179520057Y-179204286D02*
X179472438Y-179251905D01*
X179472438Y-179251905D02*
X179424819Y-179347143D01*
X179424819Y-179347143D02*
X179424819Y-179585238D01*
X179424819Y-179585238D02*
X179472438Y-179680476D01*
X179472438Y-179680476D02*
X179520057Y-179728095D01*
X179520057Y-179728095D02*
X179615295Y-179775714D01*
X179615295Y-179775714D02*
X179710533Y-179775714D01*
X179710533Y-179775714D02*
X179853390Y-179728095D01*
X179853390Y-179728095D02*
X180424819Y-179156667D01*
X180424819Y-179156667D02*
X180424819Y-179775714D01*
X198204819Y-178251905D02*
X197204819Y-178251905D01*
X197204819Y-178251905D02*
X197204819Y-178632857D01*
X197204819Y-178632857D02*
X197252438Y-178728095D01*
X197252438Y-178728095D02*
X197300057Y-178775714D01*
X197300057Y-178775714D02*
X197395295Y-178823333D01*
X197395295Y-178823333D02*
X197538152Y-178823333D01*
X197538152Y-178823333D02*
X197633390Y-178775714D01*
X197633390Y-178775714D02*
X197681009Y-178728095D01*
X197681009Y-178728095D02*
X197728628Y-178632857D01*
X197728628Y-178632857D02*
X197728628Y-178251905D01*
X198204819Y-179299524D02*
X198204819Y-179490000D01*
X198204819Y-179490000D02*
X198157200Y-179585238D01*
X198157200Y-179585238D02*
X198109580Y-179632857D01*
X198109580Y-179632857D02*
X197966723Y-179728095D01*
X197966723Y-179728095D02*
X197776247Y-179775714D01*
X197776247Y-179775714D02*
X197395295Y-179775714D01*
X197395295Y-179775714D02*
X197300057Y-179728095D01*
X197300057Y-179728095D02*
X197252438Y-179680476D01*
X197252438Y-179680476D02*
X197204819Y-179585238D01*
X197204819Y-179585238D02*
X197204819Y-179394762D01*
X197204819Y-179394762D02*
X197252438Y-179299524D01*
X197252438Y-179299524D02*
X197300057Y-179251905D01*
X197300057Y-179251905D02*
X197395295Y-179204286D01*
X197395295Y-179204286D02*
X197633390Y-179204286D01*
X197633390Y-179204286D02*
X197728628Y-179251905D01*
X197728628Y-179251905D02*
X197776247Y-179299524D01*
X197776247Y-179299524D02*
X197823866Y-179394762D01*
X197823866Y-179394762D02*
X197823866Y-179585238D01*
X197823866Y-179585238D02*
X197776247Y-179680476D01*
X197776247Y-179680476D02*
X197728628Y-179728095D01*
X197728628Y-179728095D02*
X197633390Y-179775714D01*
X185504819Y-174285714D02*
X184504819Y-174285714D01*
X184504819Y-174285714D02*
X184504819Y-174666666D01*
X184504819Y-174666666D02*
X184552438Y-174761904D01*
X184552438Y-174761904D02*
X184600057Y-174809523D01*
X184600057Y-174809523D02*
X184695295Y-174857142D01*
X184695295Y-174857142D02*
X184838152Y-174857142D01*
X184838152Y-174857142D02*
X184933390Y-174809523D01*
X184933390Y-174809523D02*
X184981009Y-174761904D01*
X184981009Y-174761904D02*
X185028628Y-174666666D01*
X185028628Y-174666666D02*
X185028628Y-174285714D01*
X185504819Y-175809523D02*
X185504819Y-175238095D01*
X185504819Y-175523809D02*
X184504819Y-175523809D01*
X184504819Y-175523809D02*
X184647676Y-175428571D01*
X184647676Y-175428571D02*
X184742914Y-175333333D01*
X184742914Y-175333333D02*
X184790533Y-175238095D01*
X185504819Y-176285714D02*
X185504819Y-176476190D01*
X185504819Y-176476190D02*
X185457200Y-176571428D01*
X185457200Y-176571428D02*
X185409580Y-176619047D01*
X185409580Y-176619047D02*
X185266723Y-176714285D01*
X185266723Y-176714285D02*
X185076247Y-176761904D01*
X185076247Y-176761904D02*
X184695295Y-176761904D01*
X184695295Y-176761904D02*
X184600057Y-176714285D01*
X184600057Y-176714285D02*
X184552438Y-176666666D01*
X184552438Y-176666666D02*
X184504819Y-176571428D01*
X184504819Y-176571428D02*
X184504819Y-176380952D01*
X184504819Y-176380952D02*
X184552438Y-176285714D01*
X184552438Y-176285714D02*
X184600057Y-176238095D01*
X184600057Y-176238095D02*
X184695295Y-176190476D01*
X184695295Y-176190476D02*
X184933390Y-176190476D01*
X184933390Y-176190476D02*
X185028628Y-176238095D01*
X185028628Y-176238095D02*
X185076247Y-176285714D01*
X185076247Y-176285714D02*
X185123866Y-176380952D01*
X185123866Y-176380952D02*
X185123866Y-176571428D01*
X185123866Y-176571428D02*
X185076247Y-176666666D01*
X185076247Y-176666666D02*
X185028628Y-176714285D01*
X185028628Y-176714285D02*
X184933390Y-176761904D01*
X171852438Y-174738095D02*
X171804819Y-174642857D01*
X171804819Y-174642857D02*
X171804819Y-174500000D01*
X171804819Y-174500000D02*
X171852438Y-174357143D01*
X171852438Y-174357143D02*
X171947676Y-174261905D01*
X171947676Y-174261905D02*
X172042914Y-174214286D01*
X172042914Y-174214286D02*
X172233390Y-174166667D01*
X172233390Y-174166667D02*
X172376247Y-174166667D01*
X172376247Y-174166667D02*
X172566723Y-174214286D01*
X172566723Y-174214286D02*
X172661961Y-174261905D01*
X172661961Y-174261905D02*
X172757200Y-174357143D01*
X172757200Y-174357143D02*
X172804819Y-174500000D01*
X172804819Y-174500000D02*
X172804819Y-174595238D01*
X172804819Y-174595238D02*
X172757200Y-174738095D01*
X172757200Y-174738095D02*
X172709580Y-174785714D01*
X172709580Y-174785714D02*
X172376247Y-174785714D01*
X172376247Y-174785714D02*
X172376247Y-174595238D01*
X172804819Y-175214286D02*
X171804819Y-175214286D01*
X171804819Y-175214286D02*
X172804819Y-175785714D01*
X172804819Y-175785714D02*
X171804819Y-175785714D01*
X172804819Y-176261905D02*
X171804819Y-176261905D01*
X171804819Y-176261905D02*
X171804819Y-176500000D01*
X171804819Y-176500000D02*
X171852438Y-176642857D01*
X171852438Y-176642857D02*
X171947676Y-176738095D01*
X171947676Y-176738095D02*
X172042914Y-176785714D01*
X172042914Y-176785714D02*
X172233390Y-176833333D01*
X172233390Y-176833333D02*
X172376247Y-176833333D01*
X172376247Y-176833333D02*
X172566723Y-176785714D01*
X172566723Y-176785714D02*
X172661961Y-176738095D01*
X172661961Y-176738095D02*
X172757200Y-176642857D01*
X172757200Y-176642857D02*
X172804819Y-176500000D01*
X172804819Y-176500000D02*
X172804819Y-176261905D01*
X180424819Y-174285714D02*
X179424819Y-174285714D01*
X179424819Y-174285714D02*
X179424819Y-174666666D01*
X179424819Y-174666666D02*
X179472438Y-174761904D01*
X179472438Y-174761904D02*
X179520057Y-174809523D01*
X179520057Y-174809523D02*
X179615295Y-174857142D01*
X179615295Y-174857142D02*
X179758152Y-174857142D01*
X179758152Y-174857142D02*
X179853390Y-174809523D01*
X179853390Y-174809523D02*
X179901009Y-174761904D01*
X179901009Y-174761904D02*
X179948628Y-174666666D01*
X179948628Y-174666666D02*
X179948628Y-174285714D01*
X179520057Y-175238095D02*
X179472438Y-175285714D01*
X179472438Y-175285714D02*
X179424819Y-175380952D01*
X179424819Y-175380952D02*
X179424819Y-175619047D01*
X179424819Y-175619047D02*
X179472438Y-175714285D01*
X179472438Y-175714285D02*
X179520057Y-175761904D01*
X179520057Y-175761904D02*
X179615295Y-175809523D01*
X179615295Y-175809523D02*
X179710533Y-175809523D01*
X179710533Y-175809523D02*
X179853390Y-175761904D01*
X179853390Y-175761904D02*
X180424819Y-175190476D01*
X180424819Y-175190476D02*
X180424819Y-175809523D01*
X180424819Y-176761904D02*
X180424819Y-176190476D01*
X180424819Y-176476190D02*
X179424819Y-176476190D01*
X179424819Y-176476190D02*
X179567676Y-176380952D01*
X179567676Y-176380952D02*
X179662914Y-176285714D01*
X179662914Y-176285714D02*
X179710533Y-176190476D01*
X195664819Y-174285714D02*
X194664819Y-174285714D01*
X194664819Y-174285714D02*
X194664819Y-174666666D01*
X194664819Y-174666666D02*
X194712438Y-174761904D01*
X194712438Y-174761904D02*
X194760057Y-174809523D01*
X194760057Y-174809523D02*
X194855295Y-174857142D01*
X194855295Y-174857142D02*
X194998152Y-174857142D01*
X194998152Y-174857142D02*
X195093390Y-174809523D01*
X195093390Y-174809523D02*
X195141009Y-174761904D01*
X195141009Y-174761904D02*
X195188628Y-174666666D01*
X195188628Y-174666666D02*
X195188628Y-174285714D01*
X195664819Y-175809523D02*
X195664819Y-175238095D01*
X195664819Y-175523809D02*
X194664819Y-175523809D01*
X194664819Y-175523809D02*
X194807676Y-175428571D01*
X194807676Y-175428571D02*
X194902914Y-175333333D01*
X194902914Y-175333333D02*
X194950533Y-175238095D01*
X194664819Y-176666666D02*
X194664819Y-176476190D01*
X194664819Y-176476190D02*
X194712438Y-176380952D01*
X194712438Y-176380952D02*
X194760057Y-176333333D01*
X194760057Y-176333333D02*
X194902914Y-176238095D01*
X194902914Y-176238095D02*
X195093390Y-176190476D01*
X195093390Y-176190476D02*
X195474342Y-176190476D01*
X195474342Y-176190476D02*
X195569580Y-176238095D01*
X195569580Y-176238095D02*
X195617200Y-176285714D01*
X195617200Y-176285714D02*
X195664819Y-176380952D01*
X195664819Y-176380952D02*
X195664819Y-176571428D01*
X195664819Y-176571428D02*
X195617200Y-176666666D01*
X195617200Y-176666666D02*
X195569580Y-176714285D01*
X195569580Y-176714285D02*
X195474342Y-176761904D01*
X195474342Y-176761904D02*
X195236247Y-176761904D01*
X195236247Y-176761904D02*
X195141009Y-176714285D01*
X195141009Y-176714285D02*
X195093390Y-176666666D01*
X195093390Y-176666666D02*
X195045771Y-176571428D01*
X195045771Y-176571428D02*
X195045771Y-176380952D01*
X195045771Y-176380952D02*
X195093390Y-176285714D01*
X195093390Y-176285714D02*
X195141009Y-176238095D01*
X195141009Y-176238095D02*
X195236247Y-176190476D01*
X170264819Y-178251905D02*
X169264819Y-178251905D01*
X169264819Y-178251905D02*
X169264819Y-178632857D01*
X169264819Y-178632857D02*
X169312438Y-178728095D01*
X169312438Y-178728095D02*
X169360057Y-178775714D01*
X169360057Y-178775714D02*
X169455295Y-178823333D01*
X169455295Y-178823333D02*
X169598152Y-178823333D01*
X169598152Y-178823333D02*
X169693390Y-178775714D01*
X169693390Y-178775714D02*
X169741009Y-178728095D01*
X169741009Y-178728095D02*
X169788628Y-178632857D01*
X169788628Y-178632857D02*
X169788628Y-178251905D01*
X170264819Y-179775714D02*
X170264819Y-179204286D01*
X170264819Y-179490000D02*
X169264819Y-179490000D01*
X169264819Y-179490000D02*
X169407676Y-179394762D01*
X169407676Y-179394762D02*
X169502914Y-179299524D01*
X169502914Y-179299524D02*
X169550533Y-179204286D01*
X176932438Y-177638095D02*
X176884819Y-177542857D01*
X176884819Y-177542857D02*
X176884819Y-177400000D01*
X176884819Y-177400000D02*
X176932438Y-177257143D01*
X176932438Y-177257143D02*
X177027676Y-177161905D01*
X177027676Y-177161905D02*
X177122914Y-177114286D01*
X177122914Y-177114286D02*
X177313390Y-177066667D01*
X177313390Y-177066667D02*
X177456247Y-177066667D01*
X177456247Y-177066667D02*
X177646723Y-177114286D01*
X177646723Y-177114286D02*
X177741961Y-177161905D01*
X177741961Y-177161905D02*
X177837200Y-177257143D01*
X177837200Y-177257143D02*
X177884819Y-177400000D01*
X177884819Y-177400000D02*
X177884819Y-177495238D01*
X177884819Y-177495238D02*
X177837200Y-177638095D01*
X177837200Y-177638095D02*
X177789580Y-177685714D01*
X177789580Y-177685714D02*
X177456247Y-177685714D01*
X177456247Y-177685714D02*
X177456247Y-177495238D01*
X177884819Y-178114286D02*
X176884819Y-178114286D01*
X176884819Y-178114286D02*
X177884819Y-178685714D01*
X177884819Y-178685714D02*
X176884819Y-178685714D01*
X177884819Y-179161905D02*
X176884819Y-179161905D01*
X176884819Y-179161905D02*
X176884819Y-179400000D01*
X176884819Y-179400000D02*
X176932438Y-179542857D01*
X176932438Y-179542857D02*
X177027676Y-179638095D01*
X177027676Y-179638095D02*
X177122914Y-179685714D01*
X177122914Y-179685714D02*
X177313390Y-179733333D01*
X177313390Y-179733333D02*
X177456247Y-179733333D01*
X177456247Y-179733333D02*
X177646723Y-179685714D01*
X177646723Y-179685714D02*
X177741961Y-179638095D01*
X177741961Y-179638095D02*
X177837200Y-179542857D01*
X177837200Y-179542857D02*
X177884819Y-179400000D01*
X177884819Y-179400000D02*
X177884819Y-179161905D01*
X185504819Y-178251905D02*
X184504819Y-178251905D01*
X184504819Y-178251905D02*
X184504819Y-178632857D01*
X184504819Y-178632857D02*
X184552438Y-178728095D01*
X184552438Y-178728095D02*
X184600057Y-178775714D01*
X184600057Y-178775714D02*
X184695295Y-178823333D01*
X184695295Y-178823333D02*
X184838152Y-178823333D01*
X184838152Y-178823333D02*
X184933390Y-178775714D01*
X184933390Y-178775714D02*
X184981009Y-178728095D01*
X184981009Y-178728095D02*
X185028628Y-178632857D01*
X185028628Y-178632857D02*
X185028628Y-178251905D01*
X184838152Y-179680476D02*
X185504819Y-179680476D01*
X184457200Y-179442381D02*
X185171485Y-179204286D01*
X185171485Y-179204286D02*
X185171485Y-179823333D01*
X182964819Y-178251905D02*
X181964819Y-178251905D01*
X181964819Y-178251905D02*
X181964819Y-178632857D01*
X181964819Y-178632857D02*
X182012438Y-178728095D01*
X182012438Y-178728095D02*
X182060057Y-178775714D01*
X182060057Y-178775714D02*
X182155295Y-178823333D01*
X182155295Y-178823333D02*
X182298152Y-178823333D01*
X182298152Y-178823333D02*
X182393390Y-178775714D01*
X182393390Y-178775714D02*
X182441009Y-178728095D01*
X182441009Y-178728095D02*
X182488628Y-178632857D01*
X182488628Y-178632857D02*
X182488628Y-178251905D01*
X181964819Y-179156667D02*
X181964819Y-179775714D01*
X181964819Y-179775714D02*
X182345771Y-179442381D01*
X182345771Y-179442381D02*
X182345771Y-179585238D01*
X182345771Y-179585238D02*
X182393390Y-179680476D01*
X182393390Y-179680476D02*
X182441009Y-179728095D01*
X182441009Y-179728095D02*
X182536247Y-179775714D01*
X182536247Y-179775714D02*
X182774342Y-179775714D01*
X182774342Y-179775714D02*
X182869580Y-179728095D01*
X182869580Y-179728095D02*
X182917200Y-179680476D01*
X182917200Y-179680476D02*
X182964819Y-179585238D01*
X182964819Y-179585238D02*
X182964819Y-179299524D01*
X182964819Y-179299524D02*
X182917200Y-179204286D01*
X182917200Y-179204286D02*
X182869580Y-179156667D01*
X198204819Y-174285714D02*
X197204819Y-174285714D01*
X197204819Y-174285714D02*
X197204819Y-174666666D01*
X197204819Y-174666666D02*
X197252438Y-174761904D01*
X197252438Y-174761904D02*
X197300057Y-174809523D01*
X197300057Y-174809523D02*
X197395295Y-174857142D01*
X197395295Y-174857142D02*
X197538152Y-174857142D01*
X197538152Y-174857142D02*
X197633390Y-174809523D01*
X197633390Y-174809523D02*
X197681009Y-174761904D01*
X197681009Y-174761904D02*
X197728628Y-174666666D01*
X197728628Y-174666666D02*
X197728628Y-174285714D01*
X198204819Y-175809523D02*
X198204819Y-175238095D01*
X198204819Y-175523809D02*
X197204819Y-175523809D01*
X197204819Y-175523809D02*
X197347676Y-175428571D01*
X197347676Y-175428571D02*
X197442914Y-175333333D01*
X197442914Y-175333333D02*
X197490533Y-175238095D01*
X197204819Y-176428571D02*
X197204819Y-176523809D01*
X197204819Y-176523809D02*
X197252438Y-176619047D01*
X197252438Y-176619047D02*
X197300057Y-176666666D01*
X197300057Y-176666666D02*
X197395295Y-176714285D01*
X197395295Y-176714285D02*
X197585771Y-176761904D01*
X197585771Y-176761904D02*
X197823866Y-176761904D01*
X197823866Y-176761904D02*
X198014342Y-176714285D01*
X198014342Y-176714285D02*
X198109580Y-176666666D01*
X198109580Y-176666666D02*
X198157200Y-176619047D01*
X198157200Y-176619047D02*
X198204819Y-176523809D01*
X198204819Y-176523809D02*
X198204819Y-176428571D01*
X198204819Y-176428571D02*
X198157200Y-176333333D01*
X198157200Y-176333333D02*
X198109580Y-176285714D01*
X198109580Y-176285714D02*
X198014342Y-176238095D01*
X198014342Y-176238095D02*
X197823866Y-176190476D01*
X197823866Y-176190476D02*
X197585771Y-176190476D01*
X197585771Y-176190476D02*
X197395295Y-176238095D01*
X197395295Y-176238095D02*
X197300057Y-176285714D01*
X197300057Y-176285714D02*
X197252438Y-176333333D01*
X197252438Y-176333333D02*
X197204819Y-176428571D01*
X193124819Y-178251905D02*
X192124819Y-178251905D01*
X192124819Y-178251905D02*
X192124819Y-178632857D01*
X192124819Y-178632857D02*
X192172438Y-178728095D01*
X192172438Y-178728095D02*
X192220057Y-178775714D01*
X192220057Y-178775714D02*
X192315295Y-178823333D01*
X192315295Y-178823333D02*
X192458152Y-178823333D01*
X192458152Y-178823333D02*
X192553390Y-178775714D01*
X192553390Y-178775714D02*
X192601009Y-178728095D01*
X192601009Y-178728095D02*
X192648628Y-178632857D01*
X192648628Y-178632857D02*
X192648628Y-178251905D01*
X192124819Y-179156667D02*
X192124819Y-179823333D01*
X192124819Y-179823333D02*
X193124819Y-179394762D01*
X176884819Y-174166667D02*
X177884819Y-174500000D01*
X177884819Y-174500000D02*
X176884819Y-174833333D01*
X177789580Y-175738095D02*
X177837200Y-175690476D01*
X177837200Y-175690476D02*
X177884819Y-175547619D01*
X177884819Y-175547619D02*
X177884819Y-175452381D01*
X177884819Y-175452381D02*
X177837200Y-175309524D01*
X177837200Y-175309524D02*
X177741961Y-175214286D01*
X177741961Y-175214286D02*
X177646723Y-175166667D01*
X177646723Y-175166667D02*
X177456247Y-175119048D01*
X177456247Y-175119048D02*
X177313390Y-175119048D01*
X177313390Y-175119048D02*
X177122914Y-175166667D01*
X177122914Y-175166667D02*
X177027676Y-175214286D01*
X177027676Y-175214286D02*
X176932438Y-175309524D01*
X176932438Y-175309524D02*
X176884819Y-175452381D01*
X176884819Y-175452381D02*
X176884819Y-175547619D01*
X176884819Y-175547619D02*
X176932438Y-175690476D01*
X176932438Y-175690476D02*
X176980057Y-175738095D01*
X177789580Y-176738095D02*
X177837200Y-176690476D01*
X177837200Y-176690476D02*
X177884819Y-176547619D01*
X177884819Y-176547619D02*
X177884819Y-176452381D01*
X177884819Y-176452381D02*
X177837200Y-176309524D01*
X177837200Y-176309524D02*
X177741961Y-176214286D01*
X177741961Y-176214286D02*
X177646723Y-176166667D01*
X177646723Y-176166667D02*
X177456247Y-176119048D01*
X177456247Y-176119048D02*
X177313390Y-176119048D01*
X177313390Y-176119048D02*
X177122914Y-176166667D01*
X177122914Y-176166667D02*
X177027676Y-176214286D01*
X177027676Y-176214286D02*
X176932438Y-176309524D01*
X176932438Y-176309524D02*
X176884819Y-176452381D01*
X176884819Y-176452381D02*
X176884819Y-176547619D01*
X176884819Y-176547619D02*
X176932438Y-176690476D01*
X176932438Y-176690476D02*
X176980057Y-176738095D01*
X188044819Y-178251905D02*
X187044819Y-178251905D01*
X187044819Y-178251905D02*
X187044819Y-178632857D01*
X187044819Y-178632857D02*
X187092438Y-178728095D01*
X187092438Y-178728095D02*
X187140057Y-178775714D01*
X187140057Y-178775714D02*
X187235295Y-178823333D01*
X187235295Y-178823333D02*
X187378152Y-178823333D01*
X187378152Y-178823333D02*
X187473390Y-178775714D01*
X187473390Y-178775714D02*
X187521009Y-178728095D01*
X187521009Y-178728095D02*
X187568628Y-178632857D01*
X187568628Y-178632857D02*
X187568628Y-178251905D01*
X187044819Y-179728095D02*
X187044819Y-179251905D01*
X187044819Y-179251905D02*
X187521009Y-179204286D01*
X187521009Y-179204286D02*
X187473390Y-179251905D01*
X187473390Y-179251905D02*
X187425771Y-179347143D01*
X187425771Y-179347143D02*
X187425771Y-179585238D01*
X187425771Y-179585238D02*
X187473390Y-179680476D01*
X187473390Y-179680476D02*
X187521009Y-179728095D01*
X187521009Y-179728095D02*
X187616247Y-179775714D01*
X187616247Y-179775714D02*
X187854342Y-179775714D01*
X187854342Y-179775714D02*
X187949580Y-179728095D01*
X187949580Y-179728095D02*
X187997200Y-179680476D01*
X187997200Y-179680476D02*
X188044819Y-179585238D01*
X188044819Y-179585238D02*
X188044819Y-179347143D01*
X188044819Y-179347143D02*
X187997200Y-179251905D01*
X187997200Y-179251905D02*
X187949580Y-179204286D01*
X190584819Y-174285714D02*
X189584819Y-174285714D01*
X189584819Y-174285714D02*
X189584819Y-174666666D01*
X189584819Y-174666666D02*
X189632438Y-174761904D01*
X189632438Y-174761904D02*
X189680057Y-174809523D01*
X189680057Y-174809523D02*
X189775295Y-174857142D01*
X189775295Y-174857142D02*
X189918152Y-174857142D01*
X189918152Y-174857142D02*
X190013390Y-174809523D01*
X190013390Y-174809523D02*
X190061009Y-174761904D01*
X190061009Y-174761904D02*
X190108628Y-174666666D01*
X190108628Y-174666666D02*
X190108628Y-174285714D01*
X190584819Y-175809523D02*
X190584819Y-175238095D01*
X190584819Y-175523809D02*
X189584819Y-175523809D01*
X189584819Y-175523809D02*
X189727676Y-175428571D01*
X189727676Y-175428571D02*
X189822914Y-175333333D01*
X189822914Y-175333333D02*
X189870533Y-175238095D01*
X189584819Y-176714285D02*
X189584819Y-176238095D01*
X189584819Y-176238095D02*
X190061009Y-176190476D01*
X190061009Y-176190476D02*
X190013390Y-176238095D01*
X190013390Y-176238095D02*
X189965771Y-176333333D01*
X189965771Y-176333333D02*
X189965771Y-176571428D01*
X189965771Y-176571428D02*
X190013390Y-176666666D01*
X190013390Y-176666666D02*
X190061009Y-176714285D01*
X190061009Y-176714285D02*
X190156247Y-176761904D01*
X190156247Y-176761904D02*
X190394342Y-176761904D01*
X190394342Y-176761904D02*
X190489580Y-176714285D01*
X190489580Y-176714285D02*
X190537200Y-176666666D01*
X190537200Y-176666666D02*
X190584819Y-176571428D01*
X190584819Y-176571428D02*
X190584819Y-176333333D01*
X190584819Y-176333333D02*
X190537200Y-176238095D01*
X190537200Y-176238095D02*
X190489580Y-176190476D01*
X167719819Y-170211904D02*
X167719819Y-169735714D01*
X167719819Y-169735714D02*
X166719819Y-169735714D01*
X166719819Y-171592857D02*
X167434104Y-171592857D01*
X167434104Y-171592857D02*
X167576961Y-171545238D01*
X167576961Y-171545238D02*
X167672200Y-171450000D01*
X167672200Y-171450000D02*
X167719819Y-171307143D01*
X167719819Y-171307143D02*
X167719819Y-171211905D01*
X167053152Y-172497619D02*
X167719819Y-172497619D01*
X167053152Y-172069048D02*
X167576961Y-172069048D01*
X167576961Y-172069048D02*
X167672200Y-172116667D01*
X167672200Y-172116667D02*
X167719819Y-172211905D01*
X167719819Y-172211905D02*
X167719819Y-172354762D01*
X167719819Y-172354762D02*
X167672200Y-172450000D01*
X167672200Y-172450000D02*
X167624580Y-172497619D01*
X167719819Y-172973810D02*
X167053152Y-172973810D01*
X167148390Y-172973810D02*
X167100771Y-173021429D01*
X167100771Y-173021429D02*
X167053152Y-173116667D01*
X167053152Y-173116667D02*
X167053152Y-173259524D01*
X167053152Y-173259524D02*
X167100771Y-173354762D01*
X167100771Y-173354762D02*
X167196009Y-173402381D01*
X167196009Y-173402381D02*
X167719819Y-173402381D01*
X167196009Y-173402381D02*
X167100771Y-173450000D01*
X167100771Y-173450000D02*
X167053152Y-173545238D01*
X167053152Y-173545238D02*
X167053152Y-173688095D01*
X167053152Y-173688095D02*
X167100771Y-173783334D01*
X167100771Y-173783334D02*
X167196009Y-173830953D01*
X167196009Y-173830953D02*
X167719819Y-173830953D01*
X167053152Y-174307143D02*
X168053152Y-174307143D01*
X167100771Y-174307143D02*
X167053152Y-174402381D01*
X167053152Y-174402381D02*
X167053152Y-174592857D01*
X167053152Y-174592857D02*
X167100771Y-174688095D01*
X167100771Y-174688095D02*
X167148390Y-174735714D01*
X167148390Y-174735714D02*
X167243628Y-174783333D01*
X167243628Y-174783333D02*
X167529342Y-174783333D01*
X167529342Y-174783333D02*
X167624580Y-174735714D01*
X167624580Y-174735714D02*
X167672200Y-174688095D01*
X167672200Y-174688095D02*
X167719819Y-174592857D01*
X167719819Y-174592857D02*
X167719819Y-174402381D01*
X167719819Y-174402381D02*
X167672200Y-174307143D01*
X167672200Y-175592857D02*
X167719819Y-175497619D01*
X167719819Y-175497619D02*
X167719819Y-175307143D01*
X167719819Y-175307143D02*
X167672200Y-175211905D01*
X167672200Y-175211905D02*
X167576961Y-175164286D01*
X167576961Y-175164286D02*
X167196009Y-175164286D01*
X167196009Y-175164286D02*
X167100771Y-175211905D01*
X167100771Y-175211905D02*
X167053152Y-175307143D01*
X167053152Y-175307143D02*
X167053152Y-175497619D01*
X167053152Y-175497619D02*
X167100771Y-175592857D01*
X167100771Y-175592857D02*
X167196009Y-175640476D01*
X167196009Y-175640476D02*
X167291247Y-175640476D01*
X167291247Y-175640476D02*
X167386485Y-175164286D01*
X167719819Y-176069048D02*
X167053152Y-176069048D01*
X167243628Y-176069048D02*
X167148390Y-176116667D01*
X167148390Y-176116667D02*
X167100771Y-176164286D01*
X167100771Y-176164286D02*
X167053152Y-176259524D01*
X167053152Y-176259524D02*
X167053152Y-176354762D01*
X167672200Y-176640477D02*
X167719819Y-176735715D01*
X167719819Y-176735715D02*
X167719819Y-176926191D01*
X167719819Y-176926191D02*
X167672200Y-177021429D01*
X167672200Y-177021429D02*
X167576961Y-177069048D01*
X167576961Y-177069048D02*
X167529342Y-177069048D01*
X167529342Y-177069048D02*
X167434104Y-177021429D01*
X167434104Y-177021429D02*
X167386485Y-176926191D01*
X167386485Y-176926191D02*
X167386485Y-176783334D01*
X167386485Y-176783334D02*
X167338866Y-176688096D01*
X167338866Y-176688096D02*
X167243628Y-176640477D01*
X167243628Y-176640477D02*
X167196009Y-176640477D01*
X167196009Y-176640477D02*
X167100771Y-176688096D01*
X167100771Y-176688096D02*
X167053152Y-176783334D01*
X167053152Y-176783334D02*
X167053152Y-176926191D01*
X167053152Y-176926191D02*
X167100771Y-177021429D01*
X167672200Y-177545239D02*
X167719819Y-177545239D01*
X167719819Y-177545239D02*
X167815057Y-177497620D01*
X167815057Y-177497620D02*
X167862676Y-177450001D01*
X167719819Y-178735715D02*
X166719819Y-178735715D01*
X166719819Y-178735715D02*
X167434104Y-179069048D01*
X167434104Y-179069048D02*
X166719819Y-179402381D01*
X166719819Y-179402381D02*
X167719819Y-179402381D01*
X167624580Y-180450000D02*
X167672200Y-180402381D01*
X167672200Y-180402381D02*
X167719819Y-180259524D01*
X167719819Y-180259524D02*
X167719819Y-180164286D01*
X167719819Y-180164286D02*
X167672200Y-180021429D01*
X167672200Y-180021429D02*
X167576961Y-179926191D01*
X167576961Y-179926191D02*
X167481723Y-179878572D01*
X167481723Y-179878572D02*
X167291247Y-179830953D01*
X167291247Y-179830953D02*
X167148390Y-179830953D01*
X167148390Y-179830953D02*
X166957914Y-179878572D01*
X166957914Y-179878572D02*
X166862676Y-179926191D01*
X166862676Y-179926191D02*
X166767438Y-180021429D01*
X166767438Y-180021429D02*
X166719819Y-180164286D01*
X166719819Y-180164286D02*
X166719819Y-180259524D01*
X166719819Y-180259524D02*
X166767438Y-180402381D01*
X166767438Y-180402381D02*
X166815057Y-180450000D01*
X166719819Y-180878572D02*
X167529342Y-180878572D01*
X167529342Y-180878572D02*
X167624580Y-180926191D01*
X167624580Y-180926191D02*
X167672200Y-180973810D01*
X167672200Y-180973810D02*
X167719819Y-181069048D01*
X167719819Y-181069048D02*
X167719819Y-181259524D01*
X167719819Y-181259524D02*
X167672200Y-181354762D01*
X167672200Y-181354762D02*
X167624580Y-181402381D01*
X167624580Y-181402381D02*
X167529342Y-181450000D01*
X167529342Y-181450000D02*
X166719819Y-181450000D01*
X166719819Y-182688096D02*
X167529342Y-182688096D01*
X167529342Y-182688096D02*
X167624580Y-182735715D01*
X167624580Y-182735715D02*
X167672200Y-182783334D01*
X167672200Y-182783334D02*
X167719819Y-182878572D01*
X167719819Y-182878572D02*
X167719819Y-183069048D01*
X167719819Y-183069048D02*
X167672200Y-183164286D01*
X167672200Y-183164286D02*
X167624580Y-183211905D01*
X167624580Y-183211905D02*
X167529342Y-183259524D01*
X167529342Y-183259524D02*
X166719819Y-183259524D01*
X167053152Y-183735715D02*
X168053152Y-183735715D01*
X167100771Y-183735715D02*
X167053152Y-183830953D01*
X167053152Y-183830953D02*
X167053152Y-184021429D01*
X167053152Y-184021429D02*
X167100771Y-184116667D01*
X167100771Y-184116667D02*
X167148390Y-184164286D01*
X167148390Y-184164286D02*
X167243628Y-184211905D01*
X167243628Y-184211905D02*
X167529342Y-184211905D01*
X167529342Y-184211905D02*
X167624580Y-184164286D01*
X167624580Y-184164286D02*
X167672200Y-184116667D01*
X167672200Y-184116667D02*
X167719819Y-184021429D01*
X167719819Y-184021429D02*
X167719819Y-183830953D01*
X167719819Y-183830953D02*
X167672200Y-183735715D01*
X182964819Y-174285714D02*
X181964819Y-174285714D01*
X181964819Y-174285714D02*
X181964819Y-174666666D01*
X181964819Y-174666666D02*
X182012438Y-174761904D01*
X182012438Y-174761904D02*
X182060057Y-174809523D01*
X182060057Y-174809523D02*
X182155295Y-174857142D01*
X182155295Y-174857142D02*
X182298152Y-174857142D01*
X182298152Y-174857142D02*
X182393390Y-174809523D01*
X182393390Y-174809523D02*
X182441009Y-174761904D01*
X182441009Y-174761904D02*
X182488628Y-174666666D01*
X182488628Y-174666666D02*
X182488628Y-174285714D01*
X182060057Y-175238095D02*
X182012438Y-175285714D01*
X182012438Y-175285714D02*
X181964819Y-175380952D01*
X181964819Y-175380952D02*
X181964819Y-175619047D01*
X181964819Y-175619047D02*
X182012438Y-175714285D01*
X182012438Y-175714285D02*
X182060057Y-175761904D01*
X182060057Y-175761904D02*
X182155295Y-175809523D01*
X182155295Y-175809523D02*
X182250533Y-175809523D01*
X182250533Y-175809523D02*
X182393390Y-175761904D01*
X182393390Y-175761904D02*
X182964819Y-175190476D01*
X182964819Y-175190476D02*
X182964819Y-175809523D01*
X181964819Y-176428571D02*
X181964819Y-176523809D01*
X181964819Y-176523809D02*
X182012438Y-176619047D01*
X182012438Y-176619047D02*
X182060057Y-176666666D01*
X182060057Y-176666666D02*
X182155295Y-176714285D01*
X182155295Y-176714285D02*
X182345771Y-176761904D01*
X182345771Y-176761904D02*
X182583866Y-176761904D01*
X182583866Y-176761904D02*
X182774342Y-176714285D01*
X182774342Y-176714285D02*
X182869580Y-176666666D01*
X182869580Y-176666666D02*
X182917200Y-176619047D01*
X182917200Y-176619047D02*
X182964819Y-176523809D01*
X182964819Y-176523809D02*
X182964819Y-176428571D01*
X182964819Y-176428571D02*
X182917200Y-176333333D01*
X182917200Y-176333333D02*
X182869580Y-176285714D01*
X182869580Y-176285714D02*
X182774342Y-176238095D01*
X182774342Y-176238095D02*
X182583866Y-176190476D01*
X182583866Y-176190476D02*
X182345771Y-176190476D01*
X182345771Y-176190476D02*
X182155295Y-176238095D01*
X182155295Y-176238095D02*
X182060057Y-176285714D01*
X182060057Y-176285714D02*
X182012438Y-176333333D01*
X182012438Y-176333333D02*
X181964819Y-176428571D01*
X195664819Y-178251905D02*
X194664819Y-178251905D01*
X194664819Y-178251905D02*
X194664819Y-178632857D01*
X194664819Y-178632857D02*
X194712438Y-178728095D01*
X194712438Y-178728095D02*
X194760057Y-178775714D01*
X194760057Y-178775714D02*
X194855295Y-178823333D01*
X194855295Y-178823333D02*
X194998152Y-178823333D01*
X194998152Y-178823333D02*
X195093390Y-178775714D01*
X195093390Y-178775714D02*
X195141009Y-178728095D01*
X195141009Y-178728095D02*
X195188628Y-178632857D01*
X195188628Y-178632857D02*
X195188628Y-178251905D01*
X195093390Y-179394762D02*
X195045771Y-179299524D01*
X195045771Y-179299524D02*
X194998152Y-179251905D01*
X194998152Y-179251905D02*
X194902914Y-179204286D01*
X194902914Y-179204286D02*
X194855295Y-179204286D01*
X194855295Y-179204286D02*
X194760057Y-179251905D01*
X194760057Y-179251905D02*
X194712438Y-179299524D01*
X194712438Y-179299524D02*
X194664819Y-179394762D01*
X194664819Y-179394762D02*
X194664819Y-179585238D01*
X194664819Y-179585238D02*
X194712438Y-179680476D01*
X194712438Y-179680476D02*
X194760057Y-179728095D01*
X194760057Y-179728095D02*
X194855295Y-179775714D01*
X194855295Y-179775714D02*
X194902914Y-179775714D01*
X194902914Y-179775714D02*
X194998152Y-179728095D01*
X194998152Y-179728095D02*
X195045771Y-179680476D01*
X195045771Y-179680476D02*
X195093390Y-179585238D01*
X195093390Y-179585238D02*
X195093390Y-179394762D01*
X195093390Y-179394762D02*
X195141009Y-179299524D01*
X195141009Y-179299524D02*
X195188628Y-179251905D01*
X195188628Y-179251905D02*
X195283866Y-179204286D01*
X195283866Y-179204286D02*
X195474342Y-179204286D01*
X195474342Y-179204286D02*
X195569580Y-179251905D01*
X195569580Y-179251905D02*
X195617200Y-179299524D01*
X195617200Y-179299524D02*
X195664819Y-179394762D01*
X195664819Y-179394762D02*
X195664819Y-179585238D01*
X195664819Y-179585238D02*
X195617200Y-179680476D01*
X195617200Y-179680476D02*
X195569580Y-179728095D01*
X195569580Y-179728095D02*
X195474342Y-179775714D01*
X195474342Y-179775714D02*
X195283866Y-179775714D01*
X195283866Y-179775714D02*
X195188628Y-179728095D01*
X195188628Y-179728095D02*
X195141009Y-179680476D01*
X195141009Y-179680476D02*
X195093390Y-179585238D01*
X193124819Y-174285714D02*
X192124819Y-174285714D01*
X192124819Y-174285714D02*
X192124819Y-174666666D01*
X192124819Y-174666666D02*
X192172438Y-174761904D01*
X192172438Y-174761904D02*
X192220057Y-174809523D01*
X192220057Y-174809523D02*
X192315295Y-174857142D01*
X192315295Y-174857142D02*
X192458152Y-174857142D01*
X192458152Y-174857142D02*
X192553390Y-174809523D01*
X192553390Y-174809523D02*
X192601009Y-174761904D01*
X192601009Y-174761904D02*
X192648628Y-174666666D01*
X192648628Y-174666666D02*
X192648628Y-174285714D01*
X193124819Y-175809523D02*
X193124819Y-175238095D01*
X193124819Y-175523809D02*
X192124819Y-175523809D01*
X192124819Y-175523809D02*
X192267676Y-175428571D01*
X192267676Y-175428571D02*
X192362914Y-175333333D01*
X192362914Y-175333333D02*
X192410533Y-175238095D01*
X192458152Y-176666666D02*
X193124819Y-176666666D01*
X192077200Y-176428571D02*
X192791485Y-176190476D01*
X192791485Y-176190476D02*
X192791485Y-176809523D01*
X174392438Y-177638095D02*
X174344819Y-177542857D01*
X174344819Y-177542857D02*
X174344819Y-177400000D01*
X174344819Y-177400000D02*
X174392438Y-177257143D01*
X174392438Y-177257143D02*
X174487676Y-177161905D01*
X174487676Y-177161905D02*
X174582914Y-177114286D01*
X174582914Y-177114286D02*
X174773390Y-177066667D01*
X174773390Y-177066667D02*
X174916247Y-177066667D01*
X174916247Y-177066667D02*
X175106723Y-177114286D01*
X175106723Y-177114286D02*
X175201961Y-177161905D01*
X175201961Y-177161905D02*
X175297200Y-177257143D01*
X175297200Y-177257143D02*
X175344819Y-177400000D01*
X175344819Y-177400000D02*
X175344819Y-177495238D01*
X175344819Y-177495238D02*
X175297200Y-177638095D01*
X175297200Y-177638095D02*
X175249580Y-177685714D01*
X175249580Y-177685714D02*
X174916247Y-177685714D01*
X174916247Y-177685714D02*
X174916247Y-177495238D01*
X175344819Y-178114286D02*
X174344819Y-178114286D01*
X174344819Y-178114286D02*
X175344819Y-178685714D01*
X175344819Y-178685714D02*
X174344819Y-178685714D01*
X175344819Y-179161905D02*
X174344819Y-179161905D01*
X174344819Y-179161905D02*
X174344819Y-179400000D01*
X174344819Y-179400000D02*
X174392438Y-179542857D01*
X174392438Y-179542857D02*
X174487676Y-179638095D01*
X174487676Y-179638095D02*
X174582914Y-179685714D01*
X174582914Y-179685714D02*
X174773390Y-179733333D01*
X174773390Y-179733333D02*
X174916247Y-179733333D01*
X174916247Y-179733333D02*
X175106723Y-179685714D01*
X175106723Y-179685714D02*
X175201961Y-179638095D01*
X175201961Y-179638095D02*
X175297200Y-179542857D01*
X175297200Y-179542857D02*
X175344819Y-179400000D01*
X175344819Y-179400000D02*
X175344819Y-179161905D01*
X172804819Y-178251905D02*
X171804819Y-178251905D01*
X171804819Y-178251905D02*
X171804819Y-178632857D01*
X171804819Y-178632857D02*
X171852438Y-178728095D01*
X171852438Y-178728095D02*
X171900057Y-178775714D01*
X171900057Y-178775714D02*
X171995295Y-178823333D01*
X171995295Y-178823333D02*
X172138152Y-178823333D01*
X172138152Y-178823333D02*
X172233390Y-178775714D01*
X172233390Y-178775714D02*
X172281009Y-178728095D01*
X172281009Y-178728095D02*
X172328628Y-178632857D01*
X172328628Y-178632857D02*
X172328628Y-178251905D01*
X171804819Y-179442381D02*
X171804819Y-179537619D01*
X171804819Y-179537619D02*
X171852438Y-179632857D01*
X171852438Y-179632857D02*
X171900057Y-179680476D01*
X171900057Y-179680476D02*
X171995295Y-179728095D01*
X171995295Y-179728095D02*
X172185771Y-179775714D01*
X172185771Y-179775714D02*
X172423866Y-179775714D01*
X172423866Y-179775714D02*
X172614342Y-179728095D01*
X172614342Y-179728095D02*
X172709580Y-179680476D01*
X172709580Y-179680476D02*
X172757200Y-179632857D01*
X172757200Y-179632857D02*
X172804819Y-179537619D01*
X172804819Y-179537619D02*
X172804819Y-179442381D01*
X172804819Y-179442381D02*
X172757200Y-179347143D01*
X172757200Y-179347143D02*
X172709580Y-179299524D01*
X172709580Y-179299524D02*
X172614342Y-179251905D01*
X172614342Y-179251905D02*
X172423866Y-179204286D01*
X172423866Y-179204286D02*
X172185771Y-179204286D01*
X172185771Y-179204286D02*
X171995295Y-179251905D01*
X171995295Y-179251905D02*
X171900057Y-179299524D01*
X171900057Y-179299524D02*
X171852438Y-179347143D01*
X171852438Y-179347143D02*
X171804819Y-179442381D01*
X170264819Y-174809523D02*
X169788628Y-174476190D01*
X170264819Y-174238095D02*
X169264819Y-174238095D01*
X169264819Y-174238095D02*
X169264819Y-174619047D01*
X169264819Y-174619047D02*
X169312438Y-174714285D01*
X169312438Y-174714285D02*
X169360057Y-174761904D01*
X169360057Y-174761904D02*
X169455295Y-174809523D01*
X169455295Y-174809523D02*
X169598152Y-174809523D01*
X169598152Y-174809523D02*
X169693390Y-174761904D01*
X169693390Y-174761904D02*
X169741009Y-174714285D01*
X169741009Y-174714285D02*
X169788628Y-174619047D01*
X169788628Y-174619047D02*
X169788628Y-174238095D01*
X169979104Y-175190476D02*
X169979104Y-175666666D01*
X170264819Y-175095238D02*
X169264819Y-175428571D01*
X169264819Y-175428571D02*
X170264819Y-175761904D01*
X169264819Y-176000000D02*
X170264819Y-176238095D01*
X170264819Y-176238095D02*
X169550533Y-176428571D01*
X169550533Y-176428571D02*
X170264819Y-176619047D01*
X170264819Y-176619047D02*
X169264819Y-176857143D01*
X190584819Y-178251905D02*
X189584819Y-178251905D01*
X189584819Y-178251905D02*
X189584819Y-178632857D01*
X189584819Y-178632857D02*
X189632438Y-178728095D01*
X189632438Y-178728095D02*
X189680057Y-178775714D01*
X189680057Y-178775714D02*
X189775295Y-178823333D01*
X189775295Y-178823333D02*
X189918152Y-178823333D01*
X189918152Y-178823333D02*
X190013390Y-178775714D01*
X190013390Y-178775714D02*
X190061009Y-178728095D01*
X190061009Y-178728095D02*
X190108628Y-178632857D01*
X190108628Y-178632857D02*
X190108628Y-178251905D01*
X189584819Y-179680476D02*
X189584819Y-179490000D01*
X189584819Y-179490000D02*
X189632438Y-179394762D01*
X189632438Y-179394762D02*
X189680057Y-179347143D01*
X189680057Y-179347143D02*
X189822914Y-179251905D01*
X189822914Y-179251905D02*
X190013390Y-179204286D01*
X190013390Y-179204286D02*
X190394342Y-179204286D01*
X190394342Y-179204286D02*
X190489580Y-179251905D01*
X190489580Y-179251905D02*
X190537200Y-179299524D01*
X190537200Y-179299524D02*
X190584819Y-179394762D01*
X190584819Y-179394762D02*
X190584819Y-179585238D01*
X190584819Y-179585238D02*
X190537200Y-179680476D01*
X190537200Y-179680476D02*
X190489580Y-179728095D01*
X190489580Y-179728095D02*
X190394342Y-179775714D01*
X190394342Y-179775714D02*
X190156247Y-179775714D01*
X190156247Y-179775714D02*
X190061009Y-179728095D01*
X190061009Y-179728095D02*
X190013390Y-179680476D01*
X190013390Y-179680476D02*
X189965771Y-179585238D01*
X189965771Y-179585238D02*
X189965771Y-179394762D01*
X189965771Y-179394762D02*
X190013390Y-179299524D01*
X190013390Y-179299524D02*
X190061009Y-179251905D01*
X190061009Y-179251905D02*
X190156247Y-179204286D01*
X198954819Y-163272619D02*
X198954819Y-163463095D01*
X198954819Y-163463095D02*
X199002438Y-163558333D01*
X199002438Y-163558333D02*
X199097676Y-163653571D01*
X199097676Y-163653571D02*
X199288152Y-163701190D01*
X199288152Y-163701190D02*
X199621485Y-163701190D01*
X199621485Y-163701190D02*
X199811961Y-163653571D01*
X199811961Y-163653571D02*
X199907200Y-163558333D01*
X199907200Y-163558333D02*
X199954819Y-163463095D01*
X199954819Y-163463095D02*
X199954819Y-163272619D01*
X199954819Y-163272619D02*
X199907200Y-163177381D01*
X199907200Y-163177381D02*
X199811961Y-163082143D01*
X199811961Y-163082143D02*
X199621485Y-163034524D01*
X199621485Y-163034524D02*
X199288152Y-163034524D01*
X199288152Y-163034524D02*
X199097676Y-163082143D01*
X199097676Y-163082143D02*
X199002438Y-163177381D01*
X199002438Y-163177381D02*
X198954819Y-163272619D01*
X199431009Y-164463095D02*
X199431009Y-164129762D01*
X199954819Y-164129762D02*
X198954819Y-164129762D01*
X198954819Y-164129762D02*
X198954819Y-164605952D01*
X199431009Y-165320238D02*
X199431009Y-164986905D01*
X199954819Y-164986905D02*
X198954819Y-164986905D01*
X198954819Y-164986905D02*
X198954819Y-165463095D01*
X208954819Y-163605952D02*
X208954819Y-163796428D01*
X208954819Y-163796428D02*
X209002438Y-163891666D01*
X209002438Y-163891666D02*
X209097676Y-163986904D01*
X209097676Y-163986904D02*
X209288152Y-164034523D01*
X209288152Y-164034523D02*
X209621485Y-164034523D01*
X209621485Y-164034523D02*
X209811961Y-163986904D01*
X209811961Y-163986904D02*
X209907200Y-163891666D01*
X209907200Y-163891666D02*
X209954819Y-163796428D01*
X209954819Y-163796428D02*
X209954819Y-163605952D01*
X209954819Y-163605952D02*
X209907200Y-163510714D01*
X209907200Y-163510714D02*
X209811961Y-163415476D01*
X209811961Y-163415476D02*
X209621485Y-163367857D01*
X209621485Y-163367857D02*
X209288152Y-163367857D01*
X209288152Y-163367857D02*
X209097676Y-163415476D01*
X209097676Y-163415476D02*
X209002438Y-163510714D01*
X209002438Y-163510714D02*
X208954819Y-163605952D01*
X209954819Y-164463095D02*
X208954819Y-164463095D01*
X208954819Y-164463095D02*
X209954819Y-165034523D01*
X209954819Y-165034523D02*
X208954819Y-165034523D01*
X192047619Y-164454819D02*
X192380952Y-163978628D01*
X192619047Y-164454819D02*
X192619047Y-163454819D01*
X192619047Y-163454819D02*
X192238095Y-163454819D01*
X192238095Y-163454819D02*
X192142857Y-163502438D01*
X192142857Y-163502438D02*
X192095238Y-163550057D01*
X192095238Y-163550057D02*
X192047619Y-163645295D01*
X192047619Y-163645295D02*
X192047619Y-163788152D01*
X192047619Y-163788152D02*
X192095238Y-163883390D01*
X192095238Y-163883390D02*
X192142857Y-163931009D01*
X192142857Y-163931009D02*
X192238095Y-163978628D01*
X192238095Y-163978628D02*
X192619047Y-163978628D01*
X191666666Y-164407200D02*
X191523809Y-164454819D01*
X191523809Y-164454819D02*
X191285714Y-164454819D01*
X191285714Y-164454819D02*
X191190476Y-164407200D01*
X191190476Y-164407200D02*
X191142857Y-164359580D01*
X191142857Y-164359580D02*
X191095238Y-164264342D01*
X191095238Y-164264342D02*
X191095238Y-164169104D01*
X191095238Y-164169104D02*
X191142857Y-164073866D01*
X191142857Y-164073866D02*
X191190476Y-164026247D01*
X191190476Y-164026247D02*
X191285714Y-163978628D01*
X191285714Y-163978628D02*
X191476190Y-163931009D01*
X191476190Y-163931009D02*
X191571428Y-163883390D01*
X191571428Y-163883390D02*
X191619047Y-163835771D01*
X191619047Y-163835771D02*
X191666666Y-163740533D01*
X191666666Y-163740533D02*
X191666666Y-163645295D01*
X191666666Y-163645295D02*
X191619047Y-163550057D01*
X191619047Y-163550057D02*
X191571428Y-163502438D01*
X191571428Y-163502438D02*
X191476190Y-163454819D01*
X191476190Y-163454819D02*
X191238095Y-163454819D01*
X191238095Y-163454819D02*
X191095238Y-163502438D01*
X190809523Y-163454819D02*
X190238095Y-163454819D01*
X190523809Y-164454819D02*
X190523809Y-163454819D01*
D13*
%TO.C,MCU1*%
X168480000Y-168000000D02*
X168480000Y-170660000D01*
X168480000Y-168000000D02*
X199080000Y-168000000D01*
X168480000Y-170660000D02*
X199080000Y-170660000D01*
X168480000Y-183240000D02*
X168480000Y-185900000D01*
X168480000Y-183240000D02*
X199080000Y-183240000D01*
X168480000Y-185900000D02*
X199080000Y-185900000D01*
X171080000Y-168000000D02*
X171080000Y-170660000D01*
X199080000Y-168000000D02*
X199080000Y-170660000D01*
X199080000Y-183240000D02*
X199080000Y-185900000D01*
%TO.C,PWR1*%
X201050000Y-164640001D02*
X201050000Y-163850001D01*
X203100002Y-162799999D02*
X202900000Y-162800001D01*
X206100000Y-162800000D02*
X204400000Y-162800000D01*
X207350000Y-165649999D02*
X201650001Y-165650000D01*
X207950001Y-163850000D02*
X207950001Y-164640000D01*
%TO.C,JST1*%
X213190000Y-158724000D02*
X213190000Y-159724000D01*
X213190000Y-166544000D02*
X213190000Y-165544000D01*
X214110000Y-166544000D02*
X213190000Y-166544000D01*
X214190000Y-158724000D02*
X213190000Y-158724000D01*
D14*
X214750000Y-167584000D02*
X215750000Y-167584000D01*
X215250000Y-167084000D02*
X215250000Y-168084000D01*
X217750000Y-167584000D02*
X216750000Y-167584000D01*
D13*
X218390000Y-158724000D02*
X219310000Y-158724000D01*
X218390000Y-166544000D02*
X219310000Y-166544000D01*
X219310000Y-158724000D02*
X219310000Y-159724000D01*
X219310000Y-166544000D02*
X219310000Y-165544000D01*
D12*
%TO.C,RST1*%
X188500000Y-162250000D02*
X194500000Y-162250000D01*
X188500000Y-162500000D02*
X188500000Y-162250000D01*
X188500000Y-165750000D02*
X188500000Y-165500000D01*
X194500000Y-162250000D02*
X194500000Y-162500000D01*
X194500000Y-165500000D02*
X194500000Y-165750000D01*
X194500000Y-165750000D02*
X188500000Y-165750000D01*
D14*
%TO.C,D14*%
X257600000Y-173500000D02*
X258400000Y-173500000D01*
X258000000Y-173500000D02*
X258000000Y-173000000D01*
X258000000Y-174100000D02*
X257450000Y-174100000D01*
X258000000Y-174100000D02*
X257600000Y-173500000D01*
X258000000Y-174100000D02*
X258550000Y-174100000D01*
X258000000Y-174500000D02*
X258000000Y-174100000D01*
X258400000Y-173500000D02*
X258000000Y-174100000D01*
%TO.C,D5*%
X200600000Y-128500000D02*
X201400000Y-128500000D01*
X201000000Y-128500000D02*
X201000000Y-128000000D01*
X201000000Y-129100000D02*
X200450000Y-129100000D01*
X201000000Y-129100000D02*
X200600000Y-128500000D01*
X201000000Y-129100000D02*
X201550000Y-129100000D01*
X201000000Y-129500000D02*
X201000000Y-129100000D01*
X201400000Y-128500000D02*
X201000000Y-129100000D01*
%TO.C,D11*%
X238600000Y-152500000D02*
X239400000Y-152500000D01*
X239000000Y-152500000D02*
X239000000Y-152000000D01*
X239000000Y-153100000D02*
X238450000Y-153100000D01*
X239000000Y-153100000D02*
X238600000Y-152500000D01*
X239000000Y-153100000D02*
X239550000Y-153100000D01*
X239000000Y-153500000D02*
X239000000Y-153100000D01*
X239400000Y-152500000D02*
X239000000Y-153100000D01*
%TO.C,D3*%
X181600000Y-114500000D02*
X182400000Y-114500000D01*
X182000000Y-114500000D02*
X182000000Y-114000000D01*
X182000000Y-115100000D02*
X181450000Y-115100000D01*
X182000000Y-115100000D02*
X181600000Y-114500000D01*
X182000000Y-115100000D02*
X182550000Y-115100000D01*
X182000000Y-115500000D02*
X182000000Y-115100000D01*
X182400000Y-114500000D02*
X182000000Y-115100000D01*
%TO.C,D10*%
X238600000Y-171500000D02*
X239400000Y-171500000D01*
X239000000Y-171500000D02*
X239000000Y-171000000D01*
X239000000Y-172100000D02*
X238450000Y-172100000D01*
X239000000Y-172100000D02*
X238600000Y-171500000D01*
X239000000Y-172100000D02*
X239550000Y-172100000D01*
X239000000Y-172500000D02*
X239000000Y-172100000D01*
X239400000Y-171500000D02*
X239000000Y-172100000D01*
%TO.C,D12*%
X238600000Y-133500000D02*
X239400000Y-133500000D01*
X239000000Y-133500000D02*
X239000000Y-133000000D01*
X239000000Y-134100000D02*
X238450000Y-134100000D01*
X239000000Y-134100000D02*
X238600000Y-133500000D01*
X239000000Y-134100000D02*
X239550000Y-134100000D01*
X239000000Y-134500000D02*
X239000000Y-134100000D01*
X239400000Y-133500000D02*
X239000000Y-134100000D01*
%TO.C,D8*%
X219600000Y-125500000D02*
X220400000Y-125500000D01*
X220000000Y-125500000D02*
X220000000Y-125000000D01*
X220000000Y-126100000D02*
X219450000Y-126100000D01*
X220000000Y-126100000D02*
X219600000Y-125500000D01*
X220000000Y-126100000D02*
X220550000Y-126100000D01*
X220000000Y-126500000D02*
X220000000Y-126100000D01*
X220400000Y-125500000D02*
X220000000Y-126100000D01*
%TO.C,D2*%
X181600000Y-133500000D02*
X182400000Y-133500000D01*
X182000000Y-133500000D02*
X182000000Y-133000000D01*
X182000000Y-134100000D02*
X181450000Y-134100000D01*
X182000000Y-134100000D02*
X181600000Y-133500000D01*
X182000000Y-134100000D02*
X182550000Y-134100000D01*
X182000000Y-134500000D02*
X182000000Y-134100000D01*
X182400000Y-133500000D02*
X182000000Y-134100000D01*
%TO.C,D9*%
X219600000Y-106500000D02*
X220400000Y-106500000D01*
X220000000Y-106500000D02*
X220000000Y-106000000D01*
X220000000Y-107100000D02*
X219450000Y-107100000D01*
X220000000Y-107100000D02*
X219600000Y-106500000D01*
X220000000Y-107100000D02*
X220550000Y-107100000D01*
X220000000Y-107500000D02*
X220000000Y-107100000D01*
X220400000Y-106500000D02*
X220000000Y-107100000D01*
%TO.C,D6*%
X200600000Y-109500000D02*
X201400000Y-109500000D01*
X201000000Y-109500000D02*
X201000000Y-109000000D01*
X201000000Y-110100000D02*
X200450000Y-110100000D01*
X201000000Y-110100000D02*
X200600000Y-109500000D01*
X201000000Y-110100000D02*
X201550000Y-110100000D01*
X201000000Y-110500000D02*
X201000000Y-110100000D01*
X201400000Y-109500000D02*
X201000000Y-110100000D01*
%TO.C,D15*%
X257600000Y-154500000D02*
X258400000Y-154500000D01*
X258000000Y-154500000D02*
X258000000Y-154000000D01*
X258000000Y-155100000D02*
X257450000Y-155100000D01*
X258000000Y-155100000D02*
X257600000Y-154500000D01*
X258000000Y-155100000D02*
X258550000Y-155100000D01*
X258000000Y-155500000D02*
X258000000Y-155100000D01*
X258400000Y-154500000D02*
X258000000Y-155100000D01*
%TO.C,D16*%
X257600000Y-135500000D02*
X258400000Y-135500000D01*
X258000000Y-135500000D02*
X258000000Y-135000000D01*
X258000000Y-136100000D02*
X257450000Y-136100000D01*
X258000000Y-136100000D02*
X257600000Y-135500000D01*
X258000000Y-136100000D02*
X258550000Y-136100000D01*
X258000000Y-136500000D02*
X258000000Y-136100000D01*
X258400000Y-135500000D02*
X258000000Y-136100000D01*
%TO.C,D13*%
X238600000Y-114500000D02*
X239400000Y-114500000D01*
X239000000Y-114500000D02*
X239000000Y-114000000D01*
X239000000Y-115100000D02*
X238450000Y-115100000D01*
X239000000Y-115100000D02*
X238600000Y-114500000D01*
X239000000Y-115100000D02*
X239550000Y-115100000D01*
X239000000Y-115500000D02*
X239000000Y-115100000D01*
X239400000Y-114500000D02*
X239000000Y-115100000D01*
%TO.C,D7*%
X219600000Y-144500000D02*
X220400000Y-144500000D01*
X220000000Y-144500000D02*
X220000000Y-144000000D01*
X220000000Y-145100000D02*
X219450000Y-145100000D01*
X220000000Y-145100000D02*
X219600000Y-144500000D01*
X220000000Y-145100000D02*
X220550000Y-145100000D01*
X220000000Y-145500000D02*
X220000000Y-145100000D01*
X220400000Y-144500000D02*
X220000000Y-145100000D01*
%TO.C,D1*%
X181600000Y-152500000D02*
X182400000Y-152500000D01*
X182000000Y-152500000D02*
X182000000Y-152000000D01*
X182000000Y-153100000D02*
X181450000Y-153100000D01*
X182000000Y-153100000D02*
X181600000Y-152500000D01*
X182000000Y-153100000D02*
X182550000Y-153100000D01*
X182000000Y-153500000D02*
X182000000Y-153100000D01*
X182400000Y-152500000D02*
X182000000Y-153100000D01*
%TO.C,D17*%
X257600000Y-116500000D02*
X258400000Y-116500000D01*
X258000000Y-116500000D02*
X258000000Y-116000000D01*
X258000000Y-117100000D02*
X257450000Y-117100000D01*
X258000000Y-117100000D02*
X257600000Y-116500000D01*
X258000000Y-117100000D02*
X258550000Y-117100000D01*
X258000000Y-117500000D02*
X258000000Y-117100000D01*
X258400000Y-116500000D02*
X258000000Y-117100000D01*
%TO.C,D4*%
X200600000Y-147500000D02*
X201400000Y-147500000D01*
X201000000Y-147500000D02*
X201000000Y-147000000D01*
X201000000Y-148100000D02*
X200450000Y-148100000D01*
X201000000Y-148100000D02*
X200600000Y-147500000D01*
X201000000Y-148100000D02*
X201550000Y-148100000D01*
X201000000Y-148500000D02*
X201000000Y-148100000D01*
X201400000Y-147500000D02*
X201000000Y-148100000D01*
%TD*%
M02*
