%TF.GenerationSoftware,KiCad,Pcbnew,9.0.1*%
%TF.CreationDate,2025-04-20T03:08:27+08:00*%
%TF.ProjectId,board,626f6172-642e-46b6-9963-61645f706362,v1.0.0*%
%TF.SameCoordinates,Original*%
%TF.FileFunction,Paste,Top*%
%TF.FilePolarity,Positive*%
%FSLAX46Y46*%
G04 Gerber Fmt 4.6, Leading zero omitted, Abs format (unit mm)*
G04 Created by KiCad (PCBNEW 9.0.1) date 2025-04-20 03:08:27*
%MOMM*%
%LPD*%
G01*
G04 APERTURE LIST*
G04 Aperture macros list*
%AMRoundRect*
0 Rectangle with rounded corners*
0 $1 Rounding radius*
0 $2 $3 $4 $5 $6 $7 $8 $9 X,Y pos of 4 corners*
0 Add a 4 corners polygon primitive as box body*
4,1,4,$2,$3,$4,$5,$6,$7,$8,$9,$2,$3,0*
0 Add four circle primitives for the rounded corners*
1,1,$1+$1,$2,$3*
1,1,$1+$1,$4,$5*
1,1,$1+$1,$6,$7*
1,1,$1+$1,$8,$9*
0 Add four rect primitives between the rounded corners*
20,1,$1+$1,$2,$3,$4,$5,0*
20,1,$1+$1,$4,$5,$6,$7,0*
20,1,$1+$1,$6,$7,$8,$9,0*
20,1,$1+$1,$8,$9,$2,$3,0*%
%AMOutline5P*
0 Free polygon, 5 corners , with rotation*
0 The origin of the aperture is its center*
0 number of corners: always 5*
0 $1 to $10 corner X, Y*
0 $11 Rotation angle, in degrees counterclockwise*
0 create outline with 5 corners*
4,1,5,$1,$2,$3,$4,$5,$6,$7,$8,$9,$10,$1,$2,$11*%
%AMOutline6P*
0 Free polygon, 6 corners , with rotation*
0 The origin of the aperture is its center*
0 number of corners: always 6*
0 $1 to $12 corner X, Y*
0 $13 Rotation angle, in degrees counterclockwise*
0 create outline with 6 corners*
4,1,6,$1,$2,$3,$4,$5,$6,$7,$8,$9,$10,$11,$12,$1,$2,$13*%
%AMOutline7P*
0 Free polygon, 7 corners , with rotation*
0 The origin of the aperture is its center*
0 number of corners: always 7*
0 $1 to $14 corner X, Y*
0 $15 Rotation angle, in degrees counterclockwise*
0 create outline with 7 corners*
4,1,7,$1,$2,$3,$4,$5,$6,$7,$8,$9,$10,$11,$12,$13,$14,$1,$2,$15*%
%AMOutline8P*
0 Free polygon, 8 corners , with rotation*
0 The origin of the aperture is its center*
0 number of corners: always 8*
0 $1 to $16 corner X, Y*
0 $17 Rotation angle, in degrees counterclockwise*
0 create outline with 8 corners*
4,1,8,$1,$2,$3,$4,$5,$6,$7,$8,$9,$10,$11,$12,$13,$14,$15,$16,$1,$2,$17*%
%AMFreePoly0*
4,1,6,0.250000,0.000000,-0.250000,-0.625000,-0.500000,-0.625000,-0.500000,0.625000,-0.250000,0.625000,0.250000,0.000000,0.250000,0.000000,$1*%
%AMFreePoly1*
4,1,6,0.500000,-0.625000,-0.650000,-0.625000,-0.150000,0.000000,-0.650000,0.625000,0.500000,0.625000,0.500000,-0.625000,0.500000,-0.625000,$1*%
G04 Aperture macros list end*
%ADD10Outline5P,-1.300000X1.300000X1.300000X1.300000X1.300000X-0.117000X0.117000X-1.300000X-1.300000X-1.300000X0.000000*%
%ADD11R,2.600000X2.600000*%
%ADD12R,0.900000X1.200000*%
%ADD13FreePoly0,90.000000*%
%ADD14FreePoly1,90.000000*%
%ADD15FreePoly1,270.000000*%
%ADD16FreePoly0,270.000000*%
%ADD17R,1.550000X1.000000*%
%ADD18R,1.000000X0.800000*%
%ADD19R,0.700000X1.500000*%
%ADD20RoundRect,0.175000X-0.225000X0.175000X-0.225000X-0.175000X0.225000X-0.175000X0.225000X0.175000X0*%
%ADD21RoundRect,0.150000X-0.275000X0.150000X-0.275000X-0.150000X0.275000X-0.150000X0.275000X0.150000X0*%
G04 APERTURE END LIST*
D10*
%TO.C,S1*%
X178275000Y-150050000D03*
D11*
X166725000Y-152250000D03*
%TD*%
D10*
%TO.C,S2*%
X178275000Y-131050000D03*
D11*
X166725000Y-133250000D03*
%TD*%
D10*
%TO.C,S3*%
X178275000Y-112050000D03*
D11*
X166725000Y-114250000D03*
%TD*%
D10*
%TO.C,S4*%
X197275000Y-145050000D03*
D11*
X185725000Y-147250000D03*
%TD*%
D10*
%TO.C,S5*%
X197275000Y-126050000D03*
D11*
X185725000Y-128250000D03*
%TD*%
D10*
%TO.C,S6*%
X197275000Y-107050000D03*
D11*
X185725000Y-109250000D03*
%TD*%
D10*
%TO.C,S7*%
X216275000Y-142050000D03*
D11*
X204725000Y-144250000D03*
%TD*%
D10*
%TO.C,S8*%
X216275000Y-123050000D03*
D11*
X204725000Y-125250000D03*
%TD*%
D10*
%TO.C,S9*%
X216275000Y-104050000D03*
D11*
X204725000Y-106250000D03*
%TD*%
D10*
%TO.C,S10*%
X235275000Y-169050000D03*
D11*
X223725000Y-171250000D03*
%TD*%
D10*
%TO.C,S11*%
X235275000Y-150050000D03*
D11*
X223725000Y-152250000D03*
%TD*%
D10*
%TO.C,S12*%
X235275000Y-131050000D03*
D11*
X223725000Y-133250000D03*
%TD*%
D10*
%TO.C,S13*%
X235275000Y-112050000D03*
D11*
X223725000Y-114250000D03*
%TD*%
D10*
%TO.C,S14*%
X254275000Y-171050000D03*
D11*
X242725000Y-173250000D03*
%TD*%
D10*
%TO.C,S15*%
X254275000Y-152050000D03*
D11*
X242725000Y-154250000D03*
%TD*%
D10*
%TO.C,S16*%
X254275000Y-133050000D03*
D11*
X242725000Y-135250000D03*
%TD*%
D10*
%TO.C,S17*%
X254275000Y-114050000D03*
D11*
X242725000Y-116250000D03*
%TD*%
D12*
%TO.C,D1*%
X173350000Y-161320000D03*
X176650000Y-161320000D03*
%TD*%
%TO.C,D2*%
X173350000Y-142320000D03*
X176650000Y-142320000D03*
%TD*%
%TO.C,D3*%
X173350000Y-123320000D03*
X176650000Y-123320000D03*
%TD*%
%TO.C,D4*%
X192350000Y-156320000D03*
X195650000Y-156320000D03*
%TD*%
%TO.C,D5*%
X192350000Y-137320000D03*
X195650000Y-137320000D03*
%TD*%
%TO.C,D6*%
X192350000Y-118320000D03*
X195650000Y-118320000D03*
%TD*%
%TO.C,D7*%
X211350000Y-153320000D03*
X214650000Y-153320000D03*
%TD*%
%TO.C,D8*%
X211350000Y-134320000D03*
X214650000Y-134320000D03*
%TD*%
%TO.C,D9*%
X211350000Y-115320000D03*
X214650000Y-115320000D03*
%TD*%
%TO.C,D10*%
X230350000Y-180320000D03*
X233650000Y-180320000D03*
%TD*%
%TO.C,D11*%
X230350000Y-161320000D03*
X233650000Y-161320000D03*
%TD*%
%TO.C,D12*%
X230350000Y-142320000D03*
X233650000Y-142320000D03*
%TD*%
%TO.C,D13*%
X230350000Y-123320000D03*
X233650000Y-123320000D03*
%TD*%
%TO.C,D14*%
X249350000Y-182320000D03*
X252650000Y-182320000D03*
%TD*%
%TO.C,D15*%
X249350000Y-163320000D03*
X252650000Y-163320000D03*
%TD*%
%TO.C,D16*%
X249350000Y-144320000D03*
X252650000Y-144320000D03*
%TD*%
%TO.C,D17*%
X249350000Y-125320000D03*
X252650000Y-125320000D03*
%TD*%
D13*
%TO.C,MCU1*%
X169800000Y-182500000D03*
D14*
X169800000Y-181775000D03*
D15*
X169800000Y-172225000D03*
D16*
X169800000Y-171500000D03*
D13*
X172340000Y-182500000D03*
D14*
X172340000Y-181775000D03*
D15*
X172340000Y-172225000D03*
D16*
X172340000Y-171500000D03*
D13*
X174880000Y-182500000D03*
D14*
X174880000Y-181775000D03*
D15*
X174880000Y-172225000D03*
D16*
X174880000Y-171500000D03*
D13*
X177420000Y-182500000D03*
D14*
X177420000Y-181775000D03*
D15*
X177420000Y-172225000D03*
D16*
X177420000Y-171500000D03*
D13*
X179960000Y-182500000D03*
D14*
X179960000Y-181775000D03*
D15*
X179960000Y-172225000D03*
D16*
X179960000Y-171500000D03*
D13*
X182500000Y-182500000D03*
D14*
X182500000Y-181775000D03*
D15*
X182500000Y-172225000D03*
D16*
X182500000Y-171500000D03*
D13*
X185040000Y-182500000D03*
D14*
X185040000Y-181775000D03*
D15*
X185040000Y-172225000D03*
D16*
X185040000Y-171500000D03*
D13*
X187580000Y-182500000D03*
D14*
X187580000Y-181775000D03*
D15*
X187580000Y-172225000D03*
D16*
X187580000Y-171500000D03*
D13*
X190120000Y-182500000D03*
D14*
X190120000Y-181775000D03*
D15*
X190120000Y-172225000D03*
D16*
X190120000Y-171500000D03*
D13*
X192660000Y-182500000D03*
D14*
X192660000Y-181775000D03*
D15*
X192660000Y-172225000D03*
D16*
X192660000Y-171500000D03*
D13*
X195200000Y-182500000D03*
D14*
X195200000Y-181775000D03*
D15*
X195200000Y-172225000D03*
D16*
X195200000Y-171500000D03*
D13*
X197740000Y-182500000D03*
D14*
X197740000Y-181775000D03*
D15*
X197740000Y-172225000D03*
D16*
X197740000Y-171500000D03*
%TD*%
D17*
%TO.C,RST1*%
X213875000Y-185350000D03*
X213875000Y-183650000D03*
X219125000Y-185350000D03*
X219125000Y-183650000D03*
%TD*%
D18*
%TO.C,PWR1*%
X209650000Y-186125000D03*
X209650000Y-183915000D03*
X202350000Y-183915000D03*
X202350000Y-186125000D03*
D19*
X203750000Y-183265000D03*
X206750000Y-183265000D03*
X208250000Y-183265000D03*
%TD*%
D20*
%TO.C,CONN1*%
X216600000Y-162750000D03*
X216600000Y-159250000D03*
D21*
X220375000Y-161600000D03*
X220375000Y-160400000D03*
%TD*%
M02*
