%TF.GenerationSoftware,KiCad,Pcbnew,9.0.1*%
%TF.CreationDate,2025-04-05T03:31:19+08:00*%
%TF.ProjectId,board,626f6172-642e-46b6-9963-61645f706362,v1.0.0*%
%TF.SameCoordinates,Original*%
%TF.FileFunction,Legend,Top*%
%TF.FilePolarity,Positive*%
%FSLAX46Y46*%
G04 Gerber Fmt 4.6, Leading zero omitted, Abs format (unit mm)*
G04 Created by KiCad (PCBNEW 9.0.1) date 2025-04-05 03:31:19*
%MOMM*%
%LPD*%
G01*
G04 APERTURE LIST*
%ADD10C,0.400000*%
%ADD11C,0.150000*%
%ADD12C,0.100000*%
%ADD13C,0.120000*%
G04 APERTURE END LIST*
D10*
X202809524Y-177792295D02*
X202809524Y-172792295D01*
X202809524Y-172792295D02*
X203642857Y-176363723D01*
X203642857Y-176363723D02*
X204476190Y-172792295D01*
X204476190Y-172792295D02*
X204476190Y-177792295D01*
X205666667Y-177792295D02*
X205666667Y-172792295D01*
X206500000Y-172792295D02*
X207928571Y-172792295D01*
X207214285Y-177792295D02*
X207214285Y-172792295D01*
X209238095Y-172792295D02*
X209714286Y-172792295D01*
X209714286Y-172792295D02*
X209952381Y-173030390D01*
X209952381Y-173030390D02*
X210190476Y-173506580D01*
X210190476Y-173506580D02*
X210309524Y-174458961D01*
X210309524Y-174458961D02*
X210309524Y-176125628D01*
X210309524Y-176125628D02*
X210190476Y-177078009D01*
X210190476Y-177078009D02*
X209952381Y-177554200D01*
X209952381Y-177554200D02*
X209714286Y-177792295D01*
X209714286Y-177792295D02*
X209238095Y-177792295D01*
X209238095Y-177792295D02*
X209000000Y-177554200D01*
X209000000Y-177554200D02*
X208761905Y-177078009D01*
X208761905Y-177078009D02*
X208642857Y-176125628D01*
X208642857Y-176125628D02*
X208642857Y-174458961D01*
X208642857Y-174458961D02*
X208761905Y-173506580D01*
X208761905Y-173506580D02*
X209000000Y-173030390D01*
X209000000Y-173030390D02*
X209238095Y-172792295D01*
X211261905Y-177554200D02*
X211619048Y-177792295D01*
X211619048Y-177792295D02*
X212214286Y-177792295D01*
X212214286Y-177792295D02*
X212452381Y-177554200D01*
X212452381Y-177554200D02*
X212571429Y-177316104D01*
X212571429Y-177316104D02*
X212690476Y-176839914D01*
X212690476Y-176839914D02*
X212690476Y-176363723D01*
X212690476Y-176363723D02*
X212571429Y-175887533D01*
X212571429Y-175887533D02*
X212452381Y-175649438D01*
X212452381Y-175649438D02*
X212214286Y-175411342D01*
X212214286Y-175411342D02*
X211738095Y-175173247D01*
X211738095Y-175173247D02*
X211500000Y-174935152D01*
X211500000Y-174935152D02*
X211380953Y-174697057D01*
X211380953Y-174697057D02*
X211261905Y-174220866D01*
X211261905Y-174220866D02*
X211261905Y-173744676D01*
X211261905Y-173744676D02*
X211380953Y-173268485D01*
X211380953Y-173268485D02*
X211500000Y-173030390D01*
X211500000Y-173030390D02*
X211738095Y-172792295D01*
X211738095Y-172792295D02*
X212333334Y-172792295D01*
X212333334Y-172792295D02*
X212690476Y-173030390D01*
X213761905Y-175887533D02*
X215666667Y-175887533D01*
X216500000Y-172792295D02*
X217333333Y-177792295D01*
X217333333Y-177792295D02*
X218166666Y-172792295D01*
X218761904Y-172792295D02*
X220309523Y-172792295D01*
X220309523Y-172792295D02*
X219476190Y-174697057D01*
X219476190Y-174697057D02*
X219833333Y-174697057D01*
X219833333Y-174697057D02*
X220071428Y-174935152D01*
X220071428Y-174935152D02*
X220190476Y-175173247D01*
X220190476Y-175173247D02*
X220309523Y-175649438D01*
X220309523Y-175649438D02*
X220309523Y-176839914D01*
X220309523Y-176839914D02*
X220190476Y-177316104D01*
X220190476Y-177316104D02*
X220071428Y-177554200D01*
X220071428Y-177554200D02*
X219833333Y-177792295D01*
X219833333Y-177792295D02*
X219119047Y-177792295D01*
X219119047Y-177792295D02*
X218880952Y-177554200D01*
X218880952Y-177554200D02*
X218761904Y-177316104D01*
D11*
X189380951Y-164954819D02*
X189380951Y-165669104D01*
X189380951Y-165669104D02*
X189333332Y-165811961D01*
X189333332Y-165811961D02*
X189238094Y-165907200D01*
X189238094Y-165907200D02*
X189095237Y-165954819D01*
X189095237Y-165954819D02*
X188999999Y-165954819D01*
X190333332Y-165954819D02*
X189857142Y-165954819D01*
X189857142Y-165954819D02*
X189857142Y-164954819D01*
X191238094Y-165859580D02*
X191190475Y-165907200D01*
X191190475Y-165907200D02*
X191047618Y-165954819D01*
X191047618Y-165954819D02*
X190952380Y-165954819D01*
X190952380Y-165954819D02*
X190809523Y-165907200D01*
X190809523Y-165907200D02*
X190714285Y-165811961D01*
X190714285Y-165811961D02*
X190666666Y-165716723D01*
X190666666Y-165716723D02*
X190619047Y-165526247D01*
X190619047Y-165526247D02*
X190619047Y-165383390D01*
X190619047Y-165383390D02*
X190666666Y-165192914D01*
X190666666Y-165192914D02*
X190714285Y-165097676D01*
X190714285Y-165097676D02*
X190809523Y-165002438D01*
X190809523Y-165002438D02*
X190952380Y-164954819D01*
X190952380Y-164954819D02*
X191047618Y-164954819D01*
X191047618Y-164954819D02*
X191190475Y-165002438D01*
X191190475Y-165002438D02*
X191238094Y-165050057D01*
X191952380Y-164954819D02*
X191952380Y-165669104D01*
X191952380Y-165669104D02*
X191904761Y-165811961D01*
X191904761Y-165811961D02*
X191809523Y-165907200D01*
X191809523Y-165907200D02*
X191666666Y-165954819D01*
X191666666Y-165954819D02*
X191571428Y-165954819D01*
X192904761Y-165954819D02*
X192428571Y-165954819D01*
X192428571Y-165954819D02*
X192428571Y-164954819D01*
X193809523Y-165859580D02*
X193761904Y-165907200D01*
X193761904Y-165907200D02*
X193619047Y-165954819D01*
X193619047Y-165954819D02*
X193523809Y-165954819D01*
X193523809Y-165954819D02*
X193380952Y-165907200D01*
X193380952Y-165907200D02*
X193285714Y-165811961D01*
X193285714Y-165811961D02*
X193238095Y-165716723D01*
X193238095Y-165716723D02*
X193190476Y-165526247D01*
X193190476Y-165526247D02*
X193190476Y-165383390D01*
X193190476Y-165383390D02*
X193238095Y-165192914D01*
X193238095Y-165192914D02*
X193285714Y-165097676D01*
X193285714Y-165097676D02*
X193380952Y-165002438D01*
X193380952Y-165002438D02*
X193523809Y-164954819D01*
X193523809Y-164954819D02*
X193619047Y-164954819D01*
X193619047Y-164954819D02*
X193761904Y-165002438D01*
X193761904Y-165002438D02*
X193809523Y-165050057D01*
X194523809Y-164954819D02*
X194523809Y-165669104D01*
X194523809Y-165669104D02*
X194476190Y-165811961D01*
X194476190Y-165811961D02*
X194380952Y-165907200D01*
X194380952Y-165907200D02*
X194238095Y-165954819D01*
X194238095Y-165954819D02*
X194142857Y-165954819D01*
X195476190Y-165954819D02*
X195000000Y-165954819D01*
X195000000Y-165954819D02*
X195000000Y-164954819D01*
X196380952Y-165859580D02*
X196333333Y-165907200D01*
X196333333Y-165907200D02*
X196190476Y-165954819D01*
X196190476Y-165954819D02*
X196095238Y-165954819D01*
X196095238Y-165954819D02*
X195952381Y-165907200D01*
X195952381Y-165907200D02*
X195857143Y-165811961D01*
X195857143Y-165811961D02*
X195809524Y-165716723D01*
X195809524Y-165716723D02*
X195761905Y-165526247D01*
X195761905Y-165526247D02*
X195761905Y-165383390D01*
X195761905Y-165383390D02*
X195809524Y-165192914D01*
X195809524Y-165192914D02*
X195857143Y-165097676D01*
X195857143Y-165097676D02*
X195952381Y-165002438D01*
X195952381Y-165002438D02*
X196095238Y-164954819D01*
X196095238Y-164954819D02*
X196190476Y-164954819D01*
X196190476Y-164954819D02*
X196333333Y-165002438D01*
X196333333Y-165002438D02*
X196380952Y-165050057D01*
X197095238Y-164954819D02*
X197095238Y-165669104D01*
X197095238Y-165669104D02*
X197047619Y-165811961D01*
X197047619Y-165811961D02*
X196952381Y-165907200D01*
X196952381Y-165907200D02*
X196809524Y-165954819D01*
X196809524Y-165954819D02*
X196714286Y-165954819D01*
X198047619Y-165954819D02*
X197571429Y-165954819D01*
X197571429Y-165954819D02*
X197571429Y-164954819D01*
X198952381Y-165859580D02*
X198904762Y-165907200D01*
X198904762Y-165907200D02*
X198761905Y-165954819D01*
X198761905Y-165954819D02*
X198666667Y-165954819D01*
X198666667Y-165954819D02*
X198523810Y-165907200D01*
X198523810Y-165907200D02*
X198428572Y-165811961D01*
X198428572Y-165811961D02*
X198380953Y-165716723D01*
X198380953Y-165716723D02*
X198333334Y-165526247D01*
X198333334Y-165526247D02*
X198333334Y-165383390D01*
X198333334Y-165383390D02*
X198380953Y-165192914D01*
X198380953Y-165192914D02*
X198428572Y-165097676D01*
X198428572Y-165097676D02*
X198523810Y-165002438D01*
X198523810Y-165002438D02*
X198666667Y-164954819D01*
X198666667Y-164954819D02*
X198761905Y-164954819D01*
X198761905Y-164954819D02*
X198904762Y-165002438D01*
X198904762Y-165002438D02*
X198952381Y-165050057D01*
X217452380Y-184454819D02*
X217119047Y-183978628D01*
X216880952Y-184454819D02*
X216880952Y-183454819D01*
X216880952Y-183454819D02*
X217261904Y-183454819D01*
X217261904Y-183454819D02*
X217357142Y-183502438D01*
X217357142Y-183502438D02*
X217404761Y-183550057D01*
X217404761Y-183550057D02*
X217452380Y-183645295D01*
X217452380Y-183645295D02*
X217452380Y-183788152D01*
X217452380Y-183788152D02*
X217404761Y-183883390D01*
X217404761Y-183883390D02*
X217357142Y-183931009D01*
X217357142Y-183931009D02*
X217261904Y-183978628D01*
X217261904Y-183978628D02*
X216880952Y-183978628D01*
X217833333Y-184407200D02*
X217976190Y-184454819D01*
X217976190Y-184454819D02*
X218214285Y-184454819D01*
X218214285Y-184454819D02*
X218309523Y-184407200D01*
X218309523Y-184407200D02*
X218357142Y-184359580D01*
X218357142Y-184359580D02*
X218404761Y-184264342D01*
X218404761Y-184264342D02*
X218404761Y-184169104D01*
X218404761Y-184169104D02*
X218357142Y-184073866D01*
X218357142Y-184073866D02*
X218309523Y-184026247D01*
X218309523Y-184026247D02*
X218214285Y-183978628D01*
X218214285Y-183978628D02*
X218023809Y-183931009D01*
X218023809Y-183931009D02*
X217928571Y-183883390D01*
X217928571Y-183883390D02*
X217880952Y-183835771D01*
X217880952Y-183835771D02*
X217833333Y-183740533D01*
X217833333Y-183740533D02*
X217833333Y-183645295D01*
X217833333Y-183645295D02*
X217880952Y-183550057D01*
X217880952Y-183550057D02*
X217928571Y-183502438D01*
X217928571Y-183502438D02*
X218023809Y-183454819D01*
X218023809Y-183454819D02*
X218261904Y-183454819D01*
X218261904Y-183454819D02*
X218404761Y-183502438D01*
X218690476Y-183454819D02*
X219261904Y-183454819D01*
X218976190Y-184454819D02*
X218976190Y-183454819D01*
X211454819Y-184619047D02*
X211454819Y-184428571D01*
X211454819Y-184428571D02*
X211502438Y-184333333D01*
X211502438Y-184333333D02*
X211597676Y-184238095D01*
X211597676Y-184238095D02*
X211788152Y-184190476D01*
X211788152Y-184190476D02*
X212121485Y-184190476D01*
X212121485Y-184190476D02*
X212311961Y-184238095D01*
X212311961Y-184238095D02*
X212407200Y-184333333D01*
X212407200Y-184333333D02*
X212454819Y-184428571D01*
X212454819Y-184428571D02*
X212454819Y-184619047D01*
X212454819Y-184619047D02*
X212407200Y-184714285D01*
X212407200Y-184714285D02*
X212311961Y-184809523D01*
X212311961Y-184809523D02*
X212121485Y-184857142D01*
X212121485Y-184857142D02*
X211788152Y-184857142D01*
X211788152Y-184857142D02*
X211597676Y-184809523D01*
X211597676Y-184809523D02*
X211502438Y-184714285D01*
X211502438Y-184714285D02*
X211454819Y-184619047D01*
X212454819Y-183761904D02*
X211454819Y-183761904D01*
X211454819Y-183761904D02*
X212454819Y-183190476D01*
X212454819Y-183190476D02*
X211454819Y-183190476D01*
X201454819Y-184952380D02*
X201454819Y-184761904D01*
X201454819Y-184761904D02*
X201502438Y-184666666D01*
X201502438Y-184666666D02*
X201597676Y-184571428D01*
X201597676Y-184571428D02*
X201788152Y-184523809D01*
X201788152Y-184523809D02*
X202121485Y-184523809D01*
X202121485Y-184523809D02*
X202311961Y-184571428D01*
X202311961Y-184571428D02*
X202407200Y-184666666D01*
X202407200Y-184666666D02*
X202454819Y-184761904D01*
X202454819Y-184761904D02*
X202454819Y-184952380D01*
X202454819Y-184952380D02*
X202407200Y-185047618D01*
X202407200Y-185047618D02*
X202311961Y-185142856D01*
X202311961Y-185142856D02*
X202121485Y-185190475D01*
X202121485Y-185190475D02*
X201788152Y-185190475D01*
X201788152Y-185190475D02*
X201597676Y-185142856D01*
X201597676Y-185142856D02*
X201502438Y-185047618D01*
X201502438Y-185047618D02*
X201454819Y-184952380D01*
X201931009Y-183761904D02*
X201931009Y-184095237D01*
X202454819Y-184095237D02*
X201454819Y-184095237D01*
X201454819Y-184095237D02*
X201454819Y-183619047D01*
X201931009Y-182904761D02*
X201931009Y-183238094D01*
X202454819Y-183238094D02*
X201454819Y-183238094D01*
X201454819Y-183238094D02*
X201454819Y-182761904D01*
X171254819Y-178640476D02*
X170778628Y-178973809D01*
X171254819Y-179211904D02*
X170254819Y-179211904D01*
X170254819Y-179211904D02*
X170254819Y-178830952D01*
X170254819Y-178830952D02*
X170302438Y-178735714D01*
X170302438Y-178735714D02*
X170350057Y-178688095D01*
X170350057Y-178688095D02*
X170445295Y-178640476D01*
X170445295Y-178640476D02*
X170588152Y-178640476D01*
X170588152Y-178640476D02*
X170683390Y-178688095D01*
X170683390Y-178688095D02*
X170731009Y-178735714D01*
X170731009Y-178735714D02*
X170778628Y-178830952D01*
X170778628Y-178830952D02*
X170778628Y-179211904D01*
X170969104Y-178259523D02*
X170969104Y-177783333D01*
X171254819Y-178354761D02*
X170254819Y-178021428D01*
X170254819Y-178021428D02*
X171254819Y-177688095D01*
X170254819Y-177449999D02*
X171254819Y-177211904D01*
X171254819Y-177211904D02*
X170540533Y-177021428D01*
X170540533Y-177021428D02*
X171254819Y-176830952D01*
X171254819Y-176830952D02*
X170254819Y-176592857D01*
X171254819Y-175198094D02*
X170254819Y-175198094D01*
X170254819Y-175198094D02*
X170254819Y-174817142D01*
X170254819Y-174817142D02*
X170302438Y-174721904D01*
X170302438Y-174721904D02*
X170350057Y-174674285D01*
X170350057Y-174674285D02*
X170445295Y-174626666D01*
X170445295Y-174626666D02*
X170588152Y-174626666D01*
X170588152Y-174626666D02*
X170683390Y-174674285D01*
X170683390Y-174674285D02*
X170731009Y-174721904D01*
X170731009Y-174721904D02*
X170778628Y-174817142D01*
X170778628Y-174817142D02*
X170778628Y-175198094D01*
X171254819Y-173674285D02*
X171254819Y-174245713D01*
X171254819Y-173959999D02*
X170254819Y-173959999D01*
X170254819Y-173959999D02*
X170397676Y-174055237D01*
X170397676Y-174055237D02*
X170492914Y-174150475D01*
X170492914Y-174150475D02*
X170540533Y-174245713D01*
X172842438Y-178711904D02*
X172794819Y-178807142D01*
X172794819Y-178807142D02*
X172794819Y-178949999D01*
X172794819Y-178949999D02*
X172842438Y-179092856D01*
X172842438Y-179092856D02*
X172937676Y-179188094D01*
X172937676Y-179188094D02*
X173032914Y-179235713D01*
X173032914Y-179235713D02*
X173223390Y-179283332D01*
X173223390Y-179283332D02*
X173366247Y-179283332D01*
X173366247Y-179283332D02*
X173556723Y-179235713D01*
X173556723Y-179235713D02*
X173651961Y-179188094D01*
X173651961Y-179188094D02*
X173747200Y-179092856D01*
X173747200Y-179092856D02*
X173794819Y-178949999D01*
X173794819Y-178949999D02*
X173794819Y-178854761D01*
X173794819Y-178854761D02*
X173747200Y-178711904D01*
X173747200Y-178711904D02*
X173699580Y-178664285D01*
X173699580Y-178664285D02*
X173366247Y-178664285D01*
X173366247Y-178664285D02*
X173366247Y-178854761D01*
X173794819Y-178235713D02*
X172794819Y-178235713D01*
X172794819Y-178235713D02*
X173794819Y-177664285D01*
X173794819Y-177664285D02*
X172794819Y-177664285D01*
X173794819Y-177188094D02*
X172794819Y-177188094D01*
X172794819Y-177188094D02*
X172794819Y-176949999D01*
X172794819Y-176949999D02*
X172842438Y-176807142D01*
X172842438Y-176807142D02*
X172937676Y-176711904D01*
X172937676Y-176711904D02*
X173032914Y-176664285D01*
X173032914Y-176664285D02*
X173223390Y-176616666D01*
X173223390Y-176616666D02*
X173366247Y-176616666D01*
X173366247Y-176616666D02*
X173556723Y-176664285D01*
X173556723Y-176664285D02*
X173651961Y-176711904D01*
X173651961Y-176711904D02*
X173747200Y-176807142D01*
X173747200Y-176807142D02*
X173794819Y-176949999D01*
X173794819Y-176949999D02*
X173794819Y-177188094D01*
X173794819Y-175198094D02*
X172794819Y-175198094D01*
X172794819Y-175198094D02*
X172794819Y-174817142D01*
X172794819Y-174817142D02*
X172842438Y-174721904D01*
X172842438Y-174721904D02*
X172890057Y-174674285D01*
X172890057Y-174674285D02*
X172985295Y-174626666D01*
X172985295Y-174626666D02*
X173128152Y-174626666D01*
X173128152Y-174626666D02*
X173223390Y-174674285D01*
X173223390Y-174674285D02*
X173271009Y-174721904D01*
X173271009Y-174721904D02*
X173318628Y-174817142D01*
X173318628Y-174817142D02*
X173318628Y-175198094D01*
X172794819Y-174007618D02*
X172794819Y-173912380D01*
X172794819Y-173912380D02*
X172842438Y-173817142D01*
X172842438Y-173817142D02*
X172890057Y-173769523D01*
X172890057Y-173769523D02*
X172985295Y-173721904D01*
X172985295Y-173721904D02*
X173175771Y-173674285D01*
X173175771Y-173674285D02*
X173413866Y-173674285D01*
X173413866Y-173674285D02*
X173604342Y-173721904D01*
X173604342Y-173721904D02*
X173699580Y-173769523D01*
X173699580Y-173769523D02*
X173747200Y-173817142D01*
X173747200Y-173817142D02*
X173794819Y-173912380D01*
X173794819Y-173912380D02*
X173794819Y-174007618D01*
X173794819Y-174007618D02*
X173747200Y-174102856D01*
X173747200Y-174102856D02*
X173699580Y-174150475D01*
X173699580Y-174150475D02*
X173604342Y-174198094D01*
X173604342Y-174198094D02*
X173413866Y-174245713D01*
X173413866Y-174245713D02*
X173175771Y-174245713D01*
X173175771Y-174245713D02*
X172985295Y-174198094D01*
X172985295Y-174198094D02*
X172890057Y-174150475D01*
X172890057Y-174150475D02*
X172842438Y-174102856D01*
X172842438Y-174102856D02*
X172794819Y-174007618D01*
X176334819Y-178497619D02*
X175858628Y-178830952D01*
X176334819Y-179069047D02*
X175334819Y-179069047D01*
X175334819Y-179069047D02*
X175334819Y-178688095D01*
X175334819Y-178688095D02*
X175382438Y-178592857D01*
X175382438Y-178592857D02*
X175430057Y-178545238D01*
X175430057Y-178545238D02*
X175525295Y-178497619D01*
X175525295Y-178497619D02*
X175668152Y-178497619D01*
X175668152Y-178497619D02*
X175763390Y-178545238D01*
X175763390Y-178545238D02*
X175811009Y-178592857D01*
X175811009Y-178592857D02*
X175858628Y-178688095D01*
X175858628Y-178688095D02*
X175858628Y-179069047D01*
X176287200Y-178116666D02*
X176334819Y-177973809D01*
X176334819Y-177973809D02*
X176334819Y-177735714D01*
X176334819Y-177735714D02*
X176287200Y-177640476D01*
X176287200Y-177640476D02*
X176239580Y-177592857D01*
X176239580Y-177592857D02*
X176144342Y-177545238D01*
X176144342Y-177545238D02*
X176049104Y-177545238D01*
X176049104Y-177545238D02*
X175953866Y-177592857D01*
X175953866Y-177592857D02*
X175906247Y-177640476D01*
X175906247Y-177640476D02*
X175858628Y-177735714D01*
X175858628Y-177735714D02*
X175811009Y-177926190D01*
X175811009Y-177926190D02*
X175763390Y-178021428D01*
X175763390Y-178021428D02*
X175715771Y-178069047D01*
X175715771Y-178069047D02*
X175620533Y-178116666D01*
X175620533Y-178116666D02*
X175525295Y-178116666D01*
X175525295Y-178116666D02*
X175430057Y-178069047D01*
X175430057Y-178069047D02*
X175382438Y-178021428D01*
X175382438Y-178021428D02*
X175334819Y-177926190D01*
X175334819Y-177926190D02*
X175334819Y-177688095D01*
X175334819Y-177688095D02*
X175382438Y-177545238D01*
X175334819Y-177259523D02*
X175334819Y-176688095D01*
X176334819Y-176973809D02*
X175334819Y-176973809D01*
X175382438Y-175811904D02*
X175334819Y-175907142D01*
X175334819Y-175907142D02*
X175334819Y-176049999D01*
X175334819Y-176049999D02*
X175382438Y-176192856D01*
X175382438Y-176192856D02*
X175477676Y-176288094D01*
X175477676Y-176288094D02*
X175572914Y-176335713D01*
X175572914Y-176335713D02*
X175763390Y-176383332D01*
X175763390Y-176383332D02*
X175906247Y-176383332D01*
X175906247Y-176383332D02*
X176096723Y-176335713D01*
X176096723Y-176335713D02*
X176191961Y-176288094D01*
X176191961Y-176288094D02*
X176287200Y-176192856D01*
X176287200Y-176192856D02*
X176334819Y-176049999D01*
X176334819Y-176049999D02*
X176334819Y-175954761D01*
X176334819Y-175954761D02*
X176287200Y-175811904D01*
X176287200Y-175811904D02*
X176239580Y-175764285D01*
X176239580Y-175764285D02*
X175906247Y-175764285D01*
X175906247Y-175764285D02*
X175906247Y-175954761D01*
X176334819Y-175335713D02*
X175334819Y-175335713D01*
X175334819Y-175335713D02*
X176334819Y-174764285D01*
X176334819Y-174764285D02*
X175334819Y-174764285D01*
X176334819Y-174288094D02*
X175334819Y-174288094D01*
X175334819Y-174288094D02*
X175334819Y-174049999D01*
X175334819Y-174049999D02*
X175382438Y-173907142D01*
X175382438Y-173907142D02*
X175477676Y-173811904D01*
X175477676Y-173811904D02*
X175572914Y-173764285D01*
X175572914Y-173764285D02*
X175763390Y-173716666D01*
X175763390Y-173716666D02*
X175906247Y-173716666D01*
X175906247Y-173716666D02*
X176096723Y-173764285D01*
X176096723Y-173764285D02*
X176191961Y-173811904D01*
X176191961Y-173811904D02*
X176287200Y-173907142D01*
X176287200Y-173907142D02*
X176334819Y-174049999D01*
X176334819Y-174049999D02*
X176334819Y-174288094D01*
X177874819Y-179283332D02*
X178874819Y-178949999D01*
X178874819Y-178949999D02*
X177874819Y-178616666D01*
X178779580Y-177711904D02*
X178827200Y-177759523D01*
X178827200Y-177759523D02*
X178874819Y-177902380D01*
X178874819Y-177902380D02*
X178874819Y-177997618D01*
X178874819Y-177997618D02*
X178827200Y-178140475D01*
X178827200Y-178140475D02*
X178731961Y-178235713D01*
X178731961Y-178235713D02*
X178636723Y-178283332D01*
X178636723Y-178283332D02*
X178446247Y-178330951D01*
X178446247Y-178330951D02*
X178303390Y-178330951D01*
X178303390Y-178330951D02*
X178112914Y-178283332D01*
X178112914Y-178283332D02*
X178017676Y-178235713D01*
X178017676Y-178235713D02*
X177922438Y-178140475D01*
X177922438Y-178140475D02*
X177874819Y-177997618D01*
X177874819Y-177997618D02*
X177874819Y-177902380D01*
X177874819Y-177902380D02*
X177922438Y-177759523D01*
X177922438Y-177759523D02*
X177970057Y-177711904D01*
X178779580Y-176711904D02*
X178827200Y-176759523D01*
X178827200Y-176759523D02*
X178874819Y-176902380D01*
X178874819Y-176902380D02*
X178874819Y-176997618D01*
X178874819Y-176997618D02*
X178827200Y-177140475D01*
X178827200Y-177140475D02*
X178731961Y-177235713D01*
X178731961Y-177235713D02*
X178636723Y-177283332D01*
X178636723Y-177283332D02*
X178446247Y-177330951D01*
X178446247Y-177330951D02*
X178303390Y-177330951D01*
X178303390Y-177330951D02*
X178112914Y-177283332D01*
X178112914Y-177283332D02*
X178017676Y-177235713D01*
X178017676Y-177235713D02*
X177922438Y-177140475D01*
X177922438Y-177140475D02*
X177874819Y-176997618D01*
X177874819Y-176997618D02*
X177874819Y-176902380D01*
X177874819Y-176902380D02*
X177922438Y-176759523D01*
X177922438Y-176759523D02*
X177970057Y-176711904D01*
X177922438Y-175811904D02*
X177874819Y-175907142D01*
X177874819Y-175907142D02*
X177874819Y-176049999D01*
X177874819Y-176049999D02*
X177922438Y-176192856D01*
X177922438Y-176192856D02*
X178017676Y-176288094D01*
X178017676Y-176288094D02*
X178112914Y-176335713D01*
X178112914Y-176335713D02*
X178303390Y-176383332D01*
X178303390Y-176383332D02*
X178446247Y-176383332D01*
X178446247Y-176383332D02*
X178636723Y-176335713D01*
X178636723Y-176335713D02*
X178731961Y-176288094D01*
X178731961Y-176288094D02*
X178827200Y-176192856D01*
X178827200Y-176192856D02*
X178874819Y-176049999D01*
X178874819Y-176049999D02*
X178874819Y-175954761D01*
X178874819Y-175954761D02*
X178827200Y-175811904D01*
X178827200Y-175811904D02*
X178779580Y-175764285D01*
X178779580Y-175764285D02*
X178446247Y-175764285D01*
X178446247Y-175764285D02*
X178446247Y-175954761D01*
X178874819Y-175335713D02*
X177874819Y-175335713D01*
X177874819Y-175335713D02*
X178874819Y-174764285D01*
X178874819Y-174764285D02*
X177874819Y-174764285D01*
X178874819Y-174288094D02*
X177874819Y-174288094D01*
X177874819Y-174288094D02*
X177874819Y-174049999D01*
X177874819Y-174049999D02*
X177922438Y-173907142D01*
X177922438Y-173907142D02*
X178017676Y-173811904D01*
X178017676Y-173811904D02*
X178112914Y-173764285D01*
X178112914Y-173764285D02*
X178303390Y-173716666D01*
X178303390Y-173716666D02*
X178446247Y-173716666D01*
X178446247Y-173716666D02*
X178636723Y-173764285D01*
X178636723Y-173764285D02*
X178731961Y-173811904D01*
X178731961Y-173811904D02*
X178827200Y-173907142D01*
X178827200Y-173907142D02*
X178874819Y-174049999D01*
X178874819Y-174049999D02*
X178874819Y-174288094D01*
X181414819Y-179164285D02*
X180414819Y-179164285D01*
X180414819Y-179164285D02*
X180414819Y-178783333D01*
X180414819Y-178783333D02*
X180462438Y-178688095D01*
X180462438Y-178688095D02*
X180510057Y-178640476D01*
X180510057Y-178640476D02*
X180605295Y-178592857D01*
X180605295Y-178592857D02*
X180748152Y-178592857D01*
X180748152Y-178592857D02*
X180843390Y-178640476D01*
X180843390Y-178640476D02*
X180891009Y-178688095D01*
X180891009Y-178688095D02*
X180938628Y-178783333D01*
X180938628Y-178783333D02*
X180938628Y-179164285D01*
X180510057Y-178211904D02*
X180462438Y-178164285D01*
X180462438Y-178164285D02*
X180414819Y-178069047D01*
X180414819Y-178069047D02*
X180414819Y-177830952D01*
X180414819Y-177830952D02*
X180462438Y-177735714D01*
X180462438Y-177735714D02*
X180510057Y-177688095D01*
X180510057Y-177688095D02*
X180605295Y-177640476D01*
X180605295Y-177640476D02*
X180700533Y-177640476D01*
X180700533Y-177640476D02*
X180843390Y-177688095D01*
X180843390Y-177688095D02*
X181414819Y-178259523D01*
X181414819Y-178259523D02*
X181414819Y-177640476D01*
X181414819Y-176688095D02*
X181414819Y-177259523D01*
X181414819Y-176973809D02*
X180414819Y-176973809D01*
X180414819Y-176973809D02*
X180557676Y-177069047D01*
X180557676Y-177069047D02*
X180652914Y-177164285D01*
X180652914Y-177164285D02*
X180700533Y-177259523D01*
X181414819Y-175198094D02*
X180414819Y-175198094D01*
X180414819Y-175198094D02*
X180414819Y-174817142D01*
X180414819Y-174817142D02*
X180462438Y-174721904D01*
X180462438Y-174721904D02*
X180510057Y-174674285D01*
X180510057Y-174674285D02*
X180605295Y-174626666D01*
X180605295Y-174626666D02*
X180748152Y-174626666D01*
X180748152Y-174626666D02*
X180843390Y-174674285D01*
X180843390Y-174674285D02*
X180891009Y-174721904D01*
X180891009Y-174721904D02*
X180938628Y-174817142D01*
X180938628Y-174817142D02*
X180938628Y-175198094D01*
X180510057Y-174245713D02*
X180462438Y-174198094D01*
X180462438Y-174198094D02*
X180414819Y-174102856D01*
X180414819Y-174102856D02*
X180414819Y-173864761D01*
X180414819Y-173864761D02*
X180462438Y-173769523D01*
X180462438Y-173769523D02*
X180510057Y-173721904D01*
X180510057Y-173721904D02*
X180605295Y-173674285D01*
X180605295Y-173674285D02*
X180700533Y-173674285D01*
X180700533Y-173674285D02*
X180843390Y-173721904D01*
X180843390Y-173721904D02*
X181414819Y-174293332D01*
X181414819Y-174293332D02*
X181414819Y-173674285D01*
X183954819Y-179164285D02*
X182954819Y-179164285D01*
X182954819Y-179164285D02*
X182954819Y-178783333D01*
X182954819Y-178783333D02*
X183002438Y-178688095D01*
X183002438Y-178688095D02*
X183050057Y-178640476D01*
X183050057Y-178640476D02*
X183145295Y-178592857D01*
X183145295Y-178592857D02*
X183288152Y-178592857D01*
X183288152Y-178592857D02*
X183383390Y-178640476D01*
X183383390Y-178640476D02*
X183431009Y-178688095D01*
X183431009Y-178688095D02*
X183478628Y-178783333D01*
X183478628Y-178783333D02*
X183478628Y-179164285D01*
X183050057Y-178211904D02*
X183002438Y-178164285D01*
X183002438Y-178164285D02*
X182954819Y-178069047D01*
X182954819Y-178069047D02*
X182954819Y-177830952D01*
X182954819Y-177830952D02*
X183002438Y-177735714D01*
X183002438Y-177735714D02*
X183050057Y-177688095D01*
X183050057Y-177688095D02*
X183145295Y-177640476D01*
X183145295Y-177640476D02*
X183240533Y-177640476D01*
X183240533Y-177640476D02*
X183383390Y-177688095D01*
X183383390Y-177688095D02*
X183954819Y-178259523D01*
X183954819Y-178259523D02*
X183954819Y-177640476D01*
X182954819Y-177021428D02*
X182954819Y-176926190D01*
X182954819Y-176926190D02*
X183002438Y-176830952D01*
X183002438Y-176830952D02*
X183050057Y-176783333D01*
X183050057Y-176783333D02*
X183145295Y-176735714D01*
X183145295Y-176735714D02*
X183335771Y-176688095D01*
X183335771Y-176688095D02*
X183573866Y-176688095D01*
X183573866Y-176688095D02*
X183764342Y-176735714D01*
X183764342Y-176735714D02*
X183859580Y-176783333D01*
X183859580Y-176783333D02*
X183907200Y-176830952D01*
X183907200Y-176830952D02*
X183954819Y-176926190D01*
X183954819Y-176926190D02*
X183954819Y-177021428D01*
X183954819Y-177021428D02*
X183907200Y-177116666D01*
X183907200Y-177116666D02*
X183859580Y-177164285D01*
X183859580Y-177164285D02*
X183764342Y-177211904D01*
X183764342Y-177211904D02*
X183573866Y-177259523D01*
X183573866Y-177259523D02*
X183335771Y-177259523D01*
X183335771Y-177259523D02*
X183145295Y-177211904D01*
X183145295Y-177211904D02*
X183050057Y-177164285D01*
X183050057Y-177164285D02*
X183002438Y-177116666D01*
X183002438Y-177116666D02*
X182954819Y-177021428D01*
X183954819Y-175198094D02*
X182954819Y-175198094D01*
X182954819Y-175198094D02*
X182954819Y-174817142D01*
X182954819Y-174817142D02*
X183002438Y-174721904D01*
X183002438Y-174721904D02*
X183050057Y-174674285D01*
X183050057Y-174674285D02*
X183145295Y-174626666D01*
X183145295Y-174626666D02*
X183288152Y-174626666D01*
X183288152Y-174626666D02*
X183383390Y-174674285D01*
X183383390Y-174674285D02*
X183431009Y-174721904D01*
X183431009Y-174721904D02*
X183478628Y-174817142D01*
X183478628Y-174817142D02*
X183478628Y-175198094D01*
X182954819Y-174293332D02*
X182954819Y-173674285D01*
X182954819Y-173674285D02*
X183335771Y-174007618D01*
X183335771Y-174007618D02*
X183335771Y-173864761D01*
X183335771Y-173864761D02*
X183383390Y-173769523D01*
X183383390Y-173769523D02*
X183431009Y-173721904D01*
X183431009Y-173721904D02*
X183526247Y-173674285D01*
X183526247Y-173674285D02*
X183764342Y-173674285D01*
X183764342Y-173674285D02*
X183859580Y-173721904D01*
X183859580Y-173721904D02*
X183907200Y-173769523D01*
X183907200Y-173769523D02*
X183954819Y-173864761D01*
X183954819Y-173864761D02*
X183954819Y-174150475D01*
X183954819Y-174150475D02*
X183907200Y-174245713D01*
X183907200Y-174245713D02*
X183859580Y-174293332D01*
X186494819Y-179164285D02*
X185494819Y-179164285D01*
X185494819Y-179164285D02*
X185494819Y-178783333D01*
X185494819Y-178783333D02*
X185542438Y-178688095D01*
X185542438Y-178688095D02*
X185590057Y-178640476D01*
X185590057Y-178640476D02*
X185685295Y-178592857D01*
X185685295Y-178592857D02*
X185828152Y-178592857D01*
X185828152Y-178592857D02*
X185923390Y-178640476D01*
X185923390Y-178640476D02*
X185971009Y-178688095D01*
X185971009Y-178688095D02*
X186018628Y-178783333D01*
X186018628Y-178783333D02*
X186018628Y-179164285D01*
X186494819Y-177640476D02*
X186494819Y-178211904D01*
X186494819Y-177926190D02*
X185494819Y-177926190D01*
X185494819Y-177926190D02*
X185637676Y-178021428D01*
X185637676Y-178021428D02*
X185732914Y-178116666D01*
X185732914Y-178116666D02*
X185780533Y-178211904D01*
X186494819Y-177164285D02*
X186494819Y-176973809D01*
X186494819Y-176973809D02*
X186447200Y-176878571D01*
X186447200Y-176878571D02*
X186399580Y-176830952D01*
X186399580Y-176830952D02*
X186256723Y-176735714D01*
X186256723Y-176735714D02*
X186066247Y-176688095D01*
X186066247Y-176688095D02*
X185685295Y-176688095D01*
X185685295Y-176688095D02*
X185590057Y-176735714D01*
X185590057Y-176735714D02*
X185542438Y-176783333D01*
X185542438Y-176783333D02*
X185494819Y-176878571D01*
X185494819Y-176878571D02*
X185494819Y-177069047D01*
X185494819Y-177069047D02*
X185542438Y-177164285D01*
X185542438Y-177164285D02*
X185590057Y-177211904D01*
X185590057Y-177211904D02*
X185685295Y-177259523D01*
X185685295Y-177259523D02*
X185923390Y-177259523D01*
X185923390Y-177259523D02*
X186018628Y-177211904D01*
X186018628Y-177211904D02*
X186066247Y-177164285D01*
X186066247Y-177164285D02*
X186113866Y-177069047D01*
X186113866Y-177069047D02*
X186113866Y-176878571D01*
X186113866Y-176878571D02*
X186066247Y-176783333D01*
X186066247Y-176783333D02*
X186018628Y-176735714D01*
X186018628Y-176735714D02*
X185923390Y-176688095D01*
X186494819Y-175198094D02*
X185494819Y-175198094D01*
X185494819Y-175198094D02*
X185494819Y-174817142D01*
X185494819Y-174817142D02*
X185542438Y-174721904D01*
X185542438Y-174721904D02*
X185590057Y-174674285D01*
X185590057Y-174674285D02*
X185685295Y-174626666D01*
X185685295Y-174626666D02*
X185828152Y-174626666D01*
X185828152Y-174626666D02*
X185923390Y-174674285D01*
X185923390Y-174674285D02*
X185971009Y-174721904D01*
X185971009Y-174721904D02*
X186018628Y-174817142D01*
X186018628Y-174817142D02*
X186018628Y-175198094D01*
X185828152Y-173769523D02*
X186494819Y-173769523D01*
X185447200Y-174007618D02*
X186161485Y-174245713D01*
X186161485Y-174245713D02*
X186161485Y-173626666D01*
X189034819Y-179164285D02*
X188034819Y-179164285D01*
X188034819Y-179164285D02*
X188034819Y-178783333D01*
X188034819Y-178783333D02*
X188082438Y-178688095D01*
X188082438Y-178688095D02*
X188130057Y-178640476D01*
X188130057Y-178640476D02*
X188225295Y-178592857D01*
X188225295Y-178592857D02*
X188368152Y-178592857D01*
X188368152Y-178592857D02*
X188463390Y-178640476D01*
X188463390Y-178640476D02*
X188511009Y-178688095D01*
X188511009Y-178688095D02*
X188558628Y-178783333D01*
X188558628Y-178783333D02*
X188558628Y-179164285D01*
X189034819Y-177640476D02*
X189034819Y-178211904D01*
X189034819Y-177926190D02*
X188034819Y-177926190D01*
X188034819Y-177926190D02*
X188177676Y-178021428D01*
X188177676Y-178021428D02*
X188272914Y-178116666D01*
X188272914Y-178116666D02*
X188320533Y-178211904D01*
X188463390Y-177069047D02*
X188415771Y-177164285D01*
X188415771Y-177164285D02*
X188368152Y-177211904D01*
X188368152Y-177211904D02*
X188272914Y-177259523D01*
X188272914Y-177259523D02*
X188225295Y-177259523D01*
X188225295Y-177259523D02*
X188130057Y-177211904D01*
X188130057Y-177211904D02*
X188082438Y-177164285D01*
X188082438Y-177164285D02*
X188034819Y-177069047D01*
X188034819Y-177069047D02*
X188034819Y-176878571D01*
X188034819Y-176878571D02*
X188082438Y-176783333D01*
X188082438Y-176783333D02*
X188130057Y-176735714D01*
X188130057Y-176735714D02*
X188225295Y-176688095D01*
X188225295Y-176688095D02*
X188272914Y-176688095D01*
X188272914Y-176688095D02*
X188368152Y-176735714D01*
X188368152Y-176735714D02*
X188415771Y-176783333D01*
X188415771Y-176783333D02*
X188463390Y-176878571D01*
X188463390Y-176878571D02*
X188463390Y-177069047D01*
X188463390Y-177069047D02*
X188511009Y-177164285D01*
X188511009Y-177164285D02*
X188558628Y-177211904D01*
X188558628Y-177211904D02*
X188653866Y-177259523D01*
X188653866Y-177259523D02*
X188844342Y-177259523D01*
X188844342Y-177259523D02*
X188939580Y-177211904D01*
X188939580Y-177211904D02*
X188987200Y-177164285D01*
X188987200Y-177164285D02*
X189034819Y-177069047D01*
X189034819Y-177069047D02*
X189034819Y-176878571D01*
X189034819Y-176878571D02*
X188987200Y-176783333D01*
X188987200Y-176783333D02*
X188939580Y-176735714D01*
X188939580Y-176735714D02*
X188844342Y-176688095D01*
X188844342Y-176688095D02*
X188653866Y-176688095D01*
X188653866Y-176688095D02*
X188558628Y-176735714D01*
X188558628Y-176735714D02*
X188511009Y-176783333D01*
X188511009Y-176783333D02*
X188463390Y-176878571D01*
X189034819Y-175198094D02*
X188034819Y-175198094D01*
X188034819Y-175198094D02*
X188034819Y-174817142D01*
X188034819Y-174817142D02*
X188082438Y-174721904D01*
X188082438Y-174721904D02*
X188130057Y-174674285D01*
X188130057Y-174674285D02*
X188225295Y-174626666D01*
X188225295Y-174626666D02*
X188368152Y-174626666D01*
X188368152Y-174626666D02*
X188463390Y-174674285D01*
X188463390Y-174674285D02*
X188511009Y-174721904D01*
X188511009Y-174721904D02*
X188558628Y-174817142D01*
X188558628Y-174817142D02*
X188558628Y-175198094D01*
X188034819Y-173721904D02*
X188034819Y-174198094D01*
X188034819Y-174198094D02*
X188511009Y-174245713D01*
X188511009Y-174245713D02*
X188463390Y-174198094D01*
X188463390Y-174198094D02*
X188415771Y-174102856D01*
X188415771Y-174102856D02*
X188415771Y-173864761D01*
X188415771Y-173864761D02*
X188463390Y-173769523D01*
X188463390Y-173769523D02*
X188511009Y-173721904D01*
X188511009Y-173721904D02*
X188606247Y-173674285D01*
X188606247Y-173674285D02*
X188844342Y-173674285D01*
X188844342Y-173674285D02*
X188939580Y-173721904D01*
X188939580Y-173721904D02*
X188987200Y-173769523D01*
X188987200Y-173769523D02*
X189034819Y-173864761D01*
X189034819Y-173864761D02*
X189034819Y-174102856D01*
X189034819Y-174102856D02*
X188987200Y-174198094D01*
X188987200Y-174198094D02*
X188939580Y-174245713D01*
X191574819Y-179164285D02*
X190574819Y-179164285D01*
X190574819Y-179164285D02*
X190574819Y-178783333D01*
X190574819Y-178783333D02*
X190622438Y-178688095D01*
X190622438Y-178688095D02*
X190670057Y-178640476D01*
X190670057Y-178640476D02*
X190765295Y-178592857D01*
X190765295Y-178592857D02*
X190908152Y-178592857D01*
X190908152Y-178592857D02*
X191003390Y-178640476D01*
X191003390Y-178640476D02*
X191051009Y-178688095D01*
X191051009Y-178688095D02*
X191098628Y-178783333D01*
X191098628Y-178783333D02*
X191098628Y-179164285D01*
X191574819Y-177640476D02*
X191574819Y-178211904D01*
X191574819Y-177926190D02*
X190574819Y-177926190D01*
X190574819Y-177926190D02*
X190717676Y-178021428D01*
X190717676Y-178021428D02*
X190812914Y-178116666D01*
X190812914Y-178116666D02*
X190860533Y-178211904D01*
X190574819Y-176735714D02*
X190574819Y-177211904D01*
X190574819Y-177211904D02*
X191051009Y-177259523D01*
X191051009Y-177259523D02*
X191003390Y-177211904D01*
X191003390Y-177211904D02*
X190955771Y-177116666D01*
X190955771Y-177116666D02*
X190955771Y-176878571D01*
X190955771Y-176878571D02*
X191003390Y-176783333D01*
X191003390Y-176783333D02*
X191051009Y-176735714D01*
X191051009Y-176735714D02*
X191146247Y-176688095D01*
X191146247Y-176688095D02*
X191384342Y-176688095D01*
X191384342Y-176688095D02*
X191479580Y-176735714D01*
X191479580Y-176735714D02*
X191527200Y-176783333D01*
X191527200Y-176783333D02*
X191574819Y-176878571D01*
X191574819Y-176878571D02*
X191574819Y-177116666D01*
X191574819Y-177116666D02*
X191527200Y-177211904D01*
X191527200Y-177211904D02*
X191479580Y-177259523D01*
X191574819Y-175198094D02*
X190574819Y-175198094D01*
X190574819Y-175198094D02*
X190574819Y-174817142D01*
X190574819Y-174817142D02*
X190622438Y-174721904D01*
X190622438Y-174721904D02*
X190670057Y-174674285D01*
X190670057Y-174674285D02*
X190765295Y-174626666D01*
X190765295Y-174626666D02*
X190908152Y-174626666D01*
X190908152Y-174626666D02*
X191003390Y-174674285D01*
X191003390Y-174674285D02*
X191051009Y-174721904D01*
X191051009Y-174721904D02*
X191098628Y-174817142D01*
X191098628Y-174817142D02*
X191098628Y-175198094D01*
X190574819Y-173769523D02*
X190574819Y-173959999D01*
X190574819Y-173959999D02*
X190622438Y-174055237D01*
X190622438Y-174055237D02*
X190670057Y-174102856D01*
X190670057Y-174102856D02*
X190812914Y-174198094D01*
X190812914Y-174198094D02*
X191003390Y-174245713D01*
X191003390Y-174245713D02*
X191384342Y-174245713D01*
X191384342Y-174245713D02*
X191479580Y-174198094D01*
X191479580Y-174198094D02*
X191527200Y-174150475D01*
X191527200Y-174150475D02*
X191574819Y-174055237D01*
X191574819Y-174055237D02*
X191574819Y-173864761D01*
X191574819Y-173864761D02*
X191527200Y-173769523D01*
X191527200Y-173769523D02*
X191479580Y-173721904D01*
X191479580Y-173721904D02*
X191384342Y-173674285D01*
X191384342Y-173674285D02*
X191146247Y-173674285D01*
X191146247Y-173674285D02*
X191051009Y-173721904D01*
X191051009Y-173721904D02*
X191003390Y-173769523D01*
X191003390Y-173769523D02*
X190955771Y-173864761D01*
X190955771Y-173864761D02*
X190955771Y-174055237D01*
X190955771Y-174055237D02*
X191003390Y-174150475D01*
X191003390Y-174150475D02*
X191051009Y-174198094D01*
X191051009Y-174198094D02*
X191146247Y-174245713D01*
X194114819Y-179164285D02*
X193114819Y-179164285D01*
X193114819Y-179164285D02*
X193114819Y-178783333D01*
X193114819Y-178783333D02*
X193162438Y-178688095D01*
X193162438Y-178688095D02*
X193210057Y-178640476D01*
X193210057Y-178640476D02*
X193305295Y-178592857D01*
X193305295Y-178592857D02*
X193448152Y-178592857D01*
X193448152Y-178592857D02*
X193543390Y-178640476D01*
X193543390Y-178640476D02*
X193591009Y-178688095D01*
X193591009Y-178688095D02*
X193638628Y-178783333D01*
X193638628Y-178783333D02*
X193638628Y-179164285D01*
X194114819Y-177640476D02*
X194114819Y-178211904D01*
X194114819Y-177926190D02*
X193114819Y-177926190D01*
X193114819Y-177926190D02*
X193257676Y-178021428D01*
X193257676Y-178021428D02*
X193352914Y-178116666D01*
X193352914Y-178116666D02*
X193400533Y-178211904D01*
X193448152Y-176783333D02*
X194114819Y-176783333D01*
X193067200Y-177021428D02*
X193781485Y-177259523D01*
X193781485Y-177259523D02*
X193781485Y-176640476D01*
X194114819Y-175198094D02*
X193114819Y-175198094D01*
X193114819Y-175198094D02*
X193114819Y-174817142D01*
X193114819Y-174817142D02*
X193162438Y-174721904D01*
X193162438Y-174721904D02*
X193210057Y-174674285D01*
X193210057Y-174674285D02*
X193305295Y-174626666D01*
X193305295Y-174626666D02*
X193448152Y-174626666D01*
X193448152Y-174626666D02*
X193543390Y-174674285D01*
X193543390Y-174674285D02*
X193591009Y-174721904D01*
X193591009Y-174721904D02*
X193638628Y-174817142D01*
X193638628Y-174817142D02*
X193638628Y-175198094D01*
X193114819Y-174293332D02*
X193114819Y-173626666D01*
X193114819Y-173626666D02*
X194114819Y-174055237D01*
X196654819Y-179164285D02*
X195654819Y-179164285D01*
X195654819Y-179164285D02*
X195654819Y-178783333D01*
X195654819Y-178783333D02*
X195702438Y-178688095D01*
X195702438Y-178688095D02*
X195750057Y-178640476D01*
X195750057Y-178640476D02*
X195845295Y-178592857D01*
X195845295Y-178592857D02*
X195988152Y-178592857D01*
X195988152Y-178592857D02*
X196083390Y-178640476D01*
X196083390Y-178640476D02*
X196131009Y-178688095D01*
X196131009Y-178688095D02*
X196178628Y-178783333D01*
X196178628Y-178783333D02*
X196178628Y-179164285D01*
X196654819Y-177640476D02*
X196654819Y-178211904D01*
X196654819Y-177926190D02*
X195654819Y-177926190D01*
X195654819Y-177926190D02*
X195797676Y-178021428D01*
X195797676Y-178021428D02*
X195892914Y-178116666D01*
X195892914Y-178116666D02*
X195940533Y-178211904D01*
X195654819Y-176783333D02*
X195654819Y-176973809D01*
X195654819Y-176973809D02*
X195702438Y-177069047D01*
X195702438Y-177069047D02*
X195750057Y-177116666D01*
X195750057Y-177116666D02*
X195892914Y-177211904D01*
X195892914Y-177211904D02*
X196083390Y-177259523D01*
X196083390Y-177259523D02*
X196464342Y-177259523D01*
X196464342Y-177259523D02*
X196559580Y-177211904D01*
X196559580Y-177211904D02*
X196607200Y-177164285D01*
X196607200Y-177164285D02*
X196654819Y-177069047D01*
X196654819Y-177069047D02*
X196654819Y-176878571D01*
X196654819Y-176878571D02*
X196607200Y-176783333D01*
X196607200Y-176783333D02*
X196559580Y-176735714D01*
X196559580Y-176735714D02*
X196464342Y-176688095D01*
X196464342Y-176688095D02*
X196226247Y-176688095D01*
X196226247Y-176688095D02*
X196131009Y-176735714D01*
X196131009Y-176735714D02*
X196083390Y-176783333D01*
X196083390Y-176783333D02*
X196035771Y-176878571D01*
X196035771Y-176878571D02*
X196035771Y-177069047D01*
X196035771Y-177069047D02*
X196083390Y-177164285D01*
X196083390Y-177164285D02*
X196131009Y-177211904D01*
X196131009Y-177211904D02*
X196226247Y-177259523D01*
X196654819Y-175198094D02*
X195654819Y-175198094D01*
X195654819Y-175198094D02*
X195654819Y-174817142D01*
X195654819Y-174817142D02*
X195702438Y-174721904D01*
X195702438Y-174721904D02*
X195750057Y-174674285D01*
X195750057Y-174674285D02*
X195845295Y-174626666D01*
X195845295Y-174626666D02*
X195988152Y-174626666D01*
X195988152Y-174626666D02*
X196083390Y-174674285D01*
X196083390Y-174674285D02*
X196131009Y-174721904D01*
X196131009Y-174721904D02*
X196178628Y-174817142D01*
X196178628Y-174817142D02*
X196178628Y-175198094D01*
X196083390Y-174055237D02*
X196035771Y-174150475D01*
X196035771Y-174150475D02*
X195988152Y-174198094D01*
X195988152Y-174198094D02*
X195892914Y-174245713D01*
X195892914Y-174245713D02*
X195845295Y-174245713D01*
X195845295Y-174245713D02*
X195750057Y-174198094D01*
X195750057Y-174198094D02*
X195702438Y-174150475D01*
X195702438Y-174150475D02*
X195654819Y-174055237D01*
X195654819Y-174055237D02*
X195654819Y-173864761D01*
X195654819Y-173864761D02*
X195702438Y-173769523D01*
X195702438Y-173769523D02*
X195750057Y-173721904D01*
X195750057Y-173721904D02*
X195845295Y-173674285D01*
X195845295Y-173674285D02*
X195892914Y-173674285D01*
X195892914Y-173674285D02*
X195988152Y-173721904D01*
X195988152Y-173721904D02*
X196035771Y-173769523D01*
X196035771Y-173769523D02*
X196083390Y-173864761D01*
X196083390Y-173864761D02*
X196083390Y-174055237D01*
X196083390Y-174055237D02*
X196131009Y-174150475D01*
X196131009Y-174150475D02*
X196178628Y-174198094D01*
X196178628Y-174198094D02*
X196273866Y-174245713D01*
X196273866Y-174245713D02*
X196464342Y-174245713D01*
X196464342Y-174245713D02*
X196559580Y-174198094D01*
X196559580Y-174198094D02*
X196607200Y-174150475D01*
X196607200Y-174150475D02*
X196654819Y-174055237D01*
X196654819Y-174055237D02*
X196654819Y-173864761D01*
X196654819Y-173864761D02*
X196607200Y-173769523D01*
X196607200Y-173769523D02*
X196559580Y-173721904D01*
X196559580Y-173721904D02*
X196464342Y-173674285D01*
X196464342Y-173674285D02*
X196273866Y-173674285D01*
X196273866Y-173674285D02*
X196178628Y-173721904D01*
X196178628Y-173721904D02*
X196131009Y-173769523D01*
X196131009Y-173769523D02*
X196083390Y-173864761D01*
X199194819Y-179164285D02*
X198194819Y-179164285D01*
X198194819Y-179164285D02*
X198194819Y-178783333D01*
X198194819Y-178783333D02*
X198242438Y-178688095D01*
X198242438Y-178688095D02*
X198290057Y-178640476D01*
X198290057Y-178640476D02*
X198385295Y-178592857D01*
X198385295Y-178592857D02*
X198528152Y-178592857D01*
X198528152Y-178592857D02*
X198623390Y-178640476D01*
X198623390Y-178640476D02*
X198671009Y-178688095D01*
X198671009Y-178688095D02*
X198718628Y-178783333D01*
X198718628Y-178783333D02*
X198718628Y-179164285D01*
X199194819Y-177640476D02*
X199194819Y-178211904D01*
X199194819Y-177926190D02*
X198194819Y-177926190D01*
X198194819Y-177926190D02*
X198337676Y-178021428D01*
X198337676Y-178021428D02*
X198432914Y-178116666D01*
X198432914Y-178116666D02*
X198480533Y-178211904D01*
X198194819Y-177021428D02*
X198194819Y-176926190D01*
X198194819Y-176926190D02*
X198242438Y-176830952D01*
X198242438Y-176830952D02*
X198290057Y-176783333D01*
X198290057Y-176783333D02*
X198385295Y-176735714D01*
X198385295Y-176735714D02*
X198575771Y-176688095D01*
X198575771Y-176688095D02*
X198813866Y-176688095D01*
X198813866Y-176688095D02*
X199004342Y-176735714D01*
X199004342Y-176735714D02*
X199099580Y-176783333D01*
X199099580Y-176783333D02*
X199147200Y-176830952D01*
X199147200Y-176830952D02*
X199194819Y-176926190D01*
X199194819Y-176926190D02*
X199194819Y-177021428D01*
X199194819Y-177021428D02*
X199147200Y-177116666D01*
X199147200Y-177116666D02*
X199099580Y-177164285D01*
X199099580Y-177164285D02*
X199004342Y-177211904D01*
X199004342Y-177211904D02*
X198813866Y-177259523D01*
X198813866Y-177259523D02*
X198575771Y-177259523D01*
X198575771Y-177259523D02*
X198385295Y-177211904D01*
X198385295Y-177211904D02*
X198290057Y-177164285D01*
X198290057Y-177164285D02*
X198242438Y-177116666D01*
X198242438Y-177116666D02*
X198194819Y-177021428D01*
X199194819Y-175198094D02*
X198194819Y-175198094D01*
X198194819Y-175198094D02*
X198194819Y-174817142D01*
X198194819Y-174817142D02*
X198242438Y-174721904D01*
X198242438Y-174721904D02*
X198290057Y-174674285D01*
X198290057Y-174674285D02*
X198385295Y-174626666D01*
X198385295Y-174626666D02*
X198528152Y-174626666D01*
X198528152Y-174626666D02*
X198623390Y-174674285D01*
X198623390Y-174674285D02*
X198671009Y-174721904D01*
X198671009Y-174721904D02*
X198718628Y-174817142D01*
X198718628Y-174817142D02*
X198718628Y-175198094D01*
X199194819Y-174150475D02*
X199194819Y-173959999D01*
X199194819Y-173959999D02*
X199147200Y-173864761D01*
X199147200Y-173864761D02*
X199099580Y-173817142D01*
X199099580Y-173817142D02*
X198956723Y-173721904D01*
X198956723Y-173721904D02*
X198766247Y-173674285D01*
X198766247Y-173674285D02*
X198385295Y-173674285D01*
X198385295Y-173674285D02*
X198290057Y-173721904D01*
X198290057Y-173721904D02*
X198242438Y-173769523D01*
X198242438Y-173769523D02*
X198194819Y-173864761D01*
X198194819Y-173864761D02*
X198194819Y-174055237D01*
X198194819Y-174055237D02*
X198242438Y-174150475D01*
X198242438Y-174150475D02*
X198290057Y-174198094D01*
X198290057Y-174198094D02*
X198385295Y-174245713D01*
X198385295Y-174245713D02*
X198623390Y-174245713D01*
X198623390Y-174245713D02*
X198718628Y-174198094D01*
X198718628Y-174198094D02*
X198766247Y-174150475D01*
X198766247Y-174150475D02*
X198813866Y-174055237D01*
X198813866Y-174055237D02*
X198813866Y-173864761D01*
X198813866Y-173864761D02*
X198766247Y-173769523D01*
X198766247Y-173769523D02*
X198718628Y-173721904D01*
X198718628Y-173721904D02*
X198623390Y-173674285D01*
X168709819Y-184642858D02*
X168233628Y-184976191D01*
X168709819Y-185214286D02*
X167709819Y-185214286D01*
X167709819Y-185214286D02*
X167709819Y-184833334D01*
X167709819Y-184833334D02*
X167757438Y-184738096D01*
X167757438Y-184738096D02*
X167805057Y-184690477D01*
X167805057Y-184690477D02*
X167900295Y-184642858D01*
X167900295Y-184642858D02*
X168043152Y-184642858D01*
X168043152Y-184642858D02*
X168138390Y-184690477D01*
X168138390Y-184690477D02*
X168186009Y-184738096D01*
X168186009Y-184738096D02*
X168233628Y-184833334D01*
X168233628Y-184833334D02*
X168233628Y-185214286D01*
X168709819Y-183452381D02*
X167709819Y-183452381D01*
X168709819Y-183023810D02*
X168186009Y-183023810D01*
X168186009Y-183023810D02*
X168090771Y-183071429D01*
X168090771Y-183071429D02*
X168043152Y-183166667D01*
X168043152Y-183166667D02*
X168043152Y-183309524D01*
X168043152Y-183309524D02*
X168090771Y-183404762D01*
X168090771Y-183404762D02*
X168138390Y-183452381D01*
X168709819Y-182119048D02*
X168186009Y-182119048D01*
X168186009Y-182119048D02*
X168090771Y-182166667D01*
X168090771Y-182166667D02*
X168043152Y-182261905D01*
X168043152Y-182261905D02*
X168043152Y-182452381D01*
X168043152Y-182452381D02*
X168090771Y-182547619D01*
X168662200Y-182119048D02*
X168709819Y-182214286D01*
X168709819Y-182214286D02*
X168709819Y-182452381D01*
X168709819Y-182452381D02*
X168662200Y-182547619D01*
X168662200Y-182547619D02*
X168566961Y-182595238D01*
X168566961Y-182595238D02*
X168471723Y-182595238D01*
X168471723Y-182595238D02*
X168376485Y-182547619D01*
X168376485Y-182547619D02*
X168328866Y-182452381D01*
X168328866Y-182452381D02*
X168328866Y-182214286D01*
X168328866Y-182214286D02*
X168281247Y-182119048D01*
X168043152Y-181642857D02*
X168709819Y-181642857D01*
X168138390Y-181642857D02*
X168090771Y-181595238D01*
X168090771Y-181595238D02*
X168043152Y-181500000D01*
X168043152Y-181500000D02*
X168043152Y-181357143D01*
X168043152Y-181357143D02*
X168090771Y-181261905D01*
X168090771Y-181261905D02*
X168186009Y-181214286D01*
X168186009Y-181214286D02*
X168709819Y-181214286D01*
X168709819Y-180309524D02*
X167709819Y-180309524D01*
X168662200Y-180309524D02*
X168709819Y-180404762D01*
X168709819Y-180404762D02*
X168709819Y-180595238D01*
X168709819Y-180595238D02*
X168662200Y-180690476D01*
X168662200Y-180690476D02*
X168614580Y-180738095D01*
X168614580Y-180738095D02*
X168519342Y-180785714D01*
X168519342Y-180785714D02*
X168233628Y-180785714D01*
X168233628Y-180785714D02*
X168138390Y-180738095D01*
X168138390Y-180738095D02*
X168090771Y-180690476D01*
X168090771Y-180690476D02*
X168043152Y-180595238D01*
X168043152Y-180595238D02*
X168043152Y-180404762D01*
X168043152Y-180404762D02*
X168090771Y-180309524D01*
X168709819Y-179071428D02*
X167709819Y-179071428D01*
X168090771Y-179071428D02*
X168043152Y-178976190D01*
X168043152Y-178976190D02*
X168043152Y-178785714D01*
X168043152Y-178785714D02*
X168090771Y-178690476D01*
X168090771Y-178690476D02*
X168138390Y-178642857D01*
X168138390Y-178642857D02*
X168233628Y-178595238D01*
X168233628Y-178595238D02*
X168519342Y-178595238D01*
X168519342Y-178595238D02*
X168614580Y-178642857D01*
X168614580Y-178642857D02*
X168662200Y-178690476D01*
X168662200Y-178690476D02*
X168709819Y-178785714D01*
X168709819Y-178785714D02*
X168709819Y-178976190D01*
X168709819Y-178976190D02*
X168662200Y-179071428D01*
X168709819Y-177738095D02*
X168186009Y-177738095D01*
X168186009Y-177738095D02*
X168090771Y-177785714D01*
X168090771Y-177785714D02*
X168043152Y-177880952D01*
X168043152Y-177880952D02*
X168043152Y-178071428D01*
X168043152Y-178071428D02*
X168090771Y-178166666D01*
X168662200Y-177738095D02*
X168709819Y-177833333D01*
X168709819Y-177833333D02*
X168709819Y-178071428D01*
X168709819Y-178071428D02*
X168662200Y-178166666D01*
X168662200Y-178166666D02*
X168566961Y-178214285D01*
X168566961Y-178214285D02*
X168471723Y-178214285D01*
X168471723Y-178214285D02*
X168376485Y-178166666D01*
X168376485Y-178166666D02*
X168328866Y-178071428D01*
X168328866Y-178071428D02*
X168328866Y-177833333D01*
X168328866Y-177833333D02*
X168281247Y-177738095D01*
X168662200Y-176833333D02*
X168709819Y-176928571D01*
X168709819Y-176928571D02*
X168709819Y-177119047D01*
X168709819Y-177119047D02*
X168662200Y-177214285D01*
X168662200Y-177214285D02*
X168614580Y-177261904D01*
X168614580Y-177261904D02*
X168519342Y-177309523D01*
X168519342Y-177309523D02*
X168233628Y-177309523D01*
X168233628Y-177309523D02*
X168138390Y-177261904D01*
X168138390Y-177261904D02*
X168090771Y-177214285D01*
X168090771Y-177214285D02*
X168043152Y-177119047D01*
X168043152Y-177119047D02*
X168043152Y-176928571D01*
X168043152Y-176928571D02*
X168090771Y-176833333D01*
X168709819Y-176404761D02*
X167709819Y-176404761D01*
X168328866Y-176309523D02*
X168709819Y-176023809D01*
X168043152Y-176023809D02*
X168424104Y-176404761D01*
X168662200Y-174880951D02*
X168709819Y-174785713D01*
X168709819Y-174785713D02*
X168709819Y-174595237D01*
X168709819Y-174595237D02*
X168662200Y-174499999D01*
X168662200Y-174499999D02*
X168566961Y-174452380D01*
X168566961Y-174452380D02*
X168519342Y-174452380D01*
X168519342Y-174452380D02*
X168424104Y-174499999D01*
X168424104Y-174499999D02*
X168376485Y-174595237D01*
X168376485Y-174595237D02*
X168376485Y-174738094D01*
X168376485Y-174738094D02*
X168328866Y-174833332D01*
X168328866Y-174833332D02*
X168233628Y-174880951D01*
X168233628Y-174880951D02*
X168186009Y-174880951D01*
X168186009Y-174880951D02*
X168090771Y-174833332D01*
X168090771Y-174833332D02*
X168043152Y-174738094D01*
X168043152Y-174738094D02*
X168043152Y-174595237D01*
X168043152Y-174595237D02*
X168090771Y-174499999D01*
X168709819Y-174023808D02*
X168043152Y-174023808D01*
X167709819Y-174023808D02*
X167757438Y-174071427D01*
X167757438Y-174071427D02*
X167805057Y-174023808D01*
X167805057Y-174023808D02*
X167757438Y-173976189D01*
X167757438Y-173976189D02*
X167709819Y-174023808D01*
X167709819Y-174023808D02*
X167805057Y-174023808D01*
X168709819Y-173119047D02*
X167709819Y-173119047D01*
X168662200Y-173119047D02*
X168709819Y-173214285D01*
X168709819Y-173214285D02*
X168709819Y-173404761D01*
X168709819Y-173404761D02*
X168662200Y-173499999D01*
X168662200Y-173499999D02*
X168614580Y-173547618D01*
X168614580Y-173547618D02*
X168519342Y-173595237D01*
X168519342Y-173595237D02*
X168233628Y-173595237D01*
X168233628Y-173595237D02*
X168138390Y-173547618D01*
X168138390Y-173547618D02*
X168090771Y-173499999D01*
X168090771Y-173499999D02*
X168043152Y-173404761D01*
X168043152Y-173404761D02*
X168043152Y-173214285D01*
X168043152Y-173214285D02*
X168090771Y-173119047D01*
X168662200Y-172261904D02*
X168709819Y-172357142D01*
X168709819Y-172357142D02*
X168709819Y-172547618D01*
X168709819Y-172547618D02*
X168662200Y-172642856D01*
X168662200Y-172642856D02*
X168566961Y-172690475D01*
X168566961Y-172690475D02*
X168186009Y-172690475D01*
X168186009Y-172690475D02*
X168090771Y-172642856D01*
X168090771Y-172642856D02*
X168043152Y-172547618D01*
X168043152Y-172547618D02*
X168043152Y-172357142D01*
X168043152Y-172357142D02*
X168090771Y-172261904D01*
X168090771Y-172261904D02*
X168186009Y-172214285D01*
X168186009Y-172214285D02*
X168281247Y-172214285D01*
X168281247Y-172214285D02*
X168376485Y-172690475D01*
X169090771Y-170738094D02*
X169043152Y-170785713D01*
X169043152Y-170785713D02*
X168900295Y-170880951D01*
X168900295Y-170880951D02*
X168805057Y-170928570D01*
X168805057Y-170928570D02*
X168662200Y-170976189D01*
X168662200Y-170976189D02*
X168424104Y-171023808D01*
X168424104Y-171023808D02*
X168233628Y-171023808D01*
X168233628Y-171023808D02*
X167995533Y-170976189D01*
X167995533Y-170976189D02*
X167852676Y-170928570D01*
X167852676Y-170928570D02*
X167757438Y-170880951D01*
X167757438Y-170880951D02*
X167614580Y-170785713D01*
X167614580Y-170785713D02*
X167566961Y-170738094D01*
X168709819Y-170357141D02*
X167709819Y-170357141D01*
X167709819Y-170357141D02*
X168424104Y-170023808D01*
X168424104Y-170023808D02*
X167709819Y-169690475D01*
X167709819Y-169690475D02*
X168709819Y-169690475D01*
X168709819Y-168833332D02*
X167947914Y-168833332D01*
X168138390Y-169023808D02*
X167947914Y-168833332D01*
X167947914Y-168833332D02*
X168138390Y-168642856D01*
X169090771Y-168071427D02*
X169043152Y-168023808D01*
X169043152Y-168023808D02*
X168900295Y-167928570D01*
X168900295Y-167928570D02*
X168805057Y-167880951D01*
X168805057Y-167880951D02*
X168662200Y-167833332D01*
X168662200Y-167833332D02*
X168424104Y-167785713D01*
X168424104Y-167785713D02*
X168233628Y-167785713D01*
X168233628Y-167785713D02*
X167995533Y-167833332D01*
X167995533Y-167833332D02*
X167852676Y-167880951D01*
X167852676Y-167880951D02*
X167757438Y-167928570D01*
X167757438Y-167928570D02*
X167614580Y-168023808D01*
X167614580Y-168023808D02*
X167566961Y-168071427D01*
%TO.C,S1*%
X168000000Y-150400000D02*
X168000000Y-149800000D01*
X168000000Y-149800000D02*
X172480000Y-149800000D01*
X173000000Y-149220000D02*
X173000000Y-148300000D01*
X173500000Y-147800000D02*
X173000000Y-148300000D01*
X176500000Y-147800000D02*
X173500000Y-147800000D01*
X177000000Y-148300000D02*
X176500000Y-147800000D01*
X173000000Y-149220000D02*
G75*
G02*
X172480000Y-149800000I-549999J-30001D01*
G01*
X168000000Y-154500000D02*
X168000000Y-154000000D01*
X172500000Y-154500000D02*
X168000000Y-154500000D01*
X172500000Y-153800000D02*
X172500000Y-154500000D01*
X176500000Y-152300000D02*
X174200000Y-152300000D01*
X177000000Y-151800000D02*
X176500000Y-152300000D01*
X172500000Y-153780000D02*
G75*
G02*
X174200000Y-152300000I1589999J-109999D01*
G01*
%TO.C,S2*%
X168000000Y-131400000D02*
X168000000Y-130800000D01*
X168000000Y-130800000D02*
X172480000Y-130800000D01*
X173000000Y-130220000D02*
X173000000Y-129300000D01*
X173500000Y-128800000D02*
X173000000Y-129300000D01*
X176500000Y-128800000D02*
X173500000Y-128800000D01*
X177000000Y-129300000D02*
X176500000Y-128800000D01*
X173000000Y-130220000D02*
G75*
G02*
X172480000Y-130800000I-549999J-30001D01*
G01*
X168000000Y-135500000D02*
X168000000Y-135000000D01*
X172500000Y-135500000D02*
X168000000Y-135500000D01*
X172500000Y-134800000D02*
X172500000Y-135500000D01*
X176500000Y-133300000D02*
X174200000Y-133300000D01*
X177000000Y-132800000D02*
X176500000Y-133300000D01*
X172500000Y-134780000D02*
G75*
G02*
X174200000Y-133300000I1589999J-109999D01*
G01*
%TO.C,S3*%
X168000000Y-112400000D02*
X168000000Y-111800000D01*
X168000000Y-111800000D02*
X172480000Y-111800000D01*
X173000000Y-111220000D02*
X173000000Y-110300000D01*
X173500000Y-109800000D02*
X173000000Y-110300000D01*
X176500000Y-109800000D02*
X173500000Y-109800000D01*
X177000000Y-110300000D02*
X176500000Y-109800000D01*
X173000000Y-111220000D02*
G75*
G02*
X172480000Y-111800000I-549999J-30001D01*
G01*
X168000000Y-116500000D02*
X168000000Y-116000000D01*
X172500000Y-116500000D02*
X168000000Y-116500000D01*
X172500000Y-115800000D02*
X172500000Y-116500000D01*
X176500000Y-114300000D02*
X174200000Y-114300000D01*
X177000000Y-113800000D02*
X176500000Y-114300000D01*
X172500000Y-115780000D02*
G75*
G02*
X174200000Y-114300000I1589999J-109999D01*
G01*
%TO.C,S4*%
X187000000Y-145400000D02*
X187000000Y-144800000D01*
X187000000Y-144800000D02*
X191480000Y-144800000D01*
X192000000Y-144220000D02*
X192000000Y-143300000D01*
X192500000Y-142800000D02*
X192000000Y-143300000D01*
X195500000Y-142800000D02*
X192500000Y-142800000D01*
X196000000Y-143300000D02*
X195500000Y-142800000D01*
X192000000Y-144220000D02*
G75*
G02*
X191480000Y-144800000I-549999J-30001D01*
G01*
X187000000Y-149500000D02*
X187000000Y-149000000D01*
X191500000Y-149500000D02*
X187000000Y-149500000D01*
X191500000Y-148800000D02*
X191500000Y-149500000D01*
X195500000Y-147300000D02*
X193200000Y-147300000D01*
X196000000Y-146800000D02*
X195500000Y-147300000D01*
X191500000Y-148780000D02*
G75*
G02*
X193200000Y-147300000I1589999J-109999D01*
G01*
%TO.C,S5*%
X187000000Y-126400000D02*
X187000000Y-125800000D01*
X187000000Y-125800000D02*
X191480000Y-125800000D01*
X192000000Y-125220000D02*
X192000000Y-124300000D01*
X192500000Y-123800000D02*
X192000000Y-124300000D01*
X195500000Y-123800000D02*
X192500000Y-123800000D01*
X196000000Y-124300000D02*
X195500000Y-123800000D01*
X192000000Y-125220000D02*
G75*
G02*
X191480000Y-125800000I-549999J-30001D01*
G01*
X187000000Y-130500000D02*
X187000000Y-130000000D01*
X191500000Y-130500000D02*
X187000000Y-130500000D01*
X191500000Y-129800000D02*
X191500000Y-130500000D01*
X195500000Y-128300000D02*
X193200000Y-128300000D01*
X196000000Y-127800000D02*
X195500000Y-128300000D01*
X191500000Y-129780000D02*
G75*
G02*
X193200000Y-128300000I1589999J-109999D01*
G01*
%TO.C,S6*%
X187000000Y-107400000D02*
X187000000Y-106800000D01*
X187000000Y-106800000D02*
X191480000Y-106800000D01*
X192000000Y-106220000D02*
X192000000Y-105300000D01*
X192500000Y-104800000D02*
X192000000Y-105300000D01*
X195500000Y-104800000D02*
X192500000Y-104800000D01*
X196000000Y-105300000D02*
X195500000Y-104800000D01*
X192000000Y-106220000D02*
G75*
G02*
X191480000Y-106800000I-549999J-30001D01*
G01*
X187000000Y-111500000D02*
X187000000Y-111000000D01*
X191500000Y-111500000D02*
X187000000Y-111500000D01*
X191500000Y-110800000D02*
X191500000Y-111500000D01*
X195500000Y-109300000D02*
X193200000Y-109300000D01*
X196000000Y-108800000D02*
X195500000Y-109300000D01*
X191500000Y-110780000D02*
G75*
G02*
X193200000Y-109300000I1589999J-109999D01*
G01*
%TO.C,S7*%
X206000000Y-142400000D02*
X206000000Y-141800000D01*
X206000000Y-141800000D02*
X210480000Y-141800000D01*
X211000000Y-141220000D02*
X211000000Y-140300000D01*
X211500000Y-139800000D02*
X211000000Y-140300000D01*
X214500000Y-139800000D02*
X211500000Y-139800000D01*
X215000000Y-140300000D02*
X214500000Y-139800000D01*
X211000000Y-141220000D02*
G75*
G02*
X210480000Y-141800000I-549999J-30001D01*
G01*
X206000000Y-146500000D02*
X206000000Y-146000000D01*
X210500000Y-146500000D02*
X206000000Y-146500000D01*
X210500000Y-145800000D02*
X210500000Y-146500000D01*
X214500000Y-144300000D02*
X212200000Y-144300000D01*
X215000000Y-143800000D02*
X214500000Y-144300000D01*
X210500000Y-145780000D02*
G75*
G02*
X212200000Y-144300000I1589999J-109999D01*
G01*
%TO.C,S8*%
X206000000Y-123400000D02*
X206000000Y-122800000D01*
X206000000Y-122800000D02*
X210480000Y-122800000D01*
X211000000Y-122220000D02*
X211000000Y-121300000D01*
X211500000Y-120800000D02*
X211000000Y-121300000D01*
X214500000Y-120800000D02*
X211500000Y-120800000D01*
X215000000Y-121300000D02*
X214500000Y-120800000D01*
X211000000Y-122220000D02*
G75*
G02*
X210480000Y-122800000I-549999J-30001D01*
G01*
X206000000Y-127500000D02*
X206000000Y-127000000D01*
X210500000Y-127500000D02*
X206000000Y-127500000D01*
X210500000Y-126800000D02*
X210500000Y-127500000D01*
X214500000Y-125300000D02*
X212200000Y-125300000D01*
X215000000Y-124800000D02*
X214500000Y-125300000D01*
X210500000Y-126780000D02*
G75*
G02*
X212200000Y-125300000I1589999J-109999D01*
G01*
%TO.C,S9*%
X206000000Y-104400000D02*
X206000000Y-103800000D01*
X206000000Y-103800000D02*
X210480000Y-103800000D01*
X211000000Y-103220000D02*
X211000000Y-102300000D01*
X211500000Y-101800000D02*
X211000000Y-102300000D01*
X214500000Y-101800000D02*
X211500000Y-101800000D01*
X215000000Y-102300000D02*
X214500000Y-101800000D01*
X211000000Y-103220000D02*
G75*
G02*
X210480000Y-103800000I-549999J-30001D01*
G01*
X206000000Y-108500000D02*
X206000000Y-108000000D01*
X210500000Y-108500000D02*
X206000000Y-108500000D01*
X210500000Y-107800000D02*
X210500000Y-108500000D01*
X214500000Y-106300000D02*
X212200000Y-106300000D01*
X215000000Y-105800000D02*
X214500000Y-106300000D01*
X210500000Y-107780000D02*
G75*
G02*
X212200000Y-106300000I1589999J-109999D01*
G01*
%TO.C,S10*%
X225000000Y-169400000D02*
X225000000Y-168800000D01*
X225000000Y-168800000D02*
X229480000Y-168800000D01*
X230000000Y-168220000D02*
X230000000Y-167300000D01*
X230500000Y-166800000D02*
X230000000Y-167300000D01*
X233500000Y-166800000D02*
X230500000Y-166800000D01*
X234000000Y-167300000D02*
X233500000Y-166800000D01*
X230000000Y-168220000D02*
G75*
G02*
X229480000Y-168800000I-549999J-30001D01*
G01*
X225000000Y-173500000D02*
X225000000Y-173000000D01*
X229500000Y-173500000D02*
X225000000Y-173500000D01*
X229500000Y-172800000D02*
X229500000Y-173500000D01*
X233500000Y-171300000D02*
X231200000Y-171300000D01*
X234000000Y-170800000D02*
X233500000Y-171300000D01*
X229500000Y-172780000D02*
G75*
G02*
X231200000Y-171300000I1589999J-109999D01*
G01*
%TO.C,S11*%
X225000000Y-150400000D02*
X225000000Y-149800000D01*
X225000000Y-149800000D02*
X229480000Y-149800000D01*
X230000000Y-149220000D02*
X230000000Y-148300000D01*
X230500000Y-147800000D02*
X230000000Y-148300000D01*
X233500000Y-147800000D02*
X230500000Y-147800000D01*
X234000000Y-148300000D02*
X233500000Y-147800000D01*
X230000000Y-149220000D02*
G75*
G02*
X229480000Y-149800000I-549999J-30001D01*
G01*
X225000000Y-154500000D02*
X225000000Y-154000000D01*
X229500000Y-154500000D02*
X225000000Y-154500000D01*
X229500000Y-153800000D02*
X229500000Y-154500000D01*
X233500000Y-152300000D02*
X231200000Y-152300000D01*
X234000000Y-151800000D02*
X233500000Y-152300000D01*
X229500000Y-153780000D02*
G75*
G02*
X231200000Y-152300000I1589999J-109999D01*
G01*
%TO.C,S12*%
X225000000Y-131400000D02*
X225000000Y-130800000D01*
X225000000Y-130800000D02*
X229480000Y-130800000D01*
X230000000Y-130220000D02*
X230000000Y-129300000D01*
X230500000Y-128800000D02*
X230000000Y-129300000D01*
X233500000Y-128800000D02*
X230500000Y-128800000D01*
X234000000Y-129300000D02*
X233500000Y-128800000D01*
X230000000Y-130220000D02*
G75*
G02*
X229480000Y-130800000I-549999J-30001D01*
G01*
X225000000Y-135500000D02*
X225000000Y-135000000D01*
X229500000Y-135500000D02*
X225000000Y-135500000D01*
X229500000Y-134800000D02*
X229500000Y-135500000D01*
X233500000Y-133300000D02*
X231200000Y-133300000D01*
X234000000Y-132800000D02*
X233500000Y-133300000D01*
X229500000Y-134780000D02*
G75*
G02*
X231200000Y-133300000I1589999J-109999D01*
G01*
%TO.C,S13*%
X225000000Y-112400000D02*
X225000000Y-111800000D01*
X225000000Y-111800000D02*
X229480000Y-111800000D01*
X230000000Y-111220000D02*
X230000000Y-110300000D01*
X230500000Y-109800000D02*
X230000000Y-110300000D01*
X233500000Y-109800000D02*
X230500000Y-109800000D01*
X234000000Y-110300000D02*
X233500000Y-109800000D01*
X230000000Y-111220000D02*
G75*
G02*
X229480000Y-111800000I-549999J-30001D01*
G01*
X225000000Y-116500000D02*
X225000000Y-116000000D01*
X229500000Y-116500000D02*
X225000000Y-116500000D01*
X229500000Y-115800000D02*
X229500000Y-116500000D01*
X233500000Y-114300000D02*
X231200000Y-114300000D01*
X234000000Y-113800000D02*
X233500000Y-114300000D01*
X229500000Y-115780000D02*
G75*
G02*
X231200000Y-114300000I1589999J-109999D01*
G01*
%TO.C,S14*%
X244000000Y-171400000D02*
X244000000Y-170800000D01*
X244000000Y-170800000D02*
X248480000Y-170800000D01*
X249000000Y-170220000D02*
X249000000Y-169300000D01*
X249500000Y-168800000D02*
X249000000Y-169300000D01*
X252500000Y-168800000D02*
X249500000Y-168800000D01*
X253000000Y-169300000D02*
X252500000Y-168800000D01*
X249000000Y-170220000D02*
G75*
G02*
X248480000Y-170800000I-549999J-30001D01*
G01*
X244000000Y-175500000D02*
X244000000Y-175000000D01*
X248500000Y-175500000D02*
X244000000Y-175500000D01*
X248500000Y-174800000D02*
X248500000Y-175500000D01*
X252500000Y-173300000D02*
X250200000Y-173300000D01*
X253000000Y-172800000D02*
X252500000Y-173300000D01*
X248500000Y-174780000D02*
G75*
G02*
X250200000Y-173300000I1589999J-109999D01*
G01*
%TO.C,S15*%
X244000000Y-152400000D02*
X244000000Y-151800000D01*
X244000000Y-151800000D02*
X248480000Y-151800000D01*
X249000000Y-151220000D02*
X249000000Y-150300000D01*
X249500000Y-149800000D02*
X249000000Y-150300000D01*
X252500000Y-149800000D02*
X249500000Y-149800000D01*
X253000000Y-150300000D02*
X252500000Y-149800000D01*
X249000000Y-151220000D02*
G75*
G02*
X248480000Y-151800000I-549999J-30001D01*
G01*
X244000000Y-156500000D02*
X244000000Y-156000000D01*
X248500000Y-156500000D02*
X244000000Y-156500000D01*
X248500000Y-155800000D02*
X248500000Y-156500000D01*
X252500000Y-154300000D02*
X250200000Y-154300000D01*
X253000000Y-153800000D02*
X252500000Y-154300000D01*
X248500000Y-155780000D02*
G75*
G02*
X250200000Y-154300000I1589999J-109999D01*
G01*
%TO.C,S16*%
X244000000Y-133400000D02*
X244000000Y-132800000D01*
X244000000Y-132800000D02*
X248480000Y-132800000D01*
X249000000Y-132220000D02*
X249000000Y-131300000D01*
X249500000Y-130800000D02*
X249000000Y-131300000D01*
X252500000Y-130800000D02*
X249500000Y-130800000D01*
X253000000Y-131300000D02*
X252500000Y-130800000D01*
X249000000Y-132220000D02*
G75*
G02*
X248480000Y-132800000I-549999J-30001D01*
G01*
X244000000Y-137500000D02*
X244000000Y-137000000D01*
X248500000Y-137500000D02*
X244000000Y-137500000D01*
X248500000Y-136800000D02*
X248500000Y-137500000D01*
X252500000Y-135300000D02*
X250200000Y-135300000D01*
X253000000Y-134800000D02*
X252500000Y-135300000D01*
X248500000Y-136780000D02*
G75*
G02*
X250200000Y-135300000I1589999J-109999D01*
G01*
%TO.C,S17*%
X244000000Y-114400000D02*
X244000000Y-113800000D01*
X244000000Y-113800000D02*
X248480000Y-113800000D01*
X249000000Y-113220000D02*
X249000000Y-112300000D01*
X249500000Y-111800000D02*
X249000000Y-112300000D01*
X252500000Y-111800000D02*
X249500000Y-111800000D01*
X253000000Y-112300000D02*
X252500000Y-111800000D01*
X249000000Y-113220000D02*
G75*
G02*
X248480000Y-113800000I-549999J-30001D01*
G01*
X244000000Y-118500000D02*
X244000000Y-118000000D01*
X248500000Y-118500000D02*
X244000000Y-118500000D01*
X248500000Y-117800000D02*
X248500000Y-118500000D01*
X252500000Y-116300000D02*
X250200000Y-116300000D01*
X253000000Y-115800000D02*
X252500000Y-116300000D01*
X248500000Y-117780000D02*
G75*
G02*
X250200000Y-116300000I1589999J-109999D01*
G01*
D12*
%TO.C,D1*%
X175250000Y-162080000D02*
X175750000Y-162080000D01*
X175250000Y-162480000D02*
X174650000Y-162080000D01*
X175250000Y-161680000D02*
X175250000Y-162480000D01*
X174650000Y-162080000D02*
X175250000Y-161680000D01*
X174650000Y-162080000D02*
X174650000Y-162630000D01*
X174650000Y-162080000D02*
X174650000Y-161530000D01*
X174250000Y-162080000D02*
X174650000Y-162080000D01*
%TO.C,D2*%
X175250000Y-143080000D02*
X175750000Y-143080000D01*
X175250000Y-143480000D02*
X174650000Y-143080000D01*
X175250000Y-142680000D02*
X175250000Y-143480000D01*
X174650000Y-143080000D02*
X175250000Y-142680000D01*
X174650000Y-143080000D02*
X174650000Y-143630000D01*
X174650000Y-143080000D02*
X174650000Y-142530000D01*
X174250000Y-143080000D02*
X174650000Y-143080000D01*
%TO.C,D3*%
X175250000Y-124080000D02*
X175750000Y-124080000D01*
X175250000Y-124480000D02*
X174650000Y-124080000D01*
X175250000Y-123680000D02*
X175250000Y-124480000D01*
X174650000Y-124080000D02*
X175250000Y-123680000D01*
X174650000Y-124080000D02*
X174650000Y-124630000D01*
X174650000Y-124080000D02*
X174650000Y-123530000D01*
X174250000Y-124080000D02*
X174650000Y-124080000D01*
%TO.C,D4*%
X194250000Y-157080000D02*
X194750000Y-157080000D01*
X194250000Y-157480000D02*
X193650000Y-157080000D01*
X194250000Y-156680000D02*
X194250000Y-157480000D01*
X193650000Y-157080000D02*
X194250000Y-156680000D01*
X193650000Y-157080000D02*
X193650000Y-157630000D01*
X193650000Y-157080000D02*
X193650000Y-156530000D01*
X193250000Y-157080000D02*
X193650000Y-157080000D01*
%TO.C,D5*%
X194250000Y-138080000D02*
X194750000Y-138080000D01*
X194250000Y-138480000D02*
X193650000Y-138080000D01*
X194250000Y-137680000D02*
X194250000Y-138480000D01*
X193650000Y-138080000D02*
X194250000Y-137680000D01*
X193650000Y-138080000D02*
X193650000Y-138630000D01*
X193650000Y-138080000D02*
X193650000Y-137530000D01*
X193250000Y-138080000D02*
X193650000Y-138080000D01*
%TO.C,D6*%
X194250000Y-119080000D02*
X194750000Y-119080000D01*
X194250000Y-119480000D02*
X193650000Y-119080000D01*
X194250000Y-118680000D02*
X194250000Y-119480000D01*
X193650000Y-119080000D02*
X194250000Y-118680000D01*
X193650000Y-119080000D02*
X193650000Y-119630000D01*
X193650000Y-119080000D02*
X193650000Y-118530000D01*
X193250000Y-119080000D02*
X193650000Y-119080000D01*
%TO.C,D7*%
X213250000Y-154080000D02*
X213750000Y-154080000D01*
X213250000Y-154480000D02*
X212650000Y-154080000D01*
X213250000Y-153680000D02*
X213250000Y-154480000D01*
X212650000Y-154080000D02*
X213250000Y-153680000D01*
X212650000Y-154080000D02*
X212650000Y-154630000D01*
X212650000Y-154080000D02*
X212650000Y-153530000D01*
X212250000Y-154080000D02*
X212650000Y-154080000D01*
%TO.C,D8*%
X213250000Y-135080000D02*
X213750000Y-135080000D01*
X213250000Y-135480000D02*
X212650000Y-135080000D01*
X213250000Y-134680000D02*
X213250000Y-135480000D01*
X212650000Y-135080000D02*
X213250000Y-134680000D01*
X212650000Y-135080000D02*
X212650000Y-135630000D01*
X212650000Y-135080000D02*
X212650000Y-134530000D01*
X212250000Y-135080000D02*
X212650000Y-135080000D01*
%TO.C,D9*%
X213250000Y-116080000D02*
X213750000Y-116080000D01*
X213250000Y-116480000D02*
X212650000Y-116080000D01*
X213250000Y-115680000D02*
X213250000Y-116480000D01*
X212650000Y-116080000D02*
X213250000Y-115680000D01*
X212650000Y-116080000D02*
X212650000Y-116630000D01*
X212650000Y-116080000D02*
X212650000Y-115530000D01*
X212250000Y-116080000D02*
X212650000Y-116080000D01*
%TO.C,D10*%
X232250000Y-181080000D02*
X232750000Y-181080000D01*
X232250000Y-181480000D02*
X231650000Y-181080000D01*
X232250000Y-180680000D02*
X232250000Y-181480000D01*
X231650000Y-181080000D02*
X232250000Y-180680000D01*
X231650000Y-181080000D02*
X231650000Y-181630000D01*
X231650000Y-181080000D02*
X231650000Y-180530000D01*
X231250000Y-181080000D02*
X231650000Y-181080000D01*
%TO.C,D11*%
X232250000Y-162080000D02*
X232750000Y-162080000D01*
X232250000Y-162480000D02*
X231650000Y-162080000D01*
X232250000Y-161680000D02*
X232250000Y-162480000D01*
X231650000Y-162080000D02*
X232250000Y-161680000D01*
X231650000Y-162080000D02*
X231650000Y-162630000D01*
X231650000Y-162080000D02*
X231650000Y-161530000D01*
X231250000Y-162080000D02*
X231650000Y-162080000D01*
%TO.C,D12*%
X232250000Y-143080000D02*
X232750000Y-143080000D01*
X232250000Y-143480000D02*
X231650000Y-143080000D01*
X232250000Y-142680000D02*
X232250000Y-143480000D01*
X231650000Y-143080000D02*
X232250000Y-142680000D01*
X231650000Y-143080000D02*
X231650000Y-143630000D01*
X231650000Y-143080000D02*
X231650000Y-142530000D01*
X231250000Y-143080000D02*
X231650000Y-143080000D01*
%TO.C,D13*%
X232250000Y-124080000D02*
X232750000Y-124080000D01*
X232250000Y-124480000D02*
X231650000Y-124080000D01*
X232250000Y-123680000D02*
X232250000Y-124480000D01*
X231650000Y-124080000D02*
X232250000Y-123680000D01*
X231650000Y-124080000D02*
X231650000Y-124630000D01*
X231650000Y-124080000D02*
X231650000Y-123530000D01*
X231250000Y-124080000D02*
X231650000Y-124080000D01*
%TO.C,D14*%
X251250000Y-183080000D02*
X251750000Y-183080000D01*
X251250000Y-183480000D02*
X250650000Y-183080000D01*
X251250000Y-182680000D02*
X251250000Y-183480000D01*
X250650000Y-183080000D02*
X251250000Y-182680000D01*
X250650000Y-183080000D02*
X250650000Y-183630000D01*
X250650000Y-183080000D02*
X250650000Y-182530000D01*
X250250000Y-183080000D02*
X250650000Y-183080000D01*
%TO.C,D15*%
X251250000Y-164080000D02*
X251750000Y-164080000D01*
X251250000Y-164480000D02*
X250650000Y-164080000D01*
X251250000Y-163680000D02*
X251250000Y-164480000D01*
X250650000Y-164080000D02*
X251250000Y-163680000D01*
X250650000Y-164080000D02*
X250650000Y-164630000D01*
X250650000Y-164080000D02*
X250650000Y-163530000D01*
X250250000Y-164080000D02*
X250650000Y-164080000D01*
%TO.C,D16*%
X251250000Y-145080000D02*
X251750000Y-145080000D01*
X251250000Y-145480000D02*
X250650000Y-145080000D01*
X251250000Y-144680000D02*
X251250000Y-145480000D01*
X250650000Y-145080000D02*
X251250000Y-144680000D01*
X250650000Y-145080000D02*
X250650000Y-145630000D01*
X250650000Y-145080000D02*
X250650000Y-144530000D01*
X250250000Y-145080000D02*
X250650000Y-145080000D01*
%TO.C,D17*%
X251250000Y-126080000D02*
X251750000Y-126080000D01*
X251250000Y-126480000D02*
X250650000Y-126080000D01*
X251250000Y-125680000D02*
X251250000Y-126480000D01*
X250650000Y-126080000D02*
X251250000Y-125680000D01*
X250650000Y-126080000D02*
X250650000Y-126630000D01*
X250650000Y-126080000D02*
X250650000Y-125530000D01*
X250250000Y-126080000D02*
X250650000Y-126080000D01*
D11*
%TO.C,RST1*%
X215000000Y-185750000D02*
X221000000Y-185750000D01*
X221000000Y-185750000D02*
X221000000Y-185500000D01*
X215000000Y-185750000D02*
X215000000Y-185500000D01*
X215000000Y-182250000D02*
X215000000Y-182500000D01*
X215000000Y-182250000D02*
X221000000Y-182250000D01*
X221000000Y-182250000D02*
X221000000Y-182500000D01*
D13*
%TO.C,PWR1*%
X210450000Y-184415000D02*
X210450000Y-183625000D01*
X203550000Y-183625000D02*
X203550000Y-184415000D01*
X205400000Y-182575000D02*
X207100000Y-182575000D01*
X204150000Y-185425000D02*
X209850000Y-185425000D01*
X208400000Y-182575000D02*
X208600000Y-182575000D01*
%TO.C,CONN1*%
X216500000Y-164850000D02*
X215500000Y-164850000D01*
X217500000Y-164850000D02*
X218500000Y-164850000D01*
X218000000Y-165350000D02*
X218000000Y-164350000D01*
X217340000Y-163130000D02*
X217640000Y-163630000D01*
X217640000Y-163630000D02*
X218140000Y-163630000D01*
X215840000Y-158910000D02*
X215840000Y-158700000D01*
X214790000Y-158910000D02*
X215840000Y-158910000D01*
X214790000Y-162240000D02*
X214790000Y-158910000D01*
X219210000Y-158910000D02*
X218160000Y-158910000D01*
X219210000Y-162240000D02*
X219210000Y-158910000D01*
X216360000Y-163630000D02*
X216660000Y-163130000D01*
X215860000Y-163630000D02*
X216360000Y-163630000D01*
X216660000Y-163130000D02*
X217340000Y-163130000D01*
%TO.C,MCU1*%
X169470000Y-170210000D02*
X169470000Y-167550000D01*
X169470000Y-170210000D02*
X200070000Y-170210000D01*
X200070000Y-170210000D02*
X200070000Y-167550000D01*
X169470000Y-182790000D02*
X200070000Y-182790000D01*
X169470000Y-167550000D02*
X200070000Y-167550000D01*
X169470000Y-185450000D02*
X169470000Y-182790000D01*
X169470000Y-185450000D02*
X200070000Y-185450000D01*
X200070000Y-185450000D02*
X200070000Y-182790000D01*
X172070000Y-170210000D02*
X172070000Y-167550000D01*
%TD*%
M02*
