M48
; DRILL file {KiCad 9.0.1} date 2025-04-20T03:08:30+0800
; FORMAT={-:-/ absolute / metric / decimal}
; #@! TF.CreationDate,2025-04-20T03:08:30+08:00
; #@! TF.GenerationSoftware,Kicad,Pcbnew,9.0.1
; #@! TF.FileFunction,Plated,1,2,PTH
FMAT,2
METRIC
; #@! TA.AperFunction,Plated,PTH,ViaDrill
T1C0.300
; #@! TA.AperFunction,Plated,PTH,ComponentDrill
T2C0.400
; #@! TA.AperFunction,Plated,PTH,ComponentDrill
T3C1.000
%
G90
G05
T1
X172.15Y-123.32
X172.15Y-142.32
X172.15Y-161.32
X175.0Y-114.125
X175.0Y-114.925
X175.0Y-133.125
X175.0Y-133.925
X175.0Y-152.125
X175.0Y-152.925
X177.85Y-123.32
X177.85Y-142.32
X177.85Y-161.32
X191.15Y-118.32
X191.15Y-137.32
X191.15Y-156.32
X194.0Y-109.125
X194.0Y-109.925
X194.0Y-128.125
X194.0Y-128.925
X194.0Y-147.125
X194.0Y-147.925
X196.85Y-118.32
X196.85Y-137.32
X196.85Y-156.32
X206.75Y-183.265
X208.25Y-183.265
X210.15Y-115.32
X210.15Y-134.32
X210.15Y-153.32
X213.0Y-106.125
X213.0Y-106.925
X213.0Y-125.125
X213.0Y-125.925
X213.0Y-144.125
X213.0Y-144.925
X213.875Y-183.65
X213.875Y-185.35
X215.85Y-115.32
X215.85Y-134.32
X215.85Y-153.32
X219.125Y-183.65
X219.125Y-185.35
X219.637Y-162.338
X220.375Y-164.1
X229.15Y-123.32
X229.15Y-142.32
X229.15Y-161.32
X229.15Y-180.32
X232.0Y-114.125
X232.0Y-114.925
X232.0Y-133.125
X232.0Y-133.925
X232.0Y-152.125
X232.0Y-152.925
X232.0Y-171.125
X232.0Y-171.925
X234.85Y-123.32
X234.85Y-142.32
X234.85Y-161.32
X234.85Y-180.32
X248.15Y-125.32
X248.15Y-144.32
X248.15Y-163.32
X248.15Y-182.32
X251.0Y-116.125
X251.0Y-116.925
X251.0Y-135.125
X251.0Y-135.925
X251.0Y-154.125
X251.0Y-154.925
X251.0Y-173.125
X251.0Y-173.925
X253.85Y-125.32
X253.85Y-144.32
X253.85Y-163.32
X253.85Y-182.32
T2
X169.8Y-173.6
X169.8Y-180.4
X172.34Y-173.6
X172.34Y-180.4
X174.88Y-173.6
X174.88Y-180.4
X177.42Y-173.6
X177.42Y-180.4
X179.96Y-173.6
X179.96Y-180.4
X182.5Y-173.6
X182.5Y-180.4
X185.04Y-173.6
X185.04Y-180.4
X187.58Y-173.6
X187.58Y-180.4
X190.12Y-173.6
X190.12Y-180.4
X192.66Y-173.6
X192.66Y-180.4
X195.2Y-173.6
X195.2Y-180.4
X197.74Y-173.6
X197.74Y-180.4
T3
X169.8Y-169.38
X169.8Y-184.62
X172.34Y-169.38
X172.34Y-184.62
X174.88Y-169.38
X174.88Y-184.62
X177.42Y-169.38
X177.42Y-184.62
X179.96Y-169.38
X179.96Y-184.62
X182.5Y-169.38
X182.5Y-184.62
X185.04Y-169.38
X185.04Y-184.62
X187.58Y-169.38
X187.58Y-184.62
X190.12Y-169.38
X190.12Y-184.62
X192.66Y-169.38
X192.66Y-184.62
X195.2Y-169.38
X195.2Y-184.62
X197.74Y-169.38
X197.74Y-184.62
M30
