%TF.GenerationSoftware,KiCad,Pcbnew,9.0.1*%
%TF.CreationDate,2025-04-20T03:08:27+08:00*%
%TF.ProjectId,board,626f6172-642e-46b6-9963-61645f706362,v1.0.0*%
%TF.SameCoordinates,Original*%
%TF.FileFunction,Profile,NP*%
%FSLAX46Y46*%
G04 Gerber Fmt 4.6, Leading zero omitted, Abs format (unit mm)*
G04 Created by KiCad (PCBNEW 9.0.1) date 2025-04-20 03:08:27*
%MOMM*%
%LPD*%
G01*
G04 APERTURE LIST*
%TA.AperFunction,Profile*%
%ADD10C,0.150000*%
%TD*%
G04 APERTURE END LIST*
D10*
X165250000Y-185950000D02*
X165250000Y-109050000D01*
X183450000Y-108250000D02*
X166050000Y-108250000D01*
X202450000Y-103250000D02*
X185050000Y-103250000D01*
X184250000Y-104050000D02*
X184250000Y-107450000D01*
X222750000Y-107450000D02*
X222750000Y-101050000D01*
X221950000Y-100250000D02*
X204050000Y-100250000D01*
X203250000Y-101050000D02*
X203250000Y-102450000D01*
X241750000Y-109450000D02*
X241750000Y-109050000D01*
X240950000Y-108250000D02*
X223550000Y-108250000D01*
X166050000Y-186750000D02*
X259950000Y-186750000D01*
X260750000Y-185950000D02*
X260750000Y-111050000D01*
X259950000Y-110250000D02*
X242550000Y-110250000D01*
X165250000Y-109050000D02*
G75*
G02*
X166050000Y-108250000I800000J0D01*
G01*
X184250000Y-107450000D02*
G75*
G02*
X183450000Y-108250000I-800000J0D01*
G01*
X184250000Y-104050000D02*
G75*
G02*
X185050000Y-103250000I800000J0D01*
G01*
X203250000Y-102450000D02*
G75*
G02*
X202450000Y-103250000I-800000J0D01*
G01*
X203250000Y-101050000D02*
G75*
G02*
X204050000Y-100250000I800000J0D01*
G01*
X221950000Y-100250000D02*
G75*
G02*
X222750000Y-101050000I0J-800000D01*
G01*
X223550000Y-108250000D02*
G75*
G02*
X222750000Y-107450000I0J800000D01*
G01*
X240950000Y-108250000D02*
G75*
G02*
X241750000Y-109050000I0J-800000D01*
G01*
X242550000Y-110250000D02*
G75*
G02*
X241750000Y-109450000I0J800000D01*
G01*
X259950000Y-110250000D02*
G75*
G02*
X260750000Y-111050000I0J-800000D01*
G01*
X260750000Y-185950000D02*
G75*
G02*
X259950000Y-186750000I-800000J0D01*
G01*
X166050000Y-186750000D02*
G75*
G02*
X165250000Y-185950000I0J800000D01*
G01*
M02*
