%TF.GenerationSoftware,KiCad,Pcbnew,9.0.1*%
%TF.CreationDate,2025-04-20T03:08:27+08:00*%
%TF.ProjectId,board,626f6172-642e-46b6-9963-61645f706362,v1.0.0*%
%TF.SameCoordinates,Original*%
%TF.FileFunction,Legend,Bot*%
%TF.FilePolarity,Positive*%
%FSLAX46Y46*%
G04 Gerber Fmt 4.6, Leading zero omitted, Abs format (unit mm)*
G04 Created by KiCad (PCBNEW 9.0.1) date 2025-04-20 03:08:27*
%MOMM*%
%LPD*%
G01*
G04 APERTURE LIST*
%ADD10C,0.400000*%
%ADD11C,0.150000*%
%ADD12C,0.100000*%
%ADD13C,0.120000*%
G04 APERTURE END LIST*
D10*
X218690475Y-177792295D02*
X218690475Y-172792295D01*
X218690475Y-172792295D02*
X217857142Y-176363723D01*
X217857142Y-176363723D02*
X217023809Y-172792295D01*
X217023809Y-172792295D02*
X217023809Y-177792295D01*
X215833332Y-177792295D02*
X215833332Y-172792295D01*
X214999999Y-172792295D02*
X213571428Y-172792295D01*
X214285714Y-177792295D02*
X214285714Y-172792295D01*
X212261904Y-172792295D02*
X211785713Y-172792295D01*
X211785713Y-172792295D02*
X211547618Y-173030390D01*
X211547618Y-173030390D02*
X211309523Y-173506580D01*
X211309523Y-173506580D02*
X211190475Y-174458961D01*
X211190475Y-174458961D02*
X211190475Y-176125628D01*
X211190475Y-176125628D02*
X211309523Y-177078009D01*
X211309523Y-177078009D02*
X211547618Y-177554200D01*
X211547618Y-177554200D02*
X211785713Y-177792295D01*
X211785713Y-177792295D02*
X212261904Y-177792295D01*
X212261904Y-177792295D02*
X212499999Y-177554200D01*
X212499999Y-177554200D02*
X212738094Y-177078009D01*
X212738094Y-177078009D02*
X212857142Y-176125628D01*
X212857142Y-176125628D02*
X212857142Y-174458961D01*
X212857142Y-174458961D02*
X212738094Y-173506580D01*
X212738094Y-173506580D02*
X212499999Y-173030390D01*
X212499999Y-173030390D02*
X212261904Y-172792295D01*
X210238094Y-177554200D02*
X209880951Y-177792295D01*
X209880951Y-177792295D02*
X209285713Y-177792295D01*
X209285713Y-177792295D02*
X209047618Y-177554200D01*
X209047618Y-177554200D02*
X208928570Y-177316104D01*
X208928570Y-177316104D02*
X208809523Y-176839914D01*
X208809523Y-176839914D02*
X208809523Y-176363723D01*
X208809523Y-176363723D02*
X208928570Y-175887533D01*
X208928570Y-175887533D02*
X209047618Y-175649438D01*
X209047618Y-175649438D02*
X209285713Y-175411342D01*
X209285713Y-175411342D02*
X209761904Y-175173247D01*
X209761904Y-175173247D02*
X209999999Y-174935152D01*
X209999999Y-174935152D02*
X210119046Y-174697057D01*
X210119046Y-174697057D02*
X210238094Y-174220866D01*
X210238094Y-174220866D02*
X210238094Y-173744676D01*
X210238094Y-173744676D02*
X210119046Y-173268485D01*
X210119046Y-173268485D02*
X209999999Y-173030390D01*
X209999999Y-173030390D02*
X209761904Y-172792295D01*
X209761904Y-172792295D02*
X209166665Y-172792295D01*
X209166665Y-172792295D02*
X208809523Y-173030390D01*
X207738094Y-175887533D02*
X205833333Y-175887533D01*
X204999999Y-172792295D02*
X204166666Y-177792295D01*
X204166666Y-177792295D02*
X203333333Y-172792295D01*
X201428571Y-174458961D02*
X201428571Y-177792295D01*
X202023809Y-172554200D02*
X202619047Y-176125628D01*
X202619047Y-176125628D02*
X201071428Y-176125628D01*
D11*
X170254819Y-178301905D02*
X169254819Y-178301905D01*
X169254819Y-178301905D02*
X169254819Y-178682857D01*
X169254819Y-178682857D02*
X169302438Y-178778095D01*
X169302438Y-178778095D02*
X169350057Y-178825714D01*
X169350057Y-178825714D02*
X169445295Y-178873333D01*
X169445295Y-178873333D02*
X169588152Y-178873333D01*
X169588152Y-178873333D02*
X169683390Y-178825714D01*
X169683390Y-178825714D02*
X169731009Y-178778095D01*
X169731009Y-178778095D02*
X169778628Y-178682857D01*
X169778628Y-178682857D02*
X169778628Y-178301905D01*
X170254819Y-179825714D02*
X170254819Y-179254286D01*
X170254819Y-179540000D02*
X169254819Y-179540000D01*
X169254819Y-179540000D02*
X169397676Y-179444762D01*
X169397676Y-179444762D02*
X169492914Y-179349524D01*
X169492914Y-179349524D02*
X169540533Y-179254286D01*
X170254819Y-174859523D02*
X169778628Y-174526190D01*
X170254819Y-174288095D02*
X169254819Y-174288095D01*
X169254819Y-174288095D02*
X169254819Y-174669047D01*
X169254819Y-174669047D02*
X169302438Y-174764285D01*
X169302438Y-174764285D02*
X169350057Y-174811904D01*
X169350057Y-174811904D02*
X169445295Y-174859523D01*
X169445295Y-174859523D02*
X169588152Y-174859523D01*
X169588152Y-174859523D02*
X169683390Y-174811904D01*
X169683390Y-174811904D02*
X169731009Y-174764285D01*
X169731009Y-174764285D02*
X169778628Y-174669047D01*
X169778628Y-174669047D02*
X169778628Y-174288095D01*
X169969104Y-175240476D02*
X169969104Y-175716666D01*
X170254819Y-175145238D02*
X169254819Y-175478571D01*
X169254819Y-175478571D02*
X170254819Y-175811904D01*
X169254819Y-176050000D02*
X170254819Y-176288095D01*
X170254819Y-176288095D02*
X169540533Y-176478571D01*
X169540533Y-176478571D02*
X170254819Y-176669047D01*
X170254819Y-176669047D02*
X169254819Y-176907143D01*
X172794819Y-178301905D02*
X171794819Y-178301905D01*
X171794819Y-178301905D02*
X171794819Y-178682857D01*
X171794819Y-178682857D02*
X171842438Y-178778095D01*
X171842438Y-178778095D02*
X171890057Y-178825714D01*
X171890057Y-178825714D02*
X171985295Y-178873333D01*
X171985295Y-178873333D02*
X172128152Y-178873333D01*
X172128152Y-178873333D02*
X172223390Y-178825714D01*
X172223390Y-178825714D02*
X172271009Y-178778095D01*
X172271009Y-178778095D02*
X172318628Y-178682857D01*
X172318628Y-178682857D02*
X172318628Y-178301905D01*
X171794819Y-179492381D02*
X171794819Y-179587619D01*
X171794819Y-179587619D02*
X171842438Y-179682857D01*
X171842438Y-179682857D02*
X171890057Y-179730476D01*
X171890057Y-179730476D02*
X171985295Y-179778095D01*
X171985295Y-179778095D02*
X172175771Y-179825714D01*
X172175771Y-179825714D02*
X172413866Y-179825714D01*
X172413866Y-179825714D02*
X172604342Y-179778095D01*
X172604342Y-179778095D02*
X172699580Y-179730476D01*
X172699580Y-179730476D02*
X172747200Y-179682857D01*
X172747200Y-179682857D02*
X172794819Y-179587619D01*
X172794819Y-179587619D02*
X172794819Y-179492381D01*
X172794819Y-179492381D02*
X172747200Y-179397143D01*
X172747200Y-179397143D02*
X172699580Y-179349524D01*
X172699580Y-179349524D02*
X172604342Y-179301905D01*
X172604342Y-179301905D02*
X172413866Y-179254286D01*
X172413866Y-179254286D02*
X172175771Y-179254286D01*
X172175771Y-179254286D02*
X171985295Y-179301905D01*
X171985295Y-179301905D02*
X171890057Y-179349524D01*
X171890057Y-179349524D02*
X171842438Y-179397143D01*
X171842438Y-179397143D02*
X171794819Y-179492381D01*
X171842438Y-174788095D02*
X171794819Y-174692857D01*
X171794819Y-174692857D02*
X171794819Y-174550000D01*
X171794819Y-174550000D02*
X171842438Y-174407143D01*
X171842438Y-174407143D02*
X171937676Y-174311905D01*
X171937676Y-174311905D02*
X172032914Y-174264286D01*
X172032914Y-174264286D02*
X172223390Y-174216667D01*
X172223390Y-174216667D02*
X172366247Y-174216667D01*
X172366247Y-174216667D02*
X172556723Y-174264286D01*
X172556723Y-174264286D02*
X172651961Y-174311905D01*
X172651961Y-174311905D02*
X172747200Y-174407143D01*
X172747200Y-174407143D02*
X172794819Y-174550000D01*
X172794819Y-174550000D02*
X172794819Y-174645238D01*
X172794819Y-174645238D02*
X172747200Y-174788095D01*
X172747200Y-174788095D02*
X172699580Y-174835714D01*
X172699580Y-174835714D02*
X172366247Y-174835714D01*
X172366247Y-174835714D02*
X172366247Y-174645238D01*
X172794819Y-175264286D02*
X171794819Y-175264286D01*
X171794819Y-175264286D02*
X172794819Y-175835714D01*
X172794819Y-175835714D02*
X171794819Y-175835714D01*
X172794819Y-176311905D02*
X171794819Y-176311905D01*
X171794819Y-176311905D02*
X171794819Y-176550000D01*
X171794819Y-176550000D02*
X171842438Y-176692857D01*
X171842438Y-176692857D02*
X171937676Y-176788095D01*
X171937676Y-176788095D02*
X172032914Y-176835714D01*
X172032914Y-176835714D02*
X172223390Y-176883333D01*
X172223390Y-176883333D02*
X172366247Y-176883333D01*
X172366247Y-176883333D02*
X172556723Y-176835714D01*
X172556723Y-176835714D02*
X172651961Y-176788095D01*
X172651961Y-176788095D02*
X172747200Y-176692857D01*
X172747200Y-176692857D02*
X172794819Y-176550000D01*
X172794819Y-176550000D02*
X172794819Y-176311905D01*
X174382438Y-177688095D02*
X174334819Y-177592857D01*
X174334819Y-177592857D02*
X174334819Y-177450000D01*
X174334819Y-177450000D02*
X174382438Y-177307143D01*
X174382438Y-177307143D02*
X174477676Y-177211905D01*
X174477676Y-177211905D02*
X174572914Y-177164286D01*
X174572914Y-177164286D02*
X174763390Y-177116667D01*
X174763390Y-177116667D02*
X174906247Y-177116667D01*
X174906247Y-177116667D02*
X175096723Y-177164286D01*
X175096723Y-177164286D02*
X175191961Y-177211905D01*
X175191961Y-177211905D02*
X175287200Y-177307143D01*
X175287200Y-177307143D02*
X175334819Y-177450000D01*
X175334819Y-177450000D02*
X175334819Y-177545238D01*
X175334819Y-177545238D02*
X175287200Y-177688095D01*
X175287200Y-177688095D02*
X175239580Y-177735714D01*
X175239580Y-177735714D02*
X174906247Y-177735714D01*
X174906247Y-177735714D02*
X174906247Y-177545238D01*
X175334819Y-178164286D02*
X174334819Y-178164286D01*
X174334819Y-178164286D02*
X175334819Y-178735714D01*
X175334819Y-178735714D02*
X174334819Y-178735714D01*
X175334819Y-179211905D02*
X174334819Y-179211905D01*
X174334819Y-179211905D02*
X174334819Y-179450000D01*
X174334819Y-179450000D02*
X174382438Y-179592857D01*
X174382438Y-179592857D02*
X174477676Y-179688095D01*
X174477676Y-179688095D02*
X174572914Y-179735714D01*
X174572914Y-179735714D02*
X174763390Y-179783333D01*
X174763390Y-179783333D02*
X174906247Y-179783333D01*
X174906247Y-179783333D02*
X175096723Y-179735714D01*
X175096723Y-179735714D02*
X175191961Y-179688095D01*
X175191961Y-179688095D02*
X175287200Y-179592857D01*
X175287200Y-179592857D02*
X175334819Y-179450000D01*
X175334819Y-179450000D02*
X175334819Y-179211905D01*
X175334819Y-175002380D02*
X174858628Y-174669047D01*
X175334819Y-174430952D02*
X174334819Y-174430952D01*
X174334819Y-174430952D02*
X174334819Y-174811904D01*
X174334819Y-174811904D02*
X174382438Y-174907142D01*
X174382438Y-174907142D02*
X174430057Y-174954761D01*
X174430057Y-174954761D02*
X174525295Y-175002380D01*
X174525295Y-175002380D02*
X174668152Y-175002380D01*
X174668152Y-175002380D02*
X174763390Y-174954761D01*
X174763390Y-174954761D02*
X174811009Y-174907142D01*
X174811009Y-174907142D02*
X174858628Y-174811904D01*
X174858628Y-174811904D02*
X174858628Y-174430952D01*
X175287200Y-175383333D02*
X175334819Y-175526190D01*
X175334819Y-175526190D02*
X175334819Y-175764285D01*
X175334819Y-175764285D02*
X175287200Y-175859523D01*
X175287200Y-175859523D02*
X175239580Y-175907142D01*
X175239580Y-175907142D02*
X175144342Y-175954761D01*
X175144342Y-175954761D02*
X175049104Y-175954761D01*
X175049104Y-175954761D02*
X174953866Y-175907142D01*
X174953866Y-175907142D02*
X174906247Y-175859523D01*
X174906247Y-175859523D02*
X174858628Y-175764285D01*
X174858628Y-175764285D02*
X174811009Y-175573809D01*
X174811009Y-175573809D02*
X174763390Y-175478571D01*
X174763390Y-175478571D02*
X174715771Y-175430952D01*
X174715771Y-175430952D02*
X174620533Y-175383333D01*
X174620533Y-175383333D02*
X174525295Y-175383333D01*
X174525295Y-175383333D02*
X174430057Y-175430952D01*
X174430057Y-175430952D02*
X174382438Y-175478571D01*
X174382438Y-175478571D02*
X174334819Y-175573809D01*
X174334819Y-175573809D02*
X174334819Y-175811904D01*
X174334819Y-175811904D02*
X174382438Y-175954761D01*
X174334819Y-176240476D02*
X174334819Y-176811904D01*
X175334819Y-176526190D02*
X174334819Y-176526190D01*
X176922438Y-177688095D02*
X176874819Y-177592857D01*
X176874819Y-177592857D02*
X176874819Y-177450000D01*
X176874819Y-177450000D02*
X176922438Y-177307143D01*
X176922438Y-177307143D02*
X177017676Y-177211905D01*
X177017676Y-177211905D02*
X177112914Y-177164286D01*
X177112914Y-177164286D02*
X177303390Y-177116667D01*
X177303390Y-177116667D02*
X177446247Y-177116667D01*
X177446247Y-177116667D02*
X177636723Y-177164286D01*
X177636723Y-177164286D02*
X177731961Y-177211905D01*
X177731961Y-177211905D02*
X177827200Y-177307143D01*
X177827200Y-177307143D02*
X177874819Y-177450000D01*
X177874819Y-177450000D02*
X177874819Y-177545238D01*
X177874819Y-177545238D02*
X177827200Y-177688095D01*
X177827200Y-177688095D02*
X177779580Y-177735714D01*
X177779580Y-177735714D02*
X177446247Y-177735714D01*
X177446247Y-177735714D02*
X177446247Y-177545238D01*
X177874819Y-178164286D02*
X176874819Y-178164286D01*
X176874819Y-178164286D02*
X177874819Y-178735714D01*
X177874819Y-178735714D02*
X176874819Y-178735714D01*
X177874819Y-179211905D02*
X176874819Y-179211905D01*
X176874819Y-179211905D02*
X176874819Y-179450000D01*
X176874819Y-179450000D02*
X176922438Y-179592857D01*
X176922438Y-179592857D02*
X177017676Y-179688095D01*
X177017676Y-179688095D02*
X177112914Y-179735714D01*
X177112914Y-179735714D02*
X177303390Y-179783333D01*
X177303390Y-179783333D02*
X177446247Y-179783333D01*
X177446247Y-179783333D02*
X177636723Y-179735714D01*
X177636723Y-179735714D02*
X177731961Y-179688095D01*
X177731961Y-179688095D02*
X177827200Y-179592857D01*
X177827200Y-179592857D02*
X177874819Y-179450000D01*
X177874819Y-179450000D02*
X177874819Y-179211905D01*
X176874819Y-174216667D02*
X177874819Y-174550000D01*
X177874819Y-174550000D02*
X176874819Y-174883333D01*
X177779580Y-175788095D02*
X177827200Y-175740476D01*
X177827200Y-175740476D02*
X177874819Y-175597619D01*
X177874819Y-175597619D02*
X177874819Y-175502381D01*
X177874819Y-175502381D02*
X177827200Y-175359524D01*
X177827200Y-175359524D02*
X177731961Y-175264286D01*
X177731961Y-175264286D02*
X177636723Y-175216667D01*
X177636723Y-175216667D02*
X177446247Y-175169048D01*
X177446247Y-175169048D02*
X177303390Y-175169048D01*
X177303390Y-175169048D02*
X177112914Y-175216667D01*
X177112914Y-175216667D02*
X177017676Y-175264286D01*
X177017676Y-175264286D02*
X176922438Y-175359524D01*
X176922438Y-175359524D02*
X176874819Y-175502381D01*
X176874819Y-175502381D02*
X176874819Y-175597619D01*
X176874819Y-175597619D02*
X176922438Y-175740476D01*
X176922438Y-175740476D02*
X176970057Y-175788095D01*
X177779580Y-176788095D02*
X177827200Y-176740476D01*
X177827200Y-176740476D02*
X177874819Y-176597619D01*
X177874819Y-176597619D02*
X177874819Y-176502381D01*
X177874819Y-176502381D02*
X177827200Y-176359524D01*
X177827200Y-176359524D02*
X177731961Y-176264286D01*
X177731961Y-176264286D02*
X177636723Y-176216667D01*
X177636723Y-176216667D02*
X177446247Y-176169048D01*
X177446247Y-176169048D02*
X177303390Y-176169048D01*
X177303390Y-176169048D02*
X177112914Y-176216667D01*
X177112914Y-176216667D02*
X177017676Y-176264286D01*
X177017676Y-176264286D02*
X176922438Y-176359524D01*
X176922438Y-176359524D02*
X176874819Y-176502381D01*
X176874819Y-176502381D02*
X176874819Y-176597619D01*
X176874819Y-176597619D02*
X176922438Y-176740476D01*
X176922438Y-176740476D02*
X176970057Y-176788095D01*
X180414819Y-178301905D02*
X179414819Y-178301905D01*
X179414819Y-178301905D02*
X179414819Y-178682857D01*
X179414819Y-178682857D02*
X179462438Y-178778095D01*
X179462438Y-178778095D02*
X179510057Y-178825714D01*
X179510057Y-178825714D02*
X179605295Y-178873333D01*
X179605295Y-178873333D02*
X179748152Y-178873333D01*
X179748152Y-178873333D02*
X179843390Y-178825714D01*
X179843390Y-178825714D02*
X179891009Y-178778095D01*
X179891009Y-178778095D02*
X179938628Y-178682857D01*
X179938628Y-178682857D02*
X179938628Y-178301905D01*
X179510057Y-179254286D02*
X179462438Y-179301905D01*
X179462438Y-179301905D02*
X179414819Y-179397143D01*
X179414819Y-179397143D02*
X179414819Y-179635238D01*
X179414819Y-179635238D02*
X179462438Y-179730476D01*
X179462438Y-179730476D02*
X179510057Y-179778095D01*
X179510057Y-179778095D02*
X179605295Y-179825714D01*
X179605295Y-179825714D02*
X179700533Y-179825714D01*
X179700533Y-179825714D02*
X179843390Y-179778095D01*
X179843390Y-179778095D02*
X180414819Y-179206667D01*
X180414819Y-179206667D02*
X180414819Y-179825714D01*
X180414819Y-174335714D02*
X179414819Y-174335714D01*
X179414819Y-174335714D02*
X179414819Y-174716666D01*
X179414819Y-174716666D02*
X179462438Y-174811904D01*
X179462438Y-174811904D02*
X179510057Y-174859523D01*
X179510057Y-174859523D02*
X179605295Y-174907142D01*
X179605295Y-174907142D02*
X179748152Y-174907142D01*
X179748152Y-174907142D02*
X179843390Y-174859523D01*
X179843390Y-174859523D02*
X179891009Y-174811904D01*
X179891009Y-174811904D02*
X179938628Y-174716666D01*
X179938628Y-174716666D02*
X179938628Y-174335714D01*
X179510057Y-175288095D02*
X179462438Y-175335714D01*
X179462438Y-175335714D02*
X179414819Y-175430952D01*
X179414819Y-175430952D02*
X179414819Y-175669047D01*
X179414819Y-175669047D02*
X179462438Y-175764285D01*
X179462438Y-175764285D02*
X179510057Y-175811904D01*
X179510057Y-175811904D02*
X179605295Y-175859523D01*
X179605295Y-175859523D02*
X179700533Y-175859523D01*
X179700533Y-175859523D02*
X179843390Y-175811904D01*
X179843390Y-175811904D02*
X180414819Y-175240476D01*
X180414819Y-175240476D02*
X180414819Y-175859523D01*
X180414819Y-176811904D02*
X180414819Y-176240476D01*
X180414819Y-176526190D02*
X179414819Y-176526190D01*
X179414819Y-176526190D02*
X179557676Y-176430952D01*
X179557676Y-176430952D02*
X179652914Y-176335714D01*
X179652914Y-176335714D02*
X179700533Y-176240476D01*
X182954819Y-178301905D02*
X181954819Y-178301905D01*
X181954819Y-178301905D02*
X181954819Y-178682857D01*
X181954819Y-178682857D02*
X182002438Y-178778095D01*
X182002438Y-178778095D02*
X182050057Y-178825714D01*
X182050057Y-178825714D02*
X182145295Y-178873333D01*
X182145295Y-178873333D02*
X182288152Y-178873333D01*
X182288152Y-178873333D02*
X182383390Y-178825714D01*
X182383390Y-178825714D02*
X182431009Y-178778095D01*
X182431009Y-178778095D02*
X182478628Y-178682857D01*
X182478628Y-178682857D02*
X182478628Y-178301905D01*
X181954819Y-179206667D02*
X181954819Y-179825714D01*
X181954819Y-179825714D02*
X182335771Y-179492381D01*
X182335771Y-179492381D02*
X182335771Y-179635238D01*
X182335771Y-179635238D02*
X182383390Y-179730476D01*
X182383390Y-179730476D02*
X182431009Y-179778095D01*
X182431009Y-179778095D02*
X182526247Y-179825714D01*
X182526247Y-179825714D02*
X182764342Y-179825714D01*
X182764342Y-179825714D02*
X182859580Y-179778095D01*
X182859580Y-179778095D02*
X182907200Y-179730476D01*
X182907200Y-179730476D02*
X182954819Y-179635238D01*
X182954819Y-179635238D02*
X182954819Y-179349524D01*
X182954819Y-179349524D02*
X182907200Y-179254286D01*
X182907200Y-179254286D02*
X182859580Y-179206667D01*
X182954819Y-174335714D02*
X181954819Y-174335714D01*
X181954819Y-174335714D02*
X181954819Y-174716666D01*
X181954819Y-174716666D02*
X182002438Y-174811904D01*
X182002438Y-174811904D02*
X182050057Y-174859523D01*
X182050057Y-174859523D02*
X182145295Y-174907142D01*
X182145295Y-174907142D02*
X182288152Y-174907142D01*
X182288152Y-174907142D02*
X182383390Y-174859523D01*
X182383390Y-174859523D02*
X182431009Y-174811904D01*
X182431009Y-174811904D02*
X182478628Y-174716666D01*
X182478628Y-174716666D02*
X182478628Y-174335714D01*
X182050057Y-175288095D02*
X182002438Y-175335714D01*
X182002438Y-175335714D02*
X181954819Y-175430952D01*
X181954819Y-175430952D02*
X181954819Y-175669047D01*
X181954819Y-175669047D02*
X182002438Y-175764285D01*
X182002438Y-175764285D02*
X182050057Y-175811904D01*
X182050057Y-175811904D02*
X182145295Y-175859523D01*
X182145295Y-175859523D02*
X182240533Y-175859523D01*
X182240533Y-175859523D02*
X182383390Y-175811904D01*
X182383390Y-175811904D02*
X182954819Y-175240476D01*
X182954819Y-175240476D02*
X182954819Y-175859523D01*
X181954819Y-176478571D02*
X181954819Y-176573809D01*
X181954819Y-176573809D02*
X182002438Y-176669047D01*
X182002438Y-176669047D02*
X182050057Y-176716666D01*
X182050057Y-176716666D02*
X182145295Y-176764285D01*
X182145295Y-176764285D02*
X182335771Y-176811904D01*
X182335771Y-176811904D02*
X182573866Y-176811904D01*
X182573866Y-176811904D02*
X182764342Y-176764285D01*
X182764342Y-176764285D02*
X182859580Y-176716666D01*
X182859580Y-176716666D02*
X182907200Y-176669047D01*
X182907200Y-176669047D02*
X182954819Y-176573809D01*
X182954819Y-176573809D02*
X182954819Y-176478571D01*
X182954819Y-176478571D02*
X182907200Y-176383333D01*
X182907200Y-176383333D02*
X182859580Y-176335714D01*
X182859580Y-176335714D02*
X182764342Y-176288095D01*
X182764342Y-176288095D02*
X182573866Y-176240476D01*
X182573866Y-176240476D02*
X182335771Y-176240476D01*
X182335771Y-176240476D02*
X182145295Y-176288095D01*
X182145295Y-176288095D02*
X182050057Y-176335714D01*
X182050057Y-176335714D02*
X182002438Y-176383333D01*
X182002438Y-176383333D02*
X181954819Y-176478571D01*
X185494819Y-178301905D02*
X184494819Y-178301905D01*
X184494819Y-178301905D02*
X184494819Y-178682857D01*
X184494819Y-178682857D02*
X184542438Y-178778095D01*
X184542438Y-178778095D02*
X184590057Y-178825714D01*
X184590057Y-178825714D02*
X184685295Y-178873333D01*
X184685295Y-178873333D02*
X184828152Y-178873333D01*
X184828152Y-178873333D02*
X184923390Y-178825714D01*
X184923390Y-178825714D02*
X184971009Y-178778095D01*
X184971009Y-178778095D02*
X185018628Y-178682857D01*
X185018628Y-178682857D02*
X185018628Y-178301905D01*
X184828152Y-179730476D02*
X185494819Y-179730476D01*
X184447200Y-179492381D02*
X185161485Y-179254286D01*
X185161485Y-179254286D02*
X185161485Y-179873333D01*
X185494819Y-174335714D02*
X184494819Y-174335714D01*
X184494819Y-174335714D02*
X184494819Y-174716666D01*
X184494819Y-174716666D02*
X184542438Y-174811904D01*
X184542438Y-174811904D02*
X184590057Y-174859523D01*
X184590057Y-174859523D02*
X184685295Y-174907142D01*
X184685295Y-174907142D02*
X184828152Y-174907142D01*
X184828152Y-174907142D02*
X184923390Y-174859523D01*
X184923390Y-174859523D02*
X184971009Y-174811904D01*
X184971009Y-174811904D02*
X185018628Y-174716666D01*
X185018628Y-174716666D02*
X185018628Y-174335714D01*
X185494819Y-175859523D02*
X185494819Y-175288095D01*
X185494819Y-175573809D02*
X184494819Y-175573809D01*
X184494819Y-175573809D02*
X184637676Y-175478571D01*
X184637676Y-175478571D02*
X184732914Y-175383333D01*
X184732914Y-175383333D02*
X184780533Y-175288095D01*
X185494819Y-176335714D02*
X185494819Y-176526190D01*
X185494819Y-176526190D02*
X185447200Y-176621428D01*
X185447200Y-176621428D02*
X185399580Y-176669047D01*
X185399580Y-176669047D02*
X185256723Y-176764285D01*
X185256723Y-176764285D02*
X185066247Y-176811904D01*
X185066247Y-176811904D02*
X184685295Y-176811904D01*
X184685295Y-176811904D02*
X184590057Y-176764285D01*
X184590057Y-176764285D02*
X184542438Y-176716666D01*
X184542438Y-176716666D02*
X184494819Y-176621428D01*
X184494819Y-176621428D02*
X184494819Y-176430952D01*
X184494819Y-176430952D02*
X184542438Y-176335714D01*
X184542438Y-176335714D02*
X184590057Y-176288095D01*
X184590057Y-176288095D02*
X184685295Y-176240476D01*
X184685295Y-176240476D02*
X184923390Y-176240476D01*
X184923390Y-176240476D02*
X185018628Y-176288095D01*
X185018628Y-176288095D02*
X185066247Y-176335714D01*
X185066247Y-176335714D02*
X185113866Y-176430952D01*
X185113866Y-176430952D02*
X185113866Y-176621428D01*
X185113866Y-176621428D02*
X185066247Y-176716666D01*
X185066247Y-176716666D02*
X185018628Y-176764285D01*
X185018628Y-176764285D02*
X184923390Y-176811904D01*
X188034819Y-178301905D02*
X187034819Y-178301905D01*
X187034819Y-178301905D02*
X187034819Y-178682857D01*
X187034819Y-178682857D02*
X187082438Y-178778095D01*
X187082438Y-178778095D02*
X187130057Y-178825714D01*
X187130057Y-178825714D02*
X187225295Y-178873333D01*
X187225295Y-178873333D02*
X187368152Y-178873333D01*
X187368152Y-178873333D02*
X187463390Y-178825714D01*
X187463390Y-178825714D02*
X187511009Y-178778095D01*
X187511009Y-178778095D02*
X187558628Y-178682857D01*
X187558628Y-178682857D02*
X187558628Y-178301905D01*
X187034819Y-179778095D02*
X187034819Y-179301905D01*
X187034819Y-179301905D02*
X187511009Y-179254286D01*
X187511009Y-179254286D02*
X187463390Y-179301905D01*
X187463390Y-179301905D02*
X187415771Y-179397143D01*
X187415771Y-179397143D02*
X187415771Y-179635238D01*
X187415771Y-179635238D02*
X187463390Y-179730476D01*
X187463390Y-179730476D02*
X187511009Y-179778095D01*
X187511009Y-179778095D02*
X187606247Y-179825714D01*
X187606247Y-179825714D02*
X187844342Y-179825714D01*
X187844342Y-179825714D02*
X187939580Y-179778095D01*
X187939580Y-179778095D02*
X187987200Y-179730476D01*
X187987200Y-179730476D02*
X188034819Y-179635238D01*
X188034819Y-179635238D02*
X188034819Y-179397143D01*
X188034819Y-179397143D02*
X187987200Y-179301905D01*
X187987200Y-179301905D02*
X187939580Y-179254286D01*
X188034819Y-174335714D02*
X187034819Y-174335714D01*
X187034819Y-174335714D02*
X187034819Y-174716666D01*
X187034819Y-174716666D02*
X187082438Y-174811904D01*
X187082438Y-174811904D02*
X187130057Y-174859523D01*
X187130057Y-174859523D02*
X187225295Y-174907142D01*
X187225295Y-174907142D02*
X187368152Y-174907142D01*
X187368152Y-174907142D02*
X187463390Y-174859523D01*
X187463390Y-174859523D02*
X187511009Y-174811904D01*
X187511009Y-174811904D02*
X187558628Y-174716666D01*
X187558628Y-174716666D02*
X187558628Y-174335714D01*
X188034819Y-175859523D02*
X188034819Y-175288095D01*
X188034819Y-175573809D02*
X187034819Y-175573809D01*
X187034819Y-175573809D02*
X187177676Y-175478571D01*
X187177676Y-175478571D02*
X187272914Y-175383333D01*
X187272914Y-175383333D02*
X187320533Y-175288095D01*
X187463390Y-176430952D02*
X187415771Y-176335714D01*
X187415771Y-176335714D02*
X187368152Y-176288095D01*
X187368152Y-176288095D02*
X187272914Y-176240476D01*
X187272914Y-176240476D02*
X187225295Y-176240476D01*
X187225295Y-176240476D02*
X187130057Y-176288095D01*
X187130057Y-176288095D02*
X187082438Y-176335714D01*
X187082438Y-176335714D02*
X187034819Y-176430952D01*
X187034819Y-176430952D02*
X187034819Y-176621428D01*
X187034819Y-176621428D02*
X187082438Y-176716666D01*
X187082438Y-176716666D02*
X187130057Y-176764285D01*
X187130057Y-176764285D02*
X187225295Y-176811904D01*
X187225295Y-176811904D02*
X187272914Y-176811904D01*
X187272914Y-176811904D02*
X187368152Y-176764285D01*
X187368152Y-176764285D02*
X187415771Y-176716666D01*
X187415771Y-176716666D02*
X187463390Y-176621428D01*
X187463390Y-176621428D02*
X187463390Y-176430952D01*
X187463390Y-176430952D02*
X187511009Y-176335714D01*
X187511009Y-176335714D02*
X187558628Y-176288095D01*
X187558628Y-176288095D02*
X187653866Y-176240476D01*
X187653866Y-176240476D02*
X187844342Y-176240476D01*
X187844342Y-176240476D02*
X187939580Y-176288095D01*
X187939580Y-176288095D02*
X187987200Y-176335714D01*
X187987200Y-176335714D02*
X188034819Y-176430952D01*
X188034819Y-176430952D02*
X188034819Y-176621428D01*
X188034819Y-176621428D02*
X187987200Y-176716666D01*
X187987200Y-176716666D02*
X187939580Y-176764285D01*
X187939580Y-176764285D02*
X187844342Y-176811904D01*
X187844342Y-176811904D02*
X187653866Y-176811904D01*
X187653866Y-176811904D02*
X187558628Y-176764285D01*
X187558628Y-176764285D02*
X187511009Y-176716666D01*
X187511009Y-176716666D02*
X187463390Y-176621428D01*
X190574819Y-178301905D02*
X189574819Y-178301905D01*
X189574819Y-178301905D02*
X189574819Y-178682857D01*
X189574819Y-178682857D02*
X189622438Y-178778095D01*
X189622438Y-178778095D02*
X189670057Y-178825714D01*
X189670057Y-178825714D02*
X189765295Y-178873333D01*
X189765295Y-178873333D02*
X189908152Y-178873333D01*
X189908152Y-178873333D02*
X190003390Y-178825714D01*
X190003390Y-178825714D02*
X190051009Y-178778095D01*
X190051009Y-178778095D02*
X190098628Y-178682857D01*
X190098628Y-178682857D02*
X190098628Y-178301905D01*
X189574819Y-179730476D02*
X189574819Y-179540000D01*
X189574819Y-179540000D02*
X189622438Y-179444762D01*
X189622438Y-179444762D02*
X189670057Y-179397143D01*
X189670057Y-179397143D02*
X189812914Y-179301905D01*
X189812914Y-179301905D02*
X190003390Y-179254286D01*
X190003390Y-179254286D02*
X190384342Y-179254286D01*
X190384342Y-179254286D02*
X190479580Y-179301905D01*
X190479580Y-179301905D02*
X190527200Y-179349524D01*
X190527200Y-179349524D02*
X190574819Y-179444762D01*
X190574819Y-179444762D02*
X190574819Y-179635238D01*
X190574819Y-179635238D02*
X190527200Y-179730476D01*
X190527200Y-179730476D02*
X190479580Y-179778095D01*
X190479580Y-179778095D02*
X190384342Y-179825714D01*
X190384342Y-179825714D02*
X190146247Y-179825714D01*
X190146247Y-179825714D02*
X190051009Y-179778095D01*
X190051009Y-179778095D02*
X190003390Y-179730476D01*
X190003390Y-179730476D02*
X189955771Y-179635238D01*
X189955771Y-179635238D02*
X189955771Y-179444762D01*
X189955771Y-179444762D02*
X190003390Y-179349524D01*
X190003390Y-179349524D02*
X190051009Y-179301905D01*
X190051009Y-179301905D02*
X190146247Y-179254286D01*
X190574819Y-174335714D02*
X189574819Y-174335714D01*
X189574819Y-174335714D02*
X189574819Y-174716666D01*
X189574819Y-174716666D02*
X189622438Y-174811904D01*
X189622438Y-174811904D02*
X189670057Y-174859523D01*
X189670057Y-174859523D02*
X189765295Y-174907142D01*
X189765295Y-174907142D02*
X189908152Y-174907142D01*
X189908152Y-174907142D02*
X190003390Y-174859523D01*
X190003390Y-174859523D02*
X190051009Y-174811904D01*
X190051009Y-174811904D02*
X190098628Y-174716666D01*
X190098628Y-174716666D02*
X190098628Y-174335714D01*
X190574819Y-175859523D02*
X190574819Y-175288095D01*
X190574819Y-175573809D02*
X189574819Y-175573809D01*
X189574819Y-175573809D02*
X189717676Y-175478571D01*
X189717676Y-175478571D02*
X189812914Y-175383333D01*
X189812914Y-175383333D02*
X189860533Y-175288095D01*
X189574819Y-176764285D02*
X189574819Y-176288095D01*
X189574819Y-176288095D02*
X190051009Y-176240476D01*
X190051009Y-176240476D02*
X190003390Y-176288095D01*
X190003390Y-176288095D02*
X189955771Y-176383333D01*
X189955771Y-176383333D02*
X189955771Y-176621428D01*
X189955771Y-176621428D02*
X190003390Y-176716666D01*
X190003390Y-176716666D02*
X190051009Y-176764285D01*
X190051009Y-176764285D02*
X190146247Y-176811904D01*
X190146247Y-176811904D02*
X190384342Y-176811904D01*
X190384342Y-176811904D02*
X190479580Y-176764285D01*
X190479580Y-176764285D02*
X190527200Y-176716666D01*
X190527200Y-176716666D02*
X190574819Y-176621428D01*
X190574819Y-176621428D02*
X190574819Y-176383333D01*
X190574819Y-176383333D02*
X190527200Y-176288095D01*
X190527200Y-176288095D02*
X190479580Y-176240476D01*
X193114819Y-178301905D02*
X192114819Y-178301905D01*
X192114819Y-178301905D02*
X192114819Y-178682857D01*
X192114819Y-178682857D02*
X192162438Y-178778095D01*
X192162438Y-178778095D02*
X192210057Y-178825714D01*
X192210057Y-178825714D02*
X192305295Y-178873333D01*
X192305295Y-178873333D02*
X192448152Y-178873333D01*
X192448152Y-178873333D02*
X192543390Y-178825714D01*
X192543390Y-178825714D02*
X192591009Y-178778095D01*
X192591009Y-178778095D02*
X192638628Y-178682857D01*
X192638628Y-178682857D02*
X192638628Y-178301905D01*
X192114819Y-179206667D02*
X192114819Y-179873333D01*
X192114819Y-179873333D02*
X193114819Y-179444762D01*
X193114819Y-174335714D02*
X192114819Y-174335714D01*
X192114819Y-174335714D02*
X192114819Y-174716666D01*
X192114819Y-174716666D02*
X192162438Y-174811904D01*
X192162438Y-174811904D02*
X192210057Y-174859523D01*
X192210057Y-174859523D02*
X192305295Y-174907142D01*
X192305295Y-174907142D02*
X192448152Y-174907142D01*
X192448152Y-174907142D02*
X192543390Y-174859523D01*
X192543390Y-174859523D02*
X192591009Y-174811904D01*
X192591009Y-174811904D02*
X192638628Y-174716666D01*
X192638628Y-174716666D02*
X192638628Y-174335714D01*
X193114819Y-175859523D02*
X193114819Y-175288095D01*
X193114819Y-175573809D02*
X192114819Y-175573809D01*
X192114819Y-175573809D02*
X192257676Y-175478571D01*
X192257676Y-175478571D02*
X192352914Y-175383333D01*
X192352914Y-175383333D02*
X192400533Y-175288095D01*
X192448152Y-176716666D02*
X193114819Y-176716666D01*
X192067200Y-176478571D02*
X192781485Y-176240476D01*
X192781485Y-176240476D02*
X192781485Y-176859523D01*
X195654819Y-178301905D02*
X194654819Y-178301905D01*
X194654819Y-178301905D02*
X194654819Y-178682857D01*
X194654819Y-178682857D02*
X194702438Y-178778095D01*
X194702438Y-178778095D02*
X194750057Y-178825714D01*
X194750057Y-178825714D02*
X194845295Y-178873333D01*
X194845295Y-178873333D02*
X194988152Y-178873333D01*
X194988152Y-178873333D02*
X195083390Y-178825714D01*
X195083390Y-178825714D02*
X195131009Y-178778095D01*
X195131009Y-178778095D02*
X195178628Y-178682857D01*
X195178628Y-178682857D02*
X195178628Y-178301905D01*
X195083390Y-179444762D02*
X195035771Y-179349524D01*
X195035771Y-179349524D02*
X194988152Y-179301905D01*
X194988152Y-179301905D02*
X194892914Y-179254286D01*
X194892914Y-179254286D02*
X194845295Y-179254286D01*
X194845295Y-179254286D02*
X194750057Y-179301905D01*
X194750057Y-179301905D02*
X194702438Y-179349524D01*
X194702438Y-179349524D02*
X194654819Y-179444762D01*
X194654819Y-179444762D02*
X194654819Y-179635238D01*
X194654819Y-179635238D02*
X194702438Y-179730476D01*
X194702438Y-179730476D02*
X194750057Y-179778095D01*
X194750057Y-179778095D02*
X194845295Y-179825714D01*
X194845295Y-179825714D02*
X194892914Y-179825714D01*
X194892914Y-179825714D02*
X194988152Y-179778095D01*
X194988152Y-179778095D02*
X195035771Y-179730476D01*
X195035771Y-179730476D02*
X195083390Y-179635238D01*
X195083390Y-179635238D02*
X195083390Y-179444762D01*
X195083390Y-179444762D02*
X195131009Y-179349524D01*
X195131009Y-179349524D02*
X195178628Y-179301905D01*
X195178628Y-179301905D02*
X195273866Y-179254286D01*
X195273866Y-179254286D02*
X195464342Y-179254286D01*
X195464342Y-179254286D02*
X195559580Y-179301905D01*
X195559580Y-179301905D02*
X195607200Y-179349524D01*
X195607200Y-179349524D02*
X195654819Y-179444762D01*
X195654819Y-179444762D02*
X195654819Y-179635238D01*
X195654819Y-179635238D02*
X195607200Y-179730476D01*
X195607200Y-179730476D02*
X195559580Y-179778095D01*
X195559580Y-179778095D02*
X195464342Y-179825714D01*
X195464342Y-179825714D02*
X195273866Y-179825714D01*
X195273866Y-179825714D02*
X195178628Y-179778095D01*
X195178628Y-179778095D02*
X195131009Y-179730476D01*
X195131009Y-179730476D02*
X195083390Y-179635238D01*
X195654819Y-174335714D02*
X194654819Y-174335714D01*
X194654819Y-174335714D02*
X194654819Y-174716666D01*
X194654819Y-174716666D02*
X194702438Y-174811904D01*
X194702438Y-174811904D02*
X194750057Y-174859523D01*
X194750057Y-174859523D02*
X194845295Y-174907142D01*
X194845295Y-174907142D02*
X194988152Y-174907142D01*
X194988152Y-174907142D02*
X195083390Y-174859523D01*
X195083390Y-174859523D02*
X195131009Y-174811904D01*
X195131009Y-174811904D02*
X195178628Y-174716666D01*
X195178628Y-174716666D02*
X195178628Y-174335714D01*
X195654819Y-175859523D02*
X195654819Y-175288095D01*
X195654819Y-175573809D02*
X194654819Y-175573809D01*
X194654819Y-175573809D02*
X194797676Y-175478571D01*
X194797676Y-175478571D02*
X194892914Y-175383333D01*
X194892914Y-175383333D02*
X194940533Y-175288095D01*
X194654819Y-176716666D02*
X194654819Y-176526190D01*
X194654819Y-176526190D02*
X194702438Y-176430952D01*
X194702438Y-176430952D02*
X194750057Y-176383333D01*
X194750057Y-176383333D02*
X194892914Y-176288095D01*
X194892914Y-176288095D02*
X195083390Y-176240476D01*
X195083390Y-176240476D02*
X195464342Y-176240476D01*
X195464342Y-176240476D02*
X195559580Y-176288095D01*
X195559580Y-176288095D02*
X195607200Y-176335714D01*
X195607200Y-176335714D02*
X195654819Y-176430952D01*
X195654819Y-176430952D02*
X195654819Y-176621428D01*
X195654819Y-176621428D02*
X195607200Y-176716666D01*
X195607200Y-176716666D02*
X195559580Y-176764285D01*
X195559580Y-176764285D02*
X195464342Y-176811904D01*
X195464342Y-176811904D02*
X195226247Y-176811904D01*
X195226247Y-176811904D02*
X195131009Y-176764285D01*
X195131009Y-176764285D02*
X195083390Y-176716666D01*
X195083390Y-176716666D02*
X195035771Y-176621428D01*
X195035771Y-176621428D02*
X195035771Y-176430952D01*
X195035771Y-176430952D02*
X195083390Y-176335714D01*
X195083390Y-176335714D02*
X195131009Y-176288095D01*
X195131009Y-176288095D02*
X195226247Y-176240476D01*
X198194819Y-178301905D02*
X197194819Y-178301905D01*
X197194819Y-178301905D02*
X197194819Y-178682857D01*
X197194819Y-178682857D02*
X197242438Y-178778095D01*
X197242438Y-178778095D02*
X197290057Y-178825714D01*
X197290057Y-178825714D02*
X197385295Y-178873333D01*
X197385295Y-178873333D02*
X197528152Y-178873333D01*
X197528152Y-178873333D02*
X197623390Y-178825714D01*
X197623390Y-178825714D02*
X197671009Y-178778095D01*
X197671009Y-178778095D02*
X197718628Y-178682857D01*
X197718628Y-178682857D02*
X197718628Y-178301905D01*
X198194819Y-179349524D02*
X198194819Y-179540000D01*
X198194819Y-179540000D02*
X198147200Y-179635238D01*
X198147200Y-179635238D02*
X198099580Y-179682857D01*
X198099580Y-179682857D02*
X197956723Y-179778095D01*
X197956723Y-179778095D02*
X197766247Y-179825714D01*
X197766247Y-179825714D02*
X197385295Y-179825714D01*
X197385295Y-179825714D02*
X197290057Y-179778095D01*
X197290057Y-179778095D02*
X197242438Y-179730476D01*
X197242438Y-179730476D02*
X197194819Y-179635238D01*
X197194819Y-179635238D02*
X197194819Y-179444762D01*
X197194819Y-179444762D02*
X197242438Y-179349524D01*
X197242438Y-179349524D02*
X197290057Y-179301905D01*
X197290057Y-179301905D02*
X197385295Y-179254286D01*
X197385295Y-179254286D02*
X197623390Y-179254286D01*
X197623390Y-179254286D02*
X197718628Y-179301905D01*
X197718628Y-179301905D02*
X197766247Y-179349524D01*
X197766247Y-179349524D02*
X197813866Y-179444762D01*
X197813866Y-179444762D02*
X197813866Y-179635238D01*
X197813866Y-179635238D02*
X197766247Y-179730476D01*
X197766247Y-179730476D02*
X197718628Y-179778095D01*
X197718628Y-179778095D02*
X197623390Y-179825714D01*
X198194819Y-174335714D02*
X197194819Y-174335714D01*
X197194819Y-174335714D02*
X197194819Y-174716666D01*
X197194819Y-174716666D02*
X197242438Y-174811904D01*
X197242438Y-174811904D02*
X197290057Y-174859523D01*
X197290057Y-174859523D02*
X197385295Y-174907142D01*
X197385295Y-174907142D02*
X197528152Y-174907142D01*
X197528152Y-174907142D02*
X197623390Y-174859523D01*
X197623390Y-174859523D02*
X197671009Y-174811904D01*
X197671009Y-174811904D02*
X197718628Y-174716666D01*
X197718628Y-174716666D02*
X197718628Y-174335714D01*
X198194819Y-175859523D02*
X198194819Y-175288095D01*
X198194819Y-175573809D02*
X197194819Y-175573809D01*
X197194819Y-175573809D02*
X197337676Y-175478571D01*
X197337676Y-175478571D02*
X197432914Y-175383333D01*
X197432914Y-175383333D02*
X197480533Y-175288095D01*
X197194819Y-176478571D02*
X197194819Y-176573809D01*
X197194819Y-176573809D02*
X197242438Y-176669047D01*
X197242438Y-176669047D02*
X197290057Y-176716666D01*
X197290057Y-176716666D02*
X197385295Y-176764285D01*
X197385295Y-176764285D02*
X197575771Y-176811904D01*
X197575771Y-176811904D02*
X197813866Y-176811904D01*
X197813866Y-176811904D02*
X198004342Y-176764285D01*
X198004342Y-176764285D02*
X198099580Y-176716666D01*
X198099580Y-176716666D02*
X198147200Y-176669047D01*
X198147200Y-176669047D02*
X198194819Y-176573809D01*
X198194819Y-176573809D02*
X198194819Y-176478571D01*
X198194819Y-176478571D02*
X198147200Y-176383333D01*
X198147200Y-176383333D02*
X198099580Y-176335714D01*
X198099580Y-176335714D02*
X198004342Y-176288095D01*
X198004342Y-176288095D02*
X197813866Y-176240476D01*
X197813866Y-176240476D02*
X197575771Y-176240476D01*
X197575771Y-176240476D02*
X197385295Y-176288095D01*
X197385295Y-176288095D02*
X197290057Y-176335714D01*
X197290057Y-176335714D02*
X197242438Y-176383333D01*
X197242438Y-176383333D02*
X197194819Y-176478571D01*
X167709819Y-168857141D02*
X167709819Y-168380951D01*
X167709819Y-168380951D02*
X166709819Y-168380951D01*
X167709819Y-169952380D02*
X166709819Y-169952380D01*
X167709819Y-170380951D02*
X167186009Y-170380951D01*
X167186009Y-170380951D02*
X167090771Y-170333332D01*
X167090771Y-170333332D02*
X167043152Y-170238094D01*
X167043152Y-170238094D02*
X167043152Y-170095237D01*
X167043152Y-170095237D02*
X167090771Y-169999999D01*
X167090771Y-169999999D02*
X167138390Y-169952380D01*
X167709819Y-171285713D02*
X167186009Y-171285713D01*
X167186009Y-171285713D02*
X167090771Y-171238094D01*
X167090771Y-171238094D02*
X167043152Y-171142856D01*
X167043152Y-171142856D02*
X167043152Y-170952380D01*
X167043152Y-170952380D02*
X167090771Y-170857142D01*
X167662200Y-171285713D02*
X167709819Y-171190475D01*
X167709819Y-171190475D02*
X167709819Y-170952380D01*
X167709819Y-170952380D02*
X167662200Y-170857142D01*
X167662200Y-170857142D02*
X167566961Y-170809523D01*
X167566961Y-170809523D02*
X167471723Y-170809523D01*
X167471723Y-170809523D02*
X167376485Y-170857142D01*
X167376485Y-170857142D02*
X167328866Y-170952380D01*
X167328866Y-170952380D02*
X167328866Y-171190475D01*
X167328866Y-171190475D02*
X167281247Y-171285713D01*
X167043152Y-171761904D02*
X167709819Y-171761904D01*
X167138390Y-171761904D02*
X167090771Y-171809523D01*
X167090771Y-171809523D02*
X167043152Y-171904761D01*
X167043152Y-171904761D02*
X167043152Y-172047618D01*
X167043152Y-172047618D02*
X167090771Y-172142856D01*
X167090771Y-172142856D02*
X167186009Y-172190475D01*
X167186009Y-172190475D02*
X167709819Y-172190475D01*
X167709819Y-173095237D02*
X166709819Y-173095237D01*
X167662200Y-173095237D02*
X167709819Y-172999999D01*
X167709819Y-172999999D02*
X167709819Y-172809523D01*
X167709819Y-172809523D02*
X167662200Y-172714285D01*
X167662200Y-172714285D02*
X167614580Y-172666666D01*
X167614580Y-172666666D02*
X167519342Y-172619047D01*
X167519342Y-172619047D02*
X167233628Y-172619047D01*
X167233628Y-172619047D02*
X167138390Y-172666666D01*
X167138390Y-172666666D02*
X167090771Y-172714285D01*
X167090771Y-172714285D02*
X167043152Y-172809523D01*
X167043152Y-172809523D02*
X167043152Y-172999999D01*
X167043152Y-172999999D02*
X167090771Y-173095237D01*
X167709819Y-174333333D02*
X166709819Y-174333333D01*
X167090771Y-174333333D02*
X167043152Y-174428571D01*
X167043152Y-174428571D02*
X167043152Y-174619047D01*
X167043152Y-174619047D02*
X167090771Y-174714285D01*
X167090771Y-174714285D02*
X167138390Y-174761904D01*
X167138390Y-174761904D02*
X167233628Y-174809523D01*
X167233628Y-174809523D02*
X167519342Y-174809523D01*
X167519342Y-174809523D02*
X167614580Y-174761904D01*
X167614580Y-174761904D02*
X167662200Y-174714285D01*
X167662200Y-174714285D02*
X167709819Y-174619047D01*
X167709819Y-174619047D02*
X167709819Y-174428571D01*
X167709819Y-174428571D02*
X167662200Y-174333333D01*
X167709819Y-175666666D02*
X167186009Y-175666666D01*
X167186009Y-175666666D02*
X167090771Y-175619047D01*
X167090771Y-175619047D02*
X167043152Y-175523809D01*
X167043152Y-175523809D02*
X167043152Y-175333333D01*
X167043152Y-175333333D02*
X167090771Y-175238095D01*
X167662200Y-175666666D02*
X167709819Y-175571428D01*
X167709819Y-175571428D02*
X167709819Y-175333333D01*
X167709819Y-175333333D02*
X167662200Y-175238095D01*
X167662200Y-175238095D02*
X167566961Y-175190476D01*
X167566961Y-175190476D02*
X167471723Y-175190476D01*
X167471723Y-175190476D02*
X167376485Y-175238095D01*
X167376485Y-175238095D02*
X167328866Y-175333333D01*
X167328866Y-175333333D02*
X167328866Y-175571428D01*
X167328866Y-175571428D02*
X167281247Y-175666666D01*
X167662200Y-176571428D02*
X167709819Y-176476190D01*
X167709819Y-176476190D02*
X167709819Y-176285714D01*
X167709819Y-176285714D02*
X167662200Y-176190476D01*
X167662200Y-176190476D02*
X167614580Y-176142857D01*
X167614580Y-176142857D02*
X167519342Y-176095238D01*
X167519342Y-176095238D02*
X167233628Y-176095238D01*
X167233628Y-176095238D02*
X167138390Y-176142857D01*
X167138390Y-176142857D02*
X167090771Y-176190476D01*
X167090771Y-176190476D02*
X167043152Y-176285714D01*
X167043152Y-176285714D02*
X167043152Y-176476190D01*
X167043152Y-176476190D02*
X167090771Y-176571428D01*
X167709819Y-177000000D02*
X166709819Y-177000000D01*
X167328866Y-177095238D02*
X167709819Y-177380952D01*
X167043152Y-177380952D02*
X167424104Y-177000000D01*
X167662200Y-178523810D02*
X167709819Y-178619048D01*
X167709819Y-178619048D02*
X167709819Y-178809524D01*
X167709819Y-178809524D02*
X167662200Y-178904762D01*
X167662200Y-178904762D02*
X167566961Y-178952381D01*
X167566961Y-178952381D02*
X167519342Y-178952381D01*
X167519342Y-178952381D02*
X167424104Y-178904762D01*
X167424104Y-178904762D02*
X167376485Y-178809524D01*
X167376485Y-178809524D02*
X167376485Y-178666667D01*
X167376485Y-178666667D02*
X167328866Y-178571429D01*
X167328866Y-178571429D02*
X167233628Y-178523810D01*
X167233628Y-178523810D02*
X167186009Y-178523810D01*
X167186009Y-178523810D02*
X167090771Y-178571429D01*
X167090771Y-178571429D02*
X167043152Y-178666667D01*
X167043152Y-178666667D02*
X167043152Y-178809524D01*
X167043152Y-178809524D02*
X167090771Y-178904762D01*
X167709819Y-179380953D02*
X167043152Y-179380953D01*
X166709819Y-179380953D02*
X166757438Y-179333334D01*
X166757438Y-179333334D02*
X166805057Y-179380953D01*
X166805057Y-179380953D02*
X166757438Y-179428572D01*
X166757438Y-179428572D02*
X166709819Y-179380953D01*
X166709819Y-179380953D02*
X166805057Y-179380953D01*
X167709819Y-180285714D02*
X166709819Y-180285714D01*
X167662200Y-180285714D02*
X167709819Y-180190476D01*
X167709819Y-180190476D02*
X167709819Y-180000000D01*
X167709819Y-180000000D02*
X167662200Y-179904762D01*
X167662200Y-179904762D02*
X167614580Y-179857143D01*
X167614580Y-179857143D02*
X167519342Y-179809524D01*
X167519342Y-179809524D02*
X167233628Y-179809524D01*
X167233628Y-179809524D02*
X167138390Y-179857143D01*
X167138390Y-179857143D02*
X167090771Y-179904762D01*
X167090771Y-179904762D02*
X167043152Y-180000000D01*
X167043152Y-180000000D02*
X167043152Y-180190476D01*
X167043152Y-180190476D02*
X167090771Y-180285714D01*
X167662200Y-181142857D02*
X167709819Y-181047619D01*
X167709819Y-181047619D02*
X167709819Y-180857143D01*
X167709819Y-180857143D02*
X167662200Y-180761905D01*
X167662200Y-180761905D02*
X167566961Y-180714286D01*
X167566961Y-180714286D02*
X167186009Y-180714286D01*
X167186009Y-180714286D02*
X167090771Y-180761905D01*
X167090771Y-180761905D02*
X167043152Y-180857143D01*
X167043152Y-180857143D02*
X167043152Y-181047619D01*
X167043152Y-181047619D02*
X167090771Y-181142857D01*
X167090771Y-181142857D02*
X167186009Y-181190476D01*
X167186009Y-181190476D02*
X167281247Y-181190476D01*
X167281247Y-181190476D02*
X167376485Y-180714286D01*
X168090771Y-182666667D02*
X168043152Y-182619048D01*
X168043152Y-182619048D02*
X167900295Y-182523810D01*
X167900295Y-182523810D02*
X167805057Y-182476191D01*
X167805057Y-182476191D02*
X167662200Y-182428572D01*
X167662200Y-182428572D02*
X167424104Y-182380953D01*
X167424104Y-182380953D02*
X167233628Y-182380953D01*
X167233628Y-182380953D02*
X166995533Y-182428572D01*
X166995533Y-182428572D02*
X166852676Y-182476191D01*
X166852676Y-182476191D02*
X166757438Y-182523810D01*
X166757438Y-182523810D02*
X166614580Y-182619048D01*
X166614580Y-182619048D02*
X166566961Y-182666667D01*
X167709819Y-183047620D02*
X166709819Y-183047620D01*
X166709819Y-183047620D02*
X167424104Y-183380953D01*
X167424104Y-183380953D02*
X166709819Y-183714286D01*
X166709819Y-183714286D02*
X167709819Y-183714286D01*
X167709819Y-184571429D02*
X166947914Y-184571429D01*
X167138390Y-184380953D02*
X166947914Y-184571429D01*
X166947914Y-184571429D02*
X167138390Y-184761905D01*
X168090771Y-185333334D02*
X168043152Y-185380953D01*
X168043152Y-185380953D02*
X167900295Y-185476191D01*
X167900295Y-185476191D02*
X167805057Y-185523810D01*
X167805057Y-185523810D02*
X167662200Y-185571429D01*
X167662200Y-185571429D02*
X167424104Y-185619048D01*
X167424104Y-185619048D02*
X167233628Y-185619048D01*
X167233628Y-185619048D02*
X166995533Y-185571429D01*
X166995533Y-185571429D02*
X166852676Y-185523810D01*
X166852676Y-185523810D02*
X166757438Y-185476191D01*
X166757438Y-185476191D02*
X166614580Y-185380953D01*
X166614580Y-185380953D02*
X166566961Y-185333334D01*
X210454819Y-184380952D02*
X210454819Y-184571428D01*
X210454819Y-184571428D02*
X210502438Y-184666666D01*
X210502438Y-184666666D02*
X210597676Y-184761904D01*
X210597676Y-184761904D02*
X210788152Y-184809523D01*
X210788152Y-184809523D02*
X211121485Y-184809523D01*
X211121485Y-184809523D02*
X211311961Y-184761904D01*
X211311961Y-184761904D02*
X211407200Y-184666666D01*
X211407200Y-184666666D02*
X211454819Y-184571428D01*
X211454819Y-184571428D02*
X211454819Y-184380952D01*
X211454819Y-184380952D02*
X211407200Y-184285714D01*
X211407200Y-184285714D02*
X211311961Y-184190476D01*
X211311961Y-184190476D02*
X211121485Y-184142857D01*
X211121485Y-184142857D02*
X210788152Y-184142857D01*
X210788152Y-184142857D02*
X210597676Y-184190476D01*
X210597676Y-184190476D02*
X210502438Y-184285714D01*
X210502438Y-184285714D02*
X210454819Y-184380952D01*
X211454819Y-185238095D02*
X210454819Y-185238095D01*
X210454819Y-185238095D02*
X211454819Y-185809523D01*
X211454819Y-185809523D02*
X210454819Y-185809523D01*
X200454819Y-184047619D02*
X200454819Y-184238095D01*
X200454819Y-184238095D02*
X200502438Y-184333333D01*
X200502438Y-184333333D02*
X200597676Y-184428571D01*
X200597676Y-184428571D02*
X200788152Y-184476190D01*
X200788152Y-184476190D02*
X201121485Y-184476190D01*
X201121485Y-184476190D02*
X201311961Y-184428571D01*
X201311961Y-184428571D02*
X201407200Y-184333333D01*
X201407200Y-184333333D02*
X201454819Y-184238095D01*
X201454819Y-184238095D02*
X201454819Y-184047619D01*
X201454819Y-184047619D02*
X201407200Y-183952381D01*
X201407200Y-183952381D02*
X201311961Y-183857143D01*
X201311961Y-183857143D02*
X201121485Y-183809524D01*
X201121485Y-183809524D02*
X200788152Y-183809524D01*
X200788152Y-183809524D02*
X200597676Y-183857143D01*
X200597676Y-183857143D02*
X200502438Y-183952381D01*
X200502438Y-183952381D02*
X200454819Y-184047619D01*
X200931009Y-185238095D02*
X200931009Y-184904762D01*
X201454819Y-184904762D02*
X200454819Y-184904762D01*
X200454819Y-184904762D02*
X200454819Y-185380952D01*
X200931009Y-186095238D02*
X200931009Y-185761905D01*
X201454819Y-185761905D02*
X200454819Y-185761905D01*
X200454819Y-185761905D02*
X200454819Y-186238095D01*
%TO.C,S1*%
X173500000Y-147800000D02*
X173000000Y-148300000D01*
X176500000Y-147800000D02*
X173500000Y-147800000D01*
X177000000Y-148300000D02*
X176500000Y-147800000D01*
X177000000Y-148300000D02*
X177000000Y-149220000D01*
X177520000Y-149800000D02*
X182000000Y-149800000D01*
X182000000Y-149800000D02*
X182000000Y-150400000D01*
X177520000Y-149800000D02*
G75*
G02*
X177000000Y-149220000I30000J550000D01*
G01*
X173500000Y-152300000D02*
X173000000Y-151800000D01*
X175800000Y-152300000D02*
X173500000Y-152300000D01*
X177500000Y-154500000D02*
X177500000Y-153800000D01*
X182000000Y-154500000D02*
X177500000Y-154500000D01*
X182000000Y-154000000D02*
X182000000Y-154500000D01*
X175800000Y-152300000D02*
G75*
G02*
X177500000Y-153780000I110000J-1590000D01*
G01*
%TO.C,S2*%
X173500000Y-128800000D02*
X173000000Y-129300000D01*
X176500000Y-128800000D02*
X173500000Y-128800000D01*
X177000000Y-129300000D02*
X176500000Y-128800000D01*
X177000000Y-129300000D02*
X177000000Y-130220000D01*
X177520000Y-130800000D02*
X182000000Y-130800000D01*
X182000000Y-130800000D02*
X182000000Y-131400000D01*
X177520000Y-130800000D02*
G75*
G02*
X177000000Y-130220000I30000J550000D01*
G01*
X173500000Y-133300000D02*
X173000000Y-132800000D01*
X175800000Y-133300000D02*
X173500000Y-133300000D01*
X177500000Y-135500000D02*
X177500000Y-134800000D01*
X182000000Y-135500000D02*
X177500000Y-135500000D01*
X182000000Y-135000000D02*
X182000000Y-135500000D01*
X175800000Y-133300000D02*
G75*
G02*
X177500000Y-134780000I110000J-1590000D01*
G01*
%TO.C,S3*%
X173500000Y-109800000D02*
X173000000Y-110300000D01*
X176500000Y-109800000D02*
X173500000Y-109800000D01*
X177000000Y-110300000D02*
X176500000Y-109800000D01*
X177000000Y-110300000D02*
X177000000Y-111220000D01*
X177520000Y-111800000D02*
X182000000Y-111800000D01*
X182000000Y-111800000D02*
X182000000Y-112400000D01*
X177520000Y-111800000D02*
G75*
G02*
X177000000Y-111220000I30000J550000D01*
G01*
X173500000Y-114300000D02*
X173000000Y-113800000D01*
X175800000Y-114300000D02*
X173500000Y-114300000D01*
X177500000Y-116500000D02*
X177500000Y-115800000D01*
X182000000Y-116500000D02*
X177500000Y-116500000D01*
X182000000Y-116000000D02*
X182000000Y-116500000D01*
X175800000Y-114300000D02*
G75*
G02*
X177500000Y-115780000I110000J-1590000D01*
G01*
%TO.C,S4*%
X192500000Y-142800000D02*
X192000000Y-143300000D01*
X195500000Y-142800000D02*
X192500000Y-142800000D01*
X196000000Y-143300000D02*
X195500000Y-142800000D01*
X196000000Y-143300000D02*
X196000000Y-144220000D01*
X196520000Y-144800000D02*
X201000000Y-144800000D01*
X201000000Y-144800000D02*
X201000000Y-145400000D01*
X196520000Y-144800000D02*
G75*
G02*
X196000000Y-144220000I30000J550000D01*
G01*
X192500000Y-147300000D02*
X192000000Y-146800000D01*
X194800000Y-147300000D02*
X192500000Y-147300000D01*
X196500000Y-149500000D02*
X196500000Y-148800000D01*
X201000000Y-149500000D02*
X196500000Y-149500000D01*
X201000000Y-149000000D02*
X201000000Y-149500000D01*
X194800000Y-147300000D02*
G75*
G02*
X196500000Y-148780000I110000J-1590000D01*
G01*
%TO.C,S5*%
X192500000Y-123800000D02*
X192000000Y-124300000D01*
X195500000Y-123800000D02*
X192500000Y-123800000D01*
X196000000Y-124300000D02*
X195500000Y-123800000D01*
X196000000Y-124300000D02*
X196000000Y-125220000D01*
X196520000Y-125800000D02*
X201000000Y-125800000D01*
X201000000Y-125800000D02*
X201000000Y-126400000D01*
X196520000Y-125800000D02*
G75*
G02*
X196000000Y-125220000I30000J550000D01*
G01*
X192500000Y-128300000D02*
X192000000Y-127800000D01*
X194800000Y-128300000D02*
X192500000Y-128300000D01*
X196500000Y-130500000D02*
X196500000Y-129800000D01*
X201000000Y-130500000D02*
X196500000Y-130500000D01*
X201000000Y-130000000D02*
X201000000Y-130500000D01*
X194800000Y-128300000D02*
G75*
G02*
X196500000Y-129780000I110000J-1590000D01*
G01*
%TO.C,S6*%
X192500000Y-104800000D02*
X192000000Y-105300000D01*
X195500000Y-104800000D02*
X192500000Y-104800000D01*
X196000000Y-105300000D02*
X195500000Y-104800000D01*
X196000000Y-105300000D02*
X196000000Y-106220000D01*
X196520000Y-106800000D02*
X201000000Y-106800000D01*
X201000000Y-106800000D02*
X201000000Y-107400000D01*
X196520000Y-106800000D02*
G75*
G02*
X196000000Y-106220000I30000J550000D01*
G01*
X192500000Y-109300000D02*
X192000000Y-108800000D01*
X194800000Y-109300000D02*
X192500000Y-109300000D01*
X196500000Y-111500000D02*
X196500000Y-110800000D01*
X201000000Y-111500000D02*
X196500000Y-111500000D01*
X201000000Y-111000000D02*
X201000000Y-111500000D01*
X194800000Y-109300000D02*
G75*
G02*
X196500000Y-110780000I110000J-1590000D01*
G01*
%TO.C,S7*%
X211500000Y-139800000D02*
X211000000Y-140300000D01*
X214500000Y-139800000D02*
X211500000Y-139800000D01*
X215000000Y-140300000D02*
X214500000Y-139800000D01*
X215000000Y-140300000D02*
X215000000Y-141220000D01*
X215520000Y-141800000D02*
X220000000Y-141800000D01*
X220000000Y-141800000D02*
X220000000Y-142400000D01*
X215520000Y-141800000D02*
G75*
G02*
X215000000Y-141220000I30000J550000D01*
G01*
X211500000Y-144300000D02*
X211000000Y-143800000D01*
X213800000Y-144300000D02*
X211500000Y-144300000D01*
X215500000Y-146500000D02*
X215500000Y-145800000D01*
X220000000Y-146500000D02*
X215500000Y-146500000D01*
X220000000Y-146000000D02*
X220000000Y-146500000D01*
X213800000Y-144300000D02*
G75*
G02*
X215500000Y-145780000I110000J-1590000D01*
G01*
%TO.C,S8*%
X211500000Y-120800000D02*
X211000000Y-121300000D01*
X214500000Y-120800000D02*
X211500000Y-120800000D01*
X215000000Y-121300000D02*
X214500000Y-120800000D01*
X215000000Y-121300000D02*
X215000000Y-122220000D01*
X215520000Y-122800000D02*
X220000000Y-122800000D01*
X220000000Y-122800000D02*
X220000000Y-123400000D01*
X215520000Y-122800000D02*
G75*
G02*
X215000000Y-122220000I30000J550000D01*
G01*
X211500000Y-125300000D02*
X211000000Y-124800000D01*
X213800000Y-125300000D02*
X211500000Y-125300000D01*
X215500000Y-127500000D02*
X215500000Y-126800000D01*
X220000000Y-127500000D02*
X215500000Y-127500000D01*
X220000000Y-127000000D02*
X220000000Y-127500000D01*
X213800000Y-125300000D02*
G75*
G02*
X215500000Y-126780000I110000J-1590000D01*
G01*
%TO.C,S9*%
X211500000Y-101800000D02*
X211000000Y-102300000D01*
X214500000Y-101800000D02*
X211500000Y-101800000D01*
X215000000Y-102300000D02*
X214500000Y-101800000D01*
X215000000Y-102300000D02*
X215000000Y-103220000D01*
X215520000Y-103800000D02*
X220000000Y-103800000D01*
X220000000Y-103800000D02*
X220000000Y-104400000D01*
X215520000Y-103800000D02*
G75*
G02*
X215000000Y-103220000I30000J550000D01*
G01*
X211500000Y-106300000D02*
X211000000Y-105800000D01*
X213800000Y-106300000D02*
X211500000Y-106300000D01*
X215500000Y-108500000D02*
X215500000Y-107800000D01*
X220000000Y-108500000D02*
X215500000Y-108500000D01*
X220000000Y-108000000D02*
X220000000Y-108500000D01*
X213800000Y-106300000D02*
G75*
G02*
X215500000Y-107780000I110000J-1590000D01*
G01*
%TO.C,S10*%
X230500000Y-166800000D02*
X230000000Y-167300000D01*
X233500000Y-166800000D02*
X230500000Y-166800000D01*
X234000000Y-167300000D02*
X233500000Y-166800000D01*
X234000000Y-167300000D02*
X234000000Y-168220000D01*
X234520000Y-168800000D02*
X239000000Y-168800000D01*
X239000000Y-168800000D02*
X239000000Y-169400000D01*
X234520000Y-168800000D02*
G75*
G02*
X234000000Y-168220000I30000J550000D01*
G01*
X230500000Y-171300000D02*
X230000000Y-170800000D01*
X232800000Y-171300000D02*
X230500000Y-171300000D01*
X234500000Y-173500000D02*
X234500000Y-172800000D01*
X239000000Y-173500000D02*
X234500000Y-173500000D01*
X239000000Y-173000000D02*
X239000000Y-173500000D01*
X232800000Y-171300000D02*
G75*
G02*
X234500000Y-172780000I110000J-1590000D01*
G01*
%TO.C,S11*%
X230500000Y-147800000D02*
X230000000Y-148300000D01*
X233500000Y-147800000D02*
X230500000Y-147800000D01*
X234000000Y-148300000D02*
X233500000Y-147800000D01*
X234000000Y-148300000D02*
X234000000Y-149220000D01*
X234520000Y-149800000D02*
X239000000Y-149800000D01*
X239000000Y-149800000D02*
X239000000Y-150400000D01*
X234520000Y-149800000D02*
G75*
G02*
X234000000Y-149220000I30000J550000D01*
G01*
X230500000Y-152300000D02*
X230000000Y-151800000D01*
X232800000Y-152300000D02*
X230500000Y-152300000D01*
X234500000Y-154500000D02*
X234500000Y-153800000D01*
X239000000Y-154500000D02*
X234500000Y-154500000D01*
X239000000Y-154000000D02*
X239000000Y-154500000D01*
X232800000Y-152300000D02*
G75*
G02*
X234500000Y-153780000I110000J-1590000D01*
G01*
%TO.C,S12*%
X230500000Y-128800000D02*
X230000000Y-129300000D01*
X233500000Y-128800000D02*
X230500000Y-128800000D01*
X234000000Y-129300000D02*
X233500000Y-128800000D01*
X234000000Y-129300000D02*
X234000000Y-130220000D01*
X234520000Y-130800000D02*
X239000000Y-130800000D01*
X239000000Y-130800000D02*
X239000000Y-131400000D01*
X234520000Y-130800000D02*
G75*
G02*
X234000000Y-130220000I30000J550000D01*
G01*
X230500000Y-133300000D02*
X230000000Y-132800000D01*
X232800000Y-133300000D02*
X230500000Y-133300000D01*
X234500000Y-135500000D02*
X234500000Y-134800000D01*
X239000000Y-135500000D02*
X234500000Y-135500000D01*
X239000000Y-135000000D02*
X239000000Y-135500000D01*
X232800000Y-133300000D02*
G75*
G02*
X234500000Y-134780000I110000J-1590000D01*
G01*
%TO.C,S13*%
X230500000Y-109800000D02*
X230000000Y-110300000D01*
X233500000Y-109800000D02*
X230500000Y-109800000D01*
X234000000Y-110300000D02*
X233500000Y-109800000D01*
X234000000Y-110300000D02*
X234000000Y-111220000D01*
X234520000Y-111800000D02*
X239000000Y-111800000D01*
X239000000Y-111800000D02*
X239000000Y-112400000D01*
X234520000Y-111800000D02*
G75*
G02*
X234000000Y-111220000I30000J550000D01*
G01*
X230500000Y-114300000D02*
X230000000Y-113800000D01*
X232800000Y-114300000D02*
X230500000Y-114300000D01*
X234500000Y-116500000D02*
X234500000Y-115800000D01*
X239000000Y-116500000D02*
X234500000Y-116500000D01*
X239000000Y-116000000D02*
X239000000Y-116500000D01*
X232800000Y-114300000D02*
G75*
G02*
X234500000Y-115780000I110000J-1590000D01*
G01*
%TO.C,S14*%
X249500000Y-168800000D02*
X249000000Y-169300000D01*
X252500000Y-168800000D02*
X249500000Y-168800000D01*
X253000000Y-169300000D02*
X252500000Y-168800000D01*
X253000000Y-169300000D02*
X253000000Y-170220000D01*
X253520000Y-170800000D02*
X258000000Y-170800000D01*
X258000000Y-170800000D02*
X258000000Y-171400000D01*
X253520000Y-170800000D02*
G75*
G02*
X253000000Y-170220000I30000J550000D01*
G01*
X249500000Y-173300000D02*
X249000000Y-172800000D01*
X251800000Y-173300000D02*
X249500000Y-173300000D01*
X253500000Y-175500000D02*
X253500000Y-174800000D01*
X258000000Y-175500000D02*
X253500000Y-175500000D01*
X258000000Y-175000000D02*
X258000000Y-175500000D01*
X251800000Y-173300000D02*
G75*
G02*
X253500000Y-174780000I110000J-1590000D01*
G01*
%TO.C,S15*%
X249500000Y-149800000D02*
X249000000Y-150300000D01*
X252500000Y-149800000D02*
X249500000Y-149800000D01*
X253000000Y-150300000D02*
X252500000Y-149800000D01*
X253000000Y-150300000D02*
X253000000Y-151220000D01*
X253520000Y-151800000D02*
X258000000Y-151800000D01*
X258000000Y-151800000D02*
X258000000Y-152400000D01*
X253520000Y-151800000D02*
G75*
G02*
X253000000Y-151220000I30000J550000D01*
G01*
X249500000Y-154300000D02*
X249000000Y-153800000D01*
X251800000Y-154300000D02*
X249500000Y-154300000D01*
X253500000Y-156500000D02*
X253500000Y-155800000D01*
X258000000Y-156500000D02*
X253500000Y-156500000D01*
X258000000Y-156000000D02*
X258000000Y-156500000D01*
X251800000Y-154300000D02*
G75*
G02*
X253500000Y-155780000I110000J-1590000D01*
G01*
%TO.C,S16*%
X249500000Y-130800000D02*
X249000000Y-131300000D01*
X252500000Y-130800000D02*
X249500000Y-130800000D01*
X253000000Y-131300000D02*
X252500000Y-130800000D01*
X253000000Y-131300000D02*
X253000000Y-132220000D01*
X253520000Y-132800000D02*
X258000000Y-132800000D01*
X258000000Y-132800000D02*
X258000000Y-133400000D01*
X253520000Y-132800000D02*
G75*
G02*
X253000000Y-132220000I30000J550000D01*
G01*
X249500000Y-135300000D02*
X249000000Y-134800000D01*
X251800000Y-135300000D02*
X249500000Y-135300000D01*
X253500000Y-137500000D02*
X253500000Y-136800000D01*
X258000000Y-137500000D02*
X253500000Y-137500000D01*
X258000000Y-137000000D02*
X258000000Y-137500000D01*
X251800000Y-135300000D02*
G75*
G02*
X253500000Y-136780000I110000J-1590000D01*
G01*
%TO.C,S17*%
X249500000Y-111800000D02*
X249000000Y-112300000D01*
X252500000Y-111800000D02*
X249500000Y-111800000D01*
X253000000Y-112300000D02*
X252500000Y-111800000D01*
X253000000Y-112300000D02*
X253000000Y-113220000D01*
X253520000Y-113800000D02*
X258000000Y-113800000D01*
X258000000Y-113800000D02*
X258000000Y-114400000D01*
X253520000Y-113800000D02*
G75*
G02*
X253000000Y-113220000I30000J550000D01*
G01*
X249500000Y-116300000D02*
X249000000Y-115800000D01*
X251800000Y-116300000D02*
X249500000Y-116300000D01*
X253500000Y-118500000D02*
X253500000Y-117800000D01*
X258000000Y-118500000D02*
X253500000Y-118500000D01*
X258000000Y-118000000D02*
X258000000Y-118500000D01*
X251800000Y-116300000D02*
G75*
G02*
X253500000Y-117780000I110000J-1590000D01*
G01*
D12*
%TO.C,D1*%
X175250000Y-161320000D02*
X175750000Y-161320000D01*
X175250000Y-161720000D02*
X174650000Y-161320000D01*
X175250000Y-160920000D02*
X175250000Y-161720000D01*
X174650000Y-161320000D02*
X175250000Y-160920000D01*
X174650000Y-161320000D02*
X174650000Y-161870000D01*
X174650000Y-161320000D02*
X174650000Y-160770000D01*
X174250000Y-161320000D02*
X174650000Y-161320000D01*
%TO.C,D2*%
X175250000Y-142320000D02*
X175750000Y-142320000D01*
X175250000Y-142720000D02*
X174650000Y-142320000D01*
X175250000Y-141920000D02*
X175250000Y-142720000D01*
X174650000Y-142320000D02*
X175250000Y-141920000D01*
X174650000Y-142320000D02*
X174650000Y-142870000D01*
X174650000Y-142320000D02*
X174650000Y-141770000D01*
X174250000Y-142320000D02*
X174650000Y-142320000D01*
%TO.C,D3*%
X175250000Y-123320000D02*
X175750000Y-123320000D01*
X175250000Y-123720000D02*
X174650000Y-123320000D01*
X175250000Y-122920000D02*
X175250000Y-123720000D01*
X174650000Y-123320000D02*
X175250000Y-122920000D01*
X174650000Y-123320000D02*
X174650000Y-123870000D01*
X174650000Y-123320000D02*
X174650000Y-122770000D01*
X174250000Y-123320000D02*
X174650000Y-123320000D01*
%TO.C,D4*%
X194250000Y-156320000D02*
X194750000Y-156320000D01*
X194250000Y-156720000D02*
X193650000Y-156320000D01*
X194250000Y-155920000D02*
X194250000Y-156720000D01*
X193650000Y-156320000D02*
X194250000Y-155920000D01*
X193650000Y-156320000D02*
X193650000Y-156870000D01*
X193650000Y-156320000D02*
X193650000Y-155770000D01*
X193250000Y-156320000D02*
X193650000Y-156320000D01*
%TO.C,D5*%
X194250000Y-137320000D02*
X194750000Y-137320000D01*
X194250000Y-137720000D02*
X193650000Y-137320000D01*
X194250000Y-136920000D02*
X194250000Y-137720000D01*
X193650000Y-137320000D02*
X194250000Y-136920000D01*
X193650000Y-137320000D02*
X193650000Y-137870000D01*
X193650000Y-137320000D02*
X193650000Y-136770000D01*
X193250000Y-137320000D02*
X193650000Y-137320000D01*
%TO.C,D6*%
X194250000Y-118320000D02*
X194750000Y-118320000D01*
X194250000Y-118720000D02*
X193650000Y-118320000D01*
X194250000Y-117920000D02*
X194250000Y-118720000D01*
X193650000Y-118320000D02*
X194250000Y-117920000D01*
X193650000Y-118320000D02*
X193650000Y-118870000D01*
X193650000Y-118320000D02*
X193650000Y-117770000D01*
X193250000Y-118320000D02*
X193650000Y-118320000D01*
%TO.C,D7*%
X213250000Y-153320000D02*
X213750000Y-153320000D01*
X213250000Y-153720000D02*
X212650000Y-153320000D01*
X213250000Y-152920000D02*
X213250000Y-153720000D01*
X212650000Y-153320000D02*
X213250000Y-152920000D01*
X212650000Y-153320000D02*
X212650000Y-153870000D01*
X212650000Y-153320000D02*
X212650000Y-152770000D01*
X212250000Y-153320000D02*
X212650000Y-153320000D01*
%TO.C,D8*%
X213250000Y-134320000D02*
X213750000Y-134320000D01*
X213250000Y-134720000D02*
X212650000Y-134320000D01*
X213250000Y-133920000D02*
X213250000Y-134720000D01*
X212650000Y-134320000D02*
X213250000Y-133920000D01*
X212650000Y-134320000D02*
X212650000Y-134870000D01*
X212650000Y-134320000D02*
X212650000Y-133770000D01*
X212250000Y-134320000D02*
X212650000Y-134320000D01*
%TO.C,D9*%
X213250000Y-115320000D02*
X213750000Y-115320000D01*
X213250000Y-115720000D02*
X212650000Y-115320000D01*
X213250000Y-114920000D02*
X213250000Y-115720000D01*
X212650000Y-115320000D02*
X213250000Y-114920000D01*
X212650000Y-115320000D02*
X212650000Y-115870000D01*
X212650000Y-115320000D02*
X212650000Y-114770000D01*
X212250000Y-115320000D02*
X212650000Y-115320000D01*
%TO.C,D10*%
X232250000Y-180320000D02*
X232750000Y-180320000D01*
X232250000Y-180720000D02*
X231650000Y-180320000D01*
X232250000Y-179920000D02*
X232250000Y-180720000D01*
X231650000Y-180320000D02*
X232250000Y-179920000D01*
X231650000Y-180320000D02*
X231650000Y-180870000D01*
X231650000Y-180320000D02*
X231650000Y-179770000D01*
X231250000Y-180320000D02*
X231650000Y-180320000D01*
%TO.C,D11*%
X232250000Y-161320000D02*
X232750000Y-161320000D01*
X232250000Y-161720000D02*
X231650000Y-161320000D01*
X232250000Y-160920000D02*
X232250000Y-161720000D01*
X231650000Y-161320000D02*
X232250000Y-160920000D01*
X231650000Y-161320000D02*
X231650000Y-161870000D01*
X231650000Y-161320000D02*
X231650000Y-160770000D01*
X231250000Y-161320000D02*
X231650000Y-161320000D01*
%TO.C,D12*%
X232250000Y-142320000D02*
X232750000Y-142320000D01*
X232250000Y-142720000D02*
X231650000Y-142320000D01*
X232250000Y-141920000D02*
X232250000Y-142720000D01*
X231650000Y-142320000D02*
X232250000Y-141920000D01*
X231650000Y-142320000D02*
X231650000Y-142870000D01*
X231650000Y-142320000D02*
X231650000Y-141770000D01*
X231250000Y-142320000D02*
X231650000Y-142320000D01*
%TO.C,D13*%
X232250000Y-123320000D02*
X232750000Y-123320000D01*
X232250000Y-123720000D02*
X231650000Y-123320000D01*
X232250000Y-122920000D02*
X232250000Y-123720000D01*
X231650000Y-123320000D02*
X232250000Y-122920000D01*
X231650000Y-123320000D02*
X231650000Y-123870000D01*
X231650000Y-123320000D02*
X231650000Y-122770000D01*
X231250000Y-123320000D02*
X231650000Y-123320000D01*
%TO.C,D14*%
X251250000Y-182320000D02*
X251750000Y-182320000D01*
X251250000Y-182720000D02*
X250650000Y-182320000D01*
X251250000Y-181920000D02*
X251250000Y-182720000D01*
X250650000Y-182320000D02*
X251250000Y-181920000D01*
X250650000Y-182320000D02*
X250650000Y-182870000D01*
X250650000Y-182320000D02*
X250650000Y-181770000D01*
X250250000Y-182320000D02*
X250650000Y-182320000D01*
%TO.C,D15*%
X251250000Y-163320000D02*
X251750000Y-163320000D01*
X251250000Y-163720000D02*
X250650000Y-163320000D01*
X251250000Y-162920000D02*
X251250000Y-163720000D01*
X250650000Y-163320000D02*
X251250000Y-162920000D01*
X250650000Y-163320000D02*
X250650000Y-163870000D01*
X250650000Y-163320000D02*
X250650000Y-162770000D01*
X250250000Y-163320000D02*
X250650000Y-163320000D01*
%TO.C,D16*%
X251250000Y-144320000D02*
X251750000Y-144320000D01*
X251250000Y-144720000D02*
X250650000Y-144320000D01*
X251250000Y-143920000D02*
X251250000Y-144720000D01*
X250650000Y-144320000D02*
X251250000Y-143920000D01*
X250650000Y-144320000D02*
X250650000Y-144870000D01*
X250650000Y-144320000D02*
X250650000Y-143770000D01*
X250250000Y-144320000D02*
X250650000Y-144320000D01*
%TO.C,D17*%
X251250000Y-125320000D02*
X251750000Y-125320000D01*
X251250000Y-125720000D02*
X250650000Y-125320000D01*
X251250000Y-124920000D02*
X251250000Y-125720000D01*
X250650000Y-125320000D02*
X251250000Y-124920000D01*
X250650000Y-125320000D02*
X250650000Y-125870000D01*
X250650000Y-125320000D02*
X250650000Y-124770000D01*
X250250000Y-125320000D02*
X250650000Y-125320000D01*
D13*
%TO.C,MCU1*%
X168470000Y-183290000D02*
X168470000Y-185950000D01*
X168470000Y-183290000D02*
X199070000Y-183290000D01*
X199070000Y-183290000D02*
X199070000Y-185950000D01*
X168470000Y-185950000D02*
X199070000Y-185950000D01*
X168470000Y-168050000D02*
X168470000Y-170710000D01*
X168470000Y-168050000D02*
X199070000Y-168050000D01*
X199070000Y-168050000D02*
X199070000Y-170710000D01*
X168470000Y-170710000D02*
X199070000Y-170710000D01*
X171070000Y-185950000D02*
X171070000Y-183290000D01*
D12*
%TO.C,RST1*%
X218850000Y-186000000D02*
X218850000Y-186250000D01*
X218850000Y-183000000D02*
X218850000Y-182750000D01*
X218600000Y-186250000D02*
X218850000Y-186250000D01*
X218600000Y-182750000D02*
X218850000Y-182750000D01*
X214400000Y-186250000D02*
X214150000Y-186250000D01*
X214400000Y-182750000D02*
X214150000Y-182750000D01*
X214150000Y-186000000D02*
X214150000Y-186250000D01*
X214150000Y-183000000D02*
X214150000Y-182750000D01*
D13*
%TO.C,PWR1*%
X204600000Y-183575000D02*
X204400000Y-183575000D01*
X202550000Y-185415000D02*
X202550000Y-184625000D01*
X209450000Y-184625000D02*
X209450000Y-185415000D01*
X207600000Y-183575000D02*
X205900000Y-183575000D01*
X208850000Y-186425000D02*
X203150000Y-186425000D01*
%TO.C,CONN1*%
X214650000Y-161500000D02*
X214650000Y-162500000D01*
X214650000Y-160500000D02*
X214650000Y-159500000D01*
X214150000Y-160000000D02*
X215150000Y-160000000D01*
X216370000Y-160660000D02*
X215870000Y-160360000D01*
X215870000Y-160360000D02*
X215870000Y-159860000D01*
X220590000Y-162160000D02*
X220800000Y-162160000D01*
X220590000Y-163210000D02*
X220590000Y-162160000D01*
X217260000Y-163210000D02*
X220590000Y-163210000D01*
X220590000Y-158790000D02*
X220590000Y-159840000D01*
X217260000Y-158790000D02*
X220590000Y-158790000D01*
X215870000Y-161640000D02*
X216370000Y-161340000D01*
X215870000Y-162140000D02*
X215870000Y-161640000D01*
X216370000Y-161340000D02*
X216370000Y-160660000D01*
%TD*%
M02*
