M48
; DRILL file {KiCad 9.0.1} date 2025-04-20T03:08:30+0800
; FORMAT={-:-/ absolute / metric / decimal}
; #@! TF.CreationDate,2025-04-20T03:08:30+08:00
; #@! TF.GenerationSoftware,Kicad,Pcbnew,9.0.1
; #@! TF.FileFunction,NonPlated,1,2,NPTH
FMAT,2
METRIC
; #@! TA.AperFunction,NonPlated,NPTH,ComponentDrill
T1C0.750
; #@! TA.AperFunction,NonPlated,NPTH,ComponentDrill
T2C0.900
; #@! TA.AperFunction,NonPlated,NPTH,ComponentDrill
T3C3.000
; #@! TA.AperFunction,NonPlated,NPTH,ComponentDrill
T4C4.800
; #@! TA.AperFunction,NonPlated,NPTH,ComponentDrill
T5C5.000
%
G90
G05
T1
X216.5Y-183.125
X216.5Y-185.875
T2
X204.5Y-185.025
X207.5Y-185.025
T3
X170.0Y-114.25
X170.0Y-133.25
X170.0Y-152.25
X175.0Y-112.05
X175.0Y-131.05
X175.0Y-150.05
X180.0Y-114.25
X180.0Y-133.25
X180.0Y-152.25
X189.0Y-109.25
X189.0Y-128.25
X189.0Y-147.25
X194.0Y-107.05
X194.0Y-126.05
X194.0Y-145.05
X199.0Y-109.25
X199.0Y-128.25
X199.0Y-147.25
X208.0Y-106.25
X208.0Y-125.25
X208.0Y-144.25
X213.0Y-104.05
X213.0Y-123.05
X213.0Y-142.05
X218.0Y-106.25
X218.0Y-125.25
X218.0Y-144.25
X227.0Y-114.25
X227.0Y-133.25
X227.0Y-152.25
X227.0Y-171.25
X232.0Y-112.05
X232.0Y-131.05
X232.0Y-150.05
X232.0Y-169.05
X237.0Y-114.25
X237.0Y-133.25
X237.0Y-152.25
X237.0Y-171.25
X246.0Y-116.25
X246.0Y-135.25
X246.0Y-154.25
X246.0Y-173.25
X251.0Y-114.05
X251.0Y-133.05
X251.0Y-152.05
X251.0Y-171.05
X256.0Y-116.25
X256.0Y-135.25
X256.0Y-154.25
X256.0Y-173.25
T4
X184.5Y-119.9
X184.5Y-160.75
X241.5Y-121.9
X241.5Y-179.85
T5
X175.0Y-118.0
X175.0Y-137.0
X175.0Y-156.0
X194.0Y-113.0
X194.0Y-132.0
X194.0Y-151.0
X213.0Y-110.0
X213.0Y-129.0
X213.0Y-148.0
X232.0Y-118.0
X232.0Y-137.0
X232.0Y-156.0
X232.0Y-175.0
X251.0Y-120.0
X251.0Y-139.0
X251.0Y-158.0
X251.0Y-177.0
M30
