0
SECTION
2
HEADER
9
$INSUNITS
70
4
0
ENDSEC
0
SECTION
2
TABLES
0
TABLE
2
LTYPE
0
LTYPE
72
65
70
64
2
CONTINUOUS
3
______
73
0
40
0
0
ENDTAB
0
TABLE
2
LAYER
0
ENDTAB
0
ENDSEC
0
SECTION
2
ENTITIES
0
LINE
8
0
10
168
20
-163
11
182
21
-163
0
LINE
8
0
10
182
20
-163
11
182
21
-149
0
LINE
8
0
10
182
20
-149
11
168
21
-149
0
LINE
8
0
10
168
20
-149
11
168
21
-163
0
LINE
8
0
10
168
20
-144
11
182
21
-144
0
LINE
8
0
10
182
20
-144
11
182
21
-130
0
LINE
8
0
10
182
20
-130
11
168
21
-130
0
LINE
8
0
10
168
20
-130
11
168
21
-144
0
LINE
8
0
10
168
20
-125
11
182
21
-125
0
LINE
8
0
10
182
20
-125
11
182
21
-111
0
LINE
8
0
10
182
20
-111
11
168
21
-111
0
LINE
8
0
10
168
20
-111
11
168
21
-125
0
LINE
8
0
10
187
20
-158
11
201
21
-158
0
LINE
8
0
10
201
20
-158
11
201
21
-144
0
LINE
8
0
10
201
20
-144
11
187
21
-144
0
LINE
8
0
10
187
20
-144
11
187
21
-158
0
LINE
8
0
10
187
20
-139
11
201
21
-139
0
LINE
8
0
10
201
20
-139
11
201
21
-125
0
LINE
8
0
10
201
20
-125
11
187
21
-125
0
LINE
8
0
10
187
20
-125
11
187
21
-139
0
LINE
8
0
10
187
20
-120
11
201
21
-120
0
LINE
8
0
10
201
20
-120
11
201
21
-106
0
LINE
8
0
10
201
20
-106
11
187
21
-106
0
LINE
8
0
10
187
20
-106
11
187
21
-120
0
LINE
8
0
10
206
20
-155
11
220
21
-155
0
LINE
8
0
10
220
20
-155
11
220
21
-141
0
LINE
8
0
10
220
20
-141
11
206
21
-141
0
LINE
8
0
10
206
20
-141
11
206
21
-155
0
LINE
8
0
10
206
20
-136
11
220
21
-136
0
LINE
8
0
10
220
20
-136
11
220
21
-122
0
LINE
8
0
10
220
20
-122
11
206
21
-122
0
LINE
8
0
10
206
20
-122
11
206
21
-136
0
LINE
8
0
10
206
20
-117
11
220
21
-117
0
LINE
8
0
10
220
20
-117
11
220
21
-103
0
LINE
8
0
10
220
20
-103
11
206
21
-103
0
LINE
8
0
10
206
20
-103
11
206
21
-117
0
LINE
8
0
10
225
20
-182
11
239
21
-182
0
LINE
8
0
10
239
20
-182
11
239
21
-168
0
LINE
8
0
10
239
20
-168
11
225
21
-168
0
LINE
8
0
10
225
20
-168
11
225
21
-182
0
LINE
8
0
10
225
20
-163
11
239
21
-163
0
LINE
8
0
10
239
20
-163
11
239
21
-149
0
LINE
8
0
10
239
20
-149
11
225
21
-149
0
LINE
8
0
10
225
20
-149
11
225
21
-163
0
LINE
8
0
10
225
20
-144
11
239
21
-144
0
LINE
8
0
10
239
20
-144
11
239
21
-130
0
LINE
8
0
10
239
20
-130
11
225
21
-130
0
LINE
8
0
10
225
20
-130
11
225
21
-144
0
LINE
8
0
10
225
20
-125
11
239
21
-125
0
LINE
8
0
10
239
20
-125
11
239
21
-111
0
LINE
8
0
10
239
20
-111
11
225
21
-111
0
LINE
8
0
10
225
20
-111
11
225
21
-125
0
LINE
8
0
10
244
20
-184
11
258
21
-184
0
LINE
8
0
10
258
20
-184
11
258
21
-170
0
LINE
8
0
10
258
20
-170
11
244
21
-170
0
LINE
8
0
10
244
20
-170
11
244
21
-184
0
LINE
8
0
10
244
20
-165
11
258
21
-165
0
LINE
8
0
10
258
20
-165
11
258
21
-151
0
LINE
8
0
10
258
20
-151
11
244
21
-151
0
LINE
8
0
10
244
20
-151
11
244
21
-165
0
LINE
8
0
10
244
20
-146
11
258
21
-146
0
LINE
8
0
10
258
20
-146
11
258
21
-132
0
LINE
8
0
10
258
20
-132
11
244
21
-132
0
LINE
8
0
10
244
20
-132
11
244
21
-146
0
LINE
8
0
10
244
20
-127
11
258
21
-127
0
LINE
8
0
10
258
20
-127
11
258
21
-113
0
LINE
8
0
10
258
20
-113
11
244
21
-113
0
LINE
8
0
10
244
20
-113
11
244
21
-127
0
ENDSEC
0
EOF