0
SECTION
2
HEADER
9
$INSUNITS
70
4
0
ENDSEC
0
SECTION
2
TABLES
0
TABLE
2
LTYPE
0
LTYPE
72
65
70
64
2
CONTINUOUS
3
______
73
0
40
0
0
ENDTAB
0
TABLE
2
LAYER
0
ENDTAB
0
ENDSEC
0
SECTION
2
ENTITIES
0
LINE
8
0
10
168
20
-164
11
182
21
-164
0
LINE
8
0
10
182
20
-164
11
182
21
-150
0
LINE
8
0
10
182
20
-150
11
168
21
-150
0
LINE
8
0
10
168
20
-150
11
168
21
-164
0
LINE
8
0
10
168
20
-146
11
182
21
-146
0
LINE
8
0
10
182
20
-146
11
182
21
-132
0
LINE
8
0
10
182
20
-132
11
168
21
-132
0
LINE
8
0
10
168
20
-132
11
168
21
-146
0
LINE
8
0
10
168
20
-128
11
182
21
-128
0
LINE
8
0
10
182
20
-128
11
182
21
-114
0
LINE
8
0
10
182
20
-114
11
168
21
-114
0
LINE
8
0
10
168
20
-114
11
168
21
-128
0
LINE
8
0
10
186
20
-159
11
200
21
-159
0
LINE
8
0
10
200
20
-159
11
200
21
-145
0
LINE
8
0
10
200
20
-145
11
186
21
-145
0
LINE
8
0
10
186
20
-145
11
186
21
-159
0
LINE
8
0
10
186
20
-141
11
200
21
-141
0
LINE
8
0
10
200
20
-141
11
200
21
-127
0
LINE
8
0
10
200
20
-127
11
186
21
-127
0
LINE
8
0
10
186
20
-127
11
186
21
-141
0
LINE
8
0
10
186
20
-123
11
200
21
-123
0
LINE
8
0
10
200
20
-123
11
200
21
-109
0
LINE
8
0
10
200
20
-109
11
186
21
-109
0
LINE
8
0
10
186
20
-109
11
186
21
-123
0
LINE
8
0
10
204
20
-156
11
218
21
-156
0
LINE
8
0
10
218
20
-156
11
218
21
-142
0
LINE
8
0
10
218
20
-142
11
204
21
-142
0
LINE
8
0
10
204
20
-142
11
204
21
-156
0
LINE
8
0
10
204
20
-138
11
218
21
-138
0
LINE
8
0
10
218
20
-138
11
218
21
-124
0
LINE
8
0
10
218
20
-124
11
204
21
-124
0
LINE
8
0
10
204
20
-124
11
204
21
-138
0
LINE
8
0
10
204
20
-120
11
218
21
-120
0
LINE
8
0
10
218
20
-120
11
218
21
-106
0
LINE
8
0
10
218
20
-106
11
204
21
-106
0
LINE
8
0
10
204
20
-106
11
204
21
-120
0
LINE
8
0
10
222
20
-182
11
236
21
-182
0
LINE
8
0
10
236
20
-182
11
236
21
-168
0
LINE
8
0
10
236
20
-168
11
222
21
-168
0
LINE
8
0
10
222
20
-168
11
222
21
-182
0
LINE
8
0
10
222
20
-164
11
236
21
-164
0
LINE
8
0
10
236
20
-164
11
236
21
-150
0
LINE
8
0
10
236
20
-150
11
222
21
-150
0
LINE
8
0
10
222
20
-150
11
222
21
-164
0
LINE
8
0
10
222
20
-146
11
236
21
-146
0
LINE
8
0
10
236
20
-146
11
236
21
-132
0
LINE
8
0
10
236
20
-132
11
222
21
-132
0
LINE
8
0
10
222
20
-132
11
222
21
-146
0
LINE
8
0
10
222
20
-128
11
236
21
-128
0
LINE
8
0
10
236
20
-128
11
236
21
-114
0
LINE
8
0
10
236
20
-114
11
222
21
-114
0
LINE
8
0
10
222
20
-114
11
222
21
-128
0
LINE
8
0
10
240
20
-184
11
254
21
-184
0
LINE
8
0
10
254
20
-184
11
254
21
-170
0
LINE
8
0
10
254
20
-170
11
240
21
-170
0
LINE
8
0
10
240
20
-170
11
240
21
-184
0
LINE
8
0
10
240
20
-166
11
254
21
-166
0
LINE
8
0
10
254
20
-166
11
254
21
-152
0
LINE
8
0
10
254
20
-152
11
240
21
-152
0
LINE
8
0
10
240
20
-152
11
240
21
-166
0
LINE
8
0
10
240
20
-148
11
254
21
-148
0
LINE
8
0
10
254
20
-148
11
254
21
-134
0
LINE
8
0
10
254
20
-134
11
240
21
-134
0
LINE
8
0
10
240
20
-134
11
240
21
-148
0
LINE
8
0
10
240
20
-130
11
254
21
-130
0
LINE
8
0
10
254
20
-130
11
254
21
-116
0
LINE
8
0
10
254
20
-116
11
240
21
-116
0
LINE
8
0
10
240
20
-116
11
240
21
-130
0
ENDSEC
0
EOF