0
SECTION
2
HEADER
9
$INSUNITS
70
4
0
ENDSEC
0
SECTION
2
TABLES
0
TABLE
2
LTYPE
0
LTYPE
72
65
70
64
2
CONTINUOUS
3
______
73
0
40
0
0
ENDTAB
0
TABLE
2
LAYER
0
ENDTAB
0
ENDSEC
0
SECTION
2
ENTITIES
0
LINE
8
0
10
166.25
20
-165.75
11
183.75
21
-165.75
0
LINE
8
0
10
183.75
20
-165.75
11
183.75
21
-148.25
0
LINE
8
0
10
183.75
20
-148.25
11
166.25
21
-148.25
0
LINE
8
0
10
166.25
20
-148.25
11
166.25
21
-165.75
0
LINE
8
0
10
166.25
20
-147.75
11
183.75
21
-147.75
0
LINE
8
0
10
183.75
20
-147.75
11
183.75
21
-130.25
0
LINE
8
0
10
183.75
20
-130.25
11
166.25
21
-130.25
0
LINE
8
0
10
166.25
20
-130.25
11
166.25
21
-147.75
0
LINE
8
0
10
166.25
20
-129.75
11
183.75
21
-129.75
0
LINE
8
0
10
183.75
20
-129.75
11
183.75
21
-112.25
0
LINE
8
0
10
183.75
20
-112.25
11
166.25
21
-112.25
0
LINE
8
0
10
166.25
20
-112.25
11
166.25
21
-129.75
0
LINE
8
0
10
184.25
20
-160.75
11
201.75
21
-160.75
0
LINE
8
0
10
201.75
20
-160.75
11
201.75
21
-143.25
0
LINE
8
0
10
201.75
20
-143.25
11
184.25
21
-143.25
0
LINE
8
0
10
184.25
20
-143.25
11
184.25
21
-160.75
0
LINE
8
0
10
184.25
20
-142.75
11
201.75
21
-142.75
0
LINE
8
0
10
201.75
20
-142.75
11
201.75
21
-125.25
0
LINE
8
0
10
201.75
20
-125.25
11
184.25
21
-125.25
0
LINE
8
0
10
184.25
20
-125.25
11
184.25
21
-142.75
0
LINE
8
0
10
184.25
20
-124.75
11
201.75
21
-124.75
0
LINE
8
0
10
201.75
20
-124.75
11
201.75
21
-107.25
0
LINE
8
0
10
201.75
20
-107.25
11
184.25
21
-107.25
0
LINE
8
0
10
184.25
20
-107.25
11
184.25
21
-124.75
0
LINE
8
0
10
202.25
20
-157.75
11
219.75
21
-157.75
0
LINE
8
0
10
219.75
20
-157.75
11
219.75
21
-140.25
0
LINE
8
0
10
219.75
20
-140.25
11
202.25
21
-140.25
0
LINE
8
0
10
202.25
20
-140.25
11
202.25
21
-157.75
0
LINE
8
0
10
202.25
20
-139.75
11
219.75
21
-139.75
0
LINE
8
0
10
219.75
20
-139.75
11
219.75
21
-122.25
0
LINE
8
0
10
219.75
20
-122.25
11
202.25
21
-122.25
0
LINE
8
0
10
202.25
20
-122.25
11
202.25
21
-139.75
0
LINE
8
0
10
202.25
20
-121.75
11
219.75
21
-121.75
0
LINE
8
0
10
219.75
20
-121.75
11
219.75
21
-104.25
0
LINE
8
0
10
219.75
20
-104.25
11
202.25
21
-104.25
0
LINE
8
0
10
202.25
20
-104.25
11
202.25
21
-121.75
0
LINE
8
0
10
220.25
20
-183.75
11
237.75
21
-183.75
0
LINE
8
0
10
237.75
20
-183.75
11
237.75
21
-166.25
0
LINE
8
0
10
237.75
20
-166.25
11
220.25
21
-166.25
0
LINE
8
0
10
220.25
20
-166.25
11
220.25
21
-183.75
0
LINE
8
0
10
220.25
20
-165.75
11
237.75
21
-165.75
0
LINE
8
0
10
237.75
20
-165.75
11
237.75
21
-148.25
0
LINE
8
0
10
237.75
20
-148.25
11
220.25
21
-148.25
0
LINE
8
0
10
220.25
20
-148.25
11
220.25
21
-165.75
0
LINE
8
0
10
220.25
20
-147.75
11
237.75
21
-147.75
0
LINE
8
0
10
237.75
20
-147.75
11
237.75
21
-130.25
0
LINE
8
0
10
237.75
20
-130.25
11
220.25
21
-130.25
0
LINE
8
0
10
220.25
20
-130.25
11
220.25
21
-147.75
0
LINE
8
0
10
220.25
20
-129.75
11
237.75
21
-129.75
0
LINE
8
0
10
237.75
20
-129.75
11
237.75
21
-112.25
0
LINE
8
0
10
237.75
20
-112.25
11
220.25
21
-112.25
0
LINE
8
0
10
220.25
20
-112.25
11
220.25
21
-129.75
0
LINE
8
0
10
238.25
20
-185.75
11
255.75
21
-185.75
0
LINE
8
0
10
255.75
20
-185.75
11
255.75
21
-168.25
0
LINE
8
0
10
255.75
20
-168.25
11
238.25
21
-168.25
0
LINE
8
0
10
238.25
20
-168.25
11
238.25
21
-185.75
0
LINE
8
0
10
238.25
20
-167.75
11
255.75
21
-167.75
0
LINE
8
0
10
255.75
20
-167.75
11
255.75
21
-150.25
0
LINE
8
0
10
255.75
20
-150.25
11
238.25
21
-150.25
0
LINE
8
0
10
238.25
20
-150.25
11
238.25
21
-167.75
0
LINE
8
0
10
238.25
20
-149.75
11
255.75
21
-149.75
0
LINE
8
0
10
255.75
20
-149.75
11
255.75
21
-132.25
0
LINE
8
0
10
255.75
20
-132.25
11
238.25
21
-132.25
0
LINE
8
0
10
238.25
20
-132.25
11
238.25
21
-149.75
0
LINE
8
0
10
238.25
20
-131.75
11
255.75
21
-131.75
0
LINE
8
0
10
255.75
20
-131.75
11
255.75
21
-114.25
0
LINE
8
0
10
255.75
20
-114.25
11
238.25
21
-114.25
0
LINE
8
0
10
238.25
20
-114.25
11
238.25
21
-131.75
0
ENDSEC
0
EOF