0
SECTION
2
HEADER
9
$INSUNITS
70
4
0
ENDSEC
0
SECTION
2
TABLES
0
TABLE
2
LTYPE
0
LTYPE
72
65
70
64
2
CONTINUOUS
3
______
73
0
40
0
0
ENDTAB
0
TABLE
2
LAYER
0
ENDTAB
0
ENDSEC
0
SECTION
2
ENTITIES
0
LINE
8
0
10
258
20
-186.7
11
258
21
-116.3
0
LINE
8
0
10
164.8
20
-187.5
11
257.2
21
-187.5
0
LINE
8
0
10
164
20
-186.7
11
164
21
-114.3
0
ARC
8
0
10
257.2
20
-186.7
40
0.8
50
270
51
0
0
ARC
8
0
10
164.8
20
-186.7
40
0.8
50
180
51
270
0
LINE
8
0
10
181.2
20
-113.5
11
164.8
21
-113.5
0
LINE
8
0
10
199.2
20
-108.5
11
182.8
21
-108.5
0
LINE
8
0
10
182
20
-109.3
11
182
21
-112.7
0
LINE
8
0
10
222
20
-112.7
11
222
21
-106.3
0
LINE
8
0
10
221.2
20
-105.5
11
200.8
21
-105.5
0
LINE
8
0
10
200
20
-106.3
11
200
21
-107.7
0
LINE
8
0
10
240
20
-114.7
11
240
21
-114.3
0
LINE
8
0
10
239.2
20
-113.5
11
222.8
21
-113.5
0
LINE
8
0
10
257.2
20
-115.5
11
240.8
21
-115.5
0
ARC
8
0
10
257.2
20
-116.3
40
0.8
50
0
51
90
0
ARC
8
0
10
240.8
20
-114.7
40
0.8
50
180
51
270
0
ARC
8
0
10
239.2
20
-114.3
40
0.8
50
0
51
90
0
ARC
8
0
10
222.8
20
-112.7
40
0.8
50
180
51
270
0
ARC
8
0
10
221.2
20
-106.3
40
0.8
50
0
51
90
0
ARC
8
0
10
200.8
20
-106.3
40
0.8
50
90
51
180
0
ARC
8
0
10
199.2
20
-107.7
40
0.8
50
270
51
0
0
ARC
8
0
10
182.8
20
-109.3
40
0.8
50
90
51
180
0
ARC
8
0
10
181.2
20
-112.7
40
0.8
50
270
51
0
0
ARC
8
0
10
164.8
20
-114.3
40
0.8
50
90
51
180
0
LINE
8
0
10
166.25
20
-166.25
11
183.75
21
-166.25
0
LINE
8
0
10
183.75
20
-166.25
11
183.75
21
-149.75
0
LINE
8
0
10
183.75
20
-149.75
11
166.25
21
-149.75
0
LINE
8
0
10
166.25
20
-149.75
11
166.25
21
-166.25
0
LINE
8
0
10
166.25
20
-149.25
11
183.75
21
-149.25
0
LINE
8
0
10
183.75
20
-149.25
11
183.75
21
-132.75
0
LINE
8
0
10
183.75
20
-132.75
11
166.25
21
-132.75
0
LINE
8
0
10
166.25
20
-132.75
11
166.25
21
-149.25
0
LINE
8
0
10
166.25
20
-132.25
11
183.75
21
-132.25
0
LINE
8
0
10
183.75
20
-132.25
11
183.75
21
-115.75
0
LINE
8
0
10
183.75
20
-115.75
11
166.25
21
-115.75
0
LINE
8
0
10
166.25
20
-115.75
11
166.25
21
-132.25
0
LINE
8
0
10
184.25
20
-161.25
11
201.75
21
-161.25
0
LINE
8
0
10
201.75
20
-161.25
11
201.75
21
-144.75
0
LINE
8
0
10
201.75
20
-144.75
11
184.25
21
-144.75
0
LINE
8
0
10
184.25
20
-144.75
11
184.25
21
-161.25
0
LINE
8
0
10
184.25
20
-144.25
11
201.75
21
-144.25
0
LINE
8
0
10
201.75
20
-144.25
11
201.75
21
-127.75
0
LINE
8
0
10
201.75
20
-127.75
11
184.25
21
-127.75
0
LINE
8
0
10
184.25
20
-127.75
11
184.25
21
-144.25
0
LINE
8
0
10
184.25
20
-127.25
11
201.75
21
-127.25
0
LINE
8
0
10
201.75
20
-127.25
11
201.75
21
-110.75
0
LINE
8
0
10
201.75
20
-110.75
11
184.25
21
-110.75
0
LINE
8
0
10
184.25
20
-110.75
11
184.25
21
-127.25
0
LINE
8
0
10
202.25
20
-158.25
11
219.75
21
-158.25
0
LINE
8
0
10
219.75
20
-158.25
11
219.75
21
-141.75
0
LINE
8
0
10
219.75
20
-141.75
11
202.25
21
-141.75
0
LINE
8
0
10
202.25
20
-141.75
11
202.25
21
-158.25
0
LINE
8
0
10
202.25
20
-141.25
11
219.75
21
-141.25
0
LINE
8
0
10
219.75
20
-141.25
11
219.75
21
-124.75
0
LINE
8
0
10
219.75
20
-124.75
11
202.25
21
-124.75
0
LINE
8
0
10
202.25
20
-124.75
11
202.25
21
-141.25
0
LINE
8
0
10
202.25
20
-124.25
11
219.75
21
-124.25
0
LINE
8
0
10
219.75
20
-124.25
11
219.75
21
-107.75
0
LINE
8
0
10
219.75
20
-107.75
11
202.25
21
-107.75
0
LINE
8
0
10
202.25
20
-107.75
11
202.25
21
-124.25
0
LINE
8
0
10
220.25
20
-183.25
11
237.75
21
-183.25
0
LINE
8
0
10
237.75
20
-183.25
11
237.75
21
-166.75
0
LINE
8
0
10
237.75
20
-166.75
11
220.25
21
-166.75
0
LINE
8
0
10
220.25
20
-166.75
11
220.25
21
-183.25
0
LINE
8
0
10
220.25
20
-166.25
11
237.75
21
-166.25
0
LINE
8
0
10
237.75
20
-166.25
11
237.75
21
-149.75
0
LINE
8
0
10
237.75
20
-149.75
11
220.25
21
-149.75
0
LINE
8
0
10
220.25
20
-149.75
11
220.25
21
-166.25
0
LINE
8
0
10
220.25
20
-149.25
11
237.75
21
-149.25
0
LINE
8
0
10
237.75
20
-149.25
11
237.75
21
-132.75
0
LINE
8
0
10
237.75
20
-132.75
11
220.25
21
-132.75
0
LINE
8
0
10
220.25
20
-132.75
11
220.25
21
-149.25
0
LINE
8
0
10
220.25
20
-132.25
11
237.75
21
-132.25
0
LINE
8
0
10
237.75
20
-132.25
11
237.75
21
-115.75
0
LINE
8
0
10
237.75
20
-115.75
11
220.25
21
-115.75
0
LINE
8
0
10
220.25
20
-115.75
11
220.25
21
-132.25
0
LINE
8
0
10
238.25
20
-185.25
11
255.75
21
-185.25
0
LINE
8
0
10
255.75
20
-185.25
11
255.75
21
-168.75
0
LINE
8
0
10
255.75
20
-168.75
11
238.25
21
-168.75
0
LINE
8
0
10
238.25
20
-168.75
11
238.25
21
-185.25
0
LINE
8
0
10
238.25
20
-168.25
11
255.75
21
-168.25
0
LINE
8
0
10
255.75
20
-168.25
11
255.75
21
-151.75
0
LINE
8
0
10
255.75
20
-151.75
11
238.25
21
-151.75
0
LINE
8
0
10
238.25
20
-151.75
11
238.25
21
-168.25
0
LINE
8
0
10
238.25
20
-151.25
11
255.75
21
-151.25
0
LINE
8
0
10
255.75
20
-151.25
11
255.75
21
-134.75
0
LINE
8
0
10
255.75
20
-134.75
11
238.25
21
-134.75
0
LINE
8
0
10
238.25
20
-134.75
11
238.25
21
-151.25
0
LINE
8
0
10
238.25
20
-134.25
11
255.75
21
-134.25
0
LINE
8
0
10
255.75
20
-134.25
11
255.75
21
-117.75
0
LINE
8
0
10
255.75
20
-117.75
11
238.25
21
-117.75
0
LINE
8
0
10
238.25
20
-117.75
11
238.25
21
-134.25
0
ENDSEC
0
EOF