0
SECTION
2
HEADER
9
$INSUNITS
70
4
0
ENDSEC
0
SECTION
2
TABLES
0
TABLE
2
LTYPE
0
LTYPE
72
65
70
64
2
CONTINUOUS
3
______
73
0
40
0
0
ENDTAB
0
TABLE
2
LAYER
0
ENDTAB
0
ENDSEC
0
SECTION
2
ENTITIES
0
LINE
8
0
10
258
20
-187.2
11
258
21
-112.8
0
LINE
8
0
10
164.8
20
-188
11
257.2
21
-188
0
LINE
8
0
10
164
20
-187.2
11
164
21
-110.8
0
ARC
8
0
10
257.2
20
-187.2
40
0.8
50
270
51
0
0
ARC
8
0
10
164.8
20
-187.2
40
0.8
50
180
51
270
0
LINE
8
0
10
181.2
20
-110
11
164.8
21
-110
0
LINE
8
0
10
199.2
20
-105
11
182.8
21
-105
0
LINE
8
0
10
182
20
-105.8
11
182
21
-109.2
0
LINE
8
0
10
222
20
-109.2
11
222
21
-102.8
0
LINE
8
0
10
221.2
20
-102
11
200.8
21
-102
0
LINE
8
0
10
200
20
-102.8
11
200
21
-104.2
0
LINE
8
0
10
240
20
-111.2
11
240
21
-110.8
0
LINE
8
0
10
239.2
20
-110
11
222.8
21
-110
0
LINE
8
0
10
257.2
20
-112
11
240.8
21
-112
0
ARC
8
0
10
257.2
20
-112.8
40
0.8
50
0
51
90
0
ARC
8
0
10
240.8
20
-111.2
40
0.8
50
180
51
270
0
ARC
8
0
10
239.2
20
-110.8
40
0.8
50
0
51
90
0
ARC
8
0
10
222.8
20
-109.2
40
0.8
50
180
51
270
0
ARC
8
0
10
221.2
20
-102.8
40
0.8
50
0
51
90
0
ARC
8
0
10
200.8
20
-102.8
40
0.8
50
90
51
180
0
ARC
8
0
10
199.2
20
-104.2
40
0.8
50
270
51
0
0
ARC
8
0
10
182.8
20
-105.8
40
0.8
50
90
51
180
0
ARC
8
0
10
181.2
20
-109.2
40
0.8
50
270
51
0
0
ARC
8
0
10
164.8
20
-110.8
40
0.8
50
90
51
180
0
LINE
8
0
10
166.25
20
-165.75
11
183.75
21
-165.75
0
LINE
8
0
10
183.75
20
-165.75
11
183.75
21
-148.25
0
LINE
8
0
10
183.75
20
-148.25
11
166.25
21
-148.25
0
LINE
8
0
10
166.25
20
-148.25
11
166.25
21
-165.75
0
LINE
8
0
10
166.25
20
-147.75
11
183.75
21
-147.75
0
LINE
8
0
10
183.75
20
-147.75
11
183.75
21
-130.25
0
LINE
8
0
10
183.75
20
-130.25
11
166.25
21
-130.25
0
LINE
8
0
10
166.25
20
-130.25
11
166.25
21
-147.75
0
LINE
8
0
10
166.25
20
-129.75
11
183.75
21
-129.75
0
LINE
8
0
10
183.75
20
-129.75
11
183.75
21
-112.25
0
LINE
8
0
10
183.75
20
-112.25
11
166.25
21
-112.25
0
LINE
8
0
10
166.25
20
-112.25
11
166.25
21
-129.75
0
LINE
8
0
10
184.25
20
-160.75
11
201.75
21
-160.75
0
LINE
8
0
10
201.75
20
-160.75
11
201.75
21
-143.25
0
LINE
8
0
10
201.75
20
-143.25
11
184.25
21
-143.25
0
LINE
8
0
10
184.25
20
-143.25
11
184.25
21
-160.75
0
LINE
8
0
10
184.25
20
-142.75
11
201.75
21
-142.75
0
LINE
8
0
10
201.75
20
-142.75
11
201.75
21
-125.25
0
LINE
8
0
10
201.75
20
-125.25
11
184.25
21
-125.25
0
LINE
8
0
10
184.25
20
-125.25
11
184.25
21
-142.75
0
LINE
8
0
10
184.25
20
-124.75
11
201.75
21
-124.75
0
LINE
8
0
10
201.75
20
-124.75
11
201.75
21
-107.25
0
LINE
8
0
10
201.75
20
-107.25
11
184.25
21
-107.25
0
LINE
8
0
10
184.25
20
-107.25
11
184.25
21
-124.75
0
LINE
8
0
10
202.25
20
-157.75
11
219.75
21
-157.75
0
LINE
8
0
10
219.75
20
-157.75
11
219.75
21
-140.25
0
LINE
8
0
10
219.75
20
-140.25
11
202.25
21
-140.25
0
LINE
8
0
10
202.25
20
-140.25
11
202.25
21
-157.75
0
LINE
8
0
10
202.25
20
-139.75
11
219.75
21
-139.75
0
LINE
8
0
10
219.75
20
-139.75
11
219.75
21
-122.25
0
LINE
8
0
10
219.75
20
-122.25
11
202.25
21
-122.25
0
LINE
8
0
10
202.25
20
-122.25
11
202.25
21
-139.75
0
LINE
8
0
10
202.25
20
-121.75
11
219.75
21
-121.75
0
LINE
8
0
10
219.75
20
-121.75
11
219.75
21
-104.25
0
LINE
8
0
10
219.75
20
-104.25
11
202.25
21
-104.25
0
LINE
8
0
10
202.25
20
-104.25
11
202.25
21
-121.75
0
LINE
8
0
10
220.25
20
-183.75
11
237.75
21
-183.75
0
LINE
8
0
10
237.75
20
-183.75
11
237.75
21
-166.25
0
LINE
8
0
10
237.75
20
-166.25
11
220.25
21
-166.25
0
LINE
8
0
10
220.25
20
-166.25
11
220.25
21
-183.75
0
LINE
8
0
10
220.25
20
-165.75
11
237.75
21
-165.75
0
LINE
8
0
10
237.75
20
-165.75
11
237.75
21
-148.25
0
LINE
8
0
10
237.75
20
-148.25
11
220.25
21
-148.25
0
LINE
8
0
10
220.25
20
-148.25
11
220.25
21
-165.75
0
LINE
8
0
10
220.25
20
-147.75
11
237.75
21
-147.75
0
LINE
8
0
10
237.75
20
-147.75
11
237.75
21
-130.25
0
LINE
8
0
10
237.75
20
-130.25
11
220.25
21
-130.25
0
LINE
8
0
10
220.25
20
-130.25
11
220.25
21
-147.75
0
LINE
8
0
10
220.25
20
-129.75
11
237.75
21
-129.75
0
LINE
8
0
10
237.75
20
-129.75
11
237.75
21
-112.25
0
LINE
8
0
10
237.75
20
-112.25
11
220.25
21
-112.25
0
LINE
8
0
10
220.25
20
-112.25
11
220.25
21
-129.75
0
LINE
8
0
10
238.25
20
-185.75
11
255.75
21
-185.75
0
LINE
8
0
10
255.75
20
-185.75
11
255.75
21
-168.25
0
LINE
8
0
10
255.75
20
-168.25
11
238.25
21
-168.25
0
LINE
8
0
10
238.25
20
-168.25
11
238.25
21
-185.75
0
LINE
8
0
10
238.25
20
-167.75
11
255.75
21
-167.75
0
LINE
8
0
10
255.75
20
-167.75
11
255.75
21
-150.25
0
LINE
8
0
10
255.75
20
-150.25
11
238.25
21
-150.25
0
LINE
8
0
10
238.25
20
-150.25
11
238.25
21
-167.75
0
LINE
8
0
10
238.25
20
-149.75
11
255.75
21
-149.75
0
LINE
8
0
10
255.75
20
-149.75
11
255.75
21
-132.25
0
LINE
8
0
10
255.75
20
-132.25
11
238.25
21
-132.25
0
LINE
8
0
10
238.25
20
-132.25
11
238.25
21
-149.75
0
LINE
8
0
10
238.25
20
-131.75
11
255.75
21
-131.75
0
LINE
8
0
10
255.75
20
-131.75
11
255.75
21
-114.25
0
LINE
8
0
10
255.75
20
-114.25
11
238.25
21
-114.25
0
LINE
8
0
10
238.25
20
-114.25
11
238.25
21
-131.75
0
ENDSEC
0
EOF