0
SECTION
2
HEADER
9
$INSUNITS
70
4
0
ENDSEC
0
SECTION
2
TABLES
0
TABLE
2
LTYPE
0
LTYPE
72
65
70
64
2
CONTINUOUS
3
______
73
0
40
0
0
ENDTAB
0
TABLE
2
LAYER
0
ENDTAB
0
ENDSEC
0
SECTION
2
ENTITIES
0
LINE
8
0
10
168.8
20
-163
11
181.2
21
-163
0
LINE
8
0
10
182
20
-162.2
11
182
21
-149.8
0
LINE
8
0
10
181.2
20
-149
11
168.8
21
-149
0
LINE
8
0
10
168
20
-149.8
11
168
21
-162.2
0
LINE
8
0
10
168.8
20
-144
11
181.2
21
-144
0
LINE
8
0
10
182
20
-143.2
11
182
21
-130.8
0
LINE
8
0
10
181.2
20
-130
11
168.8
21
-130
0
LINE
8
0
10
168
20
-130.8
11
168
21
-143.2
0
LINE
8
0
10
168.8
20
-125
11
181.2
21
-125
0
LINE
8
0
10
182
20
-124.2
11
182
21
-111.8
0
LINE
8
0
10
181.2
20
-111
11
168.8
21
-111
0
LINE
8
0
10
168
20
-111.8
11
168
21
-124.2
0
LINE
8
0
10
187.8
20
-158
11
200.2
21
-158
0
LINE
8
0
10
201
20
-157.2
11
201
21
-144.8
0
LINE
8
0
10
200.2
20
-144
11
187.8
21
-144
0
LINE
8
0
10
187
20
-144.8
11
187
21
-157.2
0
LINE
8
0
10
187.8
20
-139
11
200.2
21
-139
0
LINE
8
0
10
201
20
-138.2
11
201
21
-125.8
0
LINE
8
0
10
200.2
20
-125
11
187.8
21
-125
0
LINE
8
0
10
187
20
-125.8
11
187
21
-138.2
0
LINE
8
0
10
187.8
20
-120
11
200.2
21
-120
0
LINE
8
0
10
201
20
-119.2
11
201
21
-106.8
0
LINE
8
0
10
200.2
20
-106
11
187.8
21
-106
0
LINE
8
0
10
187
20
-106.8
11
187
21
-119.2
0
LINE
8
0
10
206.8
20
-155
11
219.2
21
-155
0
LINE
8
0
10
220
20
-154.2
11
220
21
-141.8
0
LINE
8
0
10
219.2
20
-141
11
206.8
21
-141
0
LINE
8
0
10
206
20
-141.8
11
206
21
-154.2
0
LINE
8
0
10
206.8
20
-136
11
219.2
21
-136
0
LINE
8
0
10
220
20
-135.2
11
220
21
-122.8
0
LINE
8
0
10
219.2
20
-122
11
206.8
21
-122
0
LINE
8
0
10
206
20
-122.8
11
206
21
-135.2
0
LINE
8
0
10
206.8
20
-117
11
219.2
21
-117
0
LINE
8
0
10
220
20
-116.2
11
220
21
-103.8
0
LINE
8
0
10
219.2
20
-103
11
206.8
21
-103
0
LINE
8
0
10
206
20
-103.8
11
206
21
-116.2
0
LINE
8
0
10
225.8
20
-182
11
238.2
21
-182
0
LINE
8
0
10
239
20
-181.2
11
239
21
-168.8
0
LINE
8
0
10
238.2
20
-168
11
225.8
21
-168
0
LINE
8
0
10
225
20
-168.8
11
225
21
-181.2
0
LINE
8
0
10
225.8
20
-163
11
238.2
21
-163
0
LINE
8
0
10
239
20
-162.2
11
239
21
-149.8
0
LINE
8
0
10
238.2
20
-149
11
225.8
21
-149
0
LINE
8
0
10
225
20
-149.8
11
225
21
-162.2
0
LINE
8
0
10
225.8
20
-144
11
238.2
21
-144
0
LINE
8
0
10
239
20
-143.2
11
239
21
-130.8
0
LINE
8
0
10
238.2
20
-130
11
225.8
21
-130
0
LINE
8
0
10
225
20
-130.8
11
225
21
-143.2
0
LINE
8
0
10
225.8
20
-125
11
238.2
21
-125
0
LINE
8
0
10
239
20
-124.2
11
239
21
-111.8
0
LINE
8
0
10
238.2
20
-111
11
225.8
21
-111
0
LINE
8
0
10
225
20
-111.8
11
225
21
-124.2
0
LINE
8
0
10
244.8
20
-184
11
257.2
21
-184
0
LINE
8
0
10
258
20
-183.2
11
258
21
-170.8
0
LINE
8
0
10
257.2
20
-170
11
244.8
21
-170
0
LINE
8
0
10
244
20
-170.8
11
244
21
-183.2
0
LINE
8
0
10
244.8
20
-165
11
257.2
21
-165
0
LINE
8
0
10
258
20
-164.2
11
258
21
-151.8
0
LINE
8
0
10
257.2
20
-151
11
244.8
21
-151
0
LINE
8
0
10
244
20
-151.8
11
244
21
-164.2
0
LINE
8
0
10
244.8
20
-146
11
257.2
21
-146
0
LINE
8
0
10
258
20
-145.2
11
258
21
-132.8
0
LINE
8
0
10
257.2
20
-132
11
244.8
21
-132
0
LINE
8
0
10
244
20
-132.8
11
244
21
-145.2
0
LINE
8
0
10
244.8
20
-127
11
257.2
21
-127
0
LINE
8
0
10
258
20
-126.2
11
258
21
-113.8
0
LINE
8
0
10
257.2
20
-113
11
244.8
21
-113
0
LINE
8
0
10
244
20
-113.8
11
244
21
-126.2
0
ARC
8
0
10
181.2
20
-162.2
40
0.8
50
270
51
0
0
ARC
8
0
10
181.2
20
-149.8
40
0.8
50
0
51
90
0
ARC
8
0
10
168.8
20
-149.8
40
0.8
50
90
51
180
0
ARC
8
0
10
168.8
20
-162.2
40
0.8
50
180
51
270
0
ARC
8
0
10
181.2
20
-143.2
40
0.8
50
270
51
0
0
ARC
8
0
10
181.2
20
-130.8
40
0.8
50
0
51
90
0
ARC
8
0
10
168.8
20
-130.8
40
0.8
50
90
51
180
0
ARC
8
0
10
168.8
20
-143.2
40
0.8
50
180
51
270
0
ARC
8
0
10
181.2
20
-124.2
40
0.8
50
270
51
0
0
ARC
8
0
10
181.2
20
-111.8
40
0.8
50
0
51
90
0
ARC
8
0
10
168.8
20
-111.8
40
0.8
50
90
51
180
0
ARC
8
0
10
168.8
20
-124.2
40
0.8
50
180
51
270
0
ARC
8
0
10
200.2
20
-157.2
40
0.8
50
270
51
0
0
ARC
8
0
10
200.2
20
-144.8
40
0.8
50
0
51
90
0
ARC
8
0
10
187.8
20
-144.8
40
0.8
50
90
51
180
0
ARC
8
0
10
187.8
20
-157.2
40
0.8
50
180
51
270
0
ARC
8
0
10
200.2
20
-138.2
40
0.8
50
270
51
0
0
ARC
8
0
10
200.2
20
-125.8
40
0.8
50
0
51
90
0
ARC
8
0
10
187.8
20
-125.8
40
0.8
50
90
51
180
0
ARC
8
0
10
187.8
20
-138.2
40
0.8
50
180
51
270
0
ARC
8
0
10
200.2
20
-119.2
40
0.8
50
270
51
0
0
ARC
8
0
10
200.2
20
-106.8
40
0.8
50
0
51
90
0
ARC
8
0
10
187.8
20
-106.8
40
0.8
50
90
51
180
0
ARC
8
0
10
187.8
20
-119.2
40
0.8
50
180
51
270
0
ARC
8
0
10
219.2
20
-154.2
40
0.8
50
270
51
0
0
ARC
8
0
10
219.2
20
-141.8
40
0.8
50
0
51
90
0
ARC
8
0
10
206.8
20
-141.8
40
0.8
50
90
51
180
0
ARC
8
0
10
206.8
20
-154.2
40
0.8
50
180
51
270
0
ARC
8
0
10
219.2
20
-135.2
40
0.8
50
270
51
0
0
ARC
8
0
10
219.2
20
-122.8
40
0.8
50
0
51
90
0
ARC
8
0
10
206.8
20
-122.8
40
0.8
50
90
51
180
0
ARC
8
0
10
206.8
20
-135.2
40
0.8
50
180
51
270
0
ARC
8
0
10
219.2
20
-116.2
40
0.8
50
270
51
0
0
ARC
8
0
10
219.2
20
-103.8
40
0.8
50
0
51
90
0
ARC
8
0
10
206.8
20
-103.8
40
0.8
50
90
51
180
0
ARC
8
0
10
206.8
20
-116.2
40
0.8
50
180
51
270
0
ARC
8
0
10
238.2
20
-181.2
40
0.8
50
270
51
0
0
ARC
8
0
10
238.2
20
-168.8
40
0.8
50
0
51
90
0
ARC
8
0
10
225.8
20
-168.8
40
0.8
50
90
51
180
0
ARC
8
0
10
225.8
20
-181.2
40
0.8
50
180
51
270
0
ARC
8
0
10
238.2
20
-162.2
40
0.8
50
270
51
0
0
ARC
8
0
10
238.2
20
-149.8
40
0.8
50
0
51
90
0
ARC
8
0
10
225.8
20
-149.8
40
0.8
50
90
51
180
0
ARC
8
0
10
225.8
20
-162.2
40
0.8
50
180
51
270
0
ARC
8
0
10
238.2
20
-143.2
40
0.8
50
270
51
0
0
ARC
8
0
10
238.2
20
-130.8
40
0.8
50
0
51
90
0
ARC
8
0
10
225.8
20
-130.8
40
0.8
50
90
51
180
0
ARC
8
0
10
225.8
20
-143.2
40
0.8
50
180
51
270
0
ARC
8
0
10
238.2
20
-124.2
40
0.8
50
270
51
0
0
ARC
8
0
10
238.2
20
-111.8
40
0.8
50
0
51
90
0
ARC
8
0
10
225.8
20
-111.8
40
0.8
50
90
51
180
0
ARC
8
0
10
225.8
20
-124.2
40
0.8
50
180
51
270
0
ARC
8
0
10
257.2
20
-183.2
40
0.8
50
270
51
0
0
ARC
8
0
10
257.2
20
-170.8
40
0.8
50
0
51
90
0
ARC
8
0
10
244.8
20
-170.8
40
0.8
50
90
51
180
0
ARC
8
0
10
244.8
20
-183.2
40
0.8
50
180
51
270
0
ARC
8
0
10
257.2
20
-164.2
40
0.8
50
270
51
0
0
ARC
8
0
10
257.2
20
-151.8
40
0.8
50
0
51
90
0
ARC
8
0
10
244.8
20
-151.8
40
0.8
50
90
51
180
0
ARC
8
0
10
244.8
20
-164.2
40
0.8
50
180
51
270
0
ARC
8
0
10
257.2
20
-145.2
40
0.8
50
270
51
0
0
ARC
8
0
10
257.2
20
-132.8
40
0.8
50
0
51
90
0
ARC
8
0
10
244.8
20
-132.8
40
0.8
50
90
51
180
0
ARC
8
0
10
244.8
20
-145.2
40
0.8
50
180
51
270
0
ARC
8
0
10
257.2
20
-126.2
40
0.8
50
270
51
0
0
ARC
8
0
10
257.2
20
-113.8
40
0.8
50
0
51
90
0
ARC
8
0
10
244.8
20
-113.8
40
0.8
50
90
51
180
0
ARC
8
0
10
244.8
20
-126.2
40
0.8
50
180
51
270
0
ENDSEC
0
EOF