0
SECTION
2
HEADER
9
$INSUNITS
70
4
0
ENDSEC
0
SECTION
2
TABLES
0
TABLE
2
LTYPE
0
LTYPE
72
65
70
64
2
CONTINUOUS
3
______
73
0
40
0
0
ENDTAB
0
TABLE
2
LAYER
0
ENDTAB
0
ENDSEC
0
SECTION
2
ENTITIES
0
LINE
8
0
10
166.3
20
-165.5
11
183.7
21
-165.5
0
LINE
8
0
10
184.5
20
-164.7
11
184.5
21
-161.3
0
LINE
8
0
10
165.5
20
-164.7
11
165.5
21
-109.3
0
LINE
8
0
10
183.7
20
-108.5
11
166.3
21
-108.5
0
LINE
8
0
10
185.3
20
-160.5
11
202.7
21
-160.5
0
LINE
8
0
10
203.5
20
-159.7
11
203.5
21
-158.3
0
LINE
8
0
10
202.7
20
-103.5
11
185.3
21
-103.5
0
LINE
8
0
10
184.5
20
-104.3
11
184.5
21
-107.7
0
LINE
8
0
10
204.3
20
-157.5
11
221.7
21
-157.5
0
LINE
8
0
10
222.5
20
-107.7
11
222.5
21
-101.3
0
LINE
8
0
10
221.7
20
-100.5
11
204.3
21
-100.5
0
LINE
8
0
10
203.5
20
-101.3
11
203.5
21
-102.7
0
LINE
8
0
10
223.3
20
-184.5
11
240.7
21
-184.5
0
LINE
8
0
10
222.5
20
-183.7
11
222.5
21
-158.3
0
LINE
8
0
10
241.5
20
-109.7
11
241.5
21
-109.3
0
LINE
8
0
10
240.7
20
-108.5
11
223.3
21
-108.5
0
LINE
8
0
10
242.3
20
-186.5
11
259.7
21
-186.5
0
LINE
8
0
10
260.5
20
-185.7
11
260.5
21
-111.3
0
LINE
8
0
10
241.5
20
-185.3
11
241.5
21
-185.7
0
LINE
8
0
10
259.7
20
-110.5
11
242.3
21
-110.5
0
ARC
8
0
10
183.7
20
-164.7
40
0.8
50
270
51
0
0
ARC
8
0
10
185.3
20
-161.3
40
0.8
50
90
51
180
0
ARC
8
0
10
202.7
20
-159.7
40
0.8
50
270
51
0
0
ARC
8
0
10
204.3
20
-158.3
40
0.8
50
90
51
180
0
ARC
8
0
10
221.7
20
-158.3
40
0.8
50
0
51
90
0
ARC
8
0
10
223.3
20
-183.7
40
0.8
50
180
51
270
0
ARC
8
0
10
240.7
20
-185.3
40
0.8
50
0
51
90
0
ARC
8
0
10
242.3
20
-185.7
40
0.8
50
180
51
270
0
ARC
8
0
10
259.7
20
-185.7
40
0.8
50
270
51
0
0
ARC
8
0
10
259.7
20
-111.3
40
0.8
50
0
51
90
0
ARC
8
0
10
242.3
20
-109.7
40
0.8
50
180
51
270
0
ARC
8
0
10
240.7
20
-109.3
40
0.8
50
0
51
90
0
ARC
8
0
10
223.3
20
-107.7
40
0.8
50
180
51
270
0
ARC
8
0
10
221.7
20
-101.3
40
0.8
50
0
51
90
0
ARC
8
0
10
204.3
20
-101.3
40
0.8
50
90
51
180
0
ARC
8
0
10
202.7
20
-102.7
40
0.8
50
270
51
0
0
ARC
8
0
10
185.3
20
-104.3
40
0.8
50
90
51
180
0
ARC
8
0
10
183.7
20
-107.7
40
0.8
50
270
51
0
0
ARC
8
0
10
166.3
20
-109.3
40
0.8
50
90
51
180
0
ARC
8
0
10
166.3
20
-164.7
40
0.8
50
180
51
270
0
LINE
8
0
10
168
20
-163
11
182
21
-163
0
LINE
8
0
10
182
20
-163
11
182
21
-149
0
LINE
8
0
10
182
20
-149
11
168
21
-149
0
LINE
8
0
10
168
20
-149
11
168
21
-163
0
LINE
8
0
10
168
20
-144
11
182
21
-144
0
LINE
8
0
10
182
20
-144
11
182
21
-130
0
LINE
8
0
10
182
20
-130
11
168
21
-130
0
LINE
8
0
10
168
20
-130
11
168
21
-144
0
LINE
8
0
10
168
20
-125
11
182
21
-125
0
LINE
8
0
10
182
20
-125
11
182
21
-111
0
LINE
8
0
10
182
20
-111
11
168
21
-111
0
LINE
8
0
10
168
20
-111
11
168
21
-125
0
LINE
8
0
10
187
20
-158
11
201
21
-158
0
LINE
8
0
10
201
20
-158
11
201
21
-144
0
LINE
8
0
10
201
20
-144
11
187
21
-144
0
LINE
8
0
10
187
20
-144
11
187
21
-158
0
LINE
8
0
10
187
20
-139
11
201
21
-139
0
LINE
8
0
10
201
20
-139
11
201
21
-125
0
LINE
8
0
10
201
20
-125
11
187
21
-125
0
LINE
8
0
10
187
20
-125
11
187
21
-139
0
LINE
8
0
10
187
20
-120
11
201
21
-120
0
LINE
8
0
10
201
20
-120
11
201
21
-106
0
LINE
8
0
10
201
20
-106
11
187
21
-106
0
LINE
8
0
10
187
20
-106
11
187
21
-120
0
LINE
8
0
10
206
20
-155
11
220
21
-155
0
LINE
8
0
10
220
20
-155
11
220
21
-141
0
LINE
8
0
10
220
20
-141
11
206
21
-141
0
LINE
8
0
10
206
20
-141
11
206
21
-155
0
LINE
8
0
10
206
20
-136
11
220
21
-136
0
LINE
8
0
10
220
20
-136
11
220
21
-122
0
LINE
8
0
10
220
20
-122
11
206
21
-122
0
LINE
8
0
10
206
20
-122
11
206
21
-136
0
LINE
8
0
10
206
20
-117
11
220
21
-117
0
LINE
8
0
10
220
20
-117
11
220
21
-103
0
LINE
8
0
10
220
20
-103
11
206
21
-103
0
LINE
8
0
10
206
20
-103
11
206
21
-117
0
LINE
8
0
10
225
20
-182
11
239
21
-182
0
LINE
8
0
10
239
20
-182
11
239
21
-168
0
LINE
8
0
10
239
20
-168
11
225
21
-168
0
LINE
8
0
10
225
20
-168
11
225
21
-182
0
LINE
8
0
10
225
20
-163
11
239
21
-163
0
LINE
8
0
10
239
20
-163
11
239
21
-149
0
LINE
8
0
10
239
20
-149
11
225
21
-149
0
LINE
8
0
10
225
20
-149
11
225
21
-163
0
LINE
8
0
10
225
20
-144
11
239
21
-144
0
LINE
8
0
10
239
20
-144
11
239
21
-130
0
LINE
8
0
10
239
20
-130
11
225
21
-130
0
LINE
8
0
10
225
20
-130
11
225
21
-144
0
LINE
8
0
10
225
20
-125
11
239
21
-125
0
LINE
8
0
10
239
20
-125
11
239
21
-111
0
LINE
8
0
10
239
20
-111
11
225
21
-111
0
LINE
8
0
10
225
20
-111
11
225
21
-125
0
LINE
8
0
10
244
20
-184
11
258
21
-184
0
LINE
8
0
10
258
20
-184
11
258
21
-170
0
LINE
8
0
10
258
20
-170
11
244
21
-170
0
LINE
8
0
10
244
20
-170
11
244
21
-184
0
LINE
8
0
10
244
20
-165
11
258
21
-165
0
LINE
8
0
10
258
20
-165
11
258
21
-151
0
LINE
8
0
10
258
20
-151
11
244
21
-151
0
LINE
8
0
10
244
20
-151
11
244
21
-165
0
LINE
8
0
10
244
20
-146
11
258
21
-146
0
LINE
8
0
10
258
20
-146
11
258
21
-132
0
LINE
8
0
10
258
20
-132
11
244
21
-132
0
LINE
8
0
10
244
20
-132
11
244
21
-146
0
LINE
8
0
10
244
20
-127
11
258
21
-127
0
LINE
8
0
10
258
20
-127
11
258
21
-113
0
LINE
8
0
10
258
20
-113
11
244
21
-113
0
LINE
8
0
10
244
20
-113
11
244
21
-127
0
ENDSEC
0
EOF