0
SECTION
2
HEADER
9
$INSUNITS
70
4
0
ENDSEC
0
SECTION
2
TABLES
0
TABLE
2
LTYPE
0
LTYPE
72
65
70
64
2
CONTINUOUS
3
______
73
0
40
0
0
ENDTAB
0
TABLE
2
LAYER
0
ENDTAB
0
ENDSEC
0
SECTION
2
ENTITIES
0
LINE
8
0
10
262.5
20
-187.7
11
262.5
21
-109.3
0
LINE
8
0
10
164.3
20
-188.5
11
261.7
21
-188.5
0
LINE
8
0
10
163.5
20
-187.7
11
163.5
21
-107.3
0
ARC
8
0
10
261.7
20
-187.7
40
0.8
50
270
51
0
0
ARC
8
0
10
164.3
20
-187.7
40
0.8
50
180
51
270
0
LINE
8
0
10
181.7
20
-106.5
11
164.3
21
-106.5
0
LINE
8
0
10
200.7
20
-101.5
11
183.3
21
-101.5
0
LINE
8
0
10
182.5
20
-102.3
11
182.5
21
-105.7
0
LINE
8
0
10
224.5
20
-105.7
11
224.5
21
-99.3
0
LINE
8
0
10
223.7
20
-98.5
11
202.3
21
-98.5
0
LINE
8
0
10
201.5
20
-99.3
11
201.5
21
-100.7
0
LINE
8
0
10
243.5
20
-107.7
11
243.5
21
-107.3
0
LINE
8
0
10
242.7
20
-106.5
11
225.3
21
-106.5
0
LINE
8
0
10
261.7
20
-108.5
11
244.3
21
-108.5
0
ARC
8
0
10
261.7
20
-109.3
40
0.8
50
0
51
90
0
ARC
8
0
10
244.3
20
-107.7
40
0.8
50
180
51
270
0
ARC
8
0
10
242.7
20
-107.3
40
0.8
50
0
51
90
0
ARC
8
0
10
225.3
20
-105.7
40
0.8
50
180
51
270
0
ARC
8
0
10
223.7
20
-99.3
40
0.8
50
0
51
90
0
ARC
8
0
10
202.3
20
-99.3
40
0.8
50
90
51
180
0
ARC
8
0
10
200.7
20
-100.7
40
0.8
50
270
51
0
0
ARC
8
0
10
183.3
20
-102.3
40
0.8
50
90
51
180
0
ARC
8
0
10
181.7
20
-105.7
40
0.8
50
270
51
0
0
ARC
8
0
10
164.3
20
-107.3
40
0.8
50
90
51
180
0
LINE
8
0
10
165.75
20
-165.25
11
184.25
21
-165.25
0
LINE
8
0
10
184.25
20
-165.25
11
184.25
21
-146.75
0
LINE
8
0
10
184.25
20
-146.75
11
165.75
21
-146.75
0
LINE
8
0
10
165.75
20
-146.75
11
165.75
21
-165.25
0
LINE
8
0
10
165.75
20
-146.25
11
184.25
21
-146.25
0
LINE
8
0
10
184.25
20
-146.25
11
184.25
21
-127.75
0
LINE
8
0
10
184.25
20
-127.75
11
165.75
21
-127.75
0
LINE
8
0
10
165.75
20
-127.75
11
165.75
21
-146.25
0
LINE
8
0
10
165.75
20
-127.25
11
184.25
21
-127.25
0
LINE
8
0
10
184.25
20
-127.25
11
184.25
21
-108.75
0
LINE
8
0
10
184.25
20
-108.75
11
165.75
21
-108.75
0
LINE
8
0
10
165.75
20
-108.75
11
165.75
21
-127.25
0
LINE
8
0
10
184.75
20
-160.25
11
203.25
21
-160.25
0
LINE
8
0
10
203.25
20
-160.25
11
203.25
21
-141.75
0
LINE
8
0
10
203.25
20
-141.75
11
184.75
21
-141.75
0
LINE
8
0
10
184.75
20
-141.75
11
184.75
21
-160.25
0
LINE
8
0
10
184.75
20
-141.25
11
203.25
21
-141.25
0
LINE
8
0
10
203.25
20
-141.25
11
203.25
21
-122.75
0
LINE
8
0
10
203.25
20
-122.75
11
184.75
21
-122.75
0
LINE
8
0
10
184.75
20
-122.75
11
184.75
21
-141.25
0
LINE
8
0
10
184.75
20
-122.25
11
203.25
21
-122.25
0
LINE
8
0
10
203.25
20
-122.25
11
203.25
21
-103.75
0
LINE
8
0
10
203.25
20
-103.75
11
184.75
21
-103.75
0
LINE
8
0
10
184.75
20
-103.75
11
184.75
21
-122.25
0
LINE
8
0
10
203.75
20
-157.25
11
222.25
21
-157.25
0
LINE
8
0
10
222.25
20
-157.25
11
222.25
21
-138.75
0
LINE
8
0
10
222.25
20
-138.75
11
203.75
21
-138.75
0
LINE
8
0
10
203.75
20
-138.75
11
203.75
21
-157.25
0
LINE
8
0
10
203.75
20
-138.25
11
222.25
21
-138.25
0
LINE
8
0
10
222.25
20
-138.25
11
222.25
21
-119.75
0
LINE
8
0
10
222.25
20
-119.75
11
203.75
21
-119.75
0
LINE
8
0
10
203.75
20
-119.75
11
203.75
21
-138.25
0
LINE
8
0
10
203.75
20
-119.25
11
222.25
21
-119.25
0
LINE
8
0
10
222.25
20
-119.25
11
222.25
21
-100.75
0
LINE
8
0
10
222.25
20
-100.75
11
203.75
21
-100.75
0
LINE
8
0
10
203.75
20
-100.75
11
203.75
21
-119.25
0
LINE
8
0
10
222.75
20
-184.25
11
241.25
21
-184.25
0
LINE
8
0
10
241.25
20
-184.25
11
241.25
21
-165.75
0
LINE
8
0
10
241.25
20
-165.75
11
222.75
21
-165.75
0
LINE
8
0
10
222.75
20
-165.75
11
222.75
21
-184.25
0
LINE
8
0
10
222.75
20
-165.25
11
241.25
21
-165.25
0
LINE
8
0
10
241.25
20
-165.25
11
241.25
21
-146.75
0
LINE
8
0
10
241.25
20
-146.75
11
222.75
21
-146.75
0
LINE
8
0
10
222.75
20
-146.75
11
222.75
21
-165.25
0
LINE
8
0
10
222.75
20
-146.25
11
241.25
21
-146.25
0
LINE
8
0
10
241.25
20
-146.25
11
241.25
21
-127.75
0
LINE
8
0
10
241.25
20
-127.75
11
222.75
21
-127.75
0
LINE
8
0
10
222.75
20
-127.75
11
222.75
21
-146.25
0
LINE
8
0
10
222.75
20
-127.25
11
241.25
21
-127.25
0
LINE
8
0
10
241.25
20
-127.25
11
241.25
21
-108.75
0
LINE
8
0
10
241.25
20
-108.75
11
222.75
21
-108.75
0
LINE
8
0
10
222.75
20
-108.75
11
222.75
21
-127.25
0
LINE
8
0
10
241.75
20
-186.25
11
260.25
21
-186.25
0
LINE
8
0
10
260.25
20
-186.25
11
260.25
21
-167.75
0
LINE
8
0
10
260.25
20
-167.75
11
241.75
21
-167.75
0
LINE
8
0
10
241.75
20
-167.75
11
241.75
21
-186.25
0
LINE
8
0
10
241.75
20
-167.25
11
260.25
21
-167.25
0
LINE
8
0
10
260.25
20
-167.25
11
260.25
21
-148.75
0
LINE
8
0
10
260.25
20
-148.75
11
241.75
21
-148.75
0
LINE
8
0
10
241.75
20
-148.75
11
241.75
21
-167.25
0
LINE
8
0
10
241.75
20
-148.25
11
260.25
21
-148.25
0
LINE
8
0
10
260.25
20
-148.25
11
260.25
21
-129.75
0
LINE
8
0
10
260.25
20
-129.75
11
241.75
21
-129.75
0
LINE
8
0
10
241.75
20
-129.75
11
241.75
21
-148.25
0
LINE
8
0
10
241.75
20
-129.25
11
260.25
21
-129.25
0
LINE
8
0
10
260.25
20
-129.25
11
260.25
21
-110.75
0
LINE
8
0
10
260.25
20
-110.75
11
241.75
21
-110.75
0
LINE
8
0
10
241.75
20
-110.75
11
241.75
21
-129.25
0
ENDSEC
0
EOF