0
SECTION
2
HEADER
9
$INSUNITS
70
4
0
ENDSEC
0
SECTION
2
TABLES
0
TABLE
2
LTYPE
0
LTYPE
72
65
70
64
2
CONTINUOUS
3
______
73
0
40
0
0
ENDTAB
0
TABLE
2
LAYER
0
ENDTAB
0
ENDSEC
0
SECTION
2
ENTITIES
0
LINE
8
0
10
166.8
20
-166
11
183.2
21
-166
0
LINE
8
0
10
184
20
-165.2
11
184
21
-161.8
0
LINE
8
0
10
166
20
-165.2
11
166
21
-112.8
0
LINE
8
0
10
183.2
20
-112
11
166.8
21
-112
0
LINE
8
0
10
184.8
20
-161
11
201.2
21
-161
0
LINE
8
0
10
202
20
-160.2
11
202
21
-158.8
0
LINE
8
0
10
201.2
20
-107
11
184.8
21
-107
0
LINE
8
0
10
184
20
-107.8
11
184
21
-111.2
0
LINE
8
0
10
202.8
20
-158
11
219.2
21
-158
0
LINE
8
0
10
220
20
-111.2
11
220
21
-104.8
0
LINE
8
0
10
219.2
20
-104
11
202.8
21
-104
0
LINE
8
0
10
202
20
-104.8
11
202
21
-106.2
0
LINE
8
0
10
220.8
20
-184
11
237.2
21
-184
0
LINE
8
0
10
220
20
-183.2
11
220
21
-158.8
0
LINE
8
0
10
238
20
-113.2
11
238
21
-112.8
0
LINE
8
0
10
237.2
20
-112
11
220.8
21
-112
0
LINE
8
0
10
238.8
20
-186
11
255.2
21
-186
0
LINE
8
0
10
256
20
-185.2
11
256
21
-114.8
0
LINE
8
0
10
238
20
-184.8
11
238
21
-185.2
0
LINE
8
0
10
255.2
20
-114
11
238.8
21
-114
0
ARC
8
0
10
183.2
20
-165.2
40
0.8
50
270
51
0
0
ARC
8
0
10
184.8
20
-161.8
40
0.8
50
90
51
180
0
ARC
8
0
10
201.2
20
-160.2
40
0.8
50
270
51
0
0
ARC
8
0
10
202.8
20
-158.8
40
0.8
50
90
51
180
0
ARC
8
0
10
219.2
20
-158.8
40
0.8
50
0
51
90
0
ARC
8
0
10
220.8
20
-183.2
40
0.8
50
180
51
270
0
ARC
8
0
10
237.2
20
-184.8
40
0.8
50
0
51
90
0
ARC
8
0
10
238.8
20
-185.2
40
0.8
50
180
51
270
0
ARC
8
0
10
255.2
20
-185.2
40
0.8
50
270
51
0
0
ARC
8
0
10
255.2
20
-114.8
40
0.8
50
0
51
90
0
ARC
8
0
10
238.8
20
-113.2
40
0.8
50
180
51
270
0
ARC
8
0
10
237.2
20
-112.8
40
0.8
50
0
51
90
0
ARC
8
0
10
220.8
20
-111.2
40
0.8
50
180
51
270
0
ARC
8
0
10
219.2
20
-104.8
40
0.8
50
0
51
90
0
ARC
8
0
10
202.8
20
-104.8
40
0.8
50
90
51
180
0
ARC
8
0
10
201.2
20
-106.2
40
0.8
50
270
51
0
0
ARC
8
0
10
184.8
20
-107.8
40
0.8
50
90
51
180
0
ARC
8
0
10
183.2
20
-111.2
40
0.8
50
270
51
0
0
ARC
8
0
10
166.8
20
-112.8
40
0.8
50
90
51
180
0
ARC
8
0
10
166.8
20
-165.2
40
0.8
50
180
51
270
0
ENDSEC
0
EOF