0
SECTION
2
HEADER
9
$INSUNITS
70
4
0
ENDSEC
0
SECTION
2
TABLES
0
TABLE
2
LTYPE
0
LTYPE
72
65
70
64
2
CONTINUOUS
3
______
73
0
40
0
0
ENDTAB
0
TABLE
2
LAYER
0
ENDTAB
0
ENDSEC
0
SECTION
2
ENTITIES
0
LINE
8
0
10
164.8
20
-168
11
185.2
21
-168
0
LINE
8
0
10
186
20
-167.2
11
186
21
-163.8
0
LINE
8
0
10
164
20
-167.2
11
164
21
-110.8
0
LINE
8
0
10
181.2
20
-110
11
164.8
21
-110
0
LINE
8
0
10
186.8
20
-163
11
203.2
21
-163
0
LINE
8
0
10
204
20
-162.2
11
204
21
-160.8
0
LINE
8
0
10
199.2
20
-105
11
182.8
21
-105
0
LINE
8
0
10
182
20
-105.8
11
182
21
-109.2
0
LINE
8
0
10
204.8
20
-160
11
217.2
21
-160
0
LINE
8
0
10
222
20
-109.2
11
222
21
-102.8
0
LINE
8
0
10
221.2
20
-102
11
200.8
21
-102
0
LINE
8
0
10
200
20
-102.8
11
200
21
-104.2
0
LINE
8
0
10
218.8
20
-186
11
235.2
21
-186
0
LINE
8
0
10
218
20
-185.2
11
218
21
-160.8
0
LINE
8
0
10
240
20
-111.2
11
240
21
-110.8
0
LINE
8
0
10
239.2
20
-110
11
222.8
21
-110
0
LINE
8
0
10
236.8
20
-188
11
257.2
21
-188
0
LINE
8
0
10
258
20
-187.2
11
258
21
-112.8
0
LINE
8
0
10
236
20
-186.8
11
236
21
-187.2
0
LINE
8
0
10
257.2
20
-112
11
240.8
21
-112
0
ARC
8
0
10
185.2
20
-167.2
40
0.8
50
270
51
0
0
ARC
8
0
10
186.8
20
-163.8
40
0.8
50
90
51
180
0
ARC
8
0
10
203.2
20
-162.2
40
0.8
50
270
51
0
0
ARC
8
0
10
204.8
20
-160.8
40
0.8
50
90
51
180
0
ARC
8
0
10
217.2
20
-160.8
40
0.8
50
0
51
90
0
ARC
8
0
10
218.8
20
-185.2
40
0.8
50
180
51
270
0
ARC
8
0
10
235.2
20
-186.8
40
0.8
50
0
51
90
0
ARC
8
0
10
236.8
20
-187.2
40
0.8
50
180
51
270
0
ARC
8
0
10
257.2
20
-187.2
40
0.8
50
270
51
0
0
ARC
8
0
10
257.2
20
-112.8
40
0.8
50
0
51
90
0
ARC
8
0
10
240.8
20
-111.2
40
0.8
50
180
51
270
0
ARC
8
0
10
239.2
20
-110.8
40
0.8
50
0
51
90
0
ARC
8
0
10
222.8
20
-109.2
40
0.8
50
180
51
270
0
ARC
8
0
10
221.2
20
-102.8
40
0.8
50
0
51
90
0
ARC
8
0
10
200.8
20
-102.8
40
0.8
50
90
51
180
0
ARC
8
0
10
199.2
20
-104.2
40
0.8
50
270
51
0
0
ARC
8
0
10
182.8
20
-105.8
40
0.8
50
90
51
180
0
ARC
8
0
10
181.2
20
-109.2
40
0.8
50
270
51
0
0
ARC
8
0
10
164.8
20
-110.8
40
0.8
50
90
51
180
0
ARC
8
0
10
164.8
20
-167.2
40
0.8
50
180
51
270
0
ENDSEC
0
EOF