0
SECTION
2
HEADER
9
$INSUNITS
70
4
0
ENDSEC
0
SECTION
2
TABLES
0
TABLE
2
LTYPE
0
LTYPE
72
65
70
64
2
CONTINUOUS
3
______
73
0
40
0
0
ENDTAB
0
TABLE
2
LAYER
0
ENDTAB
0
ENDSEC
0
SECTION
2
ENTITIES
0
LINE
8
0
10
164.8
20
-168.5
11
185.2
21
-168.5
0
LINE
8
0
10
186
20
-167.7
11
186
21
-164.3
0
LINE
8
0
10
164
20
-167.7
11
164
21
-114.3
0
LINE
8
0
10
181.2
20
-113.5
11
164.8
21
-113.5
0
LINE
8
0
10
186.8
20
-163.5
11
203.2
21
-163.5
0
LINE
8
0
10
204
20
-162.7
11
204
21
-161.3
0
LINE
8
0
10
199.2
20
-108.5
11
182.8
21
-108.5
0
LINE
8
0
10
182
20
-109.3
11
182
21
-112.7
0
LINE
8
0
10
204.8
20
-160.5
11
217.2
21
-160.5
0
LINE
8
0
10
222
20
-112.7
11
222
21
-106.3
0
LINE
8
0
10
221.2
20
-105.5
11
200.8
21
-105.5
0
LINE
8
0
10
200
20
-106.3
11
200
21
-107.7
0
LINE
8
0
10
218.8
20
-185.5
11
235.2
21
-185.5
0
LINE
8
0
10
218
20
-184.7
11
218
21
-161.3
0
LINE
8
0
10
240
20
-114.7
11
240
21
-114.3
0
LINE
8
0
10
239.2
20
-113.5
11
222.8
21
-113.5
0
LINE
8
0
10
236.8
20
-187.5
11
257.2
21
-187.5
0
LINE
8
0
10
258
20
-186.7
11
258
21
-116.3
0
LINE
8
0
10
236
20
-186.3
11
236
21
-186.7
0
LINE
8
0
10
257.2
20
-115.5
11
240.8
21
-115.5
0
ARC
8
0
10
185.2
20
-167.7
40
0.8
50
270
51
0
0
ARC
8
0
10
186.8
20
-164.3
40
0.8
50
90
51
180
0
ARC
8
0
10
203.2
20
-162.7
40
0.8
50
270
51
0
0
ARC
8
0
10
204.8
20
-161.3
40
0.8
50
90
51
180
0
ARC
8
0
10
217.2
20
-161.3
40
0.8
50
0
51
90
0
ARC
8
0
10
218.8
20
-184.7
40
0.8
50
180
51
270
0
ARC
8
0
10
235.2
20
-186.3
40
0.8
50
0
51
90
0
ARC
8
0
10
236.8
20
-186.7
40
0.8
50
180
51
270
0
ARC
8
0
10
257.2
20
-186.7
40
0.8
50
270
51
0
0
ARC
8
0
10
257.2
20
-116.3
40
0.8
50
0
51
90
0
ARC
8
0
10
240.8
20
-114.7
40
0.8
50
180
51
270
0
ARC
8
0
10
239.2
20
-114.3
40
0.8
50
0
51
90
0
ARC
8
0
10
222.8
20
-112.7
40
0.8
50
180
51
270
0
ARC
8
0
10
221.2
20
-106.3
40
0.8
50
0
51
90
0
ARC
8
0
10
200.8
20
-106.3
40
0.8
50
90
51
180
0
ARC
8
0
10
199.2
20
-107.7
40
0.8
50
270
51
0
0
ARC
8
0
10
182.8
20
-109.3
40
0.8
50
90
51
180
0
ARC
8
0
10
181.2
20
-112.7
40
0.8
50
270
51
0
0
ARC
8
0
10
164.8
20
-114.3
40
0.8
50
90
51
180
0
ARC
8
0
10
164.8
20
-167.7
40
0.8
50
180
51
270
0
ENDSEC
0
EOF