0
SECTION
2
HEADER
9
$INSUNITS
70
4
0
ENDSEC
0
SECTION
2
TABLES
0
TABLE
2
LTYPE
0
LTYPE
72
65
70
64
2
CONTINUOUS
3
______
73
0
40
0
0
ENDTAB
0
TABLE
2
LAYER
0
ENDTAB
0
ENDSEC
0
SECTION
2
ENTITIES
0
LINE
8
0
10
164.3
20
-167.5
11
185.7
21
-167.5
0
LINE
8
0
10
186.5
20
-166.7
11
186.5
21
-163.3
0
LINE
8
0
10
163.5
20
-166.7
11
163.5
21
-107.3
0
LINE
8
0
10
181.7
20
-106.5
11
164.3
21
-106.5
0
LINE
8
0
10
187.3
20
-162.5
11
204.7
21
-162.5
0
LINE
8
0
10
205.5
20
-161.7
11
205.5
21
-160.3
0
LINE
8
0
10
200.7
20
-101.5
11
183.3
21
-101.5
0
LINE
8
0
10
182.5
20
-102.3
11
182.5
21
-105.7
0
LINE
8
0
10
206.3
20
-159.5
11
219.7
21
-159.5
0
LINE
8
0
10
224.5
20
-105.7
11
224.5
21
-99.3
0
LINE
8
0
10
223.7
20
-98.5
11
202.3
21
-98.5
0
LINE
8
0
10
201.5
20
-99.3
11
201.5
21
-100.7
0
LINE
8
0
10
221.3
20
-186.5
11
238.7
21
-186.5
0
LINE
8
0
10
220.5
20
-185.7
11
220.5
21
-160.3
0
LINE
8
0
10
243.5
20
-107.7
11
243.5
21
-107.3
0
LINE
8
0
10
242.7
20
-106.5
11
225.3
21
-106.5
0
LINE
8
0
10
240.3
20
-188.5
11
261.7
21
-188.5
0
LINE
8
0
10
262.5
20
-187.7
11
262.5
21
-109.3
0
LINE
8
0
10
239.5
20
-187.3
11
239.5
21
-187.7
0
LINE
8
0
10
261.7
20
-108.5
11
244.3
21
-108.5
0
ARC
8
0
10
185.7
20
-166.7
40
0.8
50
270
51
0
0
ARC
8
0
10
187.3
20
-163.3
40
0.8
50
90
51
180
0
ARC
8
0
10
204.7
20
-161.7
40
0.8
50
270
51
0
0
ARC
8
0
10
206.3
20
-160.3
40
0.8
50
90
51
180
0
ARC
8
0
10
219.7
20
-160.3
40
0.8
50
0
51
90
0
ARC
8
0
10
221.3
20
-185.7
40
0.8
50
180
51
270
0
ARC
8
0
10
238.7
20
-187.3
40
0.8
50
0
51
90
0
ARC
8
0
10
240.3
20
-187.7
40
0.8
50
180
51
270
0
ARC
8
0
10
261.7
20
-187.7
40
0.8
50
270
51
0
0
ARC
8
0
10
261.7
20
-109.3
40
0.8
50
0
51
90
0
ARC
8
0
10
244.3
20
-107.7
40
0.8
50
180
51
270
0
ARC
8
0
10
242.7
20
-107.3
40
0.8
50
0
51
90
0
ARC
8
0
10
225.3
20
-105.7
40
0.8
50
180
51
270
0
ARC
8
0
10
223.7
20
-99.3
40
0.8
50
0
51
90
0
ARC
8
0
10
202.3
20
-99.3
40
0.8
50
90
51
180
0
ARC
8
0
10
200.7
20
-100.7
40
0.8
50
270
51
0
0
ARC
8
0
10
183.3
20
-102.3
40
0.8
50
90
51
180
0
ARC
8
0
10
181.7
20
-105.7
40
0.8
50
270
51
0
0
ARC
8
0
10
164.3
20
-107.3
40
0.8
50
90
51
180
0
ARC
8
0
10
164.3
20
-166.7
40
0.8
50
180
51
270
0
ENDSEC
0
EOF