0
SECTION
2
HEADER
9
$INSUNITS
70
4
0
ENDSEC
0
SECTION
2
TABLES
0
TABLE
2
LTYPE
0
LTYPE
72
65
70
64
2
CONTINUOUS
3
______
73
0
40
0
0
ENDTAB
0
TABLE
2
LAYER
0
ENDTAB
0
ENDSEC
0
SECTION
2
ENTITIES
0
LINE
8
0
10
166
20
-168.5
11
184
21
-168.5
0
LINE
8
0
10
186
20
-166.5
11
186
21
-165.5
0
LINE
8
0
10
164
20
-166.5
11
164
21
-115.5
0
LINE
8
0
10
180
20
-113.5
11
166
21
-113.5
0
LINE
8
0
10
188
20
-163.5
11
202
21
-163.5
0
LINE
8
0
10
204
20
-161.5
11
204
21
-160.5
0
LINE
8
0
10
200
20
-108.5
11
184
21
-108.5
0
LINE
8
0
10
182
20
-110.5
11
182
21
-111.5
0
LINE
8
0
10
204
20
-160.5
11
216
21
-160.5
0
LINE
8
0
10
222
20
-111.5
11
222
21
-107.5
0
LINE
8
0
10
220
20
-105.5
11
202
21
-105.5
0
LINE
8
0
10
200
20
-107.5
11
200
21
-108.5
0
LINE
8
0
10
220
20
-185.5
11
236
21
-185.5
0
LINE
8
0
10
218
20
-183.5
11
218
21
-162.5
0
LINE
8
0
10
240
20
-115.5
11
240
21
-113.5
0
LINE
8
0
10
240
20
-113.5
11
224
21
-113.5
0
LINE
8
0
10
236
20
-187.5
11
256
21
-187.5
0
LINE
8
0
10
258
20
-185.5
11
258
21
-117.5
0
LINE
8
0
10
236
20
-185.5
11
236
21
-187.5
0
LINE
8
0
10
256
20
-115.5
11
240
21
-115.5
0
ARC
8
0
10
184
20
-166.5
40
2
50
270
51
0
0
ARC
8
0
10
188
20
-165.5
40
2
50
90
51
180
0
ARC
8
0
10
202
20
-161.5
40
2
50
270
51
0
0
ARC
8
0
10
216
20
-162.5
40
2
50
0
51
90
0
ARC
8
0
10
220
20
-183.5
40
2
50
180
51
270
0
ARC
8
0
10
256
20
-185.5
40
2
50
270
51
0
0
ARC
8
0
10
256
20
-117.5
40
2
50
0
51
90
0
ARC
8
0
10
224
20
-111.5
40
2
50
180
51
270
0
ARC
8
0
10
220
20
-107.5
40
2
50
0
51
90
0
ARC
8
0
10
202
20
-107.5
40
2
50
90
51
180
0
ARC
8
0
10
184
20
-110.5
40
2
50
90
51
180
0
ARC
8
0
10
180
20
-111.5
40
2
50
270
51
0
0
ARC
8
0
10
166
20
-115.5
40
2
50
90
51
180
0
ARC
8
0
10
166
20
-166.5
40
2
50
180
51
270
0
ENDSEC
0
EOF