M48
; DRILL file {KiCad 8.0.4} date 2024-08-16T23:39:41+0800
; FORMAT={-:-/ absolute / inch / decimal}
; #@! TF.CreationDate,2024-08-16T23:39:41+08:00
; #@! TF.GenerationSoftware,Kicad,Pcbnew,8.0.4
; #@! TF.FileFunction,Plated,1,2,PTH
FMAT,2
INCH
; #@! TA.AperFunction,Plated,PTH,ComponentDrill
T1C0.0157
; #@! TA.AperFunction,Plated,PTH,ComponentDrill
T2C0.0295
; #@! TA.AperFunction,Plated,PTH,ComponentDrill
T3C0.0390
; #@! TA.AperFunction,Plated,PTH,ComponentDrill
T4C0.0394
; #@! TA.AperFunction,Plated,PTH,ComponentDrill
T5C0.0492
; #@! TA.AperFunction,Plated,PTH,ComponentDrill
T6C0.0512
; #@! TA.AperFunction,Plated,PTH,ComponentDrill
T7C0.1181
; #@! TA.AperFunction,Plated,PTH,ComponentDrill
T8C0.2008
%
G90
G05
T1
X6.685Y-6.8327
X6.685Y-7.1004
X6.785Y-6.8327
X6.785Y-7.1004
X6.885Y-6.8327
X6.885Y-7.1004
X6.985Y-6.8327
X6.985Y-7.1004
X7.085Y-6.8327
X7.085Y-7.1004
X7.185Y-6.8327
X7.185Y-7.1004
X7.285Y-6.8327
X7.285Y-7.1004
X7.385Y-6.8327
X7.385Y-7.1004
X7.485Y-6.8327
X7.485Y-7.1004
X7.585Y-6.8327
X7.585Y-7.1004
X7.685Y-6.8327
X7.685Y-7.1004
X7.785Y-6.8327
X7.785Y-7.1004
T2
X8.4252Y-6.3327
X8.5039Y-6.3327
T3
X7.1654Y-4.4858
X7.1654Y-4.7858
X7.1654Y-5.1945
X7.1654Y-5.4945
X7.1654Y-5.9031
X7.1654Y-6.2031
X7.874Y-4.289
X7.874Y-4.589
X7.874Y-4.9976
X7.874Y-5.2976
X7.874Y-5.7063
X7.874Y-6.0063
X8.5827Y-4.1709
X8.5827Y-4.4709
X8.5827Y-4.8795
X8.5827Y-5.1795
X8.5827Y-5.5882
X8.5827Y-5.8882
X9.2913Y-4.4858
X9.2913Y-4.7858
X9.2913Y-5.1945
X9.2913Y-5.4945
X9.2913Y-5.9031
X9.2913Y-6.2031
X9.2913Y-6.6118
X9.2913Y-6.9118
X10.0Y-4.5646
X10.0Y-4.8646
X10.0Y-5.2732
X10.0Y-5.5732
X10.0Y-5.9819
X10.0Y-6.2819
X10.0Y-6.6906
X10.0Y-6.9906
T4
X6.685Y-6.6665
X6.685Y-7.2665
X6.785Y-6.6665
X6.785Y-7.2665
X6.885Y-6.6665
X6.885Y-7.2665
X6.985Y-6.6665
X6.985Y-7.2665
X7.085Y-6.6665
X7.085Y-7.2665
X7.185Y-6.6665
X7.185Y-7.2665
X7.285Y-6.6665
X7.285Y-7.2665
X7.385Y-6.6665
X7.385Y-7.2665
X7.485Y-6.6665
X7.485Y-7.2665
X7.585Y-6.6665
X7.585Y-7.2665
X7.685Y-6.6665
X7.685Y-7.2665
X7.785Y-6.6665
X7.785Y-7.2665
T5
X6.7165Y-4.5787
X6.7165Y-5.2874
X6.7165Y-5.9961
X6.7874Y-4.5374
X6.7874Y-5.2461
X6.7874Y-5.9547
X6.9921Y-4.5374
X6.9921Y-5.2461
X6.9921Y-5.9547
X7.063Y-4.5787
X7.063Y-5.2874
X7.063Y-5.9961
X7.4252Y-4.3819
X7.4252Y-5.0906
X7.4252Y-5.7992
X7.4961Y-4.3406
X7.4961Y-5.0492
X7.4961Y-5.7579
X7.7008Y-4.3406
X7.7008Y-5.0492
X7.7008Y-5.7579
X7.7717Y-4.3819
X7.7717Y-5.0906
X7.7717Y-5.7992
X8.1339Y-4.2638
X8.1339Y-4.9724
X8.1339Y-5.6811
X8.2047Y-4.2224
X8.2047Y-4.9311
X8.2047Y-5.6398
X8.4094Y-4.2224
X8.4094Y-4.9311
X8.4094Y-5.6398
X8.4803Y-4.2638
X8.4803Y-4.9724
X8.4803Y-5.6811
X8.8425Y-4.5787
X8.8425Y-5.2874
X8.8425Y-5.9961
X8.8425Y-6.7047
X8.9134Y-4.5374
X8.9134Y-5.2461
X8.9134Y-5.9547
X8.9134Y-6.6634
X9.1181Y-4.5374
X9.1181Y-5.2461
X9.1181Y-5.9547
X9.1181Y-6.6634
X9.189Y-4.5787
X9.189Y-5.2874
X9.189Y-5.9961
X9.189Y-6.7047
X9.5512Y-4.6575
X9.5512Y-5.3661
X9.5512Y-6.0748
X9.5512Y-6.7835
X9.622Y-4.6161
X9.622Y-5.3248
X9.622Y-6.0335
X9.622Y-6.7421
X9.8268Y-4.6161
X9.8268Y-5.3248
X9.8268Y-6.0335
X9.8268Y-6.7421
X9.8976Y-4.6575
X9.8976Y-5.3661
X9.8976Y-6.0748
X9.8976Y-6.7835
T6
X7.4705Y-6.4705
X7.7264Y-6.4705
T7
X6.7165Y-4.9488
X6.7165Y-5.6575
X6.7165Y-6.3661
X6.7874Y-4.9902
X6.7874Y-5.6988
X6.7874Y-6.4075
X6.9921Y-4.9902
X6.9921Y-5.6988
X6.9921Y-6.4075
X7.063Y-4.9488
X7.063Y-5.6575
X7.063Y-6.3661
X7.4252Y-4.752
X7.4252Y-5.4606
X7.4252Y-6.1693
X7.4961Y-4.7933
X7.4961Y-5.502
X7.4961Y-6.2106
X7.7008Y-4.7933
X7.7008Y-5.502
X7.7008Y-6.2106
X7.7717Y-4.752
X7.7717Y-5.4606
X7.7717Y-6.1693
X8.1339Y-4.6339
X8.1339Y-5.3425
X8.1339Y-6.0512
X8.2047Y-4.6752
X8.2047Y-5.3839
X8.2047Y-6.0925
X8.4094Y-4.6752
X8.4094Y-5.3839
X8.4094Y-6.0925
X8.4803Y-4.6339
X8.4803Y-5.3425
X8.4803Y-6.0512
X8.8425Y-4.9488
X8.8425Y-5.6575
X8.8425Y-6.3661
X8.8425Y-7.0748
X8.9134Y-4.9902
X8.9134Y-5.6988
X8.9134Y-6.4075
X8.9134Y-7.1161
X9.1181Y-4.9902
X9.1181Y-5.6988
X9.1181Y-6.4075
X9.1181Y-7.1161
X9.189Y-4.9488
X9.189Y-5.6575
X9.189Y-6.3661
X9.189Y-7.0748
X9.5512Y-5.0276
X9.5512Y-5.7362
X9.5512Y-6.4449
X9.5512Y-7.1535
X9.622Y-5.0689
X9.622Y-5.7776
X9.622Y-6.4862
X9.622Y-7.1949
X9.8268Y-5.0689
X9.8268Y-5.7776
X9.8268Y-6.4862
X9.8268Y-7.1949
X9.8976Y-5.0276
X9.8976Y-5.7362
X9.8976Y-6.4449
X9.8976Y-7.1535
T8
X6.8898Y-4.7638
X6.8898Y-5.4724
X6.8898Y-6.1811
X7.5984Y-4.5669
X7.5984Y-5.2756
X7.5984Y-5.9843
X8.3071Y-4.4488
X8.3071Y-5.1575
X8.3071Y-5.8661
X9.0157Y-4.7638
X9.0157Y-5.4724
X9.0157Y-6.1811
X9.0157Y-6.8898
X9.7244Y-4.8425
X9.7244Y-5.5512
X9.7244Y-6.2598
X9.7244Y-6.9685
M30
